{
  "title" : "",
  "description" : "",
  "author" : "",
  "targetLoudness" : -18.0,
  "shouldApplyLoudnessNormalization" : false,
  "videoPlaybackRate" : 30,
  "audioPlaybackRate" : 44100,
  "width" : 1280.0,
  "height" : 720.0,
  "version" : "3.0",
  "editRate" : 30,
  "authoringClientName" :  {
    "name" : "Camtasia",
    "platform" : "Windows",
    "version" : "19.0"
  },
  "sourceBin" : [
    {
      "id" : 1,
      "src" : "D:\\Data Files\\Udemy\\Instructor\\Codestars\\Course-Prep-Splash\\Camtasia9TemplateWindows\\codestars_logo.png",
      "rect" : [0, 0, 1061, 168],
      "lastMod" : "20200128T043621",
      "sourceTracks" : [
        {
          "range" : [0, 1],
          "type" : 1,
          "editRate" : 10000000,
          "trackRect" : [0, 0, 1061, 168],
          "sampleRate" : 0,
          "bitDepth" : 32,
          "numChannels" : 0,
          "integratedLUFS" : 100.0,
          "peakLevel" : -1.0,
          "metaData" : ""
        }
      ]
    },
    {
      "id" : 2,
      "src" : "D:\\Data Files\\Udemy\\Instructor\\Codestars\\Course-Prep-Splash\\Camtasia9TemplateWindows\\star.png",
      "rect" : [0, 0, 199, 206],
      "lastMod" : "20200128T043621",
      "sourceTracks" : [
        {
          "range" : [0, 1],
          "type" : 1,
          "editRate" : 10000000,
          "trackRect" : [0, 0, 199, 206],
          "sampleRate" : 0,
          "bitDepth" : 32,
          "numChannels" : 0,
          "integratedLUFS" : 100.0,
          "peakLevel" : -1.0,
          "metaData" : ""
        }
      ]
    },
    {
      "id" : 3,
      "src" : "D:\\Data Files\\Udemy\\Instructor\\Codestars\\Course-Prep-Splash\\Camtasia-JPB-CPP\\Splash_Android.png",
      "rect" : [0, 0, 1920, 1080],
      "lastMod" : "20200201T225340",
      "sourceTracks" : [
        {
          "range" : [0, 1],
          "type" : 1,
          "editRate" : 10000000,
          "trackRect" : [0, 0, 1920, 1080],
          "sampleRate" : 0,
          "bitDepth" : 32,
          "numChannels" : 0,
          "integratedLUFS" : 100.0,
          "peakLevel" : -1.0,
          "metaData" : ""
        }
      ]
    },
    {
      "id" : 4,
      "src" : "C:\\Users\\profj\\Desktop\\Udemy\\Codestars\\CPP\\videos\\Course-Prep-Splash\\JPB-Images\\PNG\\Head.png",
      "rect" : [0, 0, 721, 1024],
      "lastMod" : "20200203T062252",
      "sourceTracks" : [
        {
          "range" : [0, 1],
          "type" : 1,
          "editRate" : 10000000,
          "trackRect" : [0, 0, 721, 1024],
          "sampleRate" : 0,
          "bitDepth" : 32,
          "numChannels" : 0,
          "integratedLUFS" : 100.0,
          "peakLevel" : -1.0,
          "metaData" : ""
        }
      ]
    },
    {
      "id" : 5,
      "src" : "C:\\Users\\profj\\Documents\\Camtasia\\Rec 03-04-20.trec",
      "rect" : [0, 0, 1920, 1080],
      "lastMod" : "20200304T065124",
      "sourceTracks" : [
        {
          "range" : [0, 16024],
          "type" : 0,
          "editRate" : 30,
          "trackRect" : [0, 0, 1920, 1080],
          "sampleRate" : 29,
          "bitDepth" : 0,
          "numChannels" : 0,
          "integratedLUFS" : 100.0,
          "peakLevel" : -1.0,
          "metaData" : "Rec 03-04-20.trec;"
        },
        {
          "range" : [0, 23550976],
          "type" : 2,
          "editRate" : 44100,
          "trackRect" : [0, 0, 0, 0],
          "sampleRate" : 44100,
          "bitDepth" : 16,
          "numChannels" : 2,
          "integratedLUFS" : -27.7494306084421,
          "peakLevel" : 1.0,
          "metaData" : ""
        },
        {
          "range" : [0, 23556096],
          "type" : 2,
          "editRate" : 44100,
          "trackRect" : [0, 0, 0, 0],
          "sampleRate" : 44100,
          "bitDepth" : 16,
          "numChannels" : 2,
          "integratedLUFS" : -1.79769313486232e+308,
          "peakLevel" : 0.0,
          "metaData" : ""
        }
      ]
    },
    {
      "id" : 6,
      "src" : "C:\\Users\\profj\\Documents\\Camtasia\\Rec 03-04-20_002.trec",
      "rect" : [0, 0, 1920, 1080],
      "lastMod" : "20200304T070734",
      "sourceTracks" : [
        {
          "range" : [0, 19103],
          "type" : 0,
          "editRate" : 30,
          "trackRect" : [0, 0, 1920, 1080],
          "sampleRate" : 29,
          "bitDepth" : 0,
          "numChannels" : 0,
          "integratedLUFS" : 100.0,
          "peakLevel" : -1.0,
          "metaData" : "Rec 03-04-20_002.trec;"
        },
        {
          "range" : [0, 28070912],
          "type" : 2,
          "editRate" : 44100,
          "trackRect" : [0, 0, 0, 0],
          "sampleRate" : 44100,
          "bitDepth" : 16,
          "numChannels" : 2,
          "integratedLUFS" : -30.4294800126967,
          "peakLevel" : 1.0,
          "metaData" : ""
        },
        {
          "range" : [0, 28082176],
          "type" : 2,
          "editRate" : 44100,
          "trackRect" : [0, 0, 0, 0],
          "sampleRate" : 44100,
          "bitDepth" : 16,
          "numChannels" : 2,
          "integratedLUFS" : -1.79769313486232e+308,
          "peakLevel" : 0.0,
          "metaData" : ""
        }
      ]
    },
    {
      "id" : 7,
      "src" : "C:\\Users\\profj\\Desktop\\Udemy\\Codestars\\CPP\\videos\\section3\\_intro-bulletpoints\\s3-lec4-repetition-control-statements\\Slide1.PNG",
      "rect" : [0, 0, 1280, 720],
      "lastMod" : "20200304T043719",
      "sourceTracks" : [
        {
          "range" : [0, 1],
          "type" : 1,
          "editRate" : 10000000,
          "trackRect" : [0, 0, 1280, 720],
          "sampleRate" : 0,
          "bitDepth" : 24,
          "numChannels" : 0,
          "integratedLUFS" : 100.0,
          "peakLevel" : -1.0,
          "metaData" : ""
        }
      ]
    }
  ],
  "timeline" : {
    "id" : 8,
    "sceneTrack" : {
      "scenes" : [
        {
          "duration" : 1076.53333333333,
          "title" : "",
          "type" : "",
          "csml" : {
            "tracks" : [
              {
                "trackIndex" : 0,
                "medias" : [
                  {
                    "id" : 9,
                    "_type" : "IMFile",
                    "src" : 3,
                    "trackNumber" : 0,
                    "trimStartSum" : 0,
                    "attributes" : {
                      "ident" : "Splash_Android"
                    },
                    "parameters" : {
                      "translation0" : {
                        "type" : "double",
                        "defaultValue" : 0.00456702366917246,
                        "interp" : "eioe"
                      },
                      "translation1" : {
                        "type" : "double",
                        "defaultValue" : -0.00256895081391425,
                        "interp" : "eioe"
                      },
                      "scale0" : {
                        "type" : "double",
                        "defaultValue" : 0.666671423982989,
                        "interp" : "eioe"
                      },
                      "scale1" : {
                        "type" : "double",
                        "defaultValue" : 0.666671423982989,
                        "interp" : "eioe"
                      }
                    },
                    "effects" : [

                    ],
                    "start" : 32146,
                    "duration" : 150,
                    "mediaStart" : 0,
                    "mediaDuration" : 1,
                    "scalar" : 1,
                    "metadata" : {
                      "WinSubProjectDisplayName" : "",
                      "clipSpeedAttribute" : false,
                      "default-scale" : "0.666667",
                      "effectApplied" : "none"
                    },
                    "animationTracks" : {

                    }
                  }
                ],
                "transitions" : [
                  {
                    "name" : "Fade",
                    "duration" : 30,
                    "trivial" : true,
                    "useAudioPreRoll" : false,
                    "useVisualPreRoll" : true,
                    "rightMedia" : 9
                  },
                  {
                    "name" : "Fade",
                    "duration" : 30,
                    "trivial" : true,
                    "useAudioPreRoll" : false,
                    "useVisualPreRoll" : true,
                    "leftMedia" : 9
                  }
                ]
              },
              {
                "trackIndex" : 1,
                "medias" : [
                  {
                    "id" : 10,
                    "_type" : "IMFile",
                    "src" : 2,
                    "trackNumber" : 0,
                    "trimStartSum" : 0,
                    "attributes" : {
                      "ident" : "star"
                    },
                    "parameters" : {
                      "translation0" : {
                        "type" : "double",
                        "defaultValue" : -522.733906099372,
                        "interp" : "linr"
                      },
                      "translation1" : {
                        "type" : "double",
                        "defaultValue" : -277.438113851611,
                        "interp" : "linr"
                      },
                      "translation2" : {
                        "type" : "double",
                        "defaultValue" : 0.0,
                        "interp" : "linr"
                      },
                      "rotation0" : {
                        "type" : "double",
                        "defaultValue" : 0.0,
                        "interp" : "linr"
                      },
                      "rotation1" : {
                        "type" : "double",
                        "defaultValue" : 0.0,
                        "interp" : "linr"
                      },
                      "rotation2" : {
                        "type" : "double",
                        "defaultValue" : 0.0,
                        "interp" : "linr"
                      },
                      "shear0" : {
                        "type" : "double",
                        "defaultValue" : 0.0,
                        "interp" : "linr"
                      },
                      "shear1" : {
                        "type" : "double",
                        "defaultValue" : 0.0,
                        "interp" : "linr"
                      },
                      "shear2" : {
                        "type" : "double",
                        "defaultValue" : 0.0,
                        "interp" : "linr"
                      },
                      "scale0" : {
                        "type" : "double",
                        "defaultValue" : 0.344059357782636,
                        "interp" : "linr"
                      },
                      "scale1" : {
                        "type" : "double",
                        "defaultValue" : 0.344059357782636,
                        "interp" : "linr"
                      },
                      "scale2" : {
                        "type" : "double",
                        "defaultValue" : 1.0,
                        "interp" : "linr"
                      },
                      "anchor0" : {
                        "type" : "double",
                        "defaultValue" : 0.0,
                        "interp" : "linr"
                      },
                      "anchor1" : {
                        "type" : "double",
                        "defaultValue" : 0.0,
                        "interp" : "linr"
                      },
                      "anchor2" : {
                        "type" : "double",
                        "defaultValue" : 0.0,
                        "interp" : "linr"
                      },
                      "opacity" : {
                        "type" : "double",
                        "defaultValue" : 1.0,
                        "interp" : "linr",
                        "keyframes" : [
                          {
                            "endTime" : 150,
                            "time" : 120,
                            "value" : 0.0,
                            "duration" : 30
                          }
                        ]
                      }
                    },
                    "effects" : [

                    ],
                    "start" : 32146,
                    "duration" : 150,
                    "mediaStart" : 0,
                    "mediaDuration" : 1,
                    "scalar" : 1,
                    "metadata" : {
                      "WinSubProjectDisplayName" : "",
                      "clipSpeedAttribute" : false,
                      "default-opacity" : 0.0,
                      "default-scale" : "1",
                      "effectApplied" : "none"
                    },
                    "animationTracks" : {
                      "visual" : [
                        {
                          "endTime" : 150,
                          "duration" : 30,
                          "range" : [ 120, 30]
                        }
                      ]
                    }
                  }
                ],
                "transitions" : [
                  {
                    "name" : "Fade",
                    "duration" : 30,
                    "trivial" : true,
                    "useAudioPreRoll" : true,
                    "useVisualPreRoll" : true,
                    "rightMedia" : 10
                  },
                  {
                    "name" : "Fade",
                    "duration" : 30,
                    "trivial" : true,
                    "useAudioPreRoll" : true,
                    "useVisualPreRoll" : true,
                    "leftMedia" : 10
                  }
                ]
              },
              {
                "trackIndex" : 2,
                "medias" : [
                  {
                    "id" : 11,
                    "_type" : "IMFile",
                    "src" : 1,
                    "trackNumber" : 0,
                    "trimStartSum" : 0,
                    "attributes" : {
                      "ident" : "codestars_logo"
                    },
                    "parameters" : {
                      "translation0" : {
                        "type" : "double",
                        "defaultValue" : -263.136792317664,
                        "interp" : "linr"
                      },
                      "translation1" : {
                        "type" : "double",
                        "defaultValue" : -271.784183685799,
                        "interp" : "linr"
                      },
                      "translation2" : {
                        "type" : "double",
                        "defaultValue" : 0.0,
                        "interp" : "linr"
                      },
                      "rotation0" : {
                        "type" : "double",
                        "defaultValue" : 0.0,
                        "interp" : "linr"
                      },
                      "rotation1" : {
                        "type" : "double",
                        "defaultValue" : 0.0,
                        "interp" : "linr"
                      },
                      "rotation2" : {
                        "type" : "double",
                        "defaultValue" : 0.0,
                        "interp" : "linr"
                      },
                      "shear0" : {
                        "type" : "double",
                        "defaultValue" : 0.0,
                        "interp" : "linr"
                      },
                      "shear1" : {
                        "type" : "double",
                        "defaultValue" : 0.0,
                        "interp" : "linr"
                      },
                      "shear2" : {
                        "type" : "double",
                        "defaultValue" : 0.0,
                        "interp" : "linr"
                      },
                      "scale0" : {
                        "type" : "double",
                        "defaultValue" : 0.402192662926175,
                        "interp" : "linr"
                      },
                      "scale1" : {
                        "type" : "double",
                        "defaultValue" : 0.402192662926175,
                        "interp" : "linr"
                      },
                      "scale2" : {
                        "type" : "double",
                        "defaultValue" : 1.0,
                        "interp" : "linr"
                      },
                      "anchor0" : {
                        "type" : "double",
                        "defaultValue" : 0.0,
                        "interp" : "linr"
                      },
                      "anchor1" : {
                        "type" : "double",
                        "defaultValue" : 0.0,
                        "interp" : "linr"
                      },
                      "anchor2" : {
                        "type" : "double",
                        "defaultValue" : 0.0,
                        "interp" : "linr"
                      },
                      "opacity" : {
                        "type" : "double",
                        "defaultValue" : 0.0,
                        "interp" : "linr"
                      }
                    },
                    "effects" : [

                    ],
                    "start" : 32146,
                    "duration" : 150,
                    "mediaStart" : 0,
                    "mediaDuration" : 1,
                    "scalar" : 1,
                    "metadata" : {
                      "WinSubProjectDisplayName" : "",
                      "clipSpeedAttribute" : false,
                      "default-scale" : "1",
                      "effectApplied" : "none"
                    },
                    "animationTracks" : {

                    }
                  }
                ],
                "transitions" : [
                  {
                    "name" : "Fade",
                    "duration" : 30,
                    "trivial" : true,
                    "useAudioPreRoll" : true,
                    "useVisualPreRoll" : true,
                    "rightMedia" : 11
                  },
                  {
                    "name" : "Fade",
                    "duration" : 30,
                    "trivial" : true,
                    "useAudioPreRoll" : true,
                    "useVisualPreRoll" : true,
                    "leftMedia" : 11
                  }
                ]
              },
              {
                "trackIndex" : 3,
                "medias" : [
                  {
                    "id" : 12,
                    "_type" : "IMFile",
                    "src" : 3,
                    "trackNumber" : 0,
                    "trimStartSum" : 0,
                    "attributes" : {
                      "ident" : "Splash_Android"
                    },
                    "parameters" : {
                      "translation0" : -0.00456702364154329,
                      "translation1" : -6.87439439981899,
                      "scale0" : 0.666671423982989,
                      "scale1" : 0.666671423982989
                    },
                    "effects" : [

                    ],
                    "start" : 0,
                    "duration" : 150,
                    "mediaStart" : 0,
                    "mediaDuration" : 1,
                    "scalar" : 1,
                    "metadata" : {
                      "WinSubProjectDisplayName" : "",
                      "clipSpeedAttribute" : false,
                      "default-scale" : "0.666667",
                      "default-translation0" : 0.00456702366917246,
                      "default-translation1" : -0.00256895081391425,
                      "effectApplied" : "none"
                    },
                    "animationTracks" : {

                    }
                  },
                  {
                    "id" : 13,
                    "_type" : "IMFile",
                    "src" : 1,
                    "trackNumber" : 0,
                    "trimStartSum" : 0,
                    "attributes" : {
                      "ident" : "codestars_logo"
                    },
                    "parameters" : {
                      "translation0" : {
                        "type" : "double",
                        "defaultValue" : -263.136792317664,
                        "interp" : "linr"
                      },
                      "translation1" : {
                        "type" : "double",
                        "defaultValue" : -271.784183685799,
                        "interp" : "linr"
                      },
                      "translation2" : {
                        "type" : "double",
                        "defaultValue" : 0.0,
                        "interp" : "linr"
                      },
                      "rotation0" : {
                        "type" : "double",
                        "defaultValue" : 0.0,
                        "interp" : "linr"
                      },
                      "rotation1" : {
                        "type" : "double",
                        "defaultValue" : 0.0,
                        "interp" : "linr"
                      },
                      "rotation2" : {
                        "type" : "double",
                        "defaultValue" : 0.0,
                        "interp" : "linr"
                      },
                      "shear0" : {
                        "type" : "double",
                        "defaultValue" : 0.0,
                        "interp" : "linr"
                      },
                      "shear1" : {
                        "type" : "double",
                        "defaultValue" : 0.0,
                        "interp" : "linr"
                      },
                      "shear2" : {
                        "type" : "double",
                        "defaultValue" : 0.0,
                        "interp" : "linr"
                      },
                      "scale0" : {
                        "type" : "double",
                        "defaultValue" : 0.402192662926175,
                        "interp" : "linr"
                      },
                      "scale1" : {
                        "type" : "double",
                        "defaultValue" : 0.402192662926175,
                        "interp" : "linr"
                      },
                      "scale2" : {
                        "type" : "double",
                        "defaultValue" : 1.0,
                        "interp" : "linr"
                      },
                      "anchor0" : {
                        "type" : "double",
                        "defaultValue" : 0.0,
                        "interp" : "linr"
                      },
                      "anchor1" : {
                        "type" : "double",
                        "defaultValue" : 0.0,
                        "interp" : "linr"
                      },
                      "anchor2" : {
                        "type" : "double",
                        "defaultValue" : 0.0,
                        "interp" : "linr"
                      }
                    },
                    "effects" : [

                    ],
                    "start" : 32146,
                    "duration" : 150,
                    "mediaStart" : 0,
                    "mediaDuration" : 1,
                    "scalar" : 1,
                    "metadata" : {
                      "WinSubProjectDisplayName" : "",
                      "clipSpeedAttribute" : false,
                      "default-scale" : "1",
                      "effectApplied" : "none"
                    },
                    "animationTracks" : {

                    }
                  }
                ],
                "transitions" : [
                  {
                    "name" : "Fade",
                    "duration" : 30,
                    "trivial" : true,
                    "useAudioPreRoll" : false,
                    "useVisualPreRoll" : true,
                    "leftMedia" : 12
                  },
                  {
                    "name" : "Fade",
                    "duration" : 30,
                    "trivial" : true,
                    "useAudioPreRoll" : true,
                    "useVisualPreRoll" : true,
                    "rightMedia" : 13
                  },
                  {
                    "name" : "Fade",
                    "duration" : 30,
                    "trivial" : true,
                    "useAudioPreRoll" : true,
                    "useVisualPreRoll" : true,
                    "leftMedia" : 13
                  }
                ]
              },
              {
                "trackIndex" : 4,
                "medias" : [
                  {
                    "id" : 14,
                    "_type" : "IMFile",
                    "src" : 2,
                    "trackNumber" : 0,
                    "trimStartSum" : 0,
                    "attributes" : {
                      "ident" : "star"
                    },
                    "parameters" : {
                      "translation0" : {
                        "type" : "double",
                        "defaultValue" : -640.0,
                        "interp" : "linr",
                        "keyframes" : [
                          {
                            "endTime" : 30,
                            "time" : 0,
                            "value" : -522.733906099372,
                            "duration" : 30
                          }
                        ]
                      },
                      "translation1" : {
                        "type" : "double",
                        "defaultValue" : -0.0,
                        "interp" : "linr",
                        "keyframes" : [
                          {
                            "endTime" : 30,
                            "time" : 0,
                            "value" : -277.438113851611,
                            "duration" : 30
                          }
                        ]
                      },
                      "translation2" : {
                        "type" : "double",
                        "defaultValue" : 0.0,
                        "interp" : "linr"
                      },
                      "rotation0" : {
                        "type" : "double",
                        "defaultValue" : 0.0,
                        "interp" : "linr"
                      },
                      "rotation1" : {
                        "type" : "double",
                        "defaultValue" : 0.0,
                        "interp" : "linr"
                      },
                      "rotation2" : {
                        "type" : "double",
                        "defaultValue" : 6.28318530717959,
                        "interp" : "linr",
                        "keyframes" : [
                          {
                            "endTime" : 30,
                            "time" : 0,
                            "value" : 0.0,
                            "duration" : 30
                          }
                        ]
                      },
                      "shear0" : {
                        "type" : "double",
                        "defaultValue" : 0.0,
                        "interp" : "linr"
                      },
                      "shear1" : {
                        "type" : "double",
                        "defaultValue" : 0.0,
                        "interp" : "linr"
                      },
                      "shear2" : {
                        "type" : "double",
                        "defaultValue" : 0.0,
                        "interp" : "linr"
                      },
                      "scale0" : {
                        "type" : "double",
                        "defaultValue" : 0.0,
                        "interp" : "linr",
                        "keyframes" : [
                          {
                            "endTime" : 30,
                            "time" : 0,
                            "value" : 0.344059357782636,
                            "duration" : 30
                          }
                        ]
                      },
                      "scale1" : {
                        "type" : "double",
                        "defaultValue" : 0.0,
                        "interp" : "linr",
                        "keyframes" : [
                          {
                            "endTime" : 30,
                            "time" : 0,
                            "value" : 0.344059357782636,
                            "duration" : 30
                          }
                        ]
                      },
                      "scale2" : {
                        "type" : "double",
                        "defaultValue" : 1.0,
                        "interp" : "linr"
                      },
                      "anchor0" : {
                        "type" : "double",
                        "defaultValue" : 0.0,
                        "interp" : "linr"
                      },
                      "anchor1" : {
                        "type" : "double",
                        "defaultValue" : 0.0,
                        "interp" : "linr"
                      },
                      "anchor2" : {
                        "type" : "double",
                        "defaultValue" : 0.0,
                        "interp" : "linr"
                      },
                      "opacity" : {
                        "type" : "double",
                        "defaultValue" : 1.0,
                        "keyframes" : [
                          {
                            "endTime" : 150,
                            "time" : 120,
                            "value" : 0.0,
                            "duration" : 30
                          }
                        ]
                      }
                    },
                    "effects" : [

                    ],
                    "start" : 0,
                    "duration" : 150,
                    "mediaStart" : 0,
                    "mediaDuration" : 1,
                    "scalar" : 1,
                    "metadata" : {
                      "WinSubProjectDisplayName" : "",
                      "clipSpeedAttribute" : false,
                      "default-scale" : "1",
                      "effectApplied" : "none"
                    },
                    "animationTracks" : {
                      "visual" : [
                        {
                          "endTime" : 30,
                          "duration" : 30,
                          "range" : [ 0, 30]
                        },
                        {
                          "endTime" : 150,
                          "duration" : 30,
                          "range" : [ 120, 30]
                        }
                      ]
                    }
                  },
                  {
                    "id" : 15,
                    "_type" : "Callout",
                    "def" : {
                      "kind" : "TypeWinText",
                      "shape" : "",
                      "style" : "",
                      "Style" : {
                        "type" : "double",
                        "defaultValue" : 5.0,
                        "interp" : "linr"
                      },
                      "dimensionTime" : {
                        "type" : "double",
                        "defaultValue" : 0.0,
                        "interp" : "linr"
                      },
                      "height" : {
                        "type" : "double",
                        "defaultValue" : 180.0,
                        "interp" : "linr"
                      },
                      "line-spacing" : {
                        "type" : "double",
                        "defaultValue" : 0.0,
                        "interp" : "linr"
                      },
                      "textIgnoresOpacity" : {
                        "type" : "double",
                        "defaultValue" : 0.0,
                        "interp" : "linr"
                      },
                      "textRectHeight" : {
                        "type" : "double",
                        "defaultValue" : 1.0,
                        "interp" : "linr"
                      },
                      "textRectWidth" : {
                        "type" : "double",
                        "defaultValue" : 1.0,
                        "interp" : "linr"
                      },
                      "textRectX" : {
                        "type" : "double",
                        "defaultValue" : 0.0,
                        "interp" : "linr"
                      },
                      "textRectY" : {
                        "type" : "double",
                        "defaultValue" : 0.0,
                        "interp" : "linr"
                      },
                      "textVerticalAlign" : {
                        "type" : "double",
                        "defaultValue" : -1.0,
                        "interp" : "linr"
                      },
                      "width" : {
                        "type" : "double",
                        "defaultValue" : 320.0,
                        "interp" : "linr"
                      },
                      "filename" : "C:\\Program Files\\TechSmith\\Camtasia 9\\Media\\Studio\\Callouts\\trans_100x100.xml",
                      "horizontal-alignment" : "center",
                      "name" : "Text",
                      "text" : "{\\rtf1\\ansi\\ansicpg1252\\deff0\\nouicompat\\deflang1033{\\fonttbl{\\f0\\fnil\\fcharset0 Quicksand;}}\r\n{\\colortbl ;\\red255\\green255\\blue255;}\r\n{\\*\\generator Riched20 10.0.18362}\\viewkind4\\uc1 \r\n\\pard\\cf1\\f0\\fs80 The Complete\\par\r\n\\b\\fs90 C++ Developer Course\\par\r\n}\r\n",
                      "vertical-alignment" : "center",
                      "xmlContent" : "ï»¿<?xml version=\"1.0\"?>\n\n<Overlay version=\"1.0.1\">\n\n<Overlay_Filename>trans_100x100.png</Overlay_Filename>\n<Overlay_Name>Text</Overlay_Name>\n<Text_Top>0</Text_Top>\n<Text_Left>0</Text_Left>\n<Text_Bottom>0</Text_Bottom>\n<Text_Right>0</Text_Right>\n<Fill_Color>0</Fill_Color>\n<Border_Color>0</Border_Color>\n<Style>5</Style>\n</Overlay>",
                      "textAttributes" : {
                        "type" : "textAttributeList",
                        "keyframes" : [
                          {
                            "endTime" : 0,
                            "time" : 0,
                            "value" : null,
                            "duration" : 0
                          }
                        ]
                      }
                    },
                    "attributes" : {
                      "autoRotateText" : true
                    },
                    "parameters" : {
                      "translation0" : {
                        "type" : "double",
                        "defaultValue" : -70.9521418731169,
                        "interp" : "eioe"
                      },
                      "translation1" : {
                        "type" : "double",
                        "defaultValue" : 239.738828503294,
                        "interp" : "eioe"
                      },
                      "scale0" : {
                        "type" : "double",
                        "defaultValue" : 3.12385809835021,
                        "interp" : "eioe"
                      },
                      "scale1" : {
                        "type" : "double",
                        "defaultValue" : 1.00002854389906,
                        "interp" : "eioe"
                      }
                    },
                    "effects" : [

                    ],
                    "start" : 32146,
                    "duration" : 150,
                    "mediaStart" : 0,
                    "mediaDuration" : 150,
                    "scalar" : 1,
                    "metadata" : {
                      "WinSubProjectDisplayName" : "",
                      "clipSpeedAttribute" : false,
                      "default-legacy-fill-style" : 5.0,
                      "default-legacy-text-callout-vertical-align" : "middle",
                      "default-scale0" : 1.0,
                      "default-scale1" : 1.0,
                      "default-text" : "{\\rtf1\\ansi\\ansicpg1252\\deff0\\deflang1033{\\fonttbl{\\f0\\fswiss\\fprq2\\fcharset0 Arial;}}{\\colortbl ;\\red255\\green255\\blue255;}\\viewkind4\\uc1\\pard\\qc\\cf1\\fs72 abc}",
                      "default-translation0" : 0.0,
                      "default-translation1" : 0.0
                    },
                    "animationTracks" : {

                    }
                  }
                ],
                "transitions" : [
                  {
                    "name" : "Fade",
                    "duration" : 30,
                    "trivial" : true,
                    "useAudioPreRoll" : true,
                    "useVisualPreRoll" : true,
                    "rightMedia" : 15
                  },
                  {
                    "name" : "Fade",
                    "duration" : 30,
                    "trivial" : true,
                    "useAudioPreRoll" : true,
                    "useVisualPreRoll" : true,
                    "leftMedia" : 15
                  }
                ]
              },
              {
                "trackIndex" : 5,
                "medias" : [
                  {
                    "id" : 16,
                    "_type" : "Callout",
                    "def" : {
                      "kind" : "remix",
                      "shape" : "text",
                      "style" : "bold",
                      "height" : 250.0,
                      "line-spacing" : 0.0,
                      "width" : 1035.85760517811,
                      "word-wrap" : 1.0,
                      "horizontal-alignment" : "left",
                      "text" : "Control Statements\rRepetition Control Statements",
                      "vertical-alignment" : "center",
                      "font" : {
                        "color-blue" : 1.0,
                        "color-green" : 1.0,
                        "color-red" : 1.0,
                        "size" : 96.0,
                        "tracking" : 0.0,
                        "name" : "Source Sans Pro",
                        "weight" : "Semi Bold"
                      },
                      "textAttributes" : {
                        "type" : "textAttributeList",
                        "keyframes" : [
                          {
                            "endTime" : 0,
                            "time" : 0,
                            "value" : [{"name":"underline","rangeEnd":48,"rangeStart":0,"value":0,"valueType":"int"},{"name":"fontSize","rangeEnd":19,"rangeStart":0,"value":55,"valueType":"double"},{"name":"fontName","rangeEnd":48,"rangeStart":0,"value":"Quicksand","valueType":"string"},{"name":"kerning","rangeEnd":48,"rangeStart":0,"value":0,"valueType":"double"},{"name":"fontWeight","rangeEnd":19,"rangeStart":0,"value":700,"valueType":"int"},{"name":"fontItalic","rangeEnd":48,"rangeStart":0,"value":0,"valueType":"int"},{"name":"fgColor","rangeEnd":48,"rangeStart":0,"value":"(255,255,255,255)","valueType":"color"},{"name":"fontSize","rangeEnd":48,"rangeStart":19,"value":52,"valueType":"double"},{"name":"strikethrough","rangeEnd":48,"rangeStart":0,"value":0,"valueType":"int"},{"name":"fontWeight","rangeEnd":48,"rangeStart":19,"value":400,"valueType":"int"}],
                            "duration" : 0
                          }
                        ]
                      }
                    },
                    "attributes" : {
                      "autoRotateText" : true
                    },
                    "parameters" : {
                      "translation0" : {
                        "type" : "double",
                        "defaultValue" : -913.412651778095,
                        "keyframes" : [
                          {
                            "endTime" : 38,
                            "time" : 8,
                            "value" : 98.5873482219166,
                            "duration" : 30
                          }
                        ]
                      },
                      "translation1" : {
                        "type" : "double",
                        "defaultValue" : -34.812002943898,
                        "keyframes" : [
                          {
                            "endTime" : 38,
                            "time" : 8,
                            "value" : -34.8120029438544,
                            "duration" : 30
                          }
                        ]
                      }
                    },
                    "effects" : [
                        {
                          "effectName" : "DropShadow",
                          "category" : "categoryVisualEffects",
                          "parameters" : {
                            "angle" : {
                              "type" : "double",
                              "defaultValue" : 5.49778714378214,
                              "uiHints" : {
                                "userInterfaceType" : 0,
                                "unitType" : 0
                              },
                              "keyframes" : [
                                {
                                  "endTime" : 38,
                                  "time" : 8,
                                  "value" : 5.49778714378214,
                                  "duration" : 30
                                }
                              ]
                            },
                            "blur" : 10.0,
                            "color-alpha" : 1.0,
                            "color-blue" : 0.1216,
                            "color-green" : 0.1216,
                            "color-red" : 0.1216,
                            "enabled" : 1,
                            "offset" : 10.0,
                            "opacity" : 0.4
                          }
                        }
                    ],
                    "start" : 35,
                    "duration" : 115,
                    "mediaStart" : 8,
                    "mediaDuration" : 115,
                    "scalar" : 1,
                    "metadata" : {
                      "WinSubProjectDisplayName" : "",
                      "clipSpeedAttribute" : false,
                      "default-HAlign" : "center",
                      "default-LineSpace" : 0.0,
                      "default-VAlign" : "center",
                      "default-text-attributes" : "[{\"name\":\"fontWeight\",\"rangeEnd\":37,\"rangeStart\":26,\"value\":100,\"valueType\":\"int\"},{\"name\":\"underline\",\"rangeEnd\":37,\"rangeStart\":0,\"value\":0,\"valueType\":\"int\"},{\"name\":\"fontWeight\",\"rangeEnd\":26,\"rangeStart\":0,\"value\":700,\"valueType\":\"int\"},{\"name\":\"fgColor\",\"rangeEnd\":37,\"rangeStart\":0,\"value\":\"(255,255,255,255)\",\"valueType\":\"color\"},{\"name\":\"fontSize\",\"rangeEnd\":26,\"rangeStart\":0,\"value\":55,\"valueType\":\"double\"},{\"name\":\"fontItalic\",\"rangeEnd\":37,\"rangeStart\":0,\"value\":0,\"valueType\":\"int\"},{\"name\":\"strikethrough\",\"rangeEnd\":37,\"rangeStart\":0,\"value\":0,\"valueType\":\"int\"},{\"name\":\"fontName\",\"rangeEnd\":37,\"rangeStart\":0,\"value\":\"Quicksand\",\"valueType\":\"string\"},{\"name\":\"fontSize\",\"rangeEnd\":37,\"rangeStart\":26,\"value\":52,\"valueType\":\"double\"}]",
                      "default-translation0" : 204.5,
                      "default-translation1" : 0.0
                    },
                    "animationTracks" : {
                      "visual" : [
                        {
                          "endTime" : 38,
                          "duration" : 30,
                          "range" : [ 8, 30]
                        }
                      ]
                    }
                  },
                  {
                    "id" : 17,
                    "_type" : "IMFile",
                    "src" : 4,
                    "trackNumber" : 0,
                    "trimStartSum" : 0,
                    "attributes" : {
                      "ident" : "Head"
                    },
                    "parameters" : {
                      "translation0" : {
                        "type" : "double",
                        "defaultValue" : 537.015153862789,
                        "interp" : "eioe"
                      },
                      "translation1" : {
                        "type" : "double",
                        "defaultValue" : -206.400000000049,
                        "interp" : "eioe"
                      },
                      "scale0" : {
                        "type" : "double",
                        "defaultValue" : 0.35,
                        "interp" : "eioe"
                      },
                      "scale1" : {
                        "type" : "double",
                        "defaultValue" : 0.35,
                        "interp" : "eioe"
                      }
                    },
                    "effects" : [

                    ],
                    "start" : 32146,
                    "duration" : 150,
                    "mediaStart" : 0,
                    "mediaDuration" : 1,
                    "scalar" : 1,
                    "metadata" : {
                      "WinSubProjectDisplayName" : "",
                      "clipSpeedAttribute" : false,
                      "default-scale0" : 0.703125,
                      "default-scale1" : 0.703125,
                      "default-translation0" : 0.0,
                      "default-translation1" : 0.0
                    },
                    "animationTracks" : {

                    }
                  }
                ],
                "transitions" : [
                  {
                    "name" : "Fade",
                    "duration" : 30,
                    "trivial" : true,
                    "useAudioPreRoll" : true,
                    "useVisualPreRoll" : true,
                    "leftMedia" : 16
                  },
                  {
                    "name" : "Fade",
                    "duration" : 30,
                    "trivial" : false,
                    "useAudioPreRoll" : true,
                    "useVisualPreRoll" : true,
                    "rightMedia" : 17
                  },
                  {
                    "name" : "Fade",
                    "duration" : 30,
                    "trivial" : false,
                    "useAudioPreRoll" : true,
                    "useVisualPreRoll" : true,
                    "leftMedia" : 17
                  }
                ]
              },
              {
                "trackIndex" : 6,
                "medias" : [
                  {
                    "id" : 18,
                    "_type" : "Callout",
                    "def" : {
                      "kind" : "TypeWinText",
                      "shape" : "",
                      "style" : "",
                      "Style" : 5.0,
                      "dimensionTime" : 0.0,
                      "height" : 180.0,
                      "line-spacing" : 0.0,
                      "textIgnoresOpacity" : 0.0,
                      "textRectHeight" : 1.0,
                      "textRectWidth" : 1.0,
                      "textRectX" : 0.0,
                      "textRectY" : 0.0,
                      "textVerticalAlign" : 0.0,
                      "width" : 320.0,
                      "filename" : "C:\\Program Files\\TechSmith\\Camtasia 9\\Media\\Studio\\Callouts\\trans_100x100.xml",
                      "horizontal-alignment" : "center",
                      "name" : "Text",
                      "text" : "{\\rtf1\\ansi\\ansicpg1252\\deff0\\nouicompat\\deflang1033{\\fonttbl{\\f0\\fnil\\fcharset0 Quicksand;}}\r\n{\\colortbl ;\\red255\\green255\\blue255;}\r\n{\\*\\generator Riched20 10.0.18362}\\viewkind4\\uc1 \r\n\\pard\\qc\\cf1\\b\\f0\\fs124 #\\fs256 3\\fs72\\par\r\n}\r\n",
                      "vertical-alignment" : "center",
                      "xmlContent" : "ï»¿<?xml version=\"1.0\"?>\n\n<Overlay version=\"1.0.1\">\n\n<Overlay_Filename>trans_100x100.png</Overlay_Filename>\n<Overlay_Name>Text</Overlay_Name>\n<Text_Top>0</Text_Top>\n<Text_Left>0</Text_Left>\n<Text_Bottom>0</Text_Bottom>\n<Text_Right>0</Text_Right>\n<Fill_Color>0</Fill_Color>\n<Border_Color>0</Border_Color>\n<Style>5</Style>\n</Overlay>",
                      "textAttributes" : {
                        "type" : "textAttributeList",
                        "keyframes" : [
                          {
                            "endTime" : 0,
                            "time" : 0,
                            "value" : null,
                            "duration" : 0
                          }
                        ]
                      }
                    },
                    "attributes" : {
                      "autoRotateText" : true
                    },
                    "parameters" : {
                      "translation0" : {
                        "type" : "double",
                        "defaultValue" : -820.538865370044,
                        "keyframes" : [
                          {
                            "endTime" : 65,
                            "time" : 35,
                            "value" : -488.499999999933,
                            "duration" : 30
                          }
                        ]
                      },
                      "translation1" : {
                        "type" : "double",
                        "defaultValue" : -34.8120029438978,
                        "keyframes" : [
                          {
                            "endTime" : 65,
                            "time" : 35,
                            "value" : -34.8120029438634,
                            "duration" : 30
                          }
                        ]
                      },
                      "scale0" : {
                        "type" : "double",
                        "defaultValue" : 0.580906148866913,
                        "keyframes" : [
                          {
                            "endTime" : 65,
                            "time" : 35,
                            "value" : 0.580906148866913,
                            "duration" : 30
                          }
                        ]
                      },
                      "scale1" : {
                        "type" : "double",
                        "defaultValue" : 1.43801063442563,
                        "keyframes" : [
                          {
                            "endTime" : 65,
                            "time" : 35,
                            "value" : 1.43801063442563,
                            "duration" : 30
                          }
                        ]
                      }
                    },
                    "effects" : [

                    ],
                    "start" : 35,
                    "duration" : 115,
                    "mediaStart" : 35,
                    "mediaDuration" : 115,
                    "scalar" : 1,
                    "metadata" : {
                      "WinSubProjectDisplayName" : "",
                      "clipSpeedAttribute" : false,
                      "default-legacy-fill-style" : 5.0,
                      "default-legacy-text-callout-vertical-align" : "middle",
                      "default-rotation2" : 0.0,
                      "default-scale0" : 1.0,
                      "default-scale1" : 1.0,
                      "default-text" : "{\\rtf1\\ansi\\ansicpg1252\\deff0\\deflang1033{\\fonttbl{\\f0\\fswiss\\fprq2\\fcharset0 Arial;}}{\\colortbl ;\\red255\\green255\\blue255;}\\viewkind4\\uc1\\pard\\qc\\cf1\\fs72 abc}",
                      "default-translation0" : 0.0,
                      "default-translation1" : 0.0
                    },
                    "animationTracks" : {
                      "visual" : [
                        {
                          "endTime" : 65,
                          "duration" : 30,
                          "range" : [ 35, 30]
                        }
                      ]
                    }
                  }
                ],
                "transitions" : [
                  {
                    "name" : "Fade",
                    "duration" : 30,
                    "trivial" : true,
                    "useAudioPreRoll" : true,
                    "useVisualPreRoll" : true,
                    "leftMedia" : 18
                  }
                ]
              },
              {
                "trackIndex" : 7,
                "medias" : [
                  {
                    "id" : 19,
                    "_type" : "IMFile",
                    "src" : 1,
                    "trackNumber" : 0,
                    "trimStartSum" : 0,
                    "attributes" : {
                      "ident" : "codestars_logo"
                    },
                    "parameters" : {
                      "translation0" : {
                        "type" : "double",
                        "defaultValue" : -263.136792317664,
                        "interp" : "linr"
                      },
                      "translation1" : {
                        "type" : "double",
                        "defaultValue" : -271.784183685799,
                        "interp" : "linr"
                      },
                      "translation2" : {
                        "type" : "double",
                        "defaultValue" : 0.0,
                        "interp" : "linr"
                      },
                      "rotation0" : {
                        "type" : "double",
                        "defaultValue" : 0.0,
                        "interp" : "linr"
                      },
                      "rotation1" : {
                        "type" : "double",
                        "defaultValue" : 0.0,
                        "interp" : "linr"
                      },
                      "rotation2" : {
                        "type" : "double",
                        "defaultValue" : 0.0,
                        "interp" : "linr"
                      },
                      "shear0" : {
                        "type" : "double",
                        "defaultValue" : 0.0,
                        "interp" : "linr"
                      },
                      "shear1" : {
                        "type" : "double",
                        "defaultValue" : 0.0,
                        "interp" : "linr"
                      },
                      "shear2" : {
                        "type" : "double",
                        "defaultValue" : 0.0,
                        "interp" : "linr"
                      },
                      "scale0" : {
                        "type" : "double",
                        "defaultValue" : 0.402192662926175,
                        "interp" : "linr"
                      },
                      "scale1" : {
                        "type" : "double",
                        "defaultValue" : 0.402192662926175,
                        "interp" : "linr"
                      },
                      "scale2" : {
                        "type" : "double",
                        "defaultValue" : 1.0,
                        "interp" : "linr"
                      },
                      "anchor0" : {
                        "type" : "double",
                        "defaultValue" : 0.0,
                        "interp" : "linr"
                      },
                      "anchor1" : {
                        "type" : "double",
                        "defaultValue" : 0.0,
                        "interp" : "linr"
                      },
                      "anchor2" : {
                        "type" : "double",
                        "defaultValue" : 0.0,
                        "interp" : "linr"
                      }
                    },
                    "effects" : [

                    ],
                    "start" : 0,
                    "duration" : 150,
                    "mediaStart" : 0,
                    "mediaDuration" : 1,
                    "scalar" : 1,
                    "metadata" : {
                      "WinSubProjectDisplayName" : "",
                      "clipSpeedAttribute" : false,
                      "default-scale" : "1",
                      "effectApplied" : "none"
                    },
                    "animationTracks" : {

                    }
                  }
                ],
                "transitions" : [
                  {
                    "name" : "Fade",
                    "duration" : 30,
                    "trivial" : true,
                    "useAudioPreRoll" : true,
                    "useVisualPreRoll" : true,
                    "leftMedia" : 19
                  }
                ]
              },
              {
                "trackIndex" : 8,
                "medias" : [
                ]
              },
              {
                "trackIndex" : 9,
                "medias" : [
                  {
                    "id" : 20,
                    "_type" : "Callout",
                    "def" : {
                      "kind" : "TypeWinText",
                      "shape" : "",
                      "style" : "",
                      "Style" : 5.0,
                      "dimensionTime" : 0.0,
                      "height" : 180.0,
                      "line-spacing" : 0.0,
                      "textIgnoresOpacity" : 0.0,
                      "textRectHeight" : 1.0,
                      "textRectWidth" : 1.0,
                      "textRectX" : 0.0,
                      "textRectY" : 0.0,
                      "textVerticalAlign" : -1.0,
                      "width" : 320.0,
                      "filename" : "C:\\Program Files\\TechSmith\\Camtasia 9\\Media\\Studio\\Callouts\\trans_100x100.xml",
                      "horizontal-alignment" : "center",
                      "name" : "Text",
                      "text" : "{\\rtf1\\ansi\\ansicpg1252\\deff0\\nouicompat\\deflang1033{\\fonttbl{\\f0\\fnil\\fcharset0 Quicksand;}}\r\n{\\colortbl ;\\red255\\green255\\blue255;}\r\n{\\*\\generator Riched20 10.0.18362}\\viewkind4\\uc1 \r\n\\pard\\cf1\\f0\\fs80 The Complete\\par\r\n\\b\\fs90 C++ Developer Course\\par\r\n}\r\n",
                      "vertical-alignment" : "center",
                      "xmlContent" : "ï»¿<?xml version=\"1.0\"?>\n\n<Overlay version=\"1.0.1\">\n\n<Overlay_Filename>trans_100x100.png</Overlay_Filename>\n<Overlay_Name>Text</Overlay_Name>\n<Text_Top>0</Text_Top>\n<Text_Left>0</Text_Left>\n<Text_Bottom>0</Text_Bottom>\n<Text_Right>0</Text_Right>\n<Fill_Color>0</Fill_Color>\n<Border_Color>0</Border_Color>\n<Style>5</Style>\n</Overlay>",
                      "textAttributes" : {
                        "type" : "textAttributeList",
                        "keyframes" : [
                          {
                            "endTime" : 0,
                            "time" : 0,
                            "value" : null,
                            "duration" : 0
                          }
                        ]
                      }
                    },
                    "attributes" : {
                      "autoRotateText" : true
                    },
                    "parameters" : {
                      "translation0" : -70.9521418731169,
                      "translation1" : 239.738828503294,
                      "scale0" : 3.12385809835021,
                      "scale1" : 1.00002854389906
                    },
                    "effects" : [

                    ],
                    "start" : 0,
                    "duration" : 150,
                    "mediaStart" : 0,
                    "mediaDuration" : 150,
                    "scalar" : 1,
                    "metadata" : {
                      "WinSubProjectDisplayName" : "",
                      "clipSpeedAttribute" : false,
                      "default-legacy-fill-style" : 5.0,
                      "default-legacy-text-callout-vertical-align" : "middle",
                      "default-scale0" : 1.0,
                      "default-scale1" : 1.0,
                      "default-text" : "{\\rtf1\\ansi\\ansicpg1252\\deff0\\deflang1033{\\fonttbl{\\f0\\fswiss\\fprq2\\fcharset0 Arial;}}{\\colortbl ;\\red255\\green255\\blue255;}\\viewkind4\\uc1\\pard\\qc\\cf1\\fs72 abc}",
                      "default-translation0" : 0.0,
                      "default-translation1" : 0.0
                    },
                    "animationTracks" : {

                    }
                  }
                ],
                "transitions" : [
                  {
                    "name" : "Fade",
                    "duration" : 30,
                    "trivial" : true,
                    "useAudioPreRoll" : true,
                    "useVisualPreRoll" : true,
                    "leftMedia" : 20
                  }
                ]
              },
              {
                "trackIndex" : 10,
                "medias" : [
                  {
                    "id" : 21,
                    "_type" : "IMFile",
                    "src" : 4,
                    "trackNumber" : 0,
                    "trimStartSum" : 0,
                    "attributes" : {
                      "ident" : "Head"
                    },
                    "parameters" : {
                      "translation0" : 513.825000000109,
                      "translation1" : -179.200000000031,
                      "scale0" : 0.35,
                      "scale1" : 0.35
                    },
                    "effects" : [

                    ],
                    "start" : 0,
                    "duration" : 150,
                    "mediaStart" : 0,
                    "mediaDuration" : 1,
                    "scalar" : 1,
                    "metadata" : {
                      "WinSubProjectDisplayName" : "",
                      "clipSpeedAttribute" : false,
                      "default-scale0" : 0.703125,
                      "default-scale1" : 0.703125,
                      "default-translation0" : 0.0,
                      "default-translation1" : 0.0
                    },
                    "animationTracks" : {

                    }
                  }
                ],
                "transitions" : [
                  {
                    "name" : "Fade",
                    "duration" : 30,
                    "trivial" : false,
                    "useAudioPreRoll" : true,
                    "useVisualPreRoll" : true,
                    "leftMedia" : 21
                  }
                ]
              },
              {
                "trackIndex" : 11,
                "medias" : [
                  {
                    "id" : 22,
                    "_type" : "StitchedMedia",
                    "minMediaStart" : 0,
                    "attributes" : {
                      "ident" : "Rec 03-04-20",
                      "gain" : 1.0,
                      "mixToMono" : false
                    },
                    "parameters" : {
                      "translation0" : {
                        "type" : "double",
                        "defaultValue" : 0.0,
                        "keyframes" : [
                          {
                            "endTime" : 2420,
                            "time" : 2390,
                            "value" : 9.57518341975103,
                            "duration" : 30
                          },
                          {
                            "endTime" : 2777,
                            "time" : 2747,
                            "value" : -348.186569995875,
                            "duration" : 30
                          },
                          {
                            "endTime" : 2913,
                            "time" : 2883,
                            "value" : 4.35238815814887,
                            "duration" : 30
                          },
                          {
                            "endTime" : 3023,
                            "time" : 2993,
                            "value" : 348.186423202785,
                            "duration" : 30
                          },
                          {
                            "endTime" : 10685,
                            "time" : 10655,
                            "value" : 348.186426421039,
                            "duration" : 30
                          }
                        ]
                      },
                      "translation1" : {
                        "type" : "double",
                        "defaultValue" : 0.0,
                        "keyframes" : [
                          {
                            "endTime" : 2420,
                            "time" : 2390,
                            "value" : -7.83419751057197,
                            "duration" : 30
                          },
                          {
                            "endTime" : 2777,
                            "time" : 2747,
                            "value" : -164.518147722009,
                            "duration" : 30
                          },
                          {
                            "endTime" : 2913,
                            "time" : 2883,
                            "value" : -54.8393825740031,
                            "duration" : 30
                          },
                          {
                            "endTime" : 3023,
                            "time" : 2993,
                            "value" : -195.854967649388,
                            "duration" : 30
                          },
                          {
                            "endTime" : 10685,
                            "time" : 10655,
                            "value" : -117.512993255219,
                            "duration" : 30
                          }
                        ]
                      },
                      "scale0" : {
                        "type" : "double",
                        "defaultValue" : 0.666666666666667,
                        "keyframes" : [
                          {
                            "endTime" : 2420,
                            "time" : 2390,
                            "value" : 1.02936094693115,
                            "duration" : 30
                          },
                          {
                            "endTime" : 2777,
                            "time" : 2747,
                            "value" : 1.0293608507982,
                            "duration" : 30
                          },
                          {
                            "endTime" : 2913,
                            "time" : 2883,
                            "value" : 1.0293608507982,
                            "duration" : 30
                          }
                        ]
                      },
                      "scale1" : {
                        "type" : "double",
                        "defaultValue" : 0.666666666666667,
                        "keyframes" : [
                          {
                            "endTime" : 2420,
                            "time" : 2390,
                            "value" : 1.0293610485672,
                            "duration" : 30
                          }
                        ]
                      },
                      "volume" : 1.0,
                      "cursorOpacity" : 1.0,
                      "cursorScale" : 1.0
                    },
                    "medias" : [
                        {
                          "id" : 23,
                          "_type" : "UnifiedMedia",
                          "video" : 
                              {
                                "id" : 24,
                                "_type" : "ScreenVMFile",
                                "src" : 5,
                                "trackNumber" : 0,
                                "attributes" : {
                                  "ident" : "Rec 03-04-20"
                                },
                                "parameters" : {
                                  "cursorScale" : {
                                    "type" : "double",
                                    "defaultValue" : 0.0,
                                    "interp" : "linr"
                                  },
                                  "cursorOpacity" : {
                                    "type" : "double",
                                    "defaultValue" : 0.0,
                                    "interp" : "linr"
                                  }
                                },
                                "effects" : [

                                ],
                                "start" : 0,
                                "duration" : 2795,
                                "mediaStart" : 0,
                                "mediaDuration" : 2795,
                                "scalar" : 1,
                                "animationTracks" : {

                                }
                              },
                          "audio" : 
                              {
                                "id" : 25,
                                "_type" : "AMFile",
                                "src" : 5,
                                "trackNumber" : 2,
                                "attributes" : {
                                  "ident" : "",
                                  "sampleRate" : 44100,
                                  "bitDepth" : 16,
                                  "gain" : 1.0,
                                  "mixToMono" : false
                                },
                                  "channelNumber" : "0,1",
                                "effects" : [

                                ],
                                "start" : 0,
                                "duration" : 2795,
                                "mediaStart" : 0,
                                "mediaDuration" : 2795,
                                "scalar" : 1,
                                "animationTracks" : {

                                }
                              }
,
                          "start" : 0,
                          "duration" : 2795,
                          "mediaStart" : 0,
                          "mediaDuration" : 16024,
                          "scalar" : 1,
                          "metadata" : {
                            "AutoAppliedSmartFocus" : "False",
                            "WinSubProjectDisplayName" : "",
                            "clipSpeedAttribute" : false,
                            "default-scale0" : 0.666666666666667,
                            "default-scale1" : 0.666666666666667,
                            "default-translation0" : 0.0,
                            "default-translation1" : 0.0
                          }
                        },
                        {
                          "id" : 26,
                          "_type" : "UnifiedMedia",
                          "video" : 
                              {
                                "id" : 27,
                                "_type" : "ScreenVMFile",
                                "src" : 5,
                                "trackNumber" : 0,
                                "attributes" : {
                                  "ident" : "Rec 03-04-20"
                                },
                                "parameters" : {
                                  "cursorScale" : {
                                    "type" : "double",
                                    "defaultValue" : 0.0,
                                    "interp" : "linr"
                                  },
                                  "cursorOpacity" : {
                                    "type" : "double",
                                    "defaultValue" : 0.0,
                                    "interp" : "linr"
                                  }
                                },
                                "effects" : [

                                ],
                                "start" : 2795,
                                "duration" : 659,
                                "mediaStart" : 2919,
                                "mediaDuration" : 659,
                                "scalar" : 1,
                                "animationTracks" : {

                                }
                              },
                          "audio" : 
                              {
                                "id" : 28,
                                "_type" : "AMFile",
                                "src" : 5,
                                "trackNumber" : 2,
                                "attributes" : {
                                  "ident" : "",
                                  "sampleRate" : 44100,
                                  "bitDepth" : 16,
                                  "gain" : 1.0,
                                  "mixToMono" : false
                                },
                                  "channelNumber" : "0,1",
                                "effects" : [

                                ],
                                "start" : 2795,
                                "duration" : 659,
                                "mediaStart" : 2919,
                                "mediaDuration" : 659,
                                "scalar" : 1,
                                "animationTracks" : {

                                }
                              }
,
                          "start" : 2795,
                          "duration" : 659,
                          "mediaStart" : 0,
                          "mediaDuration" : 16024,
                          "scalar" : 1,
                          "metadata" : {
                            "AutoAppliedSmartFocus" : "False",
                            "WinSubProjectDisplayName" : "",
                            "clipSpeedAttribute" : false,
                            "default-scale0" : 0.666666666666667,
                            "default-scale1" : 0.666666666666667,
                            "default-translation0" : 0.0,
                            "default-translation1" : 0.0
                          }
                        },
                        {
                          "id" : 29,
                          "_type" : "UnifiedMedia",
                          "video" : 
                              {
                                "id" : 30,
                                "_type" : "ScreenVMFile",
                                "src" : 5,
                                "trackNumber" : 0,
                                "attributes" : {
                                  "ident" : "Rec 03-04-20"
                                },
                                "parameters" : {
                                  "cursorScale" : {
                                    "type" : "double",
                                    "defaultValue" : 0.0,
                                    "interp" : "linr"
                                  },
                                  "cursorOpacity" : {
                                    "type" : "double",
                                    "defaultValue" : 0.0,
                                    "interp" : "linr"
                                  }
                                },
                                "effects" : [

                                ],
                                "start" : 3454,
                                "duration" : 851,
                                "mediaStart" : 3806,
                                "mediaDuration" : 851,
                                "scalar" : 1,
                                "animationTracks" : {

                                }
                              },
                          "audio" : 
                              {
                                "id" : 31,
                                "_type" : "AMFile",
                                "src" : 5,
                                "trackNumber" : 2,
                                "attributes" : {
                                  "ident" : "",
                                  "sampleRate" : 44100,
                                  "bitDepth" : 16,
                                  "gain" : 1.0,
                                  "mixToMono" : false
                                },
                                  "channelNumber" : "0,1",
                                "effects" : [

                                ],
                                "start" : 3454,
                                "duration" : 851,
                                "mediaStart" : 3806,
                                "mediaDuration" : 851,
                                "scalar" : 1,
                                "animationTracks" : {

                                }
                              }
,
                          "start" : 3454,
                          "duration" : 851,
                          "mediaStart" : 0,
                          "mediaDuration" : 16024,
                          "scalar" : 1,
                          "metadata" : {
                            "AutoAppliedSmartFocus" : "False",
                            "WinSubProjectDisplayName" : "",
                            "clipSpeedAttribute" : false,
                            "default-scale0" : 0.666666666666667,
                            "default-scale1" : 0.666666666666667,
                            "default-translation0" : 0.0,
                            "default-translation1" : 0.0
                          }
                        },
                        {
                          "id" : 32,
                          "_type" : "UnifiedMedia",
                          "video" : 
                              {
                                "id" : 33,
                                "_type" : "ScreenVMFile",
                                "src" : 5,
                                "trackNumber" : 0,
                                "attributes" : {
                                  "ident" : "Rec 03-04-20"
                                },
                                "parameters" : {
                                  "cursorScale" : {
                                    "type" : "double",
                                    "defaultValue" : 0.0,
                                    "interp" : "linr"
                                  },
                                  "cursorOpacity" : {
                                    "type" : "double",
                                    "defaultValue" : 0.0,
                                    "interp" : "linr"
                                  }
                                },
                                "effects" : [

                                ],
                                "start" : 4305,
                                "duration" : 1435,
                                "mediaStart" : 4691,
                                "mediaDuration" : 1435,
                                "scalar" : 1,
                                "animationTracks" : {

                                }
                              },
                          "audio" : 
                              {
                                "id" : 34,
                                "_type" : "AMFile",
                                "src" : 5,
                                "trackNumber" : 2,
                                "attributes" : {
                                  "ident" : "",
                                  "sampleRate" : 44100,
                                  "bitDepth" : 16,
                                  "gain" : 1.0,
                                  "mixToMono" : false
                                },
                                  "channelNumber" : "0,1",
                                "effects" : [

                                ],
                                "start" : 4305,
                                "duration" : 1435,
                                "mediaStart" : 4691,
                                "mediaDuration" : 1435,
                                "scalar" : 1,
                                "animationTracks" : {

                                }
                              }
,
                          "start" : 4305,
                          "duration" : 1435,
                          "mediaStart" : 0,
                          "mediaDuration" : 16024,
                          "scalar" : 1,
                          "metadata" : {
                            "AutoAppliedSmartFocus" : "False",
                            "WinSubProjectDisplayName" : "",
                            "clipSpeedAttribute" : false,
                            "default-scale0" : 0.666666666666667,
                            "default-scale1" : 0.666666666666667,
                            "default-translation0" : 0.0,
                            "default-translation1" : 0.0
                          }
                        },
                        {
                          "id" : 35,
                          "_type" : "UnifiedMedia",
                          "video" : 
                              {
                                "id" : 36,
                                "_type" : "ScreenVMFile",
                                "src" : 5,
                                "trackNumber" : 0,
                                "attributes" : {
                                  "ident" : "Rec 03-04-20"
                                },
                                "parameters" : {
                                  "cursorScale" : {
                                    "type" : "double",
                                    "defaultValue" : 0.0,
                                    "interp" : "linr"
                                  },
                                  "cursorOpacity" : {
                                    "type" : "double",
                                    "defaultValue" : 0.0,
                                    "interp" : "linr"
                                  }
                                },
                                "effects" : [

                                ],
                                "start" : 5740,
                                "duration" : 2936,
                                "mediaStart" : 6311,
                                "mediaDuration" : 2936,
                                "scalar" : 1,
                                "animationTracks" : {

                                }
                              },
                          "audio" : 
                              {
                                "id" : 37,
                                "_type" : "AMFile",
                                "src" : 5,
                                "trackNumber" : 2,
                                "attributes" : {
                                  "ident" : "",
                                  "sampleRate" : 44100,
                                  "bitDepth" : 16,
                                  "gain" : 1.0,
                                  "mixToMono" : false
                                },
                                  "channelNumber" : "0,1",
                                "effects" : [

                                ],
                                "start" : 5740,
                                "duration" : 2936,
                                "mediaStart" : 6311,
                                "mediaDuration" : 2936,
                                "scalar" : 1,
                                "animationTracks" : {

                                }
                              }
,
                          "start" : 5740,
                          "duration" : 2936,
                          "mediaStart" : 0,
                          "mediaDuration" : 16024,
                          "scalar" : 1,
                          "metadata" : {
                            "AutoAppliedSmartFocus" : "False",
                            "WinSubProjectDisplayName" : "",
                            "clipSpeedAttribute" : false,
                            "default-scale0" : 0.666666666666667,
                            "default-scale1" : 0.666666666666667,
                            "default-translation0" : 0.0,
                            "default-translation1" : 0.0
                          }
                        },
                        {
                          "id" : 38,
                          "_type" : "UnifiedMedia",
                          "video" : 
                              {
                                "id" : 39,
                                "_type" : "ScreenVMFile",
                                "src" : 5,
                                "trackNumber" : 0,
                                "attributes" : {
                                  "ident" : "Rec 03-04-20"
                                },
                                "parameters" : {
                                  "cursorScale" : {
                                    "type" : "double",
                                    "defaultValue" : 0.0,
                                    "interp" : "linr"
                                  },
                                  "cursorOpacity" : {
                                    "type" : "double",
                                    "defaultValue" : 0.0,
                                    "interp" : "linr"
                                  }
                                },
                                "effects" : [

                                ],
                                "start" : 8676,
                                "duration" : 2130,
                                "mediaStart" : 9356,
                                "mediaDuration" : 2130,
                                "scalar" : 1,
                                "animationTracks" : {

                                }
                              },
                          "audio" : 
                              {
                                "id" : 40,
                                "_type" : "AMFile",
                                "src" : 5,
                                "trackNumber" : 2,
                                "attributes" : {
                                  "ident" : "",
                                  "sampleRate" : 44100,
                                  "bitDepth" : 16,
                                  "gain" : 1.0,
                                  "mixToMono" : false
                                },
                                  "channelNumber" : "0,1",
                                "effects" : [

                                ],
                                "start" : 8676,
                                "duration" : 2130,
                                "mediaStart" : 9356,
                                "mediaDuration" : 2130,
                                "scalar" : 1,
                                "animationTracks" : {

                                }
                              }
,
                          "start" : 8676,
                          "duration" : 2130,
                          "mediaStart" : 0,
                          "mediaDuration" : 16024,
                          "scalar" : 1,
                          "metadata" : {
                            "AutoAppliedSmartFocus" : "False",
                            "WinSubProjectDisplayName" : "",
                            "clipSpeedAttribute" : false,
                            "default-scale0" : 0.666666666666667,
                            "default-scale1" : 0.666666666666667,
                            "default-translation0" : 0.0,
                            "default-translation1" : 0.0
                          }
                        },
                        {
                          "id" : 41,
                          "_type" : "UnifiedMedia",
                          "video" : 
                              {
                                "id" : 42,
                                "_type" : "ScreenVMFile",
                                "src" : 5,
                                "trackNumber" : 0,
                                "attributes" : {
                                  "ident" : "Rec 03-04-20"
                                },
                                "parameters" : {
                                  "cursorScale" : {
                                    "type" : "double",
                                    "defaultValue" : 0.0,
                                    "interp" : "linr"
                                  },
                                  "cursorOpacity" : {
                                    "type" : "double",
                                    "defaultValue" : 0.0,
                                    "interp" : "linr"
                                  }
                                },
                                "effects" : [

                                ],
                                "start" : 10806,
                                "duration" : 1942,
                                "mediaStart" : 11606,
                                "mediaDuration" : 1942,
                                "scalar" : 1,
                                "animationTracks" : {

                                }
                              },
                          "audio" : 
                              {
                                "id" : 43,
                                "_type" : "AMFile",
                                "src" : 5,
                                "trackNumber" : 2,
                                "attributes" : {
                                  "ident" : "",
                                  "sampleRate" : 44100,
                                  "bitDepth" : 16,
                                  "gain" : 1.0,
                                  "mixToMono" : false
                                },
                                  "channelNumber" : "0,1",
                                "effects" : [

                                ],
                                "start" : 10806,
                                "duration" : 1942,
                                "mediaStart" : 11606,
                                "mediaDuration" : 1942,
                                "scalar" : 1,
                                "animationTracks" : {

                                }
                              }
,
                          "start" : 10806,
                          "duration" : 1942,
                          "mediaStart" : 0,
                          "mediaDuration" : 16024,
                          "scalar" : 1,
                          "metadata" : {
                            "AutoAppliedSmartFocus" : "False",
                            "WinSubProjectDisplayName" : "",
                            "clipSpeedAttribute" : false,
                            "default-scale0" : 0.666666666666667,
                            "default-scale1" : 0.666666666666667,
                            "default-translation0" : 0.0,
                            "default-translation1" : 0.0
                          }
                        },
                        {
                          "id" : 44,
                          "_type" : "UnifiedMedia",
                          "video" : 
                              {
                                "id" : 45,
                                "_type" : "ScreenVMFile",
                                "src" : 5,
                                "trackNumber" : 0,
                                "attributes" : {
                                  "ident" : "Rec 03-04-20"
                                },
                                "parameters" : {
                                  "cursorScale" : {
                                    "type" : "double",
                                    "defaultValue" : 0.0,
                                    "interp" : "linr"
                                  },
                                  "cursorOpacity" : {
                                    "type" : "double",
                                    "defaultValue" : 0.0,
                                    "interp" : "linr"
                                  }
                                },
                                "effects" : [

                                ],
                                "start" : 12748,
                                "duration" : 2421,
                                "mediaStart" : 13603,
                                "mediaDuration" : 2421,
                                "scalar" : 1,
                                "animationTracks" : {

                                }
                              },
                          "audio" : 
                              {
                                "id" : 46,
                                "_type" : "AMFile",
                                "src" : 5,
                                "trackNumber" : 2,
                                "attributes" : {
                                  "ident" : "",
                                  "sampleRate" : 44100,
                                  "bitDepth" : 16,
                                  "gain" : 1.0,
                                  "mixToMono" : false
                                },
                                  "channelNumber" : "0,1",
                                "effects" : [

                                ],
                                "start" : 12748,
                                "duration" : 2421,
                                "mediaStart" : 13603,
                                "mediaDuration" : 2421,
                                "scalar" : 1,
                                "animationTracks" : {

                                }
                              }
,
                          "start" : 12748,
                          "duration" : 2421,
                          "mediaStart" : 0,
                          "mediaDuration" : 16024,
                          "scalar" : 1,
                          "metadata" : {
                            "AutoAppliedSmartFocus" : "False",
                            "WinSubProjectDisplayName" : "",
                            "clipSpeedAttribute" : false,
                            "default-scale0" : 0.666666666666667,
                            "default-scale1" : 0.666666666666667,
                            "default-translation0" : 0.0,
                            "default-translation1" : 0.0
                          }
                        }
                    ],
                    "effects" : [

                    ],
                    "start" : 2314,
                    "duration" : 12568,
                    "mediaStart" : 2314,
                    "mediaDuration" : 12568,
                    "scalar" : 1,
                    "metadata" : {
                      "AutoAppliedSmartFocus" : "False",
                      "WinSubProjectDisplayName" : "",
                      "clipSpeedAttribute" : false
                    },
                    "animationTracks" : {
                      "visual" : [
                        {
                          "endTime" : 2420,
                          "duration" : 30,
                          "range" : [ 2390, 30]
                        },
                        {
                          "endTime" : 2777,
                          "duration" : 30,
                          "range" : [ 2747, 30]
                        },
                        {
                          "endTime" : 2913,
                          "duration" : 30,
                          "range" : [ 2883, 30]
                        },
                        {
                          "endTime" : 3023,
                          "duration" : 30,
                          "range" : [ 2993, 30]
                        },
                        {
                          "endTime" : 10685,
                          "duration" : 30,
                          "range" : [ 10655, 30]
                        }
                      ]
                    }
                  },
                  {
                    "id" : 47,
                    "_type" : "StitchedMedia",
                    "minMediaStart" : 0,
                    "attributes" : {
                      "ident" : "Rec 03-04-20_002",
                      "gain" : 1.0,
                      "mixToMono" : false
                    },
                    "parameters" : {
                      "translation0" : {
                        "type" : "double",
                        "defaultValue" : 0.0,
                        "keyframes" : [
                          {
                            "endTime" : 0,
                            "time" : -30,
                            "value" : 251.761892709247,
                            "duration" : 30
                          },
                          {
                            "endTime" : 9078,
                            "time" : 9048,
                            "value" : 375.109059514712,
                            "duration" : 30
                          },
                          {
                            "endTime" : 9326,
                            "time" : 9296,
                            "value" : 375.10911207808,
                            "duration" : 30
                          },
                          {
                            "endTime" : 9804,
                            "time" : 9774,
                            "value" : 375.1091167187,
                            "duration" : 30
                          },
                          {
                            "endTime" : 11658,
                            "time" : 11628,
                            "value" : 375.109164775782,
                            "duration" : 30
                          },
                          {
                            "endTime" : 11755,
                            "time" : 11725,
                            "value" : 69.2990545000752,
                            "duration" : 30
                          },
                          {
                            "endTime" : 12178,
                            "time" : 12148,
                            "value" : -375.109154201956,
                            "duration" : 30
                          },
                          {
                            "endTime" : 12340,
                            "time" : 12310,
                            "value" : -12.9654635011533,
                            "duration" : 30
                          },
                          {
                            "endTime" : 12471,
                            "time" : 12441,
                            "value" : 375.109067390991,
                            "duration" : 30
                          }
                        ]
                      },
                      "translation1" : {
                        "type" : "double",
                        "defaultValue" : 0.0,
                        "keyframes" : [
                          {
                            "endTime" : 0,
                            "time" : -30,
                            "value" : -141.616033778349,
                            "duration" : 30
                          },
                          {
                            "endTime" : 9078,
                            "time" : 9048,
                            "value" : -130.522530979425,
                            "duration" : 30
                          },
                          {
                            "endTime" : 9326,
                            "time" : 9296,
                            "value" : 54.5730913524011,
                            "duration" : 30
                          },
                          {
                            "endTime" : 9804,
                            "time" : 9774,
                            "value" : -82.2367164580793,
                            "duration" : 30
                          },
                          {
                            "endTime" : 11658,
                            "time" : 11628,
                            "value" : -210.998919214296,
                            "duration" : 30
                          },
                          {
                            "endTime" : 11755,
                            "time" : 11725,
                            "value" : -25.9033283126992,
                            "duration" : 30
                          },
                          {
                            "endTime" : 12178,
                            "time" : 12148,
                            "value" : -210.998919214296,
                            "duration" : 30
                          },
                          {
                            "endTime" : 12340,
                            "time" : 12310,
                            "value" : -50.0462355733723,
                            "duration" : 30
                          },
                          {
                            "endTime" : 12471,
                            "time" : 12441,
                            "value" : -210.998919214296,
                            "duration" : 30
                          }
                        ]
                      },
                      "scale0" : {
                        "type" : "double",
                        "defaultValue" : 1.0,
                        "keyframes" : [
                          {
                            "endTime" : 0,
                            "time" : -30,
                            "value" : 0.928918594962542,
                            "duration" : 30
                          },
                          {
                            "endTime" : 9078,
                            "time" : 9048,
                            "value" : 1.05740525220097,
                            "duration" : 30
                          },
                          {
                            "endTime" : 9326,
                            "time" : 9296,
                            "value" : 1.05740529728652,
                            "duration" : 30
                          },
                          {
                            "endTime" : 9804,
                            "time" : 9774,
                            "value" : 1.05740534237208,
                            "duration" : 30
                          },
                          {
                            "endTime" : 11658,
                            "time" : 11628,
                            "value" : 1.05740538745763,
                            "duration" : 30
                          },
                          {
                            "endTime" : 11755,
                            "time" : 11725,
                            "value" : 1.0574054311896,
                            "duration" : 30
                          },
                          {
                            "endTime" : 12178,
                            "time" : 12148,
                            "value" : 1.05740527339018,
                            "duration" : 30
                          },
                          {
                            "endTime" : 12340,
                            "time" : 12310,
                            "value" : 1.05740531712214,
                            "duration" : 30
                          },
                          {
                            "endTime" : 12471,
                            "time" : 12441,
                            "value" : 1.05740526076521,
                            "duration" : 30
                          }
                        ]
                      },
                      "scale1" : {
                        "type" : "double",
                        "defaultValue" : 1.0,
                        "keyframes" : [
                          {
                            "endTime" : 0,
                            "time" : -30,
                            "value" : 0.928918628635357,
                            "duration" : 30
                          },
                          {
                            "endTime" : 9078,
                            "time" : 9048,
                            "value" : 1.05740540324523,
                            "duration" : 30
                          }
                        ]
                      },
                      "volume" : {
                        "type" : "double",
                        "keyframes" : [
                          {
                            "endTime" : 0,
                            "time" : 0,
                            "value" : 1.0,
                            "duration" : 0
                          },
                          {
                            "endTime" : 11040,
                            "time" : 11040,
                            "value" : 1.0,
                            "duration" : 0
                          },
                          {
                            "endTime" : 11041,
                            "time" : 11041,
                            "value" : 0.0,
                            "duration" : 0
                          },
                          {
                            "endTime" : 11349,
                            "time" : 11349,
                            "value" : 0.0,
                            "duration" : 0
                          },
                          {
                            "endTime" : 11350,
                            "time" : 11350,
                            "value" : 1.0,
                            "duration" : 0
                          }
                        ]
                      },
                      "cursorOpacity" : 1.0,
                      "cursorScale" : 1.0
                    },
                    "medias" : [
                        {
                          "id" : 48,
                          "_type" : "UnifiedMedia",
                          "video" : 
                              {
                                "id" : 49,
                                "_type" : "ScreenVMFile",
                                "src" : 6,
                                "trackNumber" : 0,
                                "attributes" : {
                                  "ident" : "Rec 03-04-20_002"
                                },
                                "parameters" : {
                                  "cursorScale" : {
                                    "type" : "double",
                                    "defaultValue" : 1.0,
                                    "interp" : "linr"
                                  },
                                  "cursorOpacity" : {
                                    "type" : "double",
                                    "defaultValue" : 1.0,
                                    "interp" : "linr"
                                  }
                                },
                                "effects" : [

                                ],
                                "start" : 0,
                                "duration" : 591,
                                "mediaStart" : 0,
                                "mediaDuration" : 591,
                                "scalar" : 1,
                                "animationTracks" : {

                                }
                              },
                          "audio" : 
                              {
                                "id" : 50,
                                "_type" : "AMFile",
                                "src" : 6,
                                "trackNumber" : 2,
                                "attributes" : {
                                  "ident" : "",
                                  "sampleRate" : 44100,
                                  "bitDepth" : 16,
                                  "gain" : 1.0,
                                  "mixToMono" : false
                                },
                                  "channelNumber" : "0,1",
                                "effects" : [

                                ],
                                "start" : 0,
                                "duration" : 591,
                                "mediaStart" : 0,
                                "mediaDuration" : 591,
                                "scalar" : 1,
                                "animationTracks" : {

                                }
                              }
,
                          "start" : 0,
                          "duration" : 591,
                          "mediaStart" : 0,
                          "mediaDuration" : 19103,
                          "scalar" : 1,
                          "metadata" : {
                            "AutoAppliedSmartFocus" : "False",
                            "WinSubProjectDisplayName" : "",
                            "clipSpeedAttribute" : false,
                            "default-scale0" : 0.666666666666667,
                            "default-scale1" : 0.666666666666667,
                            "default-translation0" : 0.0,
                            "default-translation1" : 0.0
                          }
                        },
                        {
                          "id" : 51,
                          "_type" : "UnifiedMedia",
                          "video" : 
                              {
                                "id" : 52,
                                "_type" : "ScreenVMFile",
                                "src" : 6,
                                "trackNumber" : 0,
                                "attributes" : {
                                  "ident" : "Rec 03-04-20_002"
                                },
                                "parameters" : {
                                  "cursorScale" : {
                                    "type" : "double",
                                    "defaultValue" : 1.0,
                                    "interp" : "linr"
                                  },
                                  "cursorOpacity" : {
                                    "type" : "double",
                                    "defaultValue" : 1.0,
                                    "interp" : "linr"
                                  }
                                },
                                "effects" : [

                                ],
                                "start" : 591,
                                "duration" : 645,
                                "mediaStart" : 893,
                                "mediaDuration" : 645,
                                "scalar" : 1,
                                "animationTracks" : {

                                }
                              },
                          "audio" : 
                              {
                                "id" : 53,
                                "_type" : "AMFile",
                                "src" : 6,
                                "trackNumber" : 2,
                                "attributes" : {
                                  "ident" : "",
                                  "sampleRate" : 44100,
                                  "bitDepth" : 16,
                                  "gain" : 1.0,
                                  "mixToMono" : false
                                },
                                  "channelNumber" : "0,1",
                                "effects" : [

                                ],
                                "start" : 591,
                                "duration" : 645,
                                "mediaStart" : 893,
                                "mediaDuration" : 645,
                                "scalar" : 1,
                                "animationTracks" : {

                                }
                              }
,
                          "start" : 591,
                          "duration" : 645,
                          "mediaStart" : 0,
                          "mediaDuration" : 19103,
                          "scalar" : 1,
                          "metadata" : {
                            "AutoAppliedSmartFocus" : "False",
                            "WinSubProjectDisplayName" : "",
                            "clipSpeedAttribute" : false,
                            "default-scale0" : 0.666666666666667,
                            "default-scale1" : 0.666666666666667,
                            "default-translation0" : 0.0,
                            "default-translation1" : 0.0
                          }
                        },
                        {
                          "id" : 54,
                          "_type" : "UnifiedMedia",
                          "video" : 
                              {
                                "id" : 55,
                                "_type" : "ScreenVMFile",
                                "src" : 6,
                                "trackNumber" : 0,
                                "attributes" : {
                                  "ident" : "Rec 03-04-20_002"
                                },
                                "parameters" : {
                                  "cursorScale" : {
                                    "type" : "double",
                                    "defaultValue" : 1.0,
                                    "interp" : "linr"
                                  },
                                  "cursorOpacity" : {
                                    "type" : "double",
                                    "defaultValue" : 1.0,
                                    "interp" : "linr"
                                  }
                                },
                                "effects" : [

                                ],
                                "start" : 1236,
                                "duration" : 481,
                                "mediaStart" : 1639,
                                "mediaDuration" : 481,
                                "scalar" : 1,
                                "animationTracks" : {

                                }
                              },
                          "audio" : 
                              {
                                "id" : 56,
                                "_type" : "AMFile",
                                "src" : 6,
                                "trackNumber" : 2,
                                "attributes" : {
                                  "ident" : "",
                                  "sampleRate" : 44100,
                                  "bitDepth" : 16,
                                  "gain" : 1.0,
                                  "mixToMono" : false
                                },
                                  "channelNumber" : "0,1",
                                "effects" : [

                                ],
                                "start" : 1236,
                                "duration" : 481,
                                "mediaStart" : 1639,
                                "mediaDuration" : 481,
                                "scalar" : 1,
                                "animationTracks" : {

                                }
                              }
,
                          "start" : 1236,
                          "duration" : 481,
                          "mediaStart" : 0,
                          "mediaDuration" : 19103,
                          "scalar" : 1,
                          "metadata" : {
                            "AutoAppliedSmartFocus" : "False",
                            "WinSubProjectDisplayName" : "",
                            "clipSpeedAttribute" : false,
                            "default-scale0" : 0.666666666666667,
                            "default-scale1" : 0.666666666666667,
                            "default-translation0" : 0.0,
                            "default-translation1" : 0.0
                          }
                        },
                        {
                          "id" : 57,
                          "_type" : "UnifiedMedia",
                          "video" : 
                              {
                                "id" : 58,
                                "_type" : "ScreenVMFile",
                                "src" : 6,
                                "trackNumber" : 0,
                                "attributes" : {
                                  "ident" : "Rec 03-04-20_002"
                                },
                                "parameters" : {
                                  "cursorScale" : {
                                    "type" : "double",
                                    "defaultValue" : 1.0,
                                    "interp" : "linr"
                                  },
                                  "cursorOpacity" : {
                                    "type" : "double",
                                    "defaultValue" : 1.0,
                                    "interp" : "linr"
                                  }
                                },
                                "effects" : [

                                ],
                                "start" : 1717,
                                "duration" : 1250,
                                "mediaStart" : 2281,
                                "mediaDuration" : 1250,
                                "scalar" : 1,
                                "animationTracks" : {

                                }
                              },
                          "audio" : 
                              {
                                "id" : 59,
                                "_type" : "AMFile",
                                "src" : 6,
                                "trackNumber" : 2,
                                "attributes" : {
                                  "ident" : "",
                                  "sampleRate" : 44100,
                                  "bitDepth" : 16,
                                  "gain" : 1.0,
                                  "mixToMono" : false
                                },
                                  "channelNumber" : "0,1",
                                "effects" : [

                                ],
                                "start" : 1717,
                                "duration" : 1250,
                                "mediaStart" : 2281,
                                "mediaDuration" : 1250,
                                "scalar" : 1,
                                "animationTracks" : {

                                }
                              }
,
                          "start" : 1717,
                          "duration" : 1250,
                          "mediaStart" : 0,
                          "mediaDuration" : 19103,
                          "scalar" : 1,
                          "metadata" : {
                            "AutoAppliedSmartFocus" : "False",
                            "WinSubProjectDisplayName" : "",
                            "clipSpeedAttribute" : false,
                            "default-scale0" : 0.666666666666667,
                            "default-scale1" : 0.666666666666667,
                            "default-translation0" : 0.0,
                            "default-translation1" : 0.0
                          }
                        },
                        {
                          "id" : 60,
                          "_type" : "UnifiedMedia",
                          "video" : 
                              {
                                "id" : 61,
                                "_type" : "ScreenVMFile",
                                "src" : 6,
                                "trackNumber" : 0,
                                "attributes" : {
                                  "ident" : "Rec 03-04-20_002"
                                },
                                "parameters" : {
                                  "cursorScale" : {
                                    "type" : "double",
                                    "defaultValue" : 1.0,
                                    "interp" : "linr"
                                  },
                                  "cursorOpacity" : {
                                    "type" : "double",
                                    "defaultValue" : 1.0,
                                    "interp" : "linr"
                                  }
                                },
                                "effects" : [

                                ],
                                "start" : 2967,
                                "duration" : 434,
                                "mediaStart" : 3635,
                                "mediaDuration" : 434,
                                "scalar" : 1,
                                "animationTracks" : {

                                }
                              },
                          "audio" : 
                              {
                                "id" : 62,
                                "_type" : "AMFile",
                                "src" : 6,
                                "trackNumber" : 2,
                                "attributes" : {
                                  "ident" : "",
                                  "sampleRate" : 44100,
                                  "bitDepth" : 16,
                                  "gain" : 1.0,
                                  "mixToMono" : false
                                },
                                  "channelNumber" : "0,1",
                                "effects" : [

                                ],
                                "start" : 2967,
                                "duration" : 434,
                                "mediaStart" : 3635,
                                "mediaDuration" : 434,
                                "scalar" : 1,
                                "animationTracks" : {

                                }
                              }
,
                          "start" : 2967,
                          "duration" : 434,
                          "mediaStart" : 0,
                          "mediaDuration" : 19103,
                          "scalar" : 1,
                          "metadata" : {
                            "AutoAppliedSmartFocus" : "False",
                            "WinSubProjectDisplayName" : "",
                            "clipSpeedAttribute" : false,
                            "default-scale0" : 0.666666666666667,
                            "default-scale1" : 0.666666666666667,
                            "default-translation0" : 0.0,
                            "default-translation1" : 0.0
                          }
                        },
                        {
                          "id" : 63,
                          "_type" : "UnifiedMedia",
                          "video" : 
                              {
                                "id" : 64,
                                "_type" : "ScreenVMFile",
                                "src" : 6,
                                "trackNumber" : 0,
                                "attributes" : {
                                  "ident" : "Rec 03-04-20_002"
                                },
                                "parameters" : {
                                  "cursorScale" : {
                                    "type" : "double",
                                    "defaultValue" : 1.0,
                                    "interp" : "linr"
                                  },
                                  "cursorOpacity" : {
                                    "type" : "double",
                                    "defaultValue" : 1.0,
                                    "interp" : "linr"
                                  }
                                },
                                "effects" : [

                                ],
                                "start" : 3401,
                                "duration" : 1410,
                                "mediaStart" : 4265,
                                "mediaDuration" : 1410,
                                "scalar" : 1,
                                "animationTracks" : {

                                }
                              },
                          "audio" : 
                              {
                                "id" : 65,
                                "_type" : "AMFile",
                                "src" : 6,
                                "trackNumber" : 2,
                                "attributes" : {
                                  "ident" : "",
                                  "sampleRate" : 44100,
                                  "bitDepth" : 16,
                                  "gain" : 1.0,
                                  "mixToMono" : false
                                },
                                  "channelNumber" : "0,1",
                                "effects" : [

                                ],
                                "start" : 3401,
                                "duration" : 1410,
                                "mediaStart" : 4265,
                                "mediaDuration" : 1410,
                                "scalar" : 1,
                                "animationTracks" : {

                                }
                              }
,
                          "start" : 3401,
                          "duration" : 1410,
                          "mediaStart" : 0,
                          "mediaDuration" : 19103,
                          "scalar" : 1,
                          "metadata" : {
                            "AutoAppliedSmartFocus" : "False",
                            "WinSubProjectDisplayName" : "",
                            "clipSpeedAttribute" : false,
                            "default-scale0" : 0.666666666666667,
                            "default-scale1" : 0.666666666666667,
                            "default-translation0" : 0.0,
                            "default-translation1" : 0.0
                          }
                        },
                        {
                          "id" : 66,
                          "_type" : "UnifiedMedia",
                          "video" : 
                              {
                                "id" : 67,
                                "_type" : "ScreenVMFile",
                                "src" : 6,
                                "trackNumber" : 0,
                                "attributes" : {
                                  "ident" : "Rec 03-04-20_002"
                                },
                                "parameters" : {
                                  "cursorScale" : {
                                    "type" : "double",
                                    "defaultValue" : 1.0,
                                    "interp" : "linr"
                                  },
                                  "cursorOpacity" : {
                                    "type" : "double",
                                    "defaultValue" : 1.0,
                                    "interp" : "linr"
                                  }
                                },
                                "effects" : [

                                ],
                                "start" : 4811,
                                "duration" : 1957,
                                "mediaStart" : 5852,
                                "mediaDuration" : 1957,
                                "scalar" : 1,
                                "animationTracks" : {

                                }
                              },
                          "audio" : 
                              {
                                "id" : 68,
                                "_type" : "AMFile",
                                "src" : 6,
                                "trackNumber" : 2,
                                "attributes" : {
                                  "ident" : "",
                                  "sampleRate" : 44100,
                                  "bitDepth" : 16,
                                  "gain" : 1.0,
                                  "mixToMono" : false
                                },
                                  "channelNumber" : "0,1",
                                "effects" : [

                                ],
                                "start" : 4811,
                                "duration" : 1957,
                                "mediaStart" : 5852,
                                "mediaDuration" : 1957,
                                "scalar" : 1,
                                "animationTracks" : {

                                }
                              }
,
                          "start" : 4811,
                          "duration" : 1957,
                          "mediaStart" : 0,
                          "mediaDuration" : 19103,
                          "scalar" : 1,
                          "metadata" : {
                            "AutoAppliedSmartFocus" : "False",
                            "WinSubProjectDisplayName" : "",
                            "clipSpeedAttribute" : false,
                            "default-scale0" : 0.666666666666667,
                            "default-scale1" : 0.666666666666667,
                            "default-translation0" : 0.0,
                            "default-translation1" : 0.0
                          }
                        },
                        {
                          "id" : 69,
                          "_type" : "UnifiedMedia",
                          "video" : 
                              {
                                "id" : 70,
                                "_type" : "ScreenVMFile",
                                "src" : 6,
                                "trackNumber" : 0,
                                "attributes" : {
                                  "ident" : "Rec 03-04-20_002"
                                },
                                "parameters" : {
                                  "cursorScale" : {
                                    "type" : "double",
                                    "defaultValue" : 1.0,
                                    "interp" : "linr"
                                  },
                                  "cursorOpacity" : {
                                    "type" : "double",
                                    "defaultValue" : 1.0,
                                    "interp" : "linr"
                                  }
                                },
                                "effects" : [

                                ],
                                "start" : 6768,
                                "duration" : 3225,
                                "mediaStart" : 7840,
                                "mediaDuration" : 3225,
                                "scalar" : 1,
                                "animationTracks" : {

                                }
                              },
                          "audio" : 
                              {
                                "id" : 71,
                                "_type" : "AMFile",
                                "src" : 6,
                                "trackNumber" : 2,
                                "attributes" : {
                                  "ident" : "",
                                  "sampleRate" : 44100,
                                  "bitDepth" : 16,
                                  "gain" : 1.0,
                                  "mixToMono" : false
                                },
                                  "channelNumber" : "0,1",
                                "effects" : [

                                ],
                                "start" : 6768,
                                "duration" : 3225,
                                "mediaStart" : 7840,
                                "mediaDuration" : 3225,
                                "scalar" : 1,
                                "animationTracks" : {

                                }
                              }
,
                          "start" : 6768,
                          "duration" : 3225,
                          "mediaStart" : 0,
                          "mediaDuration" : 19103,
                          "scalar" : 1,
                          "metadata" : {
                            "AutoAppliedSmartFocus" : "False",
                            "WinSubProjectDisplayName" : "",
                            "clipSpeedAttribute" : false,
                            "default-scale0" : 0.666666666666667,
                            "default-scale1" : 0.666666666666667,
                            "default-translation0" : 0.0,
                            "default-translation1" : 0.0
                          }
                        },
                        {
                          "id" : 72,
                          "_type" : "UnifiedMedia",
                          "video" : 
                              {
                                "id" : 73,
                                "_type" : "ScreenVMFile",
                                "src" : 6,
                                "trackNumber" : 0,
                                "attributes" : {
                                  "ident" : "Rec 03-04-20_002"
                                },
                                "parameters" : {
                                  "cursorScale" : {
                                    "type" : "double",
                                    "defaultValue" : 1.0,
                                    "interp" : "linr"
                                  },
                                  "cursorOpacity" : {
                                    "type" : "double",
                                    "defaultValue" : 1.0,
                                    "interp" : "linr"
                                  }
                                },
                                "effects" : [

                                ],
                                "start" : 9993,
                                "duration" : 1911,
                                "mediaStart" : 11417,
                                "mediaDuration" : 1911,
                                "scalar" : 1,
                                "animationTracks" : {

                                }
                              },
                          "audio" : 
                              {
                                "id" : 74,
                                "_type" : "AMFile",
                                "src" : 6,
                                "trackNumber" : 2,
                                "attributes" : {
                                  "ident" : "",
                                  "sampleRate" : 44100,
                                  "bitDepth" : 16,
                                  "gain" : 1.0,
                                  "mixToMono" : false
                                },
                                  "channelNumber" : "0,1",
                                "effects" : [

                                ],
                                "start" : 9993,
                                "duration" : 1911,
                                "mediaStart" : 11417,
                                "mediaDuration" : 1911,
                                "scalar" : 1,
                                "animationTracks" : {

                                }
                              }
,
                          "start" : 9993,
                          "duration" : 1911,
                          "mediaStart" : 0,
                          "mediaDuration" : 19103,
                          "scalar" : 1,
                          "metadata" : {
                            "AutoAppliedSmartFocus" : "False",
                            "WinSubProjectDisplayName" : "",
                            "clipSpeedAttribute" : false,
                            "default-scale0" : 0.666666666666667,
                            "default-scale1" : 0.666666666666667,
                            "default-translation0" : 0.0,
                            "default-translation1" : 0.0
                          }
                        },
                        {
                          "id" : 75,
                          "_type" : "UnifiedMedia",
                          "video" : 
                              {
                                "id" : 76,
                                "_type" : "ScreenVMFile",
                                "src" : 6,
                                "trackNumber" : 0,
                                "attributes" : {
                                  "ident" : "Rec 03-04-20_002"
                                },
                                "parameters" : {
                                  "cursorScale" : {
                                    "type" : "double",
                                    "defaultValue" : 1.0,
                                    "interp" : "linr"
                                  },
                                  "cursorOpacity" : {
                                    "type" : "double",
                                    "defaultValue" : 1.0,
                                    "interp" : "linr"
                                  }
                                },
                                "effects" : [

                                ],
                                "start" : 11904,
                                "duration" : 2232,
                                "mediaStart" : 13447,
                                "mediaDuration" : 2232,
                                "scalar" : 1,
                                "animationTracks" : {

                                }
                              },
                          "audio" : 
                              {
                                "id" : 77,
                                "_type" : "AMFile",
                                "src" : 6,
                                "trackNumber" : 2,
                                "attributes" : {
                                  "ident" : "",
                                  "sampleRate" : 44100,
                                  "bitDepth" : 16,
                                  "gain" : 1.0,
                                  "mixToMono" : false
                                },
                                  "channelNumber" : "0,1",
                                "effects" : [

                                ],
                                "start" : 11904,
                                "duration" : 2232,
                                "mediaStart" : 13447,
                                "mediaDuration" : 2232,
                                "scalar" : 1,
                                "animationTracks" : {

                                }
                              }
,
                          "start" : 11904,
                          "duration" : 2232,
                          "mediaStart" : 0,
                          "mediaDuration" : 19103,
                          "scalar" : 1,
                          "metadata" : {
                            "AutoAppliedSmartFocus" : "False",
                            "WinSubProjectDisplayName" : "",
                            "clipSpeedAttribute" : false,
                            "default-scale0" : 0.666666666666667,
                            "default-scale1" : 0.666666666666667,
                            "default-translation0" : 0.0,
                            "default-translation1" : 0.0
                          }
                        },
                        {
                          "id" : 78,
                          "_type" : "UnifiedMedia",
                          "video" : 
                              {
                                "id" : 79,
                                "_type" : "ScreenVMFile",
                                "src" : 6,
                                "trackNumber" : 0,
                                "attributes" : {
                                  "ident" : "Rec 03-04-20_002"
                                },
                                "parameters" : {
                                  "cursorScale" : {
                                    "type" : "double",
                                    "defaultValue" : 1.0,
                                    "interp" : "linr"
                                  },
                                  "cursorOpacity" : {
                                    "type" : "double",
                                    "defaultValue" : 1.0,
                                    "interp" : "linr"
                                  }
                                },
                                "effects" : [

                                ],
                                "start" : 14136,
                                "duration" : 385,
                                "mediaStart" : 15938,
                                "mediaDuration" : 385,
                                "scalar" : 1,
                                "animationTracks" : {

                                }
                              },
                          "audio" : 
                              {
                                "id" : 80,
                                "_type" : "AMFile",
                                "src" : 6,
                                "trackNumber" : 2,
                                "attributes" : {
                                  "ident" : "",
                                  "sampleRate" : 44100,
                                  "bitDepth" : 16,
                                  "gain" : 1.0,
                                  "mixToMono" : false
                                },
                                  "channelNumber" : "0,1",
                                "effects" : [

                                ],
                                "start" : 14136,
                                "duration" : 385,
                                "mediaStart" : 15938,
                                "mediaDuration" : 385,
                                "scalar" : 1,
                                "animationTracks" : {

                                }
                              }
,
                          "start" : 14136,
                          "duration" : 385,
                          "mediaStart" : 0,
                          "mediaDuration" : 19103,
                          "scalar" : 1,
                          "metadata" : {
                            "AutoAppliedSmartFocus" : "False",
                            "WinSubProjectDisplayName" : "",
                            "clipSpeedAttribute" : false,
                            "default-scale0" : 0.666666666666667,
                            "default-scale1" : 0.666666666666667,
                            "default-translation0" : 0.0,
                            "default-translation1" : 0.0
                          }
                        },
                        {
                          "id" : 81,
                          "_type" : "UnifiedMedia",
                          "video" : 
                              {
                                "id" : 82,
                                "_type" : "ScreenVMFile",
                                "src" : 6,
                                "trackNumber" : 0,
                                "attributes" : {
                                  "ident" : "Rec 03-04-20_002"
                                },
                                "parameters" : {
                                  "cursorScale" : {
                                    "type" : "double",
                                    "defaultValue" : 1.0,
                                    "interp" : "linr"
                                  },
                                  "cursorOpacity" : {
                                    "type" : "double",
                                    "defaultValue" : 1.0,
                                    "interp" : "linr"
                                  }
                                },
                                "effects" : [

                                ],
                                "start" : 14521,
                                "duration" : 2743,
                                "mediaStart" : 16360,
                                "mediaDuration" : 2743,
                                "scalar" : 1,
                                "animationTracks" : {

                                }
                              },
                          "audio" : 
                              {
                                "id" : 83,
                                "_type" : "AMFile",
                                "src" : 6,
                                "trackNumber" : 2,
                                "attributes" : {
                                  "ident" : "",
                                  "sampleRate" : 44100,
                                  "bitDepth" : 16,
                                  "gain" : 1.0,
                                  "mixToMono" : false
                                },
                                  "channelNumber" : "0,1",
                                "effects" : [

                                ],
                                "start" : 14521,
                                "duration" : 2743,
                                "mediaStart" : 16360,
                                "mediaDuration" : 2743,
                                "scalar" : 1,
                                "animationTracks" : {

                                }
                              }
,
                          "start" : 14521,
                          "duration" : 2743,
                          "mediaStart" : 0,
                          "mediaDuration" : 19103,
                          "scalar" : 1,
                          "metadata" : {
                            "AutoAppliedSmartFocus" : "False",
                            "WinSubProjectDisplayName" : "",
                            "clipSpeedAttribute" : false,
                            "default-scale0" : 0.666666666666667,
                            "default-scale1" : 0.666666666666667,
                            "default-translation0" : 0.0,
                            "default-translation1" : 0.0
                          }
                        }
                    ],
                    "effects" : [

                    ],
                    "start" : 14882,
                    "duration" : 17264,
                    "mediaStart" : 0,
                    "mediaDuration" : 17264,
                    "scalar" : 1,
                    "metadata" : {
                      "AutoAppliedSmartFocus" : "False",
                      "WinSubProjectDisplayName" : "",
                      "clipSpeedAttribute" : false
                    },
                    "animationTracks" : {
                      "visual" : [
                        {
                          "endTime" : 0,
                          "duration" : 30,
                          "range" : [ -30, 30]
                        },
                        {
                          "endTime" : 9078,
                          "duration" : 30,
                          "range" : [ 9048, 30]
                        },
                        {
                          "endTime" : 9326,
                          "duration" : 30,
                          "range" : [ 9296, 30]
                        },
                        {
                          "endTime" : 9804,
                          "duration" : 30,
                          "range" : [ 9774, 30]
                        },
                        {
                          "endTime" : 11658,
                          "duration" : 30,
                          "range" : [ 11628, 30]
                        },
                        {
                          "endTime" : 11755,
                          "duration" : 30,
                          "range" : [ 11725, 30]
                        },
                        {
                          "endTime" : 12178,
                          "duration" : 30,
                          "range" : [ 12148, 30]
                        },
                        {
                          "endTime" : 12340,
                          "duration" : 30,
                          "range" : [ 12310, 30]
                        },
                        {
                          "endTime" : 12471,
                          "duration" : 30,
                          "range" : [ 12441, 30]
                        }
                      ]
                    }
                  }
                ],
                "transitions" : [
                  {
                    "name" : "Fade",
                    "duration" : 30,
                    "trivial" : false,
                    "useAudioPreRoll" : true,
                    "useVisualPreRoll" : true,
                    "rightMedia" : 22
                  },
                  {
                    "name" : "Fade",
                    "duration" : 15,
                    "trivial" : false,
                    "useAudioPreRoll" : true,
                    "useVisualPreRoll" : true,
                    "leftMedia" : 22,
                    "rightMedia" : 47
                  },
                  {
                    "name" : "Fade",
                    "duration" : 30,
                    "trivial" : false,
                    "useAudioPreRoll" : true,
                    "useVisualPreRoll" : true,
                    "leftMedia" : 47
                  }
                ]
              },
              {
                "trackIndex" : 12,
                "medias" : [
                  {
                    "id" : 84,
                    "_type" : "StitchedMedia",
                    "minMediaStart" : 0,
                    "attributes" : {
                      "ident" : "Rec 03-04-20",
                      "gain" : 1.0,
                      "mixToMono" : false
                    },
                    "parameters" : {
                      "volume" : 1.0,
                      "cursorOpacity" : 1.0,
                      "cursorScale" : 1.0
                    },
                    "medias" : [
                        {
                          "id" : 85,
                          "_type" : "AMFile",
                          "src" : 5,
                          "trackNumber" : 1,
                          "attributes" : {
                            "ident" : "Rec 03-04-20",
                            "sampleRate" : 44100,
                            "bitDepth" : 16,
                            "gain" : 1.0,
                            "mixToMono" : false
                          },
                            "channelNumber" : "0,1",
                          "effects" : [

                          ],
                          "start" : 0,
                          "duration" : 2795,
                          "mediaStart" : 0,
                          "mediaDuration" : 2795,
                          "scalar" : 1,
                          "metadata" : {
                            "WinSubProjectDisplayName" : "",
                            "clipSpeedAttribute" : false
                          },
                          "animationTracks" : {

                          }
                        },
                        {
                          "id" : 86,
                          "_type" : "AMFile",
                          "src" : 5,
                          "trackNumber" : 1,
                          "attributes" : {
                            "ident" : "Rec 03-04-20",
                            "sampleRate" : 44100,
                            "bitDepth" : 16,
                            "gain" : 1.0,
                            "mixToMono" : false
                          },
                            "channelNumber" : "0,1",
                          "effects" : [

                          ],
                          "start" : 2795,
                          "duration" : 659,
                          "mediaStart" : 2919,
                          "mediaDuration" : 659,
                          "scalar" : 1,
                          "metadata" : {
                            "WinSubProjectDisplayName" : "",
                            "clipSpeedAttribute" : false
                          },
                          "animationTracks" : {

                          }
                        },
                        {
                          "id" : 87,
                          "_type" : "AMFile",
                          "src" : 5,
                          "trackNumber" : 1,
                          "attributes" : {
                            "ident" : "Rec 03-04-20",
                            "sampleRate" : 44100,
                            "bitDepth" : 16,
                            "gain" : 1.0,
                            "mixToMono" : false
                          },
                            "channelNumber" : "0,1",
                          "effects" : [

                          ],
                          "start" : 3454,
                          "duration" : 851,
                          "mediaStart" : 3806,
                          "mediaDuration" : 851,
                          "scalar" : 1,
                          "metadata" : {
                            "WinSubProjectDisplayName" : "",
                            "clipSpeedAttribute" : false
                          },
                          "animationTracks" : {

                          }
                        },
                        {
                          "id" : 88,
                          "_type" : "AMFile",
                          "src" : 5,
                          "trackNumber" : 1,
                          "attributes" : {
                            "ident" : "Rec 03-04-20",
                            "sampleRate" : 44100,
                            "bitDepth" : 16,
                            "gain" : 1.0,
                            "mixToMono" : false
                          },
                            "channelNumber" : "0,1",
                          "effects" : [

                          ],
                          "start" : 4305,
                          "duration" : 1435,
                          "mediaStart" : 4691,
                          "mediaDuration" : 1435,
                          "scalar" : 1,
                          "metadata" : {
                            "WinSubProjectDisplayName" : "",
                            "clipSpeedAttribute" : false
                          },
                          "animationTracks" : {

                          }
                        },
                        {
                          "id" : 89,
                          "_type" : "AMFile",
                          "src" : 5,
                          "trackNumber" : 1,
                          "attributes" : {
                            "ident" : "Rec 03-04-20",
                            "sampleRate" : 44100,
                            "bitDepth" : 16,
                            "gain" : 1.0,
                            "mixToMono" : false
                          },
                            "channelNumber" : "0,1",
                          "effects" : [

                          ],
                          "start" : 5740,
                          "duration" : 2936,
                          "mediaStart" : 6311,
                          "mediaDuration" : 2936,
                          "scalar" : 1,
                          "metadata" : {
                            "WinSubProjectDisplayName" : "",
                            "clipSpeedAttribute" : false
                          },
                          "animationTracks" : {

                          }
                        },
                        {
                          "id" : 90,
                          "_type" : "AMFile",
                          "src" : 5,
                          "trackNumber" : 1,
                          "attributes" : {
                            "ident" : "Rec 03-04-20",
                            "sampleRate" : 44100,
                            "bitDepth" : 16,
                            "gain" : 1.0,
                            "mixToMono" : false
                          },
                            "channelNumber" : "0,1",
                          "effects" : [

                          ],
                          "start" : 8676,
                          "duration" : 2130,
                          "mediaStart" : 9356,
                          "mediaDuration" : 2130,
                          "scalar" : 1,
                          "metadata" : {
                            "WinSubProjectDisplayName" : "",
                            "clipSpeedAttribute" : false
                          },
                          "animationTracks" : {

                          }
                        },
                        {
                          "id" : 91,
                          "_type" : "AMFile",
                          "src" : 5,
                          "trackNumber" : 1,
                          "attributes" : {
                            "ident" : "Rec 03-04-20",
                            "sampleRate" : 44100,
                            "bitDepth" : 16,
                            "gain" : 1.0,
                            "mixToMono" : false
                          },
                            "channelNumber" : "0,1",
                          "effects" : [

                          ],
                          "start" : 10806,
                          "duration" : 1942,
                          "mediaStart" : 11606,
                          "mediaDuration" : 1942,
                          "scalar" : 1,
                          "metadata" : {
                            "WinSubProjectDisplayName" : "",
                            "clipSpeedAttribute" : false
                          },
                          "animationTracks" : {

                          }
                        },
                        {
                          "id" : 92,
                          "_type" : "AMFile",
                          "src" : 5,
                          "trackNumber" : 1,
                          "attributes" : {
                            "ident" : "Rec 03-04-20",
                            "sampleRate" : 44100,
                            "bitDepth" : 16,
                            "gain" : 1.0,
                            "mixToMono" : false
                          },
                            "channelNumber" : "0,1",
                          "effects" : [

                          ],
                          "start" : 12748,
                          "duration" : 2418,
                          "mediaStart" : 13603,
                          "mediaDuration" : 2418,
                          "scalar" : 1,
                          "metadata" : {
                            "WinSubProjectDisplayName" : "",
                            "clipSpeedAttribute" : false
                          },
                          "animationTracks" : {

                          }
                        }
                    ],
                    "effects" : [
                        {
                          "effectName" : "NoiseReduction",
                          "category" : "categoryAudioEffects",
                          "parameters" : {
                            "denoiserAmount" : 8.0,
                            "denoiserThreshold" : 0.0,
                            "noiseProfile" : "cBSrP0KLAUEnojhAXyEEQATaJj86+TY/NYhAP1w9yD/aXUhA1GS6PwCTiD+APzY/94ECPxISFz+6\r\nS5M+Fj3uPWbUsT4GaQM/V78cPthDiz5Up38/6lWLPdQHwT1KaIg+/qxrP1KCKT7AUDA+X4CCPhb6\r\ngD9lvhQ9sZn3PQY/kD3pEbI9viAPPn/3nT5e3LY97cYqPkCNXD7qU589zu7PPQKNOj08/YU92g7N\r\nPZ+thz1eMx0+dXXIPTQj1T0xpZo9Ljw9Pt7iJz2Vmxo+SNt5PkiYwz1Uqgg9JqHnPkg60j3wQdk9\r\nhlKEPsN5nT64DIg/jHNiPofCDj/aSi4/YBDiPnZ2hT9jNgU/SVyWP9401D7IZQY/MqkyP+Krqj7O\r\nW00/O0O6P85/xj69/G0+BAO9Ppq50z9aonU/SQ44QEkhtj8wJpA/+GWlPpYNVkAKr9A+WjGlPllm\r\nPj5MaJk+Kb2HPhPx4D4qI6Q+pQ6YPq3Ugj+kX8E/vwowP6upgD6ZTIE9c3q1PED8Iz14/XI+RO4Z\r\nPsOEmT659Mk9dX7hPny3bz8tCFU+0jkCPrq7Qj6siGs+Pa3mPb+e5T1N9ww+sFfePfMB6D2UmhU/\r\nIV9wPZou6T0It2E9UiHBPOTyiT3Ch7Y+IsYBPk9MrD6OQQk/pmEGP3WqWD26q189uLg4P3UgQz4o\r\nZQE/DIx0PjSwRT4sqfY+LazAPw/2Ej/lL2c/EnR7P7JLrz6UyRFAS+bJP2rpuz5G0HE/MoecPj6L\r\n1T5bepU/aE/ePlJO8j6fbk0/DaK7P1PtXkBpRVQ/Nc61Pnpwgz/m0DBAgX3TQGxEVT8qyyJBTcCs\r\nPn8hFkH2+RtAXZUdQFhQQUCAeM8/3QP+P6iwkEDvozBBpL6nQNN5tT5M1btATASIQACQxkCjMHxA\r\nWU8AQF9ooj+ZzQVA6AZrQCBGfj9sq7hA6kepP2AToUCfoKhANa0ZQEMLFT8k/co/92UXQKtYVT79\r\nd90+hOq9PqHK5j5bmdc/WzKaP5AmEEBF6CBB/iM9QaSzRkEerA9AOF7XPyTS2UDOiDZAenk3QPnS\r\n7UDrkLRAjy7xP9XWeD9lwn5AxGkIQfPeEkG8tv8/FinbPxKebz+typJAHQq3PzdJgj4Z8yo/aBEO\r\nQJEbBz8XSy8/8RCAPzuPkD4wP+Y/mwN5P+zxbD/GKxs+NdUFP5UfgUCyGC1A6W8IQJXSwD6WvUA/\r\n/ZzhQEVsCkDD3CBA0yLsP5KTZ0Hy1/VAkgKSP1UsskAwS6E//pp5P7B3jj6YDoI/DDEIPi4APj6c\r\nUAE+7YE8Pr2HJz6gues9uaqFPrVZTD+TVrc+8VbXPhDwjz7/s5w/rKcpQEITJ0CS9OY/jdhMQMHA\r\njD8sLf8/uKUXQPXEYUCfmARB1WhEQK1dXz8qPSI/gOeiPsOX5z8aFhRAMqQkPwsZTUAb6gNA8mYI\r\nP9rWUEDjec4/siaDPxjs9T6XZHNAxhKbQMb6Vj8yP/w/1TchQEFS4j/ZZvc/bV3JP2bhaD9m91tA\r\n+Zo0QGPR0z+UV9E/lUtzQKSu2UCmKApAWgeaPzmtXz5xR9I+HlIJP6DeVT+YmBk/J0+VP3RUQT/k\r\nTGM/lASZP/aFWz8f9cU/Tut0PraroD6cQ74+amVuPrmkPT86T8w+K/BFP/MEET9RPTI/QYQZP6LE\r\nRz4rebE+KbvkP06NqT69CkU+euIgPurNpT5qSA8/rdU2Pma/tT7y3CY//2dDPxYrqT8N2Ps+7xB0\r\nP/csEkCghno/+kQqQMTMn0Aso40/504kQIbmNUCiJJpAeoSsPlQh4j5e2tQ/tUPjP7Iztj/YKTU/\r\nR1vvPw8ihj8k1StA43P2P1i61T89q94/gVl1QPUhNkECZFtAYVApQY6sQkDQypRBuGllQGS4HEIb\r\nVQFBEqY7QYoSM0HuhGQ/WYHaQGDMOUGDRx5A+gbJQEJx6kC4fH5AcveZQGqGb0CVON8/G9XhQXD4\r\nhUAgyYxBEJuqQANMlUGTC15AVRxcQZ9T8D6iaIM/QXcWQJpi4z+/x+I/Dp7fQOVO3EAjRSNA7NmZ\r\nP9oOuECXu4xAkri9QIZRgUAt25pAN2wWQEWAJUDRbcBAj3YoQDvxSz9CmJA+2T3+PsbfwD4sXgRA\r\nDP44P6rhGT9005NA1OafPxy2DEGoIIFAj5CcP6AskkD/NKBAlEgPP56hyj/KamdArkAVQOBg/T/M\r\n9MlA/UQeQEAtej9EAjpA+5tGQLUbHz/TFHA/f4oBP4xLiT+t5LA/EbtGP3XS1T69lUFAtKMzPw6/\r\nzz9fuyFA13SMPxCJoT48Uog+6MlpPixCmz4WrxI/d1C2Pi7UzT6eBYE/ZaiXPiD6Dj0zs4U/5+aK\r\nP4CDxz/WXyc/UXRwPR82ZT4B3rI/xN/oPw2AkD/Kq5M/dHc7P4RjCj9H2i8/7Kl7PlL9ID8zupU+\r\n0v2XPskpHz8LDTY/WAdAP+Ennz8Kb9M+2apXP7MDDT52i4A9CLU/PkfZ+j7Jhv0+/6E+Pi30Tz4n\r\nf989aR75Pgnqaj+e8Ts/LmdBPtaFlT63caU9vHLePUTptj6ODsA+0d4GPiuzBz72ZZQ+71ODP7iN\r\nLT/cHNY9yLzNPec8uz00FaU+EZmpP7GZsT/+cks/jdklQPQufD/6UYI/GRpdPwSDID8/zLs/lIwq\r\nP+bKGT8sNno+rlxKP4sKaT/JOPA9Lp3DPjPfFz8Y86o9/PnlPtCLrz7+y3g/A9YIPmyiqT56To09\r\n1R+GPSFF0Tx+IlI+im+nPno3zz2tFJQ92jIbP2wVjjzRVCk+EjMvPuf/pT+1+CQ/e4LEPi18rT36\r\nrp09KCjCPtyEPz4dzA0+77zWPUkQnD5wCnU+jnLqPRRXVjzQZ+s91CILPb0PET3GL989cEKwPTuc\r\n3T3UcT095oDePlo2Aj73Caw9mG1ePnZbGj4QN4E9bo/YPjib0j6cegc9rEV4PbgnRD3c7xk+ES+2\r\nPUL9hj6qMVQ9VpCeO5CkqTw/3xI9Q26sPUYeAT3WF/08QlLBPK11Qj2VShY+u688Po7smzysVpA9\r\nBgCdPTjYSj7yHIg+RDpJPq1exT3MVMM9CtSdPehbiD0YwXs8VKmfPpQ9tT1CmQY9cgYTPMyV7z0W\r\nx1I9EEgZPVJ6QT0oAJk95ctfPQgODj3e1Zk8qgTGPT6rbj25EUI+aOJVPYEzxjv6SyI9VdOSPZx1\r\nuD1yFFU8ABvyPTBt6DzMBlU+LfuePbU7gz2ti+k8tP86PmCQ6z34niM+rMUqPT81gT1UUgQ9KJwO\r\nPtGYhj3qtio9xdDnPKK+AD2JQJg9EOrXOzBaDD1HcHk8QnyBPaRhPj3yGYQ8QlGWPY+/az027JQ+\r\nTj+RPuzMiT2aJuE947CoPSIJ2T3DJaU9caxfPFjQ/T3m+388HNF7PXgyRDzQ9K08y/ckPWDGoTu3\r\nGYE9GSgKPajr9DwcSgM+ZcxkPTu7hDx59fM8T419PKg7pT2kQog9LXMRPdXzzzyyyDY9Mh6gPQ6D\r\nGT3+LXE8L0cEPXuL/jx5Y7k82By4PWE1Zj2QWbs8EG00PPENdz2cogQ9tzJePHhWnzsgY/A7cvcB\r\nPXuJbTzUO008qjIJPkMvlz2v8lE+d0o9PV9ECjz1d2Y9C+e9PZ6bqTxqypQ8nAlsPdAHgD3wJU4+\r\n0r8iPTWtTT4ZjNY9A2pVPO0Wvz2L//c9NYwtPaIIwz1MTDU9zKSlPAweyz3apBk9wT2cPdV3Az3q\r\njBc9v+I3PmlHpzybpK49n7a9PgX3tz4Qiok9zaf4PchQtz0U5Qk+r++iPccdqD7Lrqk+brdaPMyj\r\naj1vtkY90tYKPXPtPD0u4wE9tjb3PWbWAj3IoBI9rxNvPL7zOj2ye248uGo3PNYjDT26dZc83in1\r\nPYe6OjyEVLg8j4F8PSjGtDxcoSc+/9bLPHz1xzzYefA8BQcMPcGo+TxXKd48oEazPD4WCzxKK9k8\r\nhLyWPAkdVTx+xo87qy01O86vOj0M2yQ9bnWJPHdmnjxPPSk8aQYHPZR9qTwtWh49RMlxPNrmXjy/\r\nQhw8AWbqPCTTQz2mB7c8vGmqPL4TpTwgu1I9DLUDPa2f2TxQtSI9kisCPQnZzjvNp/c8z+QPPTDK\r\n0DtztgA87qn2O8m8Izzo2648PXGtPDjFLjxNaKw73m7GPHxH1DuEKq07EImBO1VO4TvRiO07UE8T\r\nPAHbpzyer807rMFNOyN75jsyhG08Iv02PHzL0jvWlkw7/IYBOybw/DuRquM72YVEOuGWwDr8+Qw7\r\nRoYKOs43MjuwwjI7xEicO5IPrTv0Iy07Kc+xOprJlTo0fQU8mrPFO0o0HTw0U0M7nlBDO0mMPzw2\r\noM87WP+jO4bjWTyhFxg838LgO3Qc0ztOQKo6aOk9PCPXujqbEpE77LidO0lzbzveBJA7FBb/OzO/\r\nnTt+Q6w7qyHhO2Qizjwbn/87yKT5OuxqQDsSMaU71G7rOabsKTrCQhk77tkEPIpzCzxYHyA85Nwt\r\nO8YQ2TpOzts66V5vPMnkMDs0flM78u/9Op6CDDy2oHw6EVSfOgLqBjxiuCM8qws+O0+e8ztQLVI8\r\np2dSO0EXITyFykI7V+lbOhH5LToKQmc6GtwWOyqiPTtlvMs74RGcOzz1qjtx+UY78QmRO2KbMztS\r\ntQA7VEUcPFQuqTs+t+o7uLrkOy0DCTuG2q46CIRFO+Xg5Dv+diA85rpPPOZDizxANNM7zqhKOzuC\r\npjvmJoA7+mM9OzjaPjy2MB488j9cPLxPGDwMAnw8843wPE8lcDy9j7E8Yi7eO6WQxDum8J07c+KX\r\nPJd/dTxCUe88UpfsO6XpojsRXAc8cx0gO1GlWztX3Bc8LiDJOzO9KDpqPQA7es7UOjBp+zvtOl08\r\nah+8O8ZR9TvAYZk870BEO1pd5zqR8Ww8Lwk8PHjXkzwZhvg6Pe9bO/R4wjx+DOk7iim6Oy0LGDuj\r\nKsc77BkePIX/wDuGKRU79RITOsjQCDs+/R079xGCO+rpSDt/HW86a5hBOqsqVDpFRjU6MJPVOtmF\r\nUTtn4TQ7kzGdOyXVIDx9djE71CHwOp5JDDtFWA87RPlsO2YXKzwi26Y6OZOTOlfb/TqkExI7KhAB\r\nOynUmDqR2iM7hUadOzL0fTswUK86bAyHOmvIJTuonjg7+YJDOnCFfToy77g6FcuYOqQgJTp8ONU6\r\nE3IAOrAd1TqcdQY7AWMDO2ycSjsK5IE6Ve02Ov899jlXIQk69veaOpHJqjrAfuU69jBBO8cNDzps\r\nEs84htLtOebiSDk+dmA5rE9MOTaoUznygWI5u1gdOk5hDzlXBEE6XX9FOqaUNzrguZw5fzsVOmPf\r\nozk0sl46LknhOXIvLjtVdi46z1tPOQ7MiTnqOkc45ZseOjZlnTnl1kQ62KGOOsJhVTm9w2o5nltG\r\nOVZrYTl3CRk5fqW3OXxj8zjQ5Q05SEQIOayrDjkl5gg5gkoLOflgIjnDPwU5vUn2OQCkOToXY6s/\r\nfj7/QDmwOEAZAgRABNomPwoNNz9LsEA/UrLOPy4GTEC2O8A/CSmNP25wOT86IwY/kGIaP7pLkz4Q\r\nZ+49ZtSxPvV3Az9Xvxw+2EOLPpdsgj/qVYs9KGHBPU97iD7GuG0/hGopPpicLj7kwYY+KU6EP2W+\r\nFD1MZfc9kDeUPaW5tj2jjRI+d2KhPl7ctj03vyo+6qRbPupTnz3O7s89Ao06PVFLhj3aDs09n62H\r\nPT8tHz51dcg9/JfUPXFbmj3FD0E+9XMnPYoGGj6993k+SJjDPdYyCT3ZbOs+SDrSPYXN2T2GUoQ+\r\nA12iPrNGij+Mc2I+0/IQPysMMz8kKu4+zEeIP++QAz+o45Y/3jTUPhyCBj+zizI/No6qPv5aTT87\r\nQ7o/XofGPsECbj4ztbw+mrnTP1qidT9JDjhAihu2Px4gkD/4ZaU+fA9WQAqv0D5aMaU+2+M9Pt5D\r\nmT4pvYc+E/HgPuEKpD6lDpg+rdSCP6RfwT+/CjA/q6mAPqnPgT25E7Y86nUlPXj9cj5E7hk+DqCZ\r\nPrn0yT11fuE+fLdvPy0IVT7SOQI+urtCPqyIaz4mT+c9msHlPU33DD6wV949ME3mPQatFT/YKXI9\r\nLLvpPWSPYT3SzMA8B7OJPUxCtj4ixgE+OtOsPhAUCT+veAY/tiBYPR1TXj3ccDo/dSBDPq9/Aj9I\r\nHHU+MGFFPgBZ9j4/mMA/QCsTP5AuZz/FZns/skuvPh3BEUBL5sk/xzG8PkbQcT8yh5w+cpDVPlt6\r\nlT9oT94+wKDyPp9uTT/QqLs/Su9eQGlFVD/VjrU+x0uDP6DWMECqkdNAyrxVPx3HIkHLiqw+eRAW\r\nQYT2G0BdlR1AsAxCQIB4zz/IL/4/w8uQQOwNMUENoadA03m1PrSDvECIXohAdnjGQEdKfEBZTwBA\r\nX2iiP7HbBUDo92pAIEZ+P2yruEDqR6k/YBOhQJ+gqEA1rRlAix0WPyT9yj/5dRdAN/1XPv133T5w\r\nDsA+KrzmPvCb1z9bMpo/kCYQQEXoIEFQHT1BYbtGQR6sD0AIR9c/XdfZQIaGNkCifzdA+dLtQOuQ\r\ntEDwZ/E/s8J4P2vBfkCMawhB894SQby2/z+B3ts/nUNxP3rAkkAdCrc/N0mCPhnzKj9uGg5AkRsH\r\nP1ddLz/xEIA/eCCSPjA/5j+USnk/CPtsP8YrGz4fMgU//zaBQLIYLUDscAhA5ODAPpa9QD+qiOFA\r\nRWwKQMPcIEDTIuw/kpNnQQ4R9kBNp5E/VSyyQDBLoT/E5Xo/sHeOPubYgj8S0wc+WLc+PpxQAT7O\r\nBDw+IOInPqgR7D0buoU+zlZMP5NWtz7xVtc+q7yPPly+nj+spylAGbInQH1+5z9lWU1AwcCMPywt\r\n/z+4pRdAJdBhQP+uBEHNh0RAbJJePyo9Ij+A56I+w5fnP8QfFECP2SQ/CxlNQBvqA0DiUQg/CTpQ\r\nQON5zj+lQIM/jd31Ppdkc0DjF5tAok9XPy+B/D+A/iBAc+viP9lm9z9tXck/XTZpP2b3W0D5mjRA\r\n663TP5RX0T+VS3NApK7ZQKYoCkBaB5o/cqdgPsr60T5PYgk/oN5VP5iYGT+Q2ZY/8phDP64uYz8+\r\nM5k/9oVbPwmnxj9O63Q+tqugPibRvT5qZW4+N98/P9BPzz4I0UU/8wQRP0dkMj+oiBk/osRHPpCS\r\nsj6AS+U/To2pPivcQj564iA+/U2mPqp5Dz9HdDY+Zr+1PvLcJj//Z0M/FiupP1cPAT/aSnY/pr4S\r\nQAmEfD8x6ylAxMyfQLnlkD/nTiRAhuY1QJ86mkB6hKw+2mvhPi561T+1Q+M/sjO2P6NVND+zd/A/\r\n6hCGP2gBLEDjc/Y/WLrVPz2r3j9ErnVA9SE2QdRwW0DPiilBjqxCQNDKlEFNOGVAZLgcQhtVAUES\r\npjtBLRkzQe6EZD/+bNpAYMw5QbwkHkD6BslA1m3qQMV3fkBn75lAaoZvQJU43z8b1eFBcPiFQCDJ\r\njEEQm6pAqE+VQZMLXkAfBVxBRhPwProLgz9BdxZA24rjP7/H4j8Ont9AO4ncQE8rI0Dr2Zk/I2C4\r\nQOO8jEBdob1AGzWBQPe/mkA3bBZARYAlQGBtwECPdihAO/FLP0KYkD7ZPf4+xt/APixeBEBpmDs/\r\nquEZP3TTk0CxmZ8/HLYMQagggUCPkJw/eSuSQP80oEC3qQ8/nqHKP8pqZ0CQYRVAGCj9P8z0yUD9\r\nRB5AQC16PxwaOkD7m0ZAj/UfP7LccD9pBAI/jEuJP63ksD+QiUY/ddLVPr2VQUCQ6S8/Dr/PP1Pg\r\nIkB1eow/EImhPjxSiD7oyWk+LEKbPibcEj97zLY+BrnNPp4FgT95+JU+eGIPPTOzhT/n5oo/gIPH\r\nP9ZfJz8Wrm09oLlnPgHesj/E3+g/UKGQP8qrkz+3UDs/9qgKP0faLz+gtXs+mSshPzO6lT7S/Zc+\r\nySkfPwsNNj9YB0A/4SefPwpv0z7Zqlc/jJ0NPjWegT0ItT8+tfj6Pu+9/T7/oT4+LfRPPmBB3z1p\r\nHvk+CepqP57xOz8uZ0E+ksmVPrdxpT28ct49C9a2Po4OwD7R3gY+K7MHPvZllD7vU4M/uI0tP9wc\r\n1j3qT849g9O6PTQVpT7znak/sZmxP4uCSz+N2SVA9C58Py4zgj8qHF0/DoQgPz/Muz+UjCo/RNMZ\r\nPyw2ej4/VUo/iwppP8k48D2A1MM+M98XP3P+qj0j7OU+bWmvPv7LeD8D1gg+bKKpPpcjjT1VeIY9\r\nIUXRPH4iUj6Kb6c+yqPPPa0UlD3aMhs/bBWOPGOSKT4SMy8+5/+lP8oJJT8Vj8Q+CrutPbignT0o\r\nKMI+3IQ/PlPbDT45JNc9SRCcPk73dD6Ocuo9QJNXPNBn6z2uVAs9bnEQPcYv3z1wQrA9O5zdPcAK\r\nPD3mgN4+Kb8BPrB4qz1vKl4+dlsaPgQ5gT1uj9g+OJvSPpx6Bz2sRXg9uCdEPfn9GT4RL7Y9Qv2G\r\nPqoxVD0QCaM7iGiqPO9iEj1Dbqw9pe4APXx2+zxCUsE8MYdDPZVKFj67rzw+juybPEJSkD0K5Jw9\r\nONhKPvIciD5EOkk+vPDFPcxUwz0K1J09ue6HPfqVgDx6nJ8+5Pe0PS0DBj0VZBI8aiHvPRbHUj0Q\r\nSBk9BopDPcoEmT3ly189CA4OPamNmTyqBMY9PqtuPbkRQj5o4lU9u43EO/pLIj2mXpM9Zyy4Pdg7\r\nWTwAG/I9OkzrPMwGVT4t+549tTuDPa2L6TziUzs+YJDrPfieIz6sxSo9PzWBPeQNBD0onA4+0ZiG\r\nPSUCLT1ibuY8hW8BPYlAmD3BNOE7MFoMPWOOeTx7voE9YGo+PUoUhDzAN5Y9j79rPTbslD7fI5E+\r\n7MyJPZom4T3jsKg93VHZPcMlpT1VCWU8cKH9Peb7fzwc0Xs9E/5HPBHOrTzL9yQ9YMahO7cZgT0Z\r\nKAo9qOv0PCNEAz6B5WQ9M+CDPOhH+DxPjX086DSlPQzhiD0tcxE9Lc3PPCJFOD0yHqA9c8MZPcEG\r\ncjwvRwQ9e4v+PHljuTzYHLg9WVJpPZBZuzwQbTQ88Q13PQlqBD23Ml48lCihOyBj8Dty9wE9Vixx\r\nPNQ7TTyqMgk+kQyXPa/yUT4ZiT09X0QKPE4lZj0L5709n0epPKorlDxY2Ww90AeAPcv5TT4Q7iI9\r\nNa1NPgDN1j0jPFg87Ra/PYv/9z01jC09cwDDPUxMNT3MpKU8DB7LPdqkGT3oTpw91XcDPeqMFz2/\r\n4jc+aUenPJukrj2ftr0+Bfe3PhCKiT2X0vg9Dpa3PRTlCT4pHaM9zzOoPsuuqT5ut1o8zKNqPW+2\r\nRj12rQo9c+08PS7jAT22Nvc9ZtYCPcigEj3s8248vvM6PVo4bzy4ajc8MuEMPbp1lzzeKfU9h7o6\r\nPIRUuDyPgXw9KMa0PFyhJz6TXM48S9vJPHqh8DwFBww9waj5PMOO3jygRrM8PhYLPP7G2zyEvJY8\r\n4VtTPEpFkDvmITQ7Mcs6PeStJD1udYk8irKePK49KjxpBgc9l0upPO0MHz1EyXE82uZePL95HDwB\r\nZuo8JNNDPaYHtzxMNqs8vhOlPCC7Uj0MtQM9UKDYPFC1Ij2SKwI9CdnOO82n9zzP5A89vr/QO3O2\r\nADxGyfc7ybwjPOjbrjxgya08jNYuPE1orDvLVsc8fEfUO3r9qjsQiYE7VU7hO8jf7ztQTxM8Adun\r\nPJ6vzTs2X0w75YblOzKEbTwi/TY8uD7SO9aWTDuDnwI7xIf7O5Gq4zvZhUQ64IbFOvz5DDtptgs6\r\nUOsvO6WoLzvESJw7kg+tO59zLTvJJK86kWSSOlgBBTyQ9sY7SjQdPInYRTueUEM7w8dAPDagzztY\r\n/6M7NB5YPKEXGDwS+uE7dBzTO05Aqjpo6T08vIG+OpsSkTuTkps7T6xxO6RykDsgS/87eqmdO35D\r\nrDurIeE7CzvPPB+HATwyW/k67GpAOzPTpDvUbus5uSUmOrChGjtYvgQ8PN0JPPlcHzzrkzE7fvLY\r\nOl5r3TotZW881CwwO5q1Vjvy7/06FJ4LPECQfDoRVJ86d/IHPGK4IzxP5jw7hZPxO5xDUzxP3U47\r\nQRchPIXKQjtQUGQ6EfktOsM/ZTo8NxY77vg+O2W8yzvhEZw7+HOrO50fRDvNtJE7mqAzO1K1ADvE\r\nvRw8yp2pOyCO6Tu4uuQ7ytQKO+QxrToIhEU7mIzlOyUxITzmuk885kOLPEA00zsS3EY72Q+oO+Ym\r\ngDsriDs7Rgs/PIAZHjzyP1w8a5MZPEGUezzzjfA8IEN1PNaisDyuytw7b4PEOwOxojtz4pc8l391\r\nPEJR7zxSl+w7Bx+lO4r5BDz42iI7bONbO1fcFzysisY7M70oOtir+zp6ztQ6DGj6O26QXjwvCrw7\r\nxlH1O20pmjzvQEQ7Wl3nOl8cazwvVT08eNeTPOzJ9jo971s79HjCPEu/6DuKKbo7LQsYO6Mqxzvs\r\nGR48hf/AO+a1FDuAIQ86yNAIOz79HTv3EYI76ulIO38dbzoDZzk6Hp1XOkD0NzpUDNg62YVROyuq\r\nMzuTMZ07JdUgPD9DMTsrR/Q6PFkIO1MoEDu6ZXE7ZhcrPCLbpjo5k5M6V9v9OqQTEjsqEAE7gxyb\r\nOsQDJzuSCJ07MvR9O8d1rTpsDIc6Px8jO+pOOjsY8Dg6cIV9OllgtzoVy5g6pCAlOjpP1ToTcgA6\r\nsB3VOnSMBTsBYwM7bJxKO+4UfzrXMTo6Z5TzOdGpCToAepw6j7ylOjPs4zrc9EE7xw0POjwT1TiG\r\n0u05oiRgOUtzUzmsT0w5zKNTOd+Tdzm7WB06YQ0ROVcEQTqtQUs6ppQ3OgZHnjl/OxU6hIefOTSy\r\nXjps9OQ5ci8uO6CNMzqT1Fk5DsyJObxXWTjlmx465/OcORoMRzrYoY46wmFVOb3DajmeW0Y5Vmth\r\nOb6wDzl+pbc5fGPzONDlDTlIRAg5rKsOOSXmCDmCSgs5+WAiORCQAzm9SfY5kIQ3Og==",
                            "noiseTrainingType" : "default"
                          }
                        }
                    ],
                    "start" : 0,
                    "duration" : 14882,
                    "mediaStart" : 0,
                    "mediaDuration" : 14882,
                    "scalar" : 1,
                    "metadata" : {
                      "WinSubProjectDisplayName" : "",
                      "clipSpeedAttribute" : false
                    },
                    "animationTracks" : {

                    }
                  },
                  {
                    "id" : 93,
                    "_type" : "StitchedMedia",
                    "minMediaStart" : 0,
                    "attributes" : {
                      "ident" : "Rec 03-04-20_002",
                      "gain" : 1.0,
                      "mixToMono" : false
                    },
                    "parameters" : {
                      "volume" : {
                        "type" : "double",
                        "keyframes" : [
                          {
                            "endTime" : 0,
                            "time" : 0,
                            "value" : 1.0,
                            "duration" : 0
                          },
                          {
                            "endTime" : 11040,
                            "time" : 11040,
                            "value" : 1.0,
                            "duration" : 0
                          },
                          {
                            "endTime" : 11041,
                            "time" : 11041,
                            "value" : 0.0,
                            "duration" : 0
                          },
                          {
                            "endTime" : 11349,
                            "time" : 11349,
                            "value" : 0.0,
                            "duration" : 0
                          },
                          {
                            "endTime" : 11350,
                            "time" : 11350,
                            "value" : 1.0,
                            "duration" : 0
                          }
                        ]
                      },
                      "cursorOpacity" : 1.0,
                      "cursorScale" : 1.0
                    },
                    "medias" : [
                        {
                          "id" : 94,
                          "_type" : "AMFile",
                          "src" : 6,
                          "trackNumber" : 1,
                          "attributes" : {
                            "ident" : "Rec 03-04-20_002",
                            "sampleRate" : 44100,
                            "bitDepth" : 16,
                            "gain" : 1.0,
                            "mixToMono" : false
                          },
                            "channelNumber" : "0,1",
                          "effects" : [

                          ],
                          "start" : 0,
                          "duration" : 591,
                          "mediaStart" : 0,
                          "mediaDuration" : 591,
                          "scalar" : 1,
                          "metadata" : {
                            "WinSubProjectDisplayName" : "",
                            "clipSpeedAttribute" : false
                          },
                          "animationTracks" : {

                          }
                        },
                        {
                          "id" : 95,
                          "_type" : "AMFile",
                          "src" : 6,
                          "trackNumber" : 1,
                          "attributes" : {
                            "ident" : "Rec 03-04-20_002",
                            "sampleRate" : 44100,
                            "bitDepth" : 16,
                            "gain" : 1.0,
                            "mixToMono" : false
                          },
                            "channelNumber" : "0,1",
                          "effects" : [

                          ],
                          "start" : 591,
                          "duration" : 645,
                          "mediaStart" : 893,
                          "mediaDuration" : 645,
                          "scalar" : 1,
                          "metadata" : {
                            "WinSubProjectDisplayName" : "",
                            "clipSpeedAttribute" : false
                          },
                          "animationTracks" : {

                          }
                        },
                        {
                          "id" : 96,
                          "_type" : "AMFile",
                          "src" : 6,
                          "trackNumber" : 1,
                          "attributes" : {
                            "ident" : "Rec 03-04-20_002",
                            "sampleRate" : 44100,
                            "bitDepth" : 16,
                            "gain" : 1.0,
                            "mixToMono" : false
                          },
                            "channelNumber" : "0,1",
                          "effects" : [

                          ],
                          "start" : 1236,
                          "duration" : 481,
                          "mediaStart" : 1639,
                          "mediaDuration" : 481,
                          "scalar" : 1,
                          "metadata" : {
                            "WinSubProjectDisplayName" : "",
                            "clipSpeedAttribute" : false
                          },
                          "animationTracks" : {

                          }
                        },
                        {
                          "id" : 97,
                          "_type" : "AMFile",
                          "src" : 6,
                          "trackNumber" : 1,
                          "attributes" : {
                            "ident" : "Rec 03-04-20_002",
                            "sampleRate" : 44100,
                            "bitDepth" : 16,
                            "gain" : 1.0,
                            "mixToMono" : false
                          },
                            "channelNumber" : "0,1",
                          "effects" : [

                          ],
                          "start" : 1717,
                          "duration" : 1250,
                          "mediaStart" : 2281,
                          "mediaDuration" : 1250,
                          "scalar" : 1,
                          "metadata" : {
                            "WinSubProjectDisplayName" : "",
                            "clipSpeedAttribute" : false
                          },
                          "animationTracks" : {

                          }
                        },
                        {
                          "id" : 98,
                          "_type" : "AMFile",
                          "src" : 6,
                          "trackNumber" : 1,
                          "attributes" : {
                            "ident" : "Rec 03-04-20_002",
                            "sampleRate" : 44100,
                            "bitDepth" : 16,
                            "gain" : 1.0,
                            "mixToMono" : false
                          },
                            "channelNumber" : "0,1",
                          "effects" : [

                          ],
                          "start" : 2967,
                          "duration" : 434,
                          "mediaStart" : 3635,
                          "mediaDuration" : 434,
                          "scalar" : 1,
                          "metadata" : {
                            "WinSubProjectDisplayName" : "",
                            "clipSpeedAttribute" : false
                          },
                          "animationTracks" : {

                          }
                        },
                        {
                          "id" : 99,
                          "_type" : "AMFile",
                          "src" : 6,
                          "trackNumber" : 1,
                          "attributes" : {
                            "ident" : "Rec 03-04-20_002",
                            "sampleRate" : 44100,
                            "bitDepth" : 16,
                            "gain" : 1.0,
                            "mixToMono" : false
                          },
                            "channelNumber" : "0,1",
                          "effects" : [

                          ],
                          "start" : 3401,
                          "duration" : 1410,
                          "mediaStart" : 4265,
                          "mediaDuration" : 1410,
                          "scalar" : 1,
                          "metadata" : {
                            "WinSubProjectDisplayName" : "",
                            "clipSpeedAttribute" : false
                          },
                          "animationTracks" : {

                          }
                        },
                        {
                          "id" : 100,
                          "_type" : "AMFile",
                          "src" : 6,
                          "trackNumber" : 1,
                          "attributes" : {
                            "ident" : "Rec 03-04-20_002",
                            "sampleRate" : 44100,
                            "bitDepth" : 16,
                            "gain" : 1.0,
                            "mixToMono" : false
                          },
                            "channelNumber" : "0,1",
                          "effects" : [

                          ],
                          "start" : 4811,
                          "duration" : 1957,
                          "mediaStart" : 5852,
                          "mediaDuration" : 1957,
                          "scalar" : 1,
                          "metadata" : {
                            "WinSubProjectDisplayName" : "",
                            "clipSpeedAttribute" : false
                          },
                          "animationTracks" : {

                          }
                        },
                        {
                          "id" : 101,
                          "_type" : "AMFile",
                          "src" : 6,
                          "trackNumber" : 1,
                          "attributes" : {
                            "ident" : "Rec 03-04-20_002",
                            "sampleRate" : 44100,
                            "bitDepth" : 16,
                            "gain" : 1.0,
                            "mixToMono" : false
                          },
                            "channelNumber" : "0,1",
                          "effects" : [

                          ],
                          "start" : 6768,
                          "duration" : 3225,
                          "mediaStart" : 7840,
                          "mediaDuration" : 3225,
                          "scalar" : 1,
                          "metadata" : {
                            "WinSubProjectDisplayName" : "",
                            "clipSpeedAttribute" : false
                          },
                          "animationTracks" : {

                          }
                        },
                        {
                          "id" : 102,
                          "_type" : "AMFile",
                          "src" : 6,
                          "trackNumber" : 1,
                          "attributes" : {
                            "ident" : "Rec 03-04-20_002",
                            "sampleRate" : 44100,
                            "bitDepth" : 16,
                            "gain" : 1.0,
                            "mixToMono" : false
                          },
                            "channelNumber" : "0,1",
                          "effects" : [

                          ],
                          "start" : 9993,
                          "duration" : 1911,
                          "mediaStart" : 11417,
                          "mediaDuration" : 1911,
                          "scalar" : 1,
                          "metadata" : {
                            "WinSubProjectDisplayName" : "",
                            "clipSpeedAttribute" : false
                          },
                          "animationTracks" : {

                          }
                        },
                        {
                          "id" : 103,
                          "_type" : "AMFile",
                          "src" : 6,
                          "trackNumber" : 1,
                          "attributes" : {
                            "ident" : "Rec 03-04-20_002",
                            "sampleRate" : 44100,
                            "bitDepth" : 16,
                            "gain" : 1.0,
                            "mixToMono" : false
                          },
                            "channelNumber" : "0,1",
                          "effects" : [

                          ],
                          "start" : 11904,
                          "duration" : 2232,
                          "mediaStart" : 13447,
                          "mediaDuration" : 2232,
                          "scalar" : 1,
                          "metadata" : {
                            "WinSubProjectDisplayName" : "",
                            "clipSpeedAttribute" : false
                          },
                          "animationTracks" : {

                          }
                        },
                        {
                          "id" : 104,
                          "_type" : "AMFile",
                          "src" : 6,
                          "trackNumber" : 1,
                          "attributes" : {
                            "ident" : "Rec 03-04-20_002",
                            "sampleRate" : 44100,
                            "bitDepth" : 16,
                            "gain" : 1.0,
                            "mixToMono" : false
                          },
                            "channelNumber" : "0,1",
                          "effects" : [

                          ],
                          "start" : 14136,
                          "duration" : 385,
                          "mediaStart" : 15938,
                          "mediaDuration" : 385,
                          "scalar" : 1,
                          "metadata" : {
                            "WinSubProjectDisplayName" : "",
                            "clipSpeedAttribute" : false
                          },
                          "animationTracks" : {

                          }
                        },
                        {
                          "id" : 105,
                          "_type" : "AMFile",
                          "src" : 6,
                          "trackNumber" : 1,
                          "attributes" : {
                            "ident" : "Rec 03-04-20_002",
                            "sampleRate" : 44100,
                            "bitDepth" : 16,
                            "gain" : 1.0,
                            "mixToMono" : false
                          },
                            "channelNumber" : "0,1",
                          "effects" : [

                          ],
                          "start" : 14521,
                          "duration" : 2736,
                          "mediaStart" : 16360,
                          "mediaDuration" : 2736,
                          "scalar" : 1,
                          "metadata" : {
                            "WinSubProjectDisplayName" : "",
                            "clipSpeedAttribute" : false
                          },
                          "animationTracks" : {

                          }
                        }
                    ],
                    "effects" : [
                        {
                          "effectName" : "NoiseReduction",
                          "category" : "categoryAudioEffects",
                          "parameters" : {
                            "denoiserAmount" : 8.0,
                            "denoiserThreshold" : 0.0,
                            "noiseProfile" : "q+sbP44PjEBfqghAXVi8P+HXFT8UhoM/9Jj0P2vpZT6eoeQ92M9ZPZKNTD0xp7Q9VH+xPKdhnTx6\r\nhhw9/eURPaQUrzw6dao8uk77PPqVdzyi0IA8uSO3O35S5zsy1ok8hQWtO0nECTyU66k7QKg8O/X1\r\nJzvWMTk7JyP4Oik4fjtydiI76kyfO6ylRjvSsfY6W+jyOq4ClDt6BtU6KB9ZOyvsszo+BPo6/IO3\r\nO46xvTpKyJk7erqBOxieqjriA7A6qZFUOjCaljq4wfI60Oz8OkS3rjqqQ1o6o6+gOn1SxjpPXPw6\r\nMTmeOtKNgjrH8kE6Qm4UPCNPIzvucMI8DEvSO9LSDDpmhjI7UjIXPHQrtzv2HAQ6lvLnOnCx7Dt6\r\nL9g6/xj2Of2jkTzMgG09EqS6PdfonT0M6Ps8J1xXO2yjXDwgsBY9nuGVPYiysz1knbk9TzciPqpz\r\nID4UzZk+rWQwPkeFnj6QG3I+bViTPuvecz6UzDg+zIakPmJpyT7ixec+ppnyPkQYyz5KbbY+kQaL\r\nPhk7hD6zSFs+PPdqPnDEyz7COPo+uH8aP31JAD/0r88+7VHZPps0GT90Xig/dsj8PjxQ2T5m/rU+\r\nCPfPPjVpkD44Np8+19o3PmKspD0yV/U8H2QNPA6CVzxT57g8MA9WPQDpcz11zrs98L/gPcYJAz4d\r\nzec92JyePe/xJz2/T5Y9yV+gPfIunj1Uvwg9j+86PK3nsDs1RLA8AdG1Pfk7aT4XY3E+7Eq9Pq7j\r\npz5l0sE+rmJEPzCfgD+ye00/SkYdP/Uo0T6iYb0+IAmBPpPzPD72fnU9Q22jPBXHTj0RWRc9/9Vw\r\nPRkurj7w3r4++0BLPoqwDz4X+Nw8mkfMOmMLezqoLdg7GnC0Osy3vjxuPrM8bmzIO4r+FT2IKRU9\r\nrwIUPUTJbDxDsbc9fMJZPo/nqj6StQA+OS0SPlaWez5/OtY+5A+WPmuYez75AwQ+5sb6PSbAGD7L\r\nytQ+bj8JP3kXtD/3ixZAbbr2P32iCkDOSIY/TvQ5P+6p7z7dfJQ+GuUyPsRnaj4EHRo/+MObPymP\r\n4T+8u78/TD2xPy1+kD84vE4/rAsxP1yDnT5QghE+tnGaPExdqz3IvJI+k6/mPl5X+z4WyrM+zFjj\r\nPe8aEz3r9f070q35OQ9yAztTOX091KTbPa3P1T0Zb4k9qCGtPdaAmD1gCGE8WmxxPFYEzTy/eIg8\r\nalo5PciaTj5BnJo+VPqsPtupVz7umlc+HfnwPeuLnj1nd0M+Rhq2Ptev9D5GGrs+zonGPkWGpz7m\r\nX44+OMK2PT1GXj18rI89vLzMPXYHuz02XDI+IogdPsJCrj2q55M74ljUPCDmJz04Zpg9Kq2sPOCP\r\nlDyXm4I932vMPTnopz2nABc9iPyVPSDHxz2SY3M9ZxbLPM3bDzyn3yg9wcdoPaOWvTxUGzQ7Yu3+\r\nPLgwjzzwQgU96OiyPF2WaD0mmvA8hBiEPUTiPz2yjU48WujEPbsYRD5w0fA9mGlHPcfkJj2iAzI9\r\nfF0vPRqYMT2UpTU9aBaMPfm1OT2Mnbc9RUywPe97Jz1hjIk8iDSKPHrEkDxe7DM8z48sPF+3RjzA\r\nBmo9nmTpPHCDhD0p0ME7irHBO+YSTzwV+VM9TBO3PfC9qz1ebwo+Kvs1PlJECD6CMvE9zmWWPTSn\r\nDD2GwsY6OvytPOI1tj0QEPw9SaS/PSEXGj7tsCc+3YQjPlBTjj0C+ms8pZrCO+biSDwbgRo934i7\r\nPPkYJD3BOis91Bk3PQCbtzyc5yA8V8sQPIBCjjybTVc9kV2vPaGsiD2uRXs9mKQgPWFA0jzMlDo8\r\nxAhNO//6PzslymY80RP5PM02tDw6RT09zONUPQJtBT0sZ/M8qbg0PLpRATyaGyM7pN1fPJrYHDxn\r\nwyw9uKAnPVyRBT03qHI8QGwkPJXC3TzeygA91wlnPUYebT3xwkc98u4xPZrPQT0ZkNY8gWecPMod\r\ngTyi4F88l5dlPGWgZzzLE1M8ZgYoPO/B1Dv4NqM74jwmO2mu9TrUBw48MvmJPPD/Cjy6Ogg8J1+x\r\nOk3rcjvsjgg71y8EO0mpEDosN9s6mtMcOzgMgToQOjc7xTFlO3WrrjtBBqk7I+8yO49fvDqG8lk6\r\nWoxMO/ILETucz4A6QcAPOtwYTjqmArU6cHb9OoQUBzsinX06ijg/O7n27zommfY72vlpOxPzcTvn\r\n9fA66m8CO55u5zpRD9M54imHOhDtGDuSmRw7GeayOsC6RzrPi3A7M1W0O3h8Azz5wEg7leT2OZj4\r\nwTnl0EI5IHZVOkrarDrOf9Y655iwOv/ChDtEQVM7gaYMPF7auDv80R88Qn4FPBGdvDtcrdg7WOM2\r\nPNNtNDzuvZw7yBDHO9VLNTtm4ks7+FALPNei4jscEP070PkxPIPD5jvonIU7xp4APGehjzvkhdI7\r\nzKdXO8AhJTvq+UM7Na9sO1nq0jurygQ8gRtOO9RH1joX0R87/rrXOt2J4joyVNU6bsL4OqPtBTsU\r\nPps6JqwyO1PkiDvgdi87spnXOnpmyTrqI8g6nM72OpX/8jrw76c6QOj7Om4UJDtCzfs7M2isO4Ku\r\nrTulzgQ6sPCSOdybfzpTxCc7NPXBOhnJ7joK8Ow63D9rO89mBDzNZzQ8Fv8EPAww3DuaRT07uj7X\r\nOn7+xTvuSCY72BZCOi63hTm0cwE6blWoOuI8HzuK5mY6D0QcO9AQijuaiGo6MvWLOqxbaDpQGxM6\r\npIClOhaFCTpZbKg6/ql4O73eojpwUuo7MGnZOuAtlDq37ls69FszO4pZlzs0Tw88rvEmPABGojye\r\nfIU8oomGPI4dAjzYynA7KE/COos1DDti0M07VwnLO94GkDxB68M8DqrUPGGliDy++WY796zZO+2a\r\n6TzDHYk9c/2dPRLUxj1U+uU9Grz/PYQwoz02f4E9B03ZPD41ITzcz888Yt+APffiDz3lQA49Vizp\r\nPEM9Bz0eOBk9IEqSPbE7Uj1Wr+s8LPAVPGjR8DsATYo7ro7YOhVNHjo6RE87c28ePNDeDD0daQA9\r\n8bBRPBHjojsbfTU6GNPfO/BT+DzqPNQ80jMFPZWscDzuoG87b9dmO7ksADyQWeg78931O4pvqDtm\r\nu4M7vuqwO0m4mjwecKo8HAOAPC4z+TtyWjo70Ay6O97sTzxoWaU8uFeyPGNDZjz4XfI7nkCxPN4c\r\n2DwrET480GKyOsfGfTqSZUQ8QuCKPNAUrTy4hjk8Gw9gOyq0/jrFaic7VetwOVfeHjnH0j06Ppcs\r\nO8d0sjvQmqw75FegPLqjkjzx8qM8NrBTPC5DFDx9hEE8WZypPE5Y4zwqUbg8uI6QPA+npzzutKU8\r\n55mhPIoMfzwICCA8PYCiO1flKTsS56A6zWIxOiK92zkHeek5snJ2OR6W7Dqkc3E86VhmPPQQFTx9\r\nsZ07eGUTO+ZLcDtmLB8886+FO+0WVzwqxcA8ECNlPLKuTzxbXAk8JN7VOiIuSjtERQQ6Sj/lO0l8\r\nhjvW6ug6azkJPCOGxTxJqUY8LRCGO5uemjsfgRQ7kB2tO3ICLDwYqp88FCVVPbGjeT2QskA95osL\r\nPZ0VWjy623w7jDywOli36TooxNQ7Rva4PIfAJj25dRc9NED5PH0cmDyyYxw8Ud0CO5YawTnYdqM5\r\n1Dp2OmZrMjqEM6E7/FoSPFA9Fjw5HRg84nEOPBj9QDzxXT08HlQHPLIfkzvI6Ec8bsnhPNS17TzF\r\nELY8jQ36PJJ6yjwSPmo8/ItfPKKvFDyZl1M8RmAZPPQYKzwlgL88cjKxPCRyjTxqoaw8UfCFPDhH\r\njTueTcA60Z4oO0hxVDtliZM7GFLSO/zDZjys6lw8M54QPPcxADxVJyo8fDrCO2TliTtj3JQ7cgw0\r\nO5hJFDsY6lM7owXOOxlB1jts+Jw7GyW3O6aYVjt+Ogc7ev/YOua6pTpJwRo6t7slOVB+YDnhfU45\r\nKGZBOZqDUDkJNq45B9dyOYbt9DioxcI5EreAOdiUUjkSWAU6SV4GOu9lOjn4oIA5abKIOWL0Cjr9\r\nU845J4TTOWDssTn+/lk5jYYHOUTxAzk37Qg4VlYLOdnFczl7VYc45e0hOWSyzDmsmvQ2CcOxOGrT\r\nnTiwghU4o2VtONfZFTj7ufQ2rWYMONgGUDcLH6U3iwgCOBUAiDeKiV42Ng89N0THBTjgg7c37D1W\r\nN/r8jDcaHpg3RmTzN90XFzgKyoA2l5ZAN+1dgDcsMI432KpsN2zfoDZ+yFE3IFe0N93C8ze9ziY4\r\nU7iqN8ua2DY7gC44f90DOF22rjc3oqc3uSvCN+ojlTcUSIg3QAFYN93XhDaOuSI3XZE5OD6xCTjS\r\njOY4ROaAOaHlYjkxav04SR7TOK58sTgXdQM56oUiOQZmsjjDjhw5UqGvOZAyqjndibY50WoZOU5J\r\nNjgRGQM4W5q1NryHJzc9j603DEWCNwGU5jgcKpc52+2rOTra7Tiyjwg5YVyNOTDk3jmMgmU5lGhe\r\nOZ72bzmbjCo5VBeIOdqqCznAXAg37HeNN4jF0DjoiJk4SK9FOejH1jkUS2s60XjAOjN/tjqsOy86\r\nIY38OeG0BDp5O7w5Ve3XOJPdOje3IoQ45juVOblKCDpq6LI5zVFEOqoC2Tni3Ek5GvcaOZKfhTgy\r\nZWY4aJ0KOQi6RTkBS3E5V0mROWOoezkTdMc5tHn5OQDBDzqNmv45c2bEObng6zmHX/U5Wua7Ofqq\r\nlzmlAjc59NYnOeiRKjmScCc5RVkSOWZlATmUvsk4xgA/OZ7yfTmOXZ45hMGmORjrhDmFsZA55DjB\r\nOW5ivjk3nb05qmeIOTypfjlwYrA59tCwOQNVoDk/6pk5LytUOfVYjznu25M54AOpOdlMkzmPwkA5\r\nm/GGOTjhhzk6RHg5seFXOY9z5ThhwAs5+kkBOVC+xzh6xow4tFp2N3Cm5TeOwBo41t3oN6dfqjfO\r\nGFk3POp3OBPvrzhkyO44wgGXOORkITl8P3I5THukOeznnjkCvJM5fRjtOQvUAzqB+AM66z/nOXG0\r\nyDnmAgE6edbwOa+/8TmIYbQ58YaCOUi7sjlB6685iLSXOek2izn6Kz85K0aAOUpggzleLIA5QtNM\r\nOZp42DjAC8c4EH34OE47szhslsI4ST2aOGpRDDjTK5o4ODYAOcgfDTmMcUA5kukeOXp7PDlVHYw5\r\nHE2dOfSNkDmYukw5rIUbOQFaRzlikRI5f5gDOZfHrTjqpD04OzqFOAsIzjjuKcM4/M/4OPTjzjhM\r\n68s4mH1EOaK5STmVOks5L4ocOZp72zjb+BM57T4LOYwdAjmPxcw4ZRQdOP5DOziXko84H3puODjK\r\nYDh8UQM4+jRHNzaQHzhIRQY43DaJN9TvQDfwbi82tII4Nv13YTf26MA37AHMN4TpRTjYaXI343hc\r\nOB2ziTi3kcg4XPCxOGPaFThVlIQ4SN5uOAzSNziaQhQ42UM/NhLacDdd/h03x/gKNwAAEDbS1Rs/\r\nfBiMQDuvCECkgbw/lM4VP3aNgz80lvQ/DW9mPnn34z0BLVk9zERLPRqrtD21X7E86vudPPp+HT1/\r\nYRM9xFWuPLizpzwPnvw8tGt5PGK6fzzzarU7ygPmOzOQijyOdK87OXQMPFHDpTtSrDQ7z2EoO3EF\r\nOjtFyf862QCBO4p3PTueP6A7xt1KO651+jo+NuM6YqCbO0Qq0DomHFw7gTu8OuxuADuf7rU7rbjD\r\nOgCMmDv6nII7Y9S+OqzlrjpZlF46VVKPOqTu9DpC8/g6lMqzOkjLXzqwPKQ6tpTNOtdnADssUJ46\r\ngeeEOmA/Wjp+OhU83UkjO+hBwzyQGNM7IAkXOgw/MTuTUxk8eF+4OwVfADpzD+c6lP/rO97w1Dow\r\nsfY5ztaQPMhGbT0vULo9rd+dPaSd+zyCilk7fpBcPNECFz0U9ZU9fv6zPVjvuT0gOiI+v7EgPljq\r\nmT6qCTE+7MSePrZ2cj6bPJM+t+pzPmbmOD7XfKQ+jEzJPjnA5z7LavI+bmHLPmidtj5j5oo+G0yE\r\nPlH6Wj4cAWs+o4XLPiJN+j6irBo/jW4AP6Kgzz6ZXtk+bVIZPzNTKD9Ixfw+/WPZPtNVtj42s88+\r\ni1mQPumJnz5l/jc+wrOkPVTX9DxTgg485MpaPCrouDydlVQ9OP90PV7LvD262OA9EskCPqnu6D0x\r\nDZ89ztsnPcprlj2jEaE9VLeePTQWCT28rzk8ts6wO/OQsDxpL7Y9vfloPvgpcT5RQb0+S8ynPjhb\r\nwT60UUQ/9KKAP3hMTT/5ZB0/UDnRPiKNvT7bb4E+se08PpXJdD3es6M8s6xPPaX+Fj1/EHA9Ukiu\r\nPhTJvj6Ya0s+sKsPPhiz3Dwj+ss6BtJ9OtYw2jvcFrY62BG/PBdtszxo5so7JtkVPeCnFD1r9RM9\r\nKsFsPCPwtz38Y1k+Yd+qPo2sAD7IOBI+o3B7PjYe1j5U8pU+NMJ7PoDzAz70pPo94lcYPmvA1D6k\r\nTAk/qSW0P+OHFkDg1fY/ULkKQHpPhj/xyzk/9sPvPqSClD5wtzI+C69qPqM2Gj+W1Js/TpXhP6bD\r\nvz8kM7E/lG2QP1DdTj/yMzE/M7+dPomAET7NTZo86UWrPV2nkj4lcOY+PFD7Pg3Vsz7GruM9N+gS\r\nPYDd/TtkDP05X10DO165fT1y+ts92xLWPTCMiT1cN609SZWYPcIUYDzQdHE8JBrNPEz/hzyRLDo9\r\n541OPofOmj6zGK0+2pdXPl51Vz6PM/E9HomePbNoQz4zL7Y+uoP0PtEruz5VlMY+7janPjwfjj6M\r\nQrY9t+5ePVn/jz0Sgsw9XmW6PRGVMj6lhh0+lAiuPa03kjvyhNQ87q0oPfbOmD0s0qw8WJeTPPCO\r\ngj2ERcw9diGoPdG7Fz0IEJY9AIfHPeJJcj1Ru8o8vcQQPFO2KD279Wg9Pc69PKSXNzsFn/88cN6O\r\nPPFEBT014rI8jr1nPaLS8DwUl4Q98Yg/Pb4FTjy05MQ9LPNDPhyV8D3wREc92uwmPeBfMj2cZy89\r\nWYYxPawiNj0ILYw92hs6PfWQtz3006896VsnPTjkiTy8Q4o8biiRPPrfNDyRris8FQJGPG7raT3U\r\nJ+k8ZLiEPTRfwzuOmsA7WGlQPCRaVD3t2bY9/JKrPQ+jCj7gNjY+MkUIPswV8T3mp5Y9uUgMPeKB\r\nujrMnK48NMe1Pfoo/D0e5789qQ0aPsk0Jz61UyM+zKCOPRR2bDyzlcQ7ZFFIPCRhGj2a37o87Ywk\r\nPb6yKz0bcjc9ZHS4PAaaIDwwUBE8R2qOPO8/Vz22Qa89022IPalzez1pXCA9VE3SPBOCPDz00Uw7\r\nOLxAO4ADZzxEWPk8Q/yzPCBrPD2JD1Q97RIFPQZ19Dw3YTQ8trwBPBXkIjtPL188koMcPAhOLD2k\r\nnic9XqsEPdVgdDw46iM8EUPePOHlAD0CDWc9FoFsPV8ASD3NgDE9gelBPf9q1zxfNJw8SFmBPEYn\r\nYTyjWWY8efpnPA2GUzxurCg8lXHWO2mHozvZjiY7YMXwOkp7DjzlbIo8CHsKPLLVBzzNXrg6QuVy\r\nO9i2CjtqkwA7s04ROiQI3Tq/Gx07tIOBOqivNTsjqmQ70/OwO5A9qDsh7yw7alHEOuKZWDogDk47\r\nolgSO9waazpGjiQ6sIRmOjaWtDrM3O0684UKO9LDeDquXEA7mFDrOk429jvBrGs7f4VxOzr86Dqk\r\n0QI7P5HtOkOU2Tmkg4c6V+8TO8YIHDuxf7A6iLQ9OrwvbTt0Jrg7qf8DPHAkSjv0S+k5yIi/OdQz\r\nPTmoxFs6AdOyOkU7zzqrRbA6TNiDO0ZDSzv5sww8D0O3O3q3Hzx0ZQU8GB3DO0Kg2DtS/zY8+zs0\r\nPA1XnTsmOsc7tMMvOxBLTDt4fAs8BODlOz8E/Dt4GDI8IiPnO5v/gzv0dwA8mKWOO9Ru0zs1+U07\r\noWgrO/acRjtZanQ7zhnSO8VJBDxutE07RHfqOi9AITuwe8E6QGPiOovx2DobHv862QIEO5Akmjp2\r\nvjI724KKOwElMjtNBdU6H17IOqOQtToP6v06XFHwOswrpjoPVQI7IAQiO1fA/TsOya07NyStOzM7\r\n+zknl405RTeAOsAQJztIqL462HfsOvXU6jpqjWg7n1IFPGjZNTy1EgY81pXcO+VnPjsw1tc6vm/G\r\nO9VdKDsYm0c6I6WGOYkN+Tmm7ao6h8ceOxKxYzqIvxo7/WSIOzotZzogo4w6531rOhDFDjol+6U6\r\npjkNOvrapjp+33U7b5ujOu/J6DvMc9s6FCaROlUOXTreATI7eHqYO5LUDzzNtic8nhiiPJbfhDyg\r\nm4Y80AcCPLwKbzsoPsU6nj4MO4VmzTv9E8w713yQPE07xDzJxNQ8uyiJPIhkZzvJSto7PUTpPEwP\r\niT1W8J09+ovGPfDM5T0Gvf89vKejPZAZgj3dUdo8iyIgPIhXzjy0BoE9h+UPPcAsDj34QOk8VAUH\r\nPeLjGD3Fj5I9y6NSPbD96jxaohU821LyO+gDijsQ8dc6S7YgOgjETDu/OR48i/EMPUJLAD1v1VE8\r\n/cCjO2LfNToA4d47Anb3PKi40zw3MwQ9e5tyPNKpcTuiRGQ7rVL/O06a6Dtuivc7WCqqO1RzgzvY\r\nwq07TSGbPKwzqjxpbH882535O4sVOjtDNbs72IpRPN4Gpjx2urE8iidlPOB88Tt427A86JrXPJPA\r\nPTw47LE6fF5/OmTJRDynsos87hKuPEooOjyz02E78/H9Oua9JDsubHE5EEcdOR6QOjoUcCw73Hex\r\nO+N8rDvgoKA8L/SRPBRKozzvqlM8MKgUPBUcQjxN6qg8XAjjPARFuTyokJA86ranPOaSpTx+QaE8\r\nrVCAPF6XIDy1oaI7yDEoOxFVozopmi46y7nYOTCm7DnTCYI5sCbrOtEocTxIuGY8DKcVPHq+nTtW\r\n1xM7RgpzO/7LHjw6UIY70jdYPNgmwTwhjGQ8KFhOPDZQCTx7g9g6VrtJO/geBTod0eM71VyFO1Z2\r\n6Tqmwgg8yKTGPPRkRjw6GIg73zWcO15qEjvxLa871qQrPFP2nzzyfFU9keJ5PbUqQT03SQs9WcVa\r\nPPAkfjsiZq865hntOipd1DukE7k8GeYmPWAzGD1Fmfk8NBuYPL7gGzyXJQI7at/COWJbpzkVU3Y6\r\nmMg4Oq42oTsoghI8iSkWPE0fGTwLcg08NIY/PGv+PDwrSAY8GRWTO20bSDz2TOE8smruPNhZtTwU\r\nX/k89JPKPD6SazzM4l48+IoTPL3uUjwhThg86NwqPNPEvjx+uLE8KpCNPFhbrDxofYU8a6+NO6OC\r\nwDph5yg7WYlTO5HdkzvkSdM72FZnPAjmXTxgUBE8TokAPKI5KjycgsA7ic+JO321lDuCbjM7IyUV\r\nOxnvUjuqH847rpHWOzCqnDs/SbU7ZyZZO6T/CDu/mt06hj+jOmNxHTpYmCA5DIFgOZ3CVzlyGjg5\r\n3l9XOVDlsTntFm05PuT1OAmRuzmhPHs5kRlcOTaZAjpsMAk6HP1BObjHdTmXZYY5w2QOOq5Xyzmp\r\nUs05+HWwOUIYWDns8wI5yUL2ONpu/zegaxE5Atx7Od08hzj4dSg5INrOOWrvDzcfWLU4hGafOIbp\r\nDTgAoHw4mK4UOLcqyDa+SxI4cepFN9Dspzc8neU3Gk9VN4+9QzaHi0s3LdYLOAjbwjf/WUk3lr5z\r\nNzDKkDe8oAA4+mYZOPXDqzYrLFg3mjN4N3zajTdqkIQ35qSYNir6MjcoI8E3aTP4N/ceHzhEq6c3\r\npxapNnDdMjhjcw04LH2iN6ZfmDebRc43pqamN69dmDd8PGY3cVA5NihFFDeHOzI4sOMbOKhD6Tge\r\nKHw5Ix9uOSM46zgXW9o4f0+1ODnZ9jhnIyE5FKO1OMpnLTn3Qqs5pOOmOfiDujncbRg58ZA7OCY1\r\n+TcY54g2a+gzN8qamzeRFIM3dRbfOBhXmTneHa05yXP+OBhRFDnhgZI5JfznOcYnYDmY+WE5H0Zj\r\nOatcMzkENYc5SbINOVfyBTeGj5U3yP68OFMplTjzKEs5bcDROd7EajoamcA6SsmzOkPUKjpVJwE6\r\nPVADOphZwDmSvNY4YjFnN5tckTiwM5M5GuAEOjLItDnsykM6FofhORYTTTmX7hA5FitzOPB+hTiC\r\n6ws5mVBGORaLcjmzbZA5eRV0Oc5+yDkAsvg5r0IPOqGOAzo5v8c5bCjwOdo39znBIrs5f7eZOT4w\r\nKzmUnzI5MOMuOf5wITklrBI5um0FOUWWxji41Dg5HwmEOa8Ynzk+uKc5vuB/OXrqlDkl8b85uizA\r\nOXqSvjnBBYk5gON3OS4esjl8ma85WhSgOYyVmDlPxUk5mIaWOSbZoDnrFag59UOSOXmaQjmA7YM5\r\nxh6HOWZAdjn2UEw5poToOCkKCTn8RwY54aTSOGDIizistXA3W5DgN2/uEzhwdPI3CPu/N/ApbTcC\r\n73A4KX21ON+C7jhGA6I4c8YeOYoMeDnQBZ850AidOZdcjDnPbe0574sFOj6QBjoGwOc5UgrEOQ3f\r\n/znNg+05nizyOX5IsjkDW4k5uS+uObNxrDmU7ZU5HCqTOciUNTmV4nk5LPaEOejEgTmdK1A5rnTs\r\nOK4Y0DgLkPA4ysmmOOLjxTjUYpo4PuINOIkziDhCsPk4k7QTOSgcTjkuWyE5vlIvOQ8tjjmfQZk5\r\n8UmNOdIxVDkmCh45nU1POVszGTnkFQM5QvatOLUCOzhCyHw4RAbOOIQExjixcfw4tejOOCJWsziF\r\nG0Y5DvVOOczrSTmzQiM5CpLHOIRDIzl/xBE54AoCOcLsyjjSQP43cFVLOFcVkzhjYXY4anJhOANk\r\n7jdwKSo3bp8eOJMtATj9IYE3XJ1tN9iplDbOKDE2YtpyN5XNvTd/dcI31J5DOCHzizfpM1o43g2S\r\nOGRFujhesKg4YREcOG+9cDhSEXs4SltIOLBsEjjkCEY2DCiDN0TlEze1lTg3AJAiNg==",
                            "noiseTrainingType" : "default"
                          }
                        }
                    ],
                    "start" : 14882,
                    "duration" : 17257,
                    "mediaStart" : 0,
                    "mediaDuration" : 17257,
                    "scalar" : 1,
                    "metadata" : {
                      "WinSubProjectDisplayName" : "",
                      "clipSpeedAttribute" : false
                    },
                    "animationTracks" : {

                    }
                  }
                ]
              },
              {
                "trackIndex" : 13,
                "medias" : [
                  {
                    "id" : 106,
                    "_type" : "IMFile",
                    "src" : 7,
                    "trackNumber" : 0,
                    "trimStartSum" : 0,
                    "attributes" : {
                      "ident" : "Slide1"
                    },
                    "effects" : [

                    ],
                    "start" : 150,
                    "duration" : 2164,
                    "mediaStart" : 0,
                    "mediaDuration" : 1,
                    "scalar" : 1,
                    "metadata" : {
                      "WinSubProjectDisplayName" : "",
                      "clipSpeedAttribute" : false
                    },
                    "animationTracks" : {

                    }
                  }
                ],
                "transitions" : [
                  {
                    "name" : "Fade",
                    "duration" : 30,
                    "trivial" : false,
                    "useAudioPreRoll" : true,
                    "useVisualPreRoll" : true,
                    "rightMedia" : 106
                  },
                  {
                    "name" : "Fade",
                    "duration" : 30,
                    "trivial" : false,
                    "useAudioPreRoll" : true,
                    "useVisualPreRoll" : true,
                    "leftMedia" : 106
                  }
                ]
              },
              {
                "trackIndex" : 14,
                "medias" : [
                ]
              }
            ]
          }
        }
      ]
    },
    "trackAttributes" : [
      {
        "ident" : "",
        "audioMuted" : false,
        "videoHidden" : false,
        "magnetic" : false,
        "metadata" : {
          "IsLocked" : "False",
          "WinTrackHeight" : "108.923076923077",
          "trackHeight" : "86"
        }
      },
      {
        "ident" : "",
        "audioMuted" : false,
        "videoHidden" : false,
        "magnetic" : false,
        "metadata" : {
          "IsLocked" : "False",
          "WinTrackHeight" : "108.923076923077",
          "trackHeight" : "40"
        }
      },
      {
        "ident" : "",
        "audioMuted" : false,
        "videoHidden" : false,
        "magnetic" : false,
        "metadata" : {
          "IsLocked" : "False",
          "WinTrackHeight" : "108.923076923077",
          "trackHeight" : "40"
        }
      },
      {
        "ident" : "",
        "audioMuted" : false,
        "videoHidden" : false,
        "magnetic" : false,
        "metadata" : {
          "IsLocked" : "False",
          "WinTrackHeight" : "108.923076923077",
          "trackHeight" : "102"
        }
      },
      {
        "ident" : "",
        "audioMuted" : false,
        "videoHidden" : false,
        "magnetic" : false,
        "metadata" : {
          "IsLocked" : "False",
          "WinTrackHeight" : "108.923076923077",
          "trackHeight" : "150"
        }
      },
      {
        "ident" : "",
        "audioMuted" : false,
        "videoHidden" : false,
        "magnetic" : false,
        "metadata" : {
          "IsLocked" : "False",
          "WinTrackHeight" : "108.923076923077",
          "trackHeight" : "150"
        }
      },
      {
        "ident" : "",
        "audioMuted" : false,
        "videoHidden" : false,
        "magnetic" : false,
        "metadata" : {
          "IsLocked" : "False",
          "WinTrackHeight" : "108.923076923077",
          "trackHeight" : "102"
        }
      },
      {
        "ident" : "",
        "audioMuted" : false,
        "videoHidden" : false,
        "magnetic" : false,
        "metadata" : {
          "IsLocked" : "False",
          "WinTrackHeight" : "108.923076923077",
          "trackHeight" : "54"
        }
      },
      {
        "ident" : "",
        "audioMuted" : false,
        "videoHidden" : false,
        "magnetic" : false,
        "metadata" : {
          "IsLocked" : "False",
          "WinTrackHeight" : "108.923076923077",
          "trackHeight" : "86"
        }
      },
      {
        "ident" : "",
        "audioMuted" : false,
        "videoHidden" : false,
        "magnetic" : false,
        "metadata" : {
          "IsLocked" : "False",
          "WinTrackHeight" : "108.923076923077",
          "trackHeight" : "86"
        }
      },
      {
        "ident" : "",
        "audioMuted" : false,
        "videoHidden" : false,
        "magnetic" : false,
        "metadata" : {
          "IsLocked" : "False",
          "WinTrackHeight" : "108.923076923077"
        }
      },
      {
        "ident" : "",
        "audioMuted" : false,
        "videoHidden" : false,
        "magnetic" : false,
        "metadata" : {
          "IsLocked" : "False",
          "WinTrackHeight" : "108.923076923077"
        }
      },
      {
        "ident" : "",
        "audioMuted" : false,
        "videoHidden" : false,
        "magnetic" : false,
        "metadata" : {
          "IsLocked" : "False",
          "WinTrackHeight" : "108.923076923077"
        }
      },
      {
        "ident" : "",
        "audioMuted" : false,
        "videoHidden" : false,
        "magnetic" : false,
        "metadata" : {
          "IsLocked" : "False",
          "WinTrackHeight" : "108.923076923077"
        }
      },
      {
        "ident" : "",
        "audioMuted" : false,
        "videoHidden" : false,
        "magnetic" : false,
        "metadata" : {
          "IsLocked" : "False",
          "WinTrackHeight" : "108.923076923077"
        }
      }
    ],
    "captionAttributes" : {
      "enabled" : true,
      "fontName" : "Arial",
      "fontSize" : 32,
      "backgroundColor" : [ 0, 0, 0, 127],
      "foregroundColor" : [ 255, 255, 255, 255],
      "lang" : "en",
      "alignment" : 0,
      "defaultFontSize" : true,
      "opacity" : 0.5,
      "backgroundEnabled" : true,
      "backgroundOnlyAroundText" : true
    },
    "backgroundColor" : [ 0, 0, 0, 255]
  },
  "metadata" : {
    "AutoSaveFile" : "C:\\Users\\profj\\AppData\\Local\\TechSmith\\Camtasia Studio\\19.0\\Auto-Saves\\0304RepetitionControlStatements3a823cd5.autosave.tscproj",
    "CanvasZoom" : 75,
    "Date" : "2020-01-27 11:33:13 PM",
    "Fit" : 0,
    "IsAutoSave" : "0",
    "Language" : "ENU",
    "ProfileName" : "MP4 only (up to 720p)",
    "Title" : "CamtasiaTemplateWindows",
    "audioNarrationNotes" : "",
    "calloutStyle" : "All",
    "canvasDetached" : "False",
    "canvasPositionHeight" : "0",
    "canvasPositionLeft" : "0",
    "canvasPositionTop" : "0",
    "canvasPositionWidth" : "0",
    "firstMedia" : true
  },
  "audioPlaybackRate" : 44100
,
  "themeFile" : null

}
