{
  "title" : "",
  "description" : "",
  "author" : "",
  "targetLoudness" : -18.0,
  "shouldApplyLoudnessNormalization" : false,
  "videoFormatFrameRate" : 30,
  "audioFormatSampleRate" : 44100,
  "width" : 1280.0,
  "height" : 720.0,
  "version" : "3.0",
  "editRate" : 30,
  "authoringClientName" :  {
    "name" : "Camtasia",
    "platform" : "Windows",
    "version" : "19.0"
  },
  "sourceBin" : [
    {
      "id" : 1,
      "src" : "D:\\Data Files\\Udemy\\Instructor\\Codestars\\Course-Prep-Splash\\Camtasia9TemplateWindows\\codestars_logo.png",
      "rect" : [0, 0, 1061, 168],
      "lastMod" : "20200128T043621",
      "sourceTracks" : [
        {
          "range" : [0, 1],
          "type" : 1,
          "editRate" : 10000000,
          "trackRect" : [0, 0, 1061, 168],
          "sampleRate" : 0,
          "bitDepth" : 32,
          "numChannels" : 0,
          "integratedLUFS" : 100.0,
          "peakLevel" : -1.0,
          "metaData" : ""
        }
      ],
      "metadata" : {
        "timeAdded" : "20200413T010652.786275"
      }
    },
    {
      "id" : 2,
      "src" : "D:\\Data Files\\Udemy\\Instructor\\Codestars\\Course-Prep-Splash\\Camtasia9TemplateWindows\\star.png",
      "rect" : [0, 0, 199, 206],
      "lastMod" : "20200128T043621",
      "sourceTracks" : [
        {
          "range" : [0, 1],
          "type" : 1,
          "editRate" : 10000000,
          "trackRect" : [0, 0, 199, 206],
          "sampleRate" : 0,
          "bitDepth" : 32,
          "numChannels" : 0,
          "integratedLUFS" : 100.0,
          "peakLevel" : -1.0,
          "metaData" : ""
        }
      ],
      "metadata" : {
        "timeAdded" : "20200413T010652.797951"
      }
    },
    {
      "id" : 3,
      "src" : "D:\\Data Files\\Udemy\\Instructor\\Codestars\\Course-Prep-Splash\\Camtasia-JPB-CPP\\Splash_Android.png",
      "rect" : [0, 0, 1920, 1080],
      "lastMod" : "20200201T225340",
      "sourceTracks" : [
        {
          "range" : [0, 1],
          "type" : 1,
          "editRate" : 10000000,
          "trackRect" : [0, 0, 1920, 1080],
          "sampleRate" : 0,
          "bitDepth" : 32,
          "numChannels" : 0,
          "integratedLUFS" : 100.0,
          "peakLevel" : -1.0,
          "metaData" : ""
        }
      ],
      "metadata" : {
        "timeAdded" : "20200413T010652.819235"
      }
    },
    {
      "id" : 4,
      "src" : "C:\\Users\\profj\\Desktop\\Udemy\\Codestars\\CPP\\videos\\Course-Prep-Splash\\JPB-Images\\PNG\\Head.png",
      "rect" : [0, 0, 721, 1024],
      "lastMod" : "20200203T062252",
      "sourceTracks" : [
        {
          "range" : [0, 1],
          "type" : 1,
          "editRate" : 10000000,
          "trackRect" : [0, 0, 721, 1024],
          "sampleRate" : 0,
          "bitDepth" : 32,
          "numChannels" : 0,
          "integratedLUFS" : 100.0,
          "peakLevel" : -1.0,
          "metaData" : ""
        }
      ],
      "metadata" : {
        "timeAdded" : "20200413T010652.821203"
      }
    },
    {
      "id" : 5,
      "src" : "C:\\Users\\profj\\Documents\\Camtasia\\Rec 04-21-20_002.trec",
      "rect" : [0, 0, 1920, 1080],
      "lastMod" : "20200421T052849",
      "sourceTracks" : [
        {
          "range" : [0, 11984],
          "type" : 0,
          "editRate" : 30,
          "trackRect" : [0, 0, 1920, 1080],
          "sampleRate" : 29,
          "bitDepth" : 0,
          "numChannels" : 0,
          "integratedLUFS" : 100.0,
          "peakLevel" : -1.0,
          "metaData" : "2b7b6a00-7a1f-11e2-83d0-0017f200be7f;2b7b6aef-7a1f-11e2-83d0-0017f200be7f;2b7b6af0-7a1f-11e2-83d0-0017f200be7f;2b7b6af1-7a1f-11e2-83d0-0017f200be7f;2b7b6af2-7a1f-11e2-83d0-0017f200be7f;2b7b6af3-7a1f-11e2-83d0-0017f200be7f;2b7b6af5-7a1f-11e2-83d0-0017f200be7f;2b7b6af6-7a1f-11e2-83d0-0017f200be7f;2b7b6af7-7a1f-11e2-83d0-0017f200be7f;2b7b6af8-7a1f-11e2-83d0-0017f200be7f;2b7b6af9-7a1f-11e2-83d0-0017f200be7f;2b7b6afa-7a1f-11e2-83d0-0017f200be7f;"
        },
        {
          "range" : [0, 17619968],
          "type" : 2,
          "editRate" : 44100,
          "trackRect" : [0, 0, 0, 0],
          "sampleRate" : 44100,
          "bitDepth" : 16,
          "numChannels" : 2,
          "integratedLUFS" : -26.3864235219925,
          "peakLevel" : 1.0,
          "metaData" : ""
        },
        {
          "range" : [0, 17615872],
          "type" : 2,
          "editRate" : 44100,
          "trackRect" : [0, 0, 0, 0],
          "sampleRate" : 44100,
          "bitDepth" : 16,
          "numChannels" : 2,
          "integratedLUFS" : 0.0,
          "peakLevel" : 0.0,
          "metaData" : ""
        }
      ],
      "metadata" : {
        "timeAdded" : "20200421T052849.719065"
      }
    },
    {
      "id" : 6,
      "src" : "C:\\Users\\profj\\Desktop\\Udemy\\Codestars\\CPP\\videos\\section4\\_wavs\\0406Proj4_1ArrayData-fixed.wav",
      "rect" : [0, 0, 0, 0],
      "lastMod" : "20200421T053206",
      "sourceTracks" : [
        {
          "range" : [0, 4045000000],
          "type" : 2,
          "editRate" : 10000000,
          "trackRect" : [0, 0, 0, 0],
          "sampleRate" : 44100,
          "bitDepth" : 16,
          "numChannels" : 2,
          "integratedLUFS" : -29.5566047052545,
          "peakLevel" : 0.71453857421875,
          "metaData" : ""
        }
      ],
      "metadata" : {
        "timeAdded" : "20200421T053215.882215"
      }
    },
    {
      "id" : 7,
      "src" : "C:\\Users\\profj\\Desktop\\Udemy\\Codestars\\CPP\\videos\\section4\\_intro-bulletpoints\\s4-lec6-Proj4_1ArrayData\\Slide1.PNG",
      "rect" : [0, 0, 1280, 720],
      "lastMod" : "20200421T053546",
      "sourceTracks" : [
        {
          "range" : [0, 1],
          "type" : 1,
          "editRate" : 10000000,
          "trackRect" : [0, 0, 1280, 720],
          "sampleRate" : 0,
          "bitDepth" : 24,
          "numChannels" : 0,
          "integratedLUFS" : 100.0,
          "peakLevel" : -1.0,
          "metaData" : ""
        }
      ],
      "metadata" : {
        "timeAdded" : "20200421T053601.108047"
      }
    },
    {
      "id" : 8,
      "src" : "C:\\Users\\profj\\Desktop\\Udemy\\Codestars\\CPP\\videos\\section4\\_intro-bulletpoints\\s4-lec6-Proj4_1ArrayData\\Slide2.PNG",
      "rect" : [0, 0, 1280, 720],
      "lastMod" : "20200421T053547",
      "sourceTracks" : [
        {
          "range" : [0, 1],
          "type" : 1,
          "editRate" : 10000000,
          "trackRect" : [0, 0, 1280, 720],
          "sampleRate" : 0,
          "bitDepth" : 24,
          "numChannels" : 0,
          "integratedLUFS" : 100.0,
          "peakLevel" : -1.0,
          "metaData" : ""
        }
      ],
      "metadata" : {
        "timeAdded" : "20200421T053602.116495"
      }
    },
    {
      "id" : 9,
      "src" : "C:\\ProgramData\\TechSmith\\Camtasia Studio 19\\Library 4.0\\User Libraries\\Default\\CodeStars Group.asset\\Splash_Android.png",
      "rect" : [0, 0, 1920, 1080],
      "lastMod" : "20200201T225340",
      "sourceTracks" : [
        {
          "range" : [0, 1],
          "type" : 1,
          "editRate" : 10000000,
          "trackRect" : [0, 0, 1920, 1080],
          "sampleRate" : 0,
          "bitDepth" : 32,
          "numChannels" : 0,
          "integratedLUFS" : 100.0,
          "peakLevel" : -1.0,
          "metaData" : ""
        }
      ],
      "metadata" : {
        "assetLibraryId" : "71cfde02-f243-4b7b-8165-f41960e8247b",
        "timeAdded" : "20200421T054726.350252"
      }
    },
    {
      "id" : 10,
      "src" : "C:\\ProgramData\\TechSmith\\Camtasia Studio 19\\Library 4.0\\User Libraries\\Default\\CodeStars Group.asset\\star.png",
      "rect" : [0, 0, 199, 206],
      "lastMod" : "20200128T043621",
      "sourceTracks" : [
        {
          "range" : [0, 1],
          "type" : 1,
          "editRate" : 10000000,
          "trackRect" : [0, 0, 199, 206],
          "sampleRate" : 0,
          "bitDepth" : 32,
          "numChannels" : 0,
          "integratedLUFS" : 100.0,
          "peakLevel" : -1.0,
          "metaData" : ""
        }
      ],
      "metadata" : {
        "assetLibraryId" : "71cfde02-f243-4b7b-8165-f41960e8247b",
        "timeAdded" : "20200421T054726.350252"
      }
    },
    {
      "id" : 11,
      "src" : "C:\\ProgramData\\TechSmith\\Camtasia Studio 19\\Library 4.0\\User Libraries\\Default\\CodeStars Group.asset\\codestars_logo.png",
      "rect" : [0, 0, 1061, 168],
      "lastMod" : "20200128T043621",
      "sourceTracks" : [
        {
          "range" : [0, 1],
          "type" : 1,
          "editRate" : 10000000,
          "trackRect" : [0, 0, 1061, 168],
          "sampleRate" : 0,
          "bitDepth" : 32,
          "numChannels" : 0,
          "integratedLUFS" : 100.0,
          "peakLevel" : -1.0,
          "metaData" : ""
        }
      ],
      "metadata" : {
        "assetLibraryId" : "71cfde02-f243-4b7b-8165-f41960e8247b",
        "timeAdded" : "20200421T054726.350252"
      }
    },
    {
      "id" : 12,
      "src" : "C:\\ProgramData\\TechSmith\\Camtasia Studio 19\\Library 4.0\\User Libraries\\Default\\CodeStars Group.asset\\Head.png",
      "rect" : [0, 0, 721, 1024],
      "lastMod" : "20200203T062252",
      "sourceTracks" : [
        {
          "range" : [0, 1],
          "type" : 1,
          "editRate" : 10000000,
          "trackRect" : [0, 0, 721, 1024],
          "sampleRate" : 0,
          "bitDepth" : 32,
          "numChannels" : 0,
          "integratedLUFS" : 100.0,
          "peakLevel" : -1.0,
          "metaData" : ""
        }
      ],
      "metadata" : {
        "assetLibraryId" : "71cfde02-f243-4b7b-8165-f41960e8247b",
        "timeAdded" : "20200421T054726.350252"
      }
    },
    {
      "id" : 13,
      "src" : "C:\\Users\\profj\\Documents\\Camtasia\\Rec 04-22-20_002.trec",
      "rect" : [0, 0, 1920, 1080],
      "lastMod" : "20200422T055846",
      "sourceTracks" : [
        {
          "range" : [0, 1150],
          "type" : 0,
          "editRate" : 30,
          "trackRect" : [0, 0, 1920, 1080],
          "sampleRate" : 29,
          "bitDepth" : 0,
          "numChannels" : 0,
          "integratedLUFS" : 100.0,
          "peakLevel" : -1.0,
          "metaData" : "2b7b6a00-7a1f-11e2-83d0-0017f200be7f;2b7b6aef-7a1f-11e2-83d0-0017f200be7f;2b7b6af0-7a1f-11e2-83d0-0017f200be7f;2b7b6af1-7a1f-11e2-83d0-0017f200be7f;2b7b6af2-7a1f-11e2-83d0-0017f200be7f;2b7b6af3-7a1f-11e2-83d0-0017f200be7f;2b7b6af5-7a1f-11e2-83d0-0017f200be7f;2b7b6af6-7a1f-11e2-83d0-0017f200be7f;2b7b6af7-7a1f-11e2-83d0-0017f200be7f;2b7b6af8-7a1f-11e2-83d0-0017f200be7f;2b7b6af9-7a1f-11e2-83d0-0017f200be7f;2b7b6afa-7a1f-11e2-83d0-0017f200be7f;"
        },
        {
          "range" : [0, 1677312],
          "type" : 2,
          "editRate" : 44100,
          "trackRect" : [0, 0, 0, 0],
          "sampleRate" : 44100,
          "bitDepth" : 16,
          "numChannels" : 2,
          "integratedLUFS" : -30.9480077224107,
          "peakLevel" : 0.207305908203125,
          "metaData" : ""
        },
        {
          "range" : [0, 1691648],
          "type" : 2,
          "editRate" : 44100,
          "trackRect" : [0, 0, 0, 0],
          "sampleRate" : 44100,
          "bitDepth" : 16,
          "numChannels" : 2,
          "integratedLUFS" : 0.0,
          "peakLevel" : 0.0,
          "metaData" : ""
        }
      ],
      "metadata" : {
        "timeAdded" : "20200422T055847.229975"
      }
    }
  ],
  "timeline" : {
    "id" : 14,
    "sceneTrack" : {
      "scenes" : [
        {
          "duration" : 380.766666666667,
          "title" : "",
          "type" : "",
          "csml" : {
            "tracks" : [
              {
                "trackIndex" : 0,
                "medias" : [
                ]
              },
              {
                "trackIndex" : 1,
                "medias" : [
                ]
              },
              {
                "trackIndex" : 2,
                "medias" : [
                ]
              },
              {
                "trackIndex" : 3,
                "medias" : [
                  {
                    "id" : 15,
                    "_type" : "IMFile",
                    "src" : 3,
                    "trackNumber" : 0,
                    "trimStartSum" : 0,
                    "attributes" : {
                      "ident" : "Splash_Android"
                    },
                    "parameters" : {
                      "translation0" : -0.00456702364154329,
                      "translation1" : -6.87439439981899,
                      "scale0" : 0.666671423982989,
                      "scale1" : 0.666671423982989
                    },
                    "effects" : [

                    ],
                    "start" : 0,
                    "duration" : 150,
                    "mediaStart" : 0,
                    "mediaDuration" : 1,
                    "scalar" : 1,
                    "metadata" : {
                      "WinSubProjectDisplayName" : "",
                      "clipSpeedAttribute" : false,
                      "default-scale" : "0.666667",
                      "default-translation0" : 0.00456702366917246,
                      "default-translation1" : -0.00256895081391425,
                      "effectApplied" : "none"
                    },
                    "animationTracks" : {

                    }
                  }
                ],
                "transitions" : [
                  {
                    "name" : "Fade",
                    "duration" : 30,
                    "trivial" : true,
                    "reverse" : false,
                    "useAudioPreRoll" : false,
                    "useVisualPreRoll" : true,
                    "leftMedia" : 15
                  }
                ]
              },
              {
                "trackIndex" : 4,
                "medias" : [
                  {
                    "id" : 16,
                    "_type" : "IMFile",
                    "src" : 2,
                    "trackNumber" : 0,
                    "trimStartSum" : 0,
                    "attributes" : {
                      "ident" : "star"
                    },
                    "parameters" : {
                      "translation0" : {
                        "type" : "double",
                        "defaultValue" : -640.0,
                        "interp" : "linr",
                        "keyframes" : [
                          {
                            "endTime" : 30,
                            "time" : 0,
                            "value" : -522.733906099372,
                            "duration" : 30
                          }
                        ]
                      },
                      "translation1" : {
                        "type" : "double",
                        "defaultValue" : -0.0,
                        "interp" : "linr",
                        "keyframes" : [
                          {
                            "endTime" : 30,
                            "time" : 0,
                            "value" : -277.438113851611,
                            "duration" : 30
                          }
                        ]
                      },
                      "translation2" : {
                        "type" : "double",
                        "defaultValue" : 0.0,
                        "interp" : "linr"
                      },
                      "rotation0" : {
                        "type" : "double",
                        "defaultValue" : 0.0,
                        "interp" : "linr"
                      },
                      "rotation1" : {
                        "type" : "double",
                        "defaultValue" : 0.0,
                        "interp" : "linr"
                      },
                      "rotation2" : {
                        "type" : "double",
                        "defaultValue" : 6.28318530717959,
                        "interp" : "linr",
                        "keyframes" : [
                          {
                            "endTime" : 30,
                            "time" : 0,
                            "value" : 0.0,
                            "duration" : 30
                          }
                        ]
                      },
                      "shear0" : {
                        "type" : "double",
                        "defaultValue" : 0.0,
                        "interp" : "linr"
                      },
                      "shear1" : {
                        "type" : "double",
                        "defaultValue" : 0.0,
                        "interp" : "linr"
                      },
                      "shear2" : {
                        "type" : "double",
                        "defaultValue" : 0.0,
                        "interp" : "linr"
                      },
                      "scale0" : {
                        "type" : "double",
                        "defaultValue" : 0.0,
                        "interp" : "linr",
                        "keyframes" : [
                          {
                            "endTime" : 30,
                            "time" : 0,
                            "value" : 0.344059357782636,
                            "duration" : 30
                          }
                        ]
                      },
                      "scale1" : {
                        "type" : "double",
                        "defaultValue" : 0.0,
                        "interp" : "linr",
                        "keyframes" : [
                          {
                            "endTime" : 30,
                            "time" : 0,
                            "value" : 0.344059357782636,
                            "duration" : 30
                          }
                        ]
                      },
                      "scale2" : {
                        "type" : "double",
                        "defaultValue" : 1.0,
                        "interp" : "linr"
                      },
                      "anchor0" : {
                        "type" : "double",
                        "defaultValue" : 0.0,
                        "interp" : "linr"
                      },
                      "anchor1" : {
                        "type" : "double",
                        "defaultValue" : 0.0,
                        "interp" : "linr"
                      },
                      "anchor2" : {
                        "type" : "double",
                        "defaultValue" : 0.0,
                        "interp" : "linr"
                      },
                      "opacity" : {
                        "type" : "double",
                        "defaultValue" : 1.0,
                        "keyframes" : [
                          {
                            "endTime" : 150,
                            "time" : 120,
                            "value" : 0.0,
                            "duration" : 30
                          }
                        ]
                      }
                    },
                    "effects" : [

                    ],
                    "start" : 0,
                    "duration" : 150,
                    "mediaStart" : 0,
                    "mediaDuration" : 1,
                    "scalar" : 1,
                    "metadata" : {
                      "WinSubProjectDisplayName" : "",
                      "clipSpeedAttribute" : false,
                      "default-scale" : "1",
                      "effectApplied" : "none"
                    },
                    "animationTracks" : {
                      "visual" : [
                        {
                          "endTime" : 30,
                          "duration" : 30,
                          "range" : [ 0, 30]
                        },
                        {
                          "endTime" : 150,
                          "duration" : 30,
                          "range" : [ 120, 30]
                        }
                      ]
                    }
                  }
                ]
              },
              {
                "trackIndex" : 5,
                "medias" : [
                  {
                    "id" : 17,
                    "_type" : "Callout",
                    "def" : {
                      "kind" : "remix",
                      "shape" : "text",
                      "style" : "bold",
                      "height" : 250.0,
                      "line-spacing" : 0.0,
                      "width" : 1035.85760517811,
                      "word-wrap" : 1.0,
                      "horizontal-alignment" : "left",
                      "resize-behavior" : "resizeText",
                      "text" : "Arrays and Vectors\rProject 4-1: Array Data",
                      "vertical-alignment" : "center",
                      "font" : {
                        "color-blue" : 1.0,
                        "color-green" : 1.0,
                        "color-red" : 1.0,
                        "size" : 96.0,
                        "tracking" : 0.0,
                        "name" : "Source Sans Pro",
                        "weight" : "Semi Bold"
                      },
                      "textAttributes" : {
                        "type" : "textAttributeList",
                        "keyframes" : [
                          {
                            "endTime" : 0,
                            "time" : 0,
                            "value" : [{"name":"fgColor","rangeEnd":42,"rangeStart":0,"value":"(255,255,255,255)","valueType":"color"},{"name":"fontSize","rangeEnd":42,"rangeStart":19,"value":52,"valueType":"double"},{"name":"fontWeight","rangeEnd":19,"rangeStart":0,"value":700,"valueType":"int"},{"name":"underline","rangeEnd":42,"rangeStart":0,"value":0,"valueType":"int"},{"name":"fontItalic","rangeEnd":42,"rangeStart":0,"value":0,"valueType":"int"},{"name":"strikethrough","rangeEnd":42,"rangeStart":0,"value":0,"valueType":"int"},{"name":"fontName","rangeEnd":42,"rangeStart":0,"value":"Quicksand","valueType":"string"},{"name":"kerning","rangeEnd":42,"rangeStart":0,"value":0,"valueType":"double"},{"name":"fontWeight","rangeEnd":42,"rangeStart":19,"value":400,"valueType":"int"},{"name":"fontSize","rangeEnd":19,"rangeStart":0,"value":55,"valueType":"double"}],
                            "duration" : 0
                          }
                        ]
                      }
                    },
                    "attributes" : {
                      "autoRotateText" : true
                    },
                    "parameters" : {
                      "translation0" : {
                        "type" : "double",
                        "defaultValue" : -913.412651778095,
                        "keyframes" : [
                          {
                            "endTime" : 38,
                            "time" : 8,
                            "value" : 98.5873482219166,
                            "duration" : 30
                          }
                        ]
                      },
                      "translation1" : {
                        "type" : "double",
                        "defaultValue" : -34.812002943898,
                        "keyframes" : [
                          {
                            "endTime" : 38,
                            "time" : 8,
                            "value" : -34.8120029438544,
                            "duration" : 30
                          }
                        ]
                      }
                    },
                    "effects" : [
                        {
                          "effectName" : "DropShadow",
                          "category" : "categoryVisualEffects",
                          "parameters" : {
                            "angle" : {
                              "type" : "double",
                              "defaultValue" : 5.49778714378214,
                              "uiHints" : {
                                "userInterfaceType" : 0,
                                "unitType" : 0
                              },
                              "keyframes" : [
                                {
                                  "endTime" : 38,
                                  "time" : 8,
                                  "value" : 5.49778714378214,
                                  "duration" : 30
                                }
                              ]
                            },
                            "blur" : 10.0,
                            "color-alpha" : 1.0,
                            "color-blue" : 0.1216,
                            "color-green" : 0.1216,
                            "color-red" : 0.1216,
                            "enabled" : 1,
                            "offset" : 10.0,
                            "opacity" : 0.4
                          }
                        }
                    ],
                    "start" : 35,
                    "duration" : 115,
                    "mediaStart" : 8,
                    "mediaDuration" : 115,
                    "scalar" : 1,
                    "metadata" : {
                      "WinSubProjectDisplayName" : "",
                      "clipSpeedAttribute" : false,
                      "default-HAlign" : "center",
                      "default-LineSpace" : 0.0,
                      "default-VAlign" : "center",
                      "default-text-attributes" : "[{\"name\":\"fontWeight\",\"rangeEnd\":37,\"rangeStart\":26,\"value\":100,\"valueType\":\"int\"},{\"name\":\"underline\",\"rangeEnd\":37,\"rangeStart\":0,\"value\":0,\"valueType\":\"int\"},{\"name\":\"fontWeight\",\"rangeEnd\":26,\"rangeStart\":0,\"value\":700,\"valueType\":\"int\"},{\"name\":\"fgColor\",\"rangeEnd\":37,\"rangeStart\":0,\"value\":\"(255,255,255,255)\",\"valueType\":\"color\"},{\"name\":\"fontSize\",\"rangeEnd\":26,\"rangeStart\":0,\"value\":55,\"valueType\":\"double\"},{\"name\":\"fontItalic\",\"rangeEnd\":37,\"rangeStart\":0,\"value\":0,\"valueType\":\"int\"},{\"name\":\"strikethrough\",\"rangeEnd\":37,\"rangeStart\":0,\"value\":0,\"valueType\":\"int\"},{\"name\":\"fontName\",\"rangeEnd\":37,\"rangeStart\":0,\"value\":\"Quicksand\",\"valueType\":\"string\"},{\"name\":\"fontSize\",\"rangeEnd\":37,\"rangeStart\":26,\"value\":52,\"valueType\":\"double\"}]",
                      "default-translation0" : 204.5,
                      "default-translation1" : 0.0
                    },
                    "animationTracks" : {
                      "visual" : [
                        {
                          "endTime" : 38,
                          "duration" : 30,
                          "range" : [ 8, 30]
                        }
                      ]
                    }
                  },
                  {
                    "id" : 18,
                    "_type" : "IMFile",
                    "src" : 9,
                    "trackNumber" : 0,
                    "trimStartSum" : 0,
                    "attributes" : {
                      "ident" : "Splash_Android"
                    },
                    "parameters" : {
                      "translation0" : 0.00456702366917246,
                      "translation1" : -0.00256895081391425,
                      "scale0" : 0.666671423982989,
                      "scale1" : 0.666671423982989
                    },
                    "effects" : [

                    ],
                    "start" : 11273,
                    "duration" : 150,
                    "mediaStart" : 0,
                    "mediaDuration" : 1,
                    "scalar" : 1,
                    "metadata" : {
                      "WinSubProjectDisplayName" : "",
                      "clipSpeedAttribute" : false,
                      "effectApplied" : "none"
                    },
                    "animationTracks" : {

                    }
                  }
                ],
                "transitions" : [
                  {
                    "name" : "Fade",
                    "duration" : 30,
                    "trivial" : true,
                    "reverse" : false,
                    "useAudioPreRoll" : true,
                    "useVisualPreRoll" : true,
                    "leftMedia" : 17
                  },
                  {
                    "name" : "Fade",
                    "duration" : 30,
                    "trivial" : true,
                    "reverse" : false,
                    "useAudioPreRoll" : false,
                    "useVisualPreRoll" : true,
                    "rightMedia" : 18
                  },
                  {
                    "name" : "Fade",
                    "duration" : 30,
                    "trivial" : true,
                    "reverse" : false,
                    "useAudioPreRoll" : false,
                    "useVisualPreRoll" : true,
                    "leftMedia" : 18
                  }
                ]
              },
              {
                "trackIndex" : 6,
                "medias" : [
                  {
                    "id" : 19,
                    "_type" : "Callout",
                    "def" : {
                      "kind" : "TypeWinText",
                      "shape" : "",
                      "style" : "",
                      "Style" : 5.0,
                      "dimensionTime" : 0.0,
                      "height" : 180.0,
                      "line-spacing" : 0.0,
                      "textIgnoresOpacity" : 0.0,
                      "textRectHeight" : 1.0,
                      "textRectWidth" : 1.0,
                      "textRectX" : 0.0,
                      "textRectY" : 0.0,
                      "textVerticalAlign" : 0.0,
                      "width" : 320.0,
                      "filename" : "C:\\Program Files\\TechSmith\\Camtasia 9\\Media\\Studio\\Callouts\\trans_100x100.xml",
                      "horizontal-alignment" : "center",
                      "name" : "Text",
                      "resize-behavior" : "resizeText",
                      "text" : "{\\rtf1\\ansi\\ansicpg1252\\deff0\\nouicompat\\deflang1033{\\fonttbl{\\f0\\fnil\\fcharset0 Quicksand;}}\r\n{\\colortbl ;\\red255\\green255\\blue255;}\r\n{\\*\\generator Riched20 10.0.18362}\\viewkind4\\uc1 \r\n\\pard\\qc\\cf1\\b\\f0\\fs124 #\\fs256 4\\fs72\\par\r\n}\r\n",
                      "vertical-alignment" : "center",
                      "xmlContent" : "ï»¿<?xml version=\"1.0\"?>\n\n<Overlay version=\"1.0.1\">\n\n<Overlay_Filename>trans_100x100.png</Overlay_Filename>\n<Overlay_Name>Text</Overlay_Name>\n<Text_Top>0</Text_Top>\n<Text_Left>0</Text_Left>\n<Text_Bottom>0</Text_Bottom>\n<Text_Right>0</Text_Right>\n<Fill_Color>0</Fill_Color>\n<Border_Color>0</Border_Color>\n<Style>5</Style>\n</Overlay>",
                      "textAttributes" : {
                        "type" : "textAttributeList",
                        "keyframes" : [
                          {
                            "endTime" : 0,
                            "time" : 0,
                            "value" : null,
                            "duration" : 0
                          }
                        ]
                      }
                    },
                    "attributes" : {
                      "autoRotateText" : true
                    },
                    "parameters" : {
                      "translation0" : {
                        "type" : "double",
                        "defaultValue" : -820.538865370044,
                        "keyframes" : [
                          {
                            "endTime" : 65,
                            "time" : 35,
                            "value" : -499.16666666668,
                            "duration" : 30
                          }
                        ]
                      },
                      "translation1" : {
                        "type" : "double",
                        "defaultValue" : -34.8120029438978,
                        "keyframes" : [
                          {
                            "endTime" : 65,
                            "time" : 35,
                            "value" : -34.8120029438634,
                            "duration" : 30
                          }
                        ]
                      },
                      "scale0" : {
                        "type" : "double",
                        "defaultValue" : 0.580906148866913,
                        "keyframes" : [
                          {
                            "endTime" : 65,
                            "time" : 35,
                            "value" : 0.580906148866913,
                            "duration" : 30
                          }
                        ]
                      },
                      "scale1" : {
                        "type" : "double",
                        "defaultValue" : 1.43801063442563,
                        "keyframes" : [
                          {
                            "endTime" : 65,
                            "time" : 35,
                            "value" : 1.43801063442563,
                            "duration" : 30
                          }
                        ]
                      }
                    },
                    "effects" : [

                    ],
                    "start" : 35,
                    "duration" : 115,
                    "mediaStart" : 35,
                    "mediaDuration" : 115,
                    "scalar" : 1,
                    "metadata" : {
                      "WinSubProjectDisplayName" : "",
                      "clipSpeedAttribute" : false,
                      "default-legacy-fill-style" : 5.0,
                      "default-legacy-text-callout-vertical-align" : "middle",
                      "default-rotation2" : 0.0,
                      "default-scale0" : 1.0,
                      "default-scale1" : 1.0,
                      "default-text" : "{\\rtf1\\ansi\\ansicpg1252\\deff0\\deflang1033{\\fonttbl{\\f0\\fswiss\\fprq2\\fcharset0 Arial;}}{\\colortbl ;\\red255\\green255\\blue255;}\\viewkind4\\uc1\\pard\\qc\\cf1\\fs72 abc}",
                      "default-translation0" : 0.0,
                      "default-translation1" : 0.0
                    },
                    "animationTracks" : {
                      "visual" : [
                        {
                          "endTime" : 65,
                          "duration" : 30,
                          "range" : [ 35, 30]
                        }
                      ]
                    }
                  },
                  {
                    "id" : 20,
                    "_type" : "IMFile",
                    "src" : 10,
                    "trackNumber" : 0,
                    "trimStartSum" : 0,
                    "attributes" : {
                      "ident" : "star"
                    },
                    "parameters" : {
                      "translation0" : {
                        "type" : "double",
                        "defaultValue" : -522.733906099372,
                        "interp" : "linr"
                      },
                      "translation1" : {
                        "type" : "double",
                        "defaultValue" : -277.438113851611,
                        "interp" : "linr"
                      },
                      "translation2" : {
                        "type" : "double",
                        "defaultValue" : 0.0,
                        "interp" : "linr"
                      },
                      "rotation0" : {
                        "type" : "double",
                        "defaultValue" : 0.0,
                        "interp" : "linr"
                      },
                      "rotation1" : {
                        "type" : "double",
                        "defaultValue" : 0.0,
                        "interp" : "linr"
                      },
                      "rotation2" : {
                        "type" : "double",
                        "defaultValue" : 0.0,
                        "interp" : "linr"
                      },
                      "shear0" : {
                        "type" : "double",
                        "defaultValue" : 0.0,
                        "interp" : "linr"
                      },
                      "shear1" : {
                        "type" : "double",
                        "defaultValue" : 0.0,
                        "interp" : "linr"
                      },
                      "shear2" : {
                        "type" : "double",
                        "defaultValue" : 0.0,
                        "interp" : "linr"
                      },
                      "scale0" : {
                        "type" : "double",
                        "defaultValue" : 0.344059357782636,
                        "interp" : "linr"
                      },
                      "scale1" : {
                        "type" : "double",
                        "defaultValue" : 0.344059357782636,
                        "interp" : "linr"
                      },
                      "scale2" : {
                        "type" : "double",
                        "defaultValue" : 1.0,
                        "interp" : "linr"
                      },
                      "anchor0" : {
                        "type" : "double",
                        "defaultValue" : 0.0,
                        "interp" : "linr"
                      },
                      "anchor1" : {
                        "type" : "double",
                        "defaultValue" : 0.0,
                        "interp" : "linr"
                      },
                      "anchor2" : {
                        "type" : "double",
                        "defaultValue" : 0.0,
                        "interp" : "linr"
                      },
                      "opacity" : {
                        "type" : "double",
                        "defaultValue" : 1.0,
                        "keyframes" : [
                          {
                            "endTime" : 150,
                            "time" : 120,
                            "value" : 0.0,
                            "duration" : 30
                          }
                        ]
                      }
                    },
                    "effects" : [

                    ],
                    "start" : 11273,
                    "duration" : 150,
                    "mediaStart" : 0,
                    "mediaDuration" : 1,
                    "scalar" : 1,
                    "metadata" : {
                      "WinSubProjectDisplayName" : "",
                      "clipSpeedAttribute" : false,
                      "effectApplied" : "none"
                    },
                    "animationTracks" : {
                      "visual" : [
                        {
                          "endTime" : 150,
                          "duration" : 30,
                          "range" : [ 120, 30]
                        }
                      ]
                    }
                  }
                ],
                "transitions" : [
                  {
                    "name" : "Fade",
                    "duration" : 30,
                    "trivial" : true,
                    "reverse" : false,
                    "useAudioPreRoll" : true,
                    "useVisualPreRoll" : true,
                    "leftMedia" : 19
                  },
                  {
                    "name" : "Fade",
                    "duration" : 30,
                    "trivial" : true,
                    "reverse" : false,
                    "useAudioPreRoll" : true,
                    "useVisualPreRoll" : true,
                    "rightMedia" : 20
                  },
                  {
                    "name" : "Fade",
                    "duration" : 30,
                    "trivial" : true,
                    "reverse" : false,
                    "useAudioPreRoll" : true,
                    "useVisualPreRoll" : true,
                    "leftMedia" : 20
                  }
                ]
              },
              {
                "trackIndex" : 7,
                "medias" : [
                  {
                    "id" : 21,
                    "_type" : "IMFile",
                    "src" : 1,
                    "trackNumber" : 0,
                    "trimStartSum" : 0,
                    "attributes" : {
                      "ident" : "codestars_logo"
                    },
                    "parameters" : {
                      "translation0" : {
                        "type" : "double",
                        "defaultValue" : -263.136792317664,
                        "interp" : "linr"
                      },
                      "translation1" : {
                        "type" : "double",
                        "defaultValue" : -271.784183685799,
                        "interp" : "linr"
                      },
                      "translation2" : {
                        "type" : "double",
                        "defaultValue" : 0.0,
                        "interp" : "linr"
                      },
                      "rotation0" : {
                        "type" : "double",
                        "defaultValue" : 0.0,
                        "interp" : "linr"
                      },
                      "rotation1" : {
                        "type" : "double",
                        "defaultValue" : 0.0,
                        "interp" : "linr"
                      },
                      "rotation2" : {
                        "type" : "double",
                        "defaultValue" : 0.0,
                        "interp" : "linr"
                      },
                      "shear0" : {
                        "type" : "double",
                        "defaultValue" : 0.0,
                        "interp" : "linr"
                      },
                      "shear1" : {
                        "type" : "double",
                        "defaultValue" : 0.0,
                        "interp" : "linr"
                      },
                      "shear2" : {
                        "type" : "double",
                        "defaultValue" : 0.0,
                        "interp" : "linr"
                      },
                      "scale0" : {
                        "type" : "double",
                        "defaultValue" : 0.402192662926175,
                        "interp" : "linr"
                      },
                      "scale1" : {
                        "type" : "double",
                        "defaultValue" : 0.402192662926175,
                        "interp" : "linr"
                      },
                      "scale2" : {
                        "type" : "double",
                        "defaultValue" : 1.0,
                        "interp" : "linr"
                      },
                      "anchor0" : {
                        "type" : "double",
                        "defaultValue" : 0.0,
                        "interp" : "linr"
                      },
                      "anchor1" : {
                        "type" : "double",
                        "defaultValue" : 0.0,
                        "interp" : "linr"
                      },
                      "anchor2" : {
                        "type" : "double",
                        "defaultValue" : 0.0,
                        "interp" : "linr"
                      }
                    },
                    "effects" : [

                    ],
                    "start" : 0,
                    "duration" : 150,
                    "mediaStart" : 0,
                    "mediaDuration" : 1,
                    "scalar" : 1,
                    "metadata" : {
                      "WinSubProjectDisplayName" : "",
                      "clipSpeedAttribute" : false,
                      "default-scale" : "1",
                      "effectApplied" : "none"
                    },
                    "animationTracks" : {

                    }
                  },
                  {
                    "id" : 22,
                    "_type" : "IMFile",
                    "src" : 11,
                    "trackNumber" : 0,
                    "trimStartSum" : 0,
                    "attributes" : {
                      "ident" : "codestars_logo"
                    },
                    "parameters" : {
                      "translation0" : {
                        "type" : "double",
                        "defaultValue" : -263.136792317664,
                        "interp" : "linr"
                      },
                      "translation1" : {
                        "type" : "double",
                        "defaultValue" : -271.784183685799,
                        "interp" : "linr"
                      },
                      "translation2" : {
                        "type" : "double",
                        "defaultValue" : 0.0,
                        "interp" : "linr"
                      },
                      "rotation0" : {
                        "type" : "double",
                        "defaultValue" : 0.0,
                        "interp" : "linr"
                      },
                      "rotation1" : {
                        "type" : "double",
                        "defaultValue" : 0.0,
                        "interp" : "linr"
                      },
                      "rotation2" : {
                        "type" : "double",
                        "defaultValue" : 0.0,
                        "interp" : "linr"
                      },
                      "shear0" : {
                        "type" : "double",
                        "defaultValue" : 0.0,
                        "interp" : "linr"
                      },
                      "shear1" : {
                        "type" : "double",
                        "defaultValue" : 0.0,
                        "interp" : "linr"
                      },
                      "shear2" : {
                        "type" : "double",
                        "defaultValue" : 0.0,
                        "interp" : "linr"
                      },
                      "scale0" : {
                        "type" : "double",
                        "defaultValue" : 0.402192662926175,
                        "interp" : "linr"
                      },
                      "scale1" : {
                        "type" : "double",
                        "defaultValue" : 0.402192662926175,
                        "interp" : "linr"
                      },
                      "scale2" : {
                        "type" : "double",
                        "defaultValue" : 1.0,
                        "interp" : "linr"
                      },
                      "anchor0" : {
                        "type" : "double",
                        "defaultValue" : 0.0,
                        "interp" : "linr"
                      },
                      "anchor1" : {
                        "type" : "double",
                        "defaultValue" : 0.0,
                        "interp" : "linr"
                      },
                      "anchor2" : {
                        "type" : "double",
                        "defaultValue" : 0.0,
                        "interp" : "linr"
                      },
                      "opacity" : 0.0
                    },
                    "effects" : [

                    ],
                    "start" : 11273,
                    "duration" : 150,
                    "mediaStart" : 0,
                    "mediaDuration" : 1,
                    "scalar" : 1,
                    "metadata" : {
                      "WinSubProjectDisplayName" : "",
                      "clipSpeedAttribute" : false,
                      "effectApplied" : "none"
                    },
                    "animationTracks" : {

                    }
                  }
                ],
                "transitions" : [
                  {
                    "name" : "Fade",
                    "duration" : 30,
                    "trivial" : true,
                    "reverse" : false,
                    "useAudioPreRoll" : true,
                    "useVisualPreRoll" : true,
                    "leftMedia" : 21
                  },
                  {
                    "name" : "Fade",
                    "duration" : 30,
                    "trivial" : true,
                    "reverse" : false,
                    "useAudioPreRoll" : true,
                    "useVisualPreRoll" : true,
                    "rightMedia" : 22
                  },
                  {
                    "name" : "Fade",
                    "duration" : 30,
                    "trivial" : true,
                    "reverse" : false,
                    "useAudioPreRoll" : true,
                    "useVisualPreRoll" : true,
                    "leftMedia" : 22
                  }
                ]
              },
              {
                "trackIndex" : 8,
                "medias" : [
                  {
                    "id" : 23,
                    "_type" : "IMFile",
                    "src" : 11,
                    "trackNumber" : 0,
                    "trimStartSum" : 0,
                    "attributes" : {
                      "ident" : "codestars_logo"
                    },
                    "parameters" : {
                      "translation0" : {
                        "type" : "double",
                        "defaultValue" : -263.136792317664,
                        "interp" : "linr"
                      },
                      "translation1" : {
                        "type" : "double",
                        "defaultValue" : -271.784183685799,
                        "interp" : "linr"
                      },
                      "translation2" : {
                        "type" : "double",
                        "defaultValue" : 0.0,
                        "interp" : "linr"
                      },
                      "rotation0" : {
                        "type" : "double",
                        "defaultValue" : 0.0,
                        "interp" : "linr"
                      },
                      "rotation1" : {
                        "type" : "double",
                        "defaultValue" : 0.0,
                        "interp" : "linr"
                      },
                      "rotation2" : {
                        "type" : "double",
                        "defaultValue" : 0.0,
                        "interp" : "linr"
                      },
                      "shear0" : {
                        "type" : "double",
                        "defaultValue" : 0.0,
                        "interp" : "linr"
                      },
                      "shear1" : {
                        "type" : "double",
                        "defaultValue" : 0.0,
                        "interp" : "linr"
                      },
                      "shear2" : {
                        "type" : "double",
                        "defaultValue" : 0.0,
                        "interp" : "linr"
                      },
                      "scale0" : {
                        "type" : "double",
                        "defaultValue" : 0.402192662926175,
                        "interp" : "linr"
                      },
                      "scale1" : {
                        "type" : "double",
                        "defaultValue" : 0.402192662926175,
                        "interp" : "linr"
                      },
                      "scale2" : {
                        "type" : "double",
                        "defaultValue" : 1.0,
                        "interp" : "linr"
                      },
                      "anchor0" : {
                        "type" : "double",
                        "defaultValue" : 0.0,
                        "interp" : "linr"
                      },
                      "anchor1" : {
                        "type" : "double",
                        "defaultValue" : 0.0,
                        "interp" : "linr"
                      },
                      "anchor2" : {
                        "type" : "double",
                        "defaultValue" : 0.0,
                        "interp" : "linr"
                      }
                    },
                    "effects" : [

                    ],
                    "start" : 11273,
                    "duration" : 150,
                    "mediaStart" : 0,
                    "mediaDuration" : 1,
                    "scalar" : 1,
                    "metadata" : {
                      "WinSubProjectDisplayName" : "",
                      "clipSpeedAttribute" : false,
                      "effectApplied" : "none"
                    },
                    "animationTracks" : {

                    }
                  }
                ],
                "transitions" : [
                  {
                    "name" : "Fade",
                    "duration" : 30,
                    "trivial" : true,
                    "reverse" : false,
                    "useAudioPreRoll" : true,
                    "useVisualPreRoll" : true,
                    "rightMedia" : 23
                  },
                  {
                    "name" : "Fade",
                    "duration" : 30,
                    "trivial" : true,
                    "reverse" : false,
                    "useAudioPreRoll" : true,
                    "useVisualPreRoll" : true,
                    "leftMedia" : 23
                  }
                ]
              },
              {
                "trackIndex" : 9,
                "medias" : [
                  {
                    "id" : 24,
                    "_type" : "Callout",
                    "def" : {
                      "kind" : "TypeWinText",
                      "shape" : "",
                      "style" : "",
                      "Style" : 5.0,
                      "dimensionTime" : 0.0,
                      "height" : 180.0,
                      "line-spacing" : 0.0,
                      "textIgnoresOpacity" : 0.0,
                      "textRectHeight" : 1.0,
                      "textRectWidth" : 1.0,
                      "textRectX" : 0.0,
                      "textRectY" : 0.0,
                      "textVerticalAlign" : -1.0,
                      "width" : 320.0,
                      "filename" : "C:\\Program Files\\TechSmith\\Camtasia 9\\Media\\Studio\\Callouts\\trans_100x100.xml",
                      "horizontal-alignment" : "center",
                      "name" : "Text",
                      "resize-behavior" : "resizeText",
                      "text" : "{\\rtf1\\ansi\\ansicpg1252\\deff0\\nouicompat\\deflang1033{\\fonttbl{\\f0\\fnil\\fcharset0 Quicksand;}}\r\n{\\colortbl ;\\red255\\green255\\blue255;}\r\n{\\*\\generator Riched20 10.0.18362}\\viewkind4\\uc1 \r\n\\pard\\cf1\\f0\\fs80 The Complete\\par\r\n\\b\\fs90 C++ Developer Course\\par\r\n}\r\n",
                      "vertical-alignment" : "center",
                      "xmlContent" : "ï»¿<?xml version=\"1.0\"?>\n\n<Overlay version=\"1.0.1\">\n\n<Overlay_Filename>trans_100x100.png</Overlay_Filename>\n<Overlay_Name>Text</Overlay_Name>\n<Text_Top>0</Text_Top>\n<Text_Left>0</Text_Left>\n<Text_Bottom>0</Text_Bottom>\n<Text_Right>0</Text_Right>\n<Fill_Color>0</Fill_Color>\n<Border_Color>0</Border_Color>\n<Style>5</Style>\n</Overlay>",
                      "textAttributes" : {
                        "type" : "textAttributeList",
                        "keyframes" : [
                          {
                            "endTime" : 0,
                            "time" : 0,
                            "value" : null,
                            "duration" : 0
                          }
                        ]
                      }
                    },
                    "attributes" : {
                      "autoRotateText" : true
                    },
                    "parameters" : {
                      "translation0" : -70.9521418731169,
                      "translation1" : 239.738828503294,
                      "scale0" : 3.12385809835021,
                      "scale1" : 1.00002854389906
                    },
                    "effects" : [

                    ],
                    "start" : 0,
                    "duration" : 150,
                    "mediaStart" : 0,
                    "mediaDuration" : 150,
                    "scalar" : 1,
                    "metadata" : {
                      "WinSubProjectDisplayName" : "",
                      "clipSpeedAttribute" : false,
                      "default-legacy-fill-style" : 5.0,
                      "default-legacy-text-callout-vertical-align" : "middle",
                      "default-scale0" : 1.0,
                      "default-scale1" : 1.0,
                      "default-text" : "{\\rtf1\\ansi\\ansicpg1252\\deff0\\deflang1033{\\fonttbl{\\f0\\fswiss\\fprq2\\fcharset0 Arial;}}{\\colortbl ;\\red255\\green255\\blue255;}\\viewkind4\\uc1\\pard\\qc\\cf1\\fs72 abc}",
                      "default-translation0" : 0.0,
                      "default-translation1" : 0.0
                    },
                    "animationTracks" : {

                    }
                  },
                  {
                    "id" : 25,
                    "_type" : "Callout",
                    "def" : {
                      "kind" : "TypeWinText",
                      "shape" : "",
                      "style" : "",
                      "Style" : 5.0,
                      "dimensionTime" : 0.0,
                      "height" : 180.0,
                      "line-spacing" : 0.0,
                      "textIgnoresOpacity" : 0.0,
                      "textRectHeight" : 1.0,
                      "textRectWidth" : 1.0,
                      "textRectX" : 0.0,
                      "textRectY" : 0.0,
                      "textVerticalAlign" : -1.0,
                      "width" : 320.0,
                      "filename" : "C:\\Program Files\\TechSmith\\Camtasia 9\\Media\\Studio\\Callouts\\trans_100x100.xml",
                      "horizontal-alignment" : "center",
                      "name" : "Text",
                      "resize-behavior" : "resizeText",
                      "text" : "{\\rtf1\\ansi\\ansicpg1252\\deff0\\nouicompat\\deflang1033{\\fonttbl{\\f0\\fnil\\fcharset0 Quicksand;}}\r\n{\\colortbl ;\\red255\\green255\\blue255;}\r\n{\\*\\generator Riched20 10.0.18362}\\viewkind4\\uc1 \r\n\\pard\\cf1\\f0\\fs80 The Complete\\par\r\n\\b\\fs90 C++ Developer Course\\par\r\n}\r\n",
                      "vertical-alignment" : "center",
                      "xmlContent" : "ï»¿<?xml version=\"1.0\"?>\n\n<Overlay version=\"1.0.1\">\n\n<Overlay_Filename>trans_100x100.png</Overlay_Filename>\n<Overlay_Name>Text</Overlay_Name>\n<Text_Top>0</Text_Top>\n<Text_Left>0</Text_Left>\n<Text_Bottom>0</Text_Bottom>\n<Text_Right>0</Text_Right>\n<Fill_Color>0</Fill_Color>\n<Border_Color>0</Border_Color>\n<Style>5</Style>\n</Overlay>",
                      "textAttributes" : {
                        "type" : "textAttributeList",
                        "keyframes" : [
                          {
                            "endTime" : 0,
                            "time" : 0,
                            "value" : null,
                            "duration" : 0
                          }
                        ]
                      }
                    },
                    "attributes" : {
                      "autoRotateText" : true
                    },
                    "parameters" : {
                      "translation0" : -70.9521418731169,
                      "translation1" : 239.738828503294,
                      "scale0" : 3.12385809835021,
                      "scale1" : 1.00002854389906
                    },
                    "effects" : [

                    ],
                    "start" : 11273,
                    "duration" : 150,
                    "mediaStart" : 0,
                    "mediaDuration" : 150,
                    "scalar" : 1,
                    "metadata" : {
                      "WinSubProjectDisplayName" : "",
                      "clipSpeedAttribute" : false
                    },
                    "animationTracks" : {

                    }
                  }
                ],
                "transitions" : [
                  {
                    "name" : "Fade",
                    "duration" : 30,
                    "trivial" : true,
                    "reverse" : false,
                    "useAudioPreRoll" : true,
                    "useVisualPreRoll" : true,
                    "leftMedia" : 24
                  },
                  {
                    "name" : "Fade",
                    "duration" : 30,
                    "trivial" : true,
                    "reverse" : false,
                    "useAudioPreRoll" : true,
                    "useVisualPreRoll" : true,
                    "rightMedia" : 25
                  },
                  {
                    "name" : "Fade",
                    "duration" : 30,
                    "trivial" : true,
                    "reverse" : false,
                    "useAudioPreRoll" : true,
                    "useVisualPreRoll" : true,
                    "leftMedia" : 25
                  }
                ]
              },
              {
                "trackIndex" : 10,
                "medias" : [
                  {
                    "id" : 26,
                    "_type" : "IMFile",
                    "src" : 4,
                    "trackNumber" : 0,
                    "trimStartSum" : 0,
                    "attributes" : {
                      "ident" : "Head"
                    },
                    "parameters" : {
                      "translation0" : 513.825000000109,
                      "translation1" : -179.200000000031,
                      "scale0" : 0.35,
                      "scale1" : 0.35
                    },
                    "effects" : [

                    ],
                    "start" : 0,
                    "duration" : 150,
                    "mediaStart" : 0,
                    "mediaDuration" : 1,
                    "scalar" : 1,
                    "metadata" : {
                      "WinSubProjectDisplayName" : "",
                      "clipSpeedAttribute" : false,
                      "default-scale0" : 0.703125,
                      "default-scale1" : 0.703125,
                      "default-translation0" : 0.0,
                      "default-translation1" : 0.0
                    },
                    "animationTracks" : {

                    }
                  },
                  {
                    "id" : 27,
                    "_type" : "IMFile",
                    "src" : 12,
                    "trackNumber" : 0,
                    "trimStartSum" : 0,
                    "attributes" : {
                      "ident" : "Head"
                    },
                    "parameters" : {
                      "translation0" : 537.015153862789,
                      "translation1" : -206.400000000049,
                      "scale0" : 0.35,
                      "scale1" : 0.35
                    },
                    "effects" : [

                    ],
                    "start" : 11273,
                    "duration" : 150,
                    "mediaStart" : 0,
                    "mediaDuration" : 1,
                    "scalar" : 1,
                    "metadata" : {
                      "WinSubProjectDisplayName" : "",
                      "clipSpeedAttribute" : false
                    },
                    "animationTracks" : {

                    }
                  }
                ],
                "transitions" : [
                  {
                    "name" : "Fade",
                    "duration" : 30,
                    "trivial" : false,
                    "reverse" : false,
                    "useAudioPreRoll" : true,
                    "useVisualPreRoll" : true,
                    "leftMedia" : 26
                  },
                  {
                    "name" : "Fade",
                    "duration" : 30,
                    "trivial" : false,
                    "reverse" : false,
                    "useAudioPreRoll" : true,
                    "useVisualPreRoll" : true,
                    "rightMedia" : 27
                  },
                  {
                    "name" : "Fade",
                    "duration" : 30,
                    "trivial" : false,
                    "reverse" : false,
                    "useAudioPreRoll" : true,
                    "useVisualPreRoll" : true,
                    "leftMedia" : 27
                  }
                ]
              },
              {
                "trackIndex" : 11,
                "medias" : [
                  {
                    "id" : 28,
                    "_type" : "IMFile",
                    "src" : 7,
                    "trackNumber" : 0,
                    "trimStartSum" : 0,
                    "attributes" : {
                      "ident" : "Slide1"
                    },
                    "effects" : [

                    ],
                    "start" : 150,
                    "duration" : 386,
                    "mediaStart" : 0,
                    "mediaDuration" : 1,
                    "scalar" : 1,
                    "metadata" : {
                      "clipSpeedAttribute" : false
                    },
                    "animationTracks" : {

                    }
                  },
                  {
                    "id" : 29,
                    "_type" : "IMFile",
                    "src" : 8,
                    "trackNumber" : 0,
                    "trimStartSum" : 0,
                    "attributes" : {
                      "ident" : "Slide2"
                    },
                    "effects" : [

                    ],
                    "start" : 536,
                    "duration" : 1586,
                    "mediaStart" : 0,
                    "mediaDuration" : 1,
                    "scalar" : 1,
                    "metadata" : {
                      "clipSpeedAttribute" : false
                    },
                    "animationTracks" : {

                    }
                  },
                  {
                    "id" : 30,
                    "_type" : "IMFile",
                    "src" : 8,
                    "trackNumber" : 0,
                    "trimStartSum" : 1586,
                    "attributes" : {
                      "ident" : "Slide2"
                    },
                    "effects" : [

                    ],
                    "start" : 3243,
                    "duration" : 185,
                    "mediaStart" : 0,
                    "mediaDuration" : 1,
                    "scalar" : 1,
                    "metadata" : {
                      "clipSpeedAttribute" : false
                    },
                    "animationTracks" : {

                    }
                  },
                  {
                    "id" : 31,
                    "_type" : "IMFile",
                    "src" : 8,
                    "trackNumber" : 0,
                    "trimStartSum" : 1907,
                    "attributes" : {
                      "ident" : "Slide2"
                    },
                    "effects" : [

                    ],
                    "start" : 3428,
                    "duration" : 52,
                    "mediaStart" : 0,
                    "mediaDuration" : 1,
                    "scalar" : 1,
                    "metadata" : {
                      "clipSpeedAttribute" : false
                    },
                    "animationTracks" : {

                    }
                  },
                  {
                    "id" : 32,
                    "_type" : "IMFile",
                    "src" : 8,
                    "trackNumber" : 0,
                    "trimStartSum" : 2167,
                    "attributes" : {
                      "ident" : "Slide2"
                    },
                    "effects" : [

                    ],
                    "start" : 3480,
                    "duration" : 97,
                    "mediaStart" : 0,
                    "mediaDuration" : 1,
                    "scalar" : 1,
                    "metadata" : {
                      "clipSpeedAttribute" : false
                    },
                    "animationTracks" : {

                    }
                  },
                  {
                    "id" : 33,
                    "_type" : "StitchedMedia",
                    "minMediaStart" : 0,
                    "attributes" : {
                      "ident" : "Rec 04-21-20_002",
                      "gain" : 1.0,
                      "mixToMono" : false
                    },
                    "parameters" : {
                      "translation0" : {
                        "type" : "double",
                        "defaultValue" : 0.0,
                        "keyframes" : [
                          {
                            "endTime" : 3531,
                            "time" : 3501,
                            "value" : 44.001989581512,
                            "duration" : 30
                          },
                          {
                            "endTime" : 4816,
                            "time" : 4786,
                            "value" : -359.056950448921,
                            "duration" : 30
                          },
                          {
                            "endTime" : 4937,
                            "time" : 4907,
                            "value" : -3.28074943272208,
                            "duration" : 30
                          },
                          {
                            "endTime" : 5010,
                            "time" : 4980,
                            "value" : 424.173739079606,
                            "duration" : 30
                          },
                          {
                            "endTime" : 9036,
                            "time" : 9006,
                            "value" : 354.271470109783,
                            "duration" : 30
                          }
                        ]
                      },
                      "translation1" : {
                        "type" : "double",
                        "defaultValue" : 0.0,
                        "keyframes" : [
                          {
                            "endTime" : 3531,
                            "time" : 3501,
                            "value" : -11.8805666908489,
                            "duration" : 30
                          },
                          {
                            "endTime" : 4816,
                            "time" : 4786,
                            "value" : -201.969663958276,
                            "duration" : 30
                          },
                          {
                            "endTime" : 4937,
                            "time" : 4907,
                            "value" : -10.8094167878004,
                            "duration" : 30
                          },
                          {
                            "endTime" : 5010,
                            "time" : 4980,
                            "value" : -238.598134450446,
                            "duration" : 30
                          },
                          {
                            "endTime" : 9036,
                            "time" : 9006,
                            "value" : -136.218477708824,
                            "duration" : 30
                          }
                        ]
                      },
                      "scale0" : {
                        "type" : "double",
                        "defaultValue" : 0.666666666666667,
                        "keyframes" : [
                          {
                            "endTime" : 3531,
                            "time" : 3501,
                            "value" : 1.04068432263709,
                            "duration" : 30
                          },
                          {
                            "endTime" : 4816,
                            "time" : 4786,
                            "value" : 1.04068427896616,
                            "duration" : 30
                          },
                          {
                            "endTime" : 4937,
                            "time" : 4907,
                            "value" : 1.10851441429881,
                            "duration" : 30
                          },
                          {
                            "endTime" : 5010,
                            "time" : 4980,
                            "value" : 1.1085143399749,
                            "duration" : 30
                          },
                          {
                            "endTime" : 9036,
                            "time" : 9006,
                            "value" : 1.0356994385059,
                            "duration" : 30
                          }
                        ]
                      },
                      "scale1" : {
                        "type" : "double",
                        "defaultValue" : 0.666666666666667,
                        "keyframes" : [
                          {
                            "endTime" : 3531,
                            "time" : 3501,
                            "value" : 1.04068456022134,
                            "duration" : 30
                          },
                          {
                            "endTime" : 4937,
                            "time" : 4907,
                            "value" : 1.1085150609591,
                            "duration" : 30
                          },
                          {
                            "endTime" : 9036,
                            "time" : 9006,
                            "value" : 1.03570001481024,
                            "duration" : 30
                          }
                        ]
                      },
                      "volume" : 1.0,
                      "cursorOpacity" : 1.0,
                      "cursorScale" : 1.0
                    },
                    "medias" : [
                        {
                          "id" : 34,
                          "_type" : "UnifiedMedia",
                          "video" : 
                              {
                                "id" : 35,
                                "_type" : "ScreenVMFile",
                                "src" : 5,
                                "trackNumber" : 0,
                                "attributes" : {
                                  "ident" : "Rec 04-21-20_002"
                                },
                                "parameters" : {
                                  "cursorScale" : {
                                    "type" : "double",
                                    "defaultValue" : 0.0,
                                    "interp" : "linr"
                                  },
                                  "cursorOpacity" : {
                                    "type" : "double",
                                    "defaultValue" : 0.0,
                                    "interp" : "linr"
                                  }
                                },
                                "effects" : [

                                ],
                                "start" : 0,
                                "duration" : 7587,
                                "mediaStart" : 0,
                                "mediaDuration" : 7587,
                                "scalar" : 1,
                                "animationTracks" : {

                                }
                              },
                          "audio" : 
                              {
                                "id" : 36,
                                "_type" : "AMFile",
                                "src" : 5,
                                "trackNumber" : 2,
                                "attributes" : {
                                  "ident" : "",
                                  "gain" : 1.0,
                                  "mixToMono" : false
                                },
                                  "channelNumber" : "0,1",
                                "effects" : [

                                ],
                                "start" : 0,
                                "duration" : 7587,
                                "mediaStart" : 0,
                                "mediaDuration" : 7587,
                                "scalar" : 1,
                                "animationTracks" : {

                                }
                              }
,
                          "start" : 0,
                          "duration" : 7587,
                          "mediaStart" : 0,
                          "mediaDuration" : 11984,
                          "scalar" : 1,
                          "metadata" : {
                            "AutoAppliedSmartFocus" : "False",
                            "clipSpeedAttribute" : false,
                            "default-scale0" : 0.666666666666667,
                            "default-scale1" : 0.666666666666667,
                            "default-translation0" : 0.0,
                            "default-translation1" : 0.0
                          }
                        },
                        {
                          "id" : 37,
                          "_type" : "UnifiedMedia",
                          "video" : 
                              {
                                "id" : 38,
                                "_type" : "ScreenVMFile",
                                "src" : 5,
                                "trackNumber" : 0,
                                "attributes" : {
                                  "ident" : "Rec 04-21-20_002"
                                },
                                "parameters" : {
                                  "cursorScale" : {
                                    "type" : "double",
                                    "defaultValue" : 0.0,
                                    "interp" : "linr"
                                  },
                                  "cursorOpacity" : {
                                    "type" : "double",
                                    "defaultValue" : 0.0,
                                    "interp" : "linr"
                                  }
                                },
                                "effects" : [

                                ],
                                "start" : 7587,
                                "duration" : 3335,
                                "mediaStart" : 8053,
                                "mediaDuration" : 3335,
                                "scalar" : 1,
                                "animationTracks" : {

                                }
                              },
                          "audio" : 
                              {
                                "id" : 39,
                                "_type" : "AMFile",
                                "src" : 5,
                                "trackNumber" : 2,
                                "attributes" : {
                                  "ident" : "",
                                  "gain" : 1.0,
                                  "mixToMono" : false
                                },
                                  "channelNumber" : "0,1",
                                "effects" : [

                                ],
                                "start" : 7587,
                                "duration" : 3335,
                                "mediaStart" : 8053,
                                "mediaDuration" : 3335,
                                "scalar" : 1,
                                "animationTracks" : {

                                }
                              }
,
                          "start" : 7587,
                          "duration" : 3335,
                          "mediaStart" : 0,
                          "mediaDuration" : 11984,
                          "scalar" : 1,
                          "metadata" : {
                            "AutoAppliedSmartFocus" : "False",
                            "clipSpeedAttribute" : false,
                            "default-scale0" : 0.666666666666667,
                            "default-scale1" : 0.666666666666667,
                            "default-translation0" : 0.0,
                            "default-translation1" : 0.0
                          }
                        },
                        {
                          "id" : 40,
                          "_type" : "UnifiedMedia",
                          "video" : 
                              {
                                "id" : 41,
                                "_type" : "ScreenVMFile",
                                "src" : 5,
                                "trackNumber" : 0,
                                "attributes" : {
                                  "ident" : "Rec 04-21-20_002"
                                },
                                "parameters" : {
                                  "cursorScale" : {
                                    "type" : "double",
                                    "defaultValue" : 0.0,
                                    "interp" : "linr"
                                  },
                                  "cursorOpacity" : {
                                    "type" : "double",
                                    "defaultValue" : 0.0,
                                    "interp" : "linr"
                                  }
                                },
                                "effects" : [

                                ],
                                "start" : 10922,
                                "duration" : 280,
                                "mediaStart" : 11704,
                                "mediaDuration" : 280,
                                "scalar" : 1,
                                "animationTracks" : {

                                }
                              },
                          "audio" : 
                              {
                                "id" : 42,
                                "_type" : "AMFile",
                                "src" : 5,
                                "trackNumber" : 2,
                                "attributes" : {
                                  "ident" : "",
                                  "gain" : 1.0,
                                  "mixToMono" : false
                                },
                                  "channelNumber" : "0,1",
                                "effects" : [

                                ],
                                "start" : 10922,
                                "duration" : 280,
                                "mediaStart" : 11704,
                                "mediaDuration" : 280,
                                "scalar" : 1,
                                "animationTracks" : {

                                }
                              }
,
                          "start" : 10922,
                          "duration" : 280,
                          "mediaStart" : 0,
                          "mediaDuration" : 11984,
                          "scalar" : 1,
                          "metadata" : {
                            "AutoAppliedSmartFocus" : "False",
                            "clipSpeedAttribute" : false,
                            "default-scale0" : 0.666666666666667,
                            "default-scale1" : 0.666666666666667,
                            "default-translation0" : 0.0,
                            "default-translation1" : 0.0
                          }
                        }
                    ],
                    "effects" : [

                    ],
                    "start" : 3577,
                    "duration" : 7696,
                    "mediaStart" : 3503,
                    "mediaDuration" : 7696,
                    "scalar" : 1,
                    "metadata" : {
                      "AutoAppliedSmartFocus" : "False",
                      "clipSpeedAttribute" : false
                    },
                    "animationTracks" : {
                      "visual" : [
                        {
                          "endTime" : 3531,
                          "duration" : 30,
                          "range" : [ 3501, 30]
                        },
                        {
                          "endTime" : 4816,
                          "duration" : 30,
                          "range" : [ 4786, 30]
                        },
                        {
                          "endTime" : 4937,
                          "duration" : 30,
                          "range" : [ 4907, 30]
                        },
                        {
                          "endTime" : 5010,
                          "duration" : 30,
                          "range" : [ 4980, 30]
                        },
                        {
                          "endTime" : 9036,
                          "duration" : 30,
                          "range" : [ 9006, 30]
                        }
                      ]
                    }
                  }
                ],
                "transitions" : [
                  {
                    "name" : "Fade",
                    "duration" : 30,
                    "trivial" : false,
                    "reverse" : false,
                    "useAudioPreRoll" : true,
                    "useVisualPreRoll" : true,
                    "rightMedia" : 28
                  },
                  {
                    "name" : "Fade",
                    "duration" : 15,
                    "trivial" : false,
                    "reverse" : false,
                    "useAudioPreRoll" : true,
                    "useVisualPreRoll" : true,
                    "leftMedia" : 28,
                    "rightMedia" : 29
                  },
                  {
                    "name" : "Fade",
                    "duration" : 30,
                    "trivial" : false,
                    "reverse" : false,
                    "useAudioPreRoll" : true,
                    "useVisualPreRoll" : true,
                    "leftMedia" : 29
                  },
                  {
                    "name" : "Fade",
                    "duration" : 30,
                    "trivial" : false,
                    "reverse" : false,
                    "useAudioPreRoll" : true,
                    "useVisualPreRoll" : true,
                    "rightMedia" : 30
                  },
                  {
                    "name" : "Fade",
                    "duration" : 15,
                    "trivial" : false,
                    "reverse" : false,
                    "useAudioPreRoll" : true,
                    "useVisualPreRoll" : true,
                    "leftMedia" : 32,
                    "rightMedia" : 33
                  },
                  {
                    "name" : "Fade",
                    "duration" : 30,
                    "trivial" : false,
                    "reverse" : false,
                    "useAudioPreRoll" : true,
                    "useVisualPreRoll" : true,
                    "leftMedia" : 33
                  }
                ]
              },
              {
                "trackIndex" : 12,
                "medias" : [
                  {
                    "id" : 43,
                    "_type" : "StitchedMedia",
                    "minMediaStart" : 0,
                    "attributes" : {
                      "ident" : "0406Proj4_1ArrayData-fixed",
                      "gain" : 1.0,
                      "mixToMono" : false
                    },
                    "parameters" : {
                      "volume" : {
                        "type" : "double",
                        "keyframes" : [
                          {
                            "endTime" : 0,
                            "time" : 0,
                            "value" : 1.0,
                            "duration" : 0
                          },
                          {
                            "endTime" : 2650,
                            "time" : 2650,
                            "value" : 1.0,
                            "duration" : 0
                          },
                          {
                            "endTime" : 2651,
                            "time" : 2651,
                            "value" : 0.0,
                            "duration" : 0
                          },
                          {
                            "endTime" : 2785,
                            "time" : 2785,
                            "value" : 0.0,
                            "duration" : 0
                          },
                          {
                            "endTime" : 2786,
                            "time" : 2786,
                            "value" : 1.0,
                            "duration" : 0
                          }
                        ]
                      },
                      "cursorOpacity" : 1.0,
                      "cursorScale" : 1.0
                    },
                    "medias" : [
                        {
                          "id" : 44,
                          "_type" : "AMFile",
                          "src" : 6,
                          "trackNumber" : 0,
                          "attributes" : {
                            "ident" : "0406Proj4_1ArrayData-fixed",
                            "gain" : 1.0,
                            "mixToMono" : false
                          },
                            "channelNumber" : "0,1",
                          "effects" : [

                          ],
                          "start" : 0,
                          "duration" : 1793,
                          "mediaStart" : 0,
                          "mediaDuration" : 1793,
                          "scalar" : 1,
                          "metadata" : {
                            "clipSpeedAttribute" : false
                          },
                          "animationTracks" : {

                          }
                        },
                        {
                          "id" : 45,
                          "_type" : "AMFile",
                          "src" : 6,
                          "trackNumber" : 0,
                          "attributes" : {
                            "ident" : "0406Proj4_1ArrayData-fixed",
                            "gain" : 1.0,
                            "mixToMono" : false
                          },
                            "channelNumber" : "0,1",
                          "effects" : [

                          ],
                          "start" : 1793,
                          "duration" : 858,
                          "mediaStart" : 2152,
                          "mediaDuration" : 858,
                          "scalar" : 1,
                          "metadata" : {
                            "clipSpeedAttribute" : false
                          },
                          "animationTracks" : {

                          }
                        },
                        {
                          "id" : 46,
                          "_type" : "AMFile",
                          "src" : 6,
                          "trackNumber" : 0,
                          "attributes" : {
                            "ident" : "0406Proj4_1ArrayData-fixed",
                            "gain" : 1.0,
                            "mixToMono" : false
                          },
                            "channelNumber" : "0,1",
                          "effects" : [

                          ],
                          "start" : 2651,
                          "duration" : 52,
                          "mediaStart" : 3146,
                          "mediaDuration" : 52,
                          "scalar" : 1,
                          "metadata" : {
                            "clipSpeedAttribute" : false
                          },
                          "animationTracks" : {

                          }
                        },
                        {
                          "id" : 47,
                          "_type" : "AMFile",
                          "src" : 6,
                          "trackNumber" : 0,
                          "attributes" : {
                            "ident" : "0406Proj4_1ArrayData-fixed",
                            "gain" : 1.0,
                            "mixToMono" : false
                          },
                            "channelNumber" : "0,1",
                          "effects" : [

                          ],
                          "start" : 2703,
                          "duration" : 4181,
                          "mediaStart" : 3406,
                          "mediaDuration" : 4181,
                          "scalar" : 1,
                          "metadata" : {
                            "clipSpeedAttribute" : false
                          },
                          "animationTracks" : {

                          }
                        },
                        {
                          "id" : 48,
                          "_type" : "AMFile",
                          "src" : 6,
                          "trackNumber" : 0,
                          "attributes" : {
                            "ident" : "0406Proj4_1ArrayData-fixed",
                            "gain" : 1.0,
                            "mixToMono" : false
                          },
                            "channelNumber" : "0,1",
                          "effects" : [

                          ],
                          "start" : 6884,
                          "duration" : 3335,
                          "mediaStart" : 8053,
                          "mediaDuration" : 3335,
                          "scalar" : 1,
                          "metadata" : {
                            "clipSpeedAttribute" : false
                          },
                          "animationTracks" : {

                          }
                        },
                        {
                          "id" : 49,
                          "_type" : "AMFile",
                          "src" : 6,
                          "trackNumber" : 0,
                          "attributes" : {
                            "ident" : "0406Proj4_1ArrayData-fixed",
                            "gain" : 1.0,
                            "mixToMono" : false
                          },
                            "channelNumber" : "0,1",
                          "effects" : [

                          ],
                          "start" : 10219,
                          "duration" : 431,
                          "mediaStart" : 11704,
                          "mediaDuration" : 431,
                          "scalar" : 1,
                          "metadata" : {
                            "clipSpeedAttribute" : false
                          },
                          "animationTracks" : {

                          }
                        }
                    ],
                    "effects" : [

                    ],
                    "start" : 0,
                    "duration" : 2122,
                    "mediaStart" : 344,
                    "mediaDuration" : 2122,
                    "scalar" : 1,
                    "metadata" : {
                      "clipSpeedAttribute" : false
                    },
                    "animationTracks" : {

                    }
                  },
                  {
                    "id" : 50,
                    "_type" : "StitchedMedia",
                    "minMediaStart" : 0,
                    "attributes" : {
                      "ident" : "0406Proj4_1ArrayData-fixed",
                      "gain" : 1.0,
                      "mixToMono" : false
                    },
                    "parameters" : {
                      "volume" : {
                        "type" : "double",
                        "keyframes" : [
                          {
                            "endTime" : 0,
                            "time" : 0,
                            "value" : 1.0,
                            "duration" : 0
                          },
                          {
                            "endTime" : 2650,
                            "time" : 2650,
                            "value" : 1.0,
                            "duration" : 0
                          },
                          {
                            "endTime" : 2651,
                            "time" : 2651,
                            "value" : 0.0,
                            "duration" : 0
                          },
                          {
                            "endTime" : 2785,
                            "time" : 2785,
                            "value" : 0.0,
                            "duration" : 0
                          },
                          {
                            "endTime" : 2786,
                            "time" : 2786,
                            "value" : 1.0,
                            "duration" : 0
                          }
                        ]
                      },
                      "cursorOpacity" : 1.0,
                      "cursorScale" : 1.0
                    },
                    "medias" : [
                        {
                          "id" : 51,
                          "_type" : "AMFile",
                          "src" : 6,
                          "trackNumber" : 0,
                          "attributes" : {
                            "ident" : "0406Proj4_1ArrayData-fixed",
                            "gain" : 1.0,
                            "mixToMono" : false
                          },
                            "channelNumber" : "0,1",
                          "effects" : [

                          ],
                          "start" : 0,
                          "duration" : 1793,
                          "mediaStart" : 0,
                          "mediaDuration" : 1793,
                          "scalar" : 1,
                          "metadata" : {
                            "clipSpeedAttribute" : false
                          },
                          "animationTracks" : {

                          }
                        },
                        {
                          "id" : 52,
                          "_type" : "AMFile",
                          "src" : 6,
                          "trackNumber" : 0,
                          "attributes" : {
                            "ident" : "0406Proj4_1ArrayData-fixed",
                            "gain" : 1.0,
                            "mixToMono" : false
                          },
                            "channelNumber" : "0,1",
                          "effects" : [

                          ],
                          "start" : 1793,
                          "duration" : 858,
                          "mediaStart" : 2152,
                          "mediaDuration" : 858,
                          "scalar" : 1,
                          "metadata" : {
                            "clipSpeedAttribute" : false
                          },
                          "animationTracks" : {

                          }
                        },
                        {
                          "id" : 53,
                          "_type" : "AMFile",
                          "src" : 6,
                          "trackNumber" : 0,
                          "attributes" : {
                            "ident" : "0406Proj4_1ArrayData-fixed",
                            "gain" : 1.0,
                            "mixToMono" : false
                          },
                            "channelNumber" : "0,1",
                          "effects" : [

                          ],
                          "start" : 2651,
                          "duration" : 52,
                          "mediaStart" : 3146,
                          "mediaDuration" : 52,
                          "scalar" : 1,
                          "metadata" : {
                            "clipSpeedAttribute" : false
                          },
                          "animationTracks" : {

                          }
                        },
                        {
                          "id" : 54,
                          "_type" : "AMFile",
                          "src" : 6,
                          "trackNumber" : 0,
                          "attributes" : {
                            "ident" : "0406Proj4_1ArrayData-fixed",
                            "gain" : 1.0,
                            "mixToMono" : false
                          },
                            "channelNumber" : "0,1",
                          "effects" : [

                          ],
                          "start" : 2703,
                          "duration" : 4181,
                          "mediaStart" : 3406,
                          "mediaDuration" : 4181,
                          "scalar" : 1,
                          "metadata" : {
                            "clipSpeedAttribute" : false
                          },
                          "animationTracks" : {

                          }
                        },
                        {
                          "id" : 55,
                          "_type" : "AMFile",
                          "src" : 6,
                          "trackNumber" : 0,
                          "attributes" : {
                            "ident" : "0406Proj4_1ArrayData-fixed",
                            "gain" : 1.0,
                            "mixToMono" : false
                          },
                            "channelNumber" : "0,1",
                          "effects" : [

                          ],
                          "start" : 6884,
                          "duration" : 3335,
                          "mediaStart" : 8053,
                          "mediaDuration" : 3335,
                          "scalar" : 1,
                          "metadata" : {
                            "clipSpeedAttribute" : false
                          },
                          "animationTracks" : {

                          }
                        },
                        {
                          "id" : 56,
                          "_type" : "AMFile",
                          "src" : 6,
                          "trackNumber" : 0,
                          "attributes" : {
                            "ident" : "0406Proj4_1ArrayData-fixed",
                            "gain" : 1.0,
                            "mixToMono" : false
                          },
                            "channelNumber" : "0,1",
                          "effects" : [

                          ],
                          "start" : 10219,
                          "duration" : 431,
                          "mediaStart" : 11704,
                          "mediaDuration" : 431,
                          "scalar" : 1,
                          "metadata" : {
                            "clipSpeedAttribute" : false
                          },
                          "animationTracks" : {

                          }
                        }
                    ],
                    "effects" : [

                    ],
                    "start" : 3243,
                    "duration" : 8030,
                    "mediaStart" : 2466,
                    "mediaDuration" : 8030,
                    "scalar" : 1,
                    "metadata" : {
                      "clipSpeedAttribute" : false
                    },
                    "animationTracks" : {

                    }
                  }
                ]
              },
              {
                "trackIndex" : 13,
                "medias" : [
                  {
                    "id" : 57,
                    "_type" : "StitchedMedia",
                    "minMediaStart" : 0,
                    "attributes" : {
                      "ident" : "Rec 04-22-20_002",
                      "gain" : 1.0,
                      "mixToMono" : false
                    },
                    "parameters" : {
                      "translation0" : {
                        "type" : "double",
                        "defaultValue" : 0.0,
                        "keyframes" : [
                          {
                            "endTime" : 122,
                            "time" : 92,
                            "value" : 361.121978615859,
                            "duration" : 30
                          },
                          {
                            "endTime" : 367,
                            "time" : 337,
                            "value" : -189.592500592984,
                            "duration" : 30
                          }
                        ]
                      },
                      "translation1" : {
                        "type" : "double",
                        "defaultValue" : 0.0,
                        "keyframes" : [
                          {
                            "endTime" : 122,
                            "time" : 92,
                            "value" : -203.131099778621,
                            "duration" : 30
                          },
                          {
                            "endTime" : 367,
                            "time" : 337,
                            "value" : -38.6668905461799,
                            "duration" : 30
                          }
                        ]
                      },
                      "scale0" : {
                        "type" : "double",
                        "defaultValue" : 0.666666666666667,
                        "keyframes" : [
                          {
                            "endTime" : 122,
                            "time" : 92,
                            "value" : 1.04283533565446,
                            "duration" : 30
                          },
                          {
                            "endTime" : 367,
                            "time" : 337,
                            "value" : 1.3111146827478,
                            "duration" : 30
                          }
                        ]
                      },
                      "scale1" : {
                        "type" : "double",
                        "defaultValue" : 0.666666666666667,
                        "keyframes" : [
                          {
                            "endTime" : 122,
                            "time" : 92,
                            "value" : 1.04283542335774,
                            "duration" : 30
                          },
                          {
                            "endTime" : 367,
                            "time" : 337,
                            "value" : 1.31111490957065,
                            "duration" : 30
                          }
                        ]
                      },
                      "volume" : 1.0,
                      "cursorOpacity" : 1.0,
                      "cursorScale" : 1.0
                    },
                    "medias" : [
                        {
                          "id" : 58,
                          "_type" : "UnifiedMedia",
                          "video" : 
                              {
                                "id" : 59,
                                "_type" : "ScreenVMFile",
                                "src" : 13,
                                "trackNumber" : 0,
                                "attributes" : {
                                  "ident" : "Rec 04-22-20_002"
                                },
                                "parameters" : {
                                  "cursorScale" : {
                                    "type" : "double",
                                    "defaultValue" : 0.0,
                                    "interp" : "linr"
                                  },
                                  "cursorOpacity" : {
                                    "type" : "double",
                                    "defaultValue" : 0.0,
                                    "interp" : "linr"
                                  }
                                },
                                "effects" : [

                                ],
                                "start" : 0,
                                "duration" : 35,
                                "mediaStart" : 0,
                                "mediaDuration" : 35,
                                "scalar" : 1,
                                "animationTracks" : {

                                }
                              },
                          "audio" : 
                              {
                                "id" : 60,
                                "_type" : "AMFile",
                                "src" : 13,
                                "trackNumber" : 2,
                                "attributes" : {
                                  "ident" : "",
                                  "gain" : 1.0,
                                  "mixToMono" : false
                                },
                                  "channelNumber" : "0,1",
                                "effects" : [

                                ],
                                "start" : 0,
                                "duration" : 35,
                                "mediaStart" : 0,
                                "mediaDuration" : 35,
                                "scalar" : 1,
                                "animationTracks" : {

                                }
                              }
,
                          "start" : 0,
                          "duration" : 35,
                          "mediaStart" : 0,
                          "mediaDuration" : 1150,
                          "scalar" : 1,
                          "metadata" : {
                            "AutoAppliedSmartFocus" : "False",
                            "clipSpeedAttribute" : false
                          }
                        },
                        {
                          "id" : 61,
                          "_type" : "UnifiedMedia",
                          "video" : 
                              {
                                "id" : 62,
                                "_type" : "ScreenVMFile",
                                "src" : 13,
                                "trackNumber" : 0,
                                "attributes" : {
                                  "ident" : "Rec 04-22-20_002"
                                },
                                "parameters" : {
                                  "cursorScale" : {
                                    "type" : "double",
                                    "defaultValue" : 0.0,
                                    "interp" : "linr"
                                  },
                                  "cursorOpacity" : {
                                    "type" : "double",
                                    "defaultValue" : 0.0,
                                    "interp" : "linr"
                                  }
                                },
                                "effects" : [

                                ],
                                "start" : 35,
                                "duration" : 1086,
                                "mediaStart" : 64,
                                "mediaDuration" : 1086,
                                "scalar" : 1,
                                "animationTracks" : {

                                }
                              },
                          "audio" : 
                              {
                                "id" : 63,
                                "_type" : "AMFile",
                                "src" : 13,
                                "trackNumber" : 2,
                                "attributes" : {
                                  "ident" : "",
                                  "gain" : 1.0,
                                  "mixToMono" : false
                                },
                                  "channelNumber" : "0,1",
                                "effects" : [

                                ],
                                "start" : 35,
                                "duration" : 1086,
                                "mediaStart" : 64,
                                "mediaDuration" : 1086,
                                "scalar" : 1,
                                "animationTracks" : {

                                }
                              }
,
                          "start" : 35,
                          "duration" : 1086,
                          "mediaStart" : 0,
                          "mediaDuration" : 1150,
                          "scalar" : 1,
                          "metadata" : {
                            "AutoAppliedSmartFocus" : "False",
                            "clipSpeedAttribute" : false
                          }
                        }
                    ],
                    "effects" : [

                    ],
                    "start" : 2122,
                    "duration" : 1121,
                    "mediaStart" : 0,
                    "mediaDuration" : 1121,
                    "scalar" : 1,
                    "metadata" : {
                      "AutoAppliedSmartFocus" : "False",
                      "clipSpeedAttribute" : false,
                      "default-scale0" : 0.666666666666667,
                      "default-scale1" : 0.666666666666667,
                      "default-translation0" : 0.0,
                      "default-translation1" : 0.0
                    },
                    "animationTracks" : {
                      "visual" : [
                        {
                          "endTime" : 122,
                          "duration" : 30,
                          "range" : [ 92, 30]
                        },
                        {
                          "endTime" : 367,
                          "duration" : 30,
                          "range" : [ 337, 30]
                        }
                      ]
                    }
                  }
                ],
                "transitions" : [
                  {
                    "name" : "Fade",
                    "duration" : 30,
                    "trivial" : false,
                    "reverse" : false,
                    "useAudioPreRoll" : true,
                    "useVisualPreRoll" : true,
                    "rightMedia" : 57
                  },
                  {
                    "name" : "Fade",
                    "duration" : 30,
                    "trivial" : false,
                    "reverse" : false,
                    "useAudioPreRoll" : true,
                    "useVisualPreRoll" : true,
                    "leftMedia" : 57
                  }
                ]
              },
              {
                "trackIndex" : 14,
                "medias" : [
                  {
                    "id" : 64,
                    "_type" : "StitchedMedia",
                    "minMediaStart" : 0,
                    "attributes" : {
                      "ident" : "Rec 04-22-20_002",
                      "gain" : 1.0,
                      "mixToMono" : false
                    },
                    "parameters" : {
                      "volume" : 1.0,
                      "cursorOpacity" : 1.0,
                      "cursorScale" : 1.0
                    },
                    "medias" : [
                        {
                          "id" : 65,
                          "_type" : "AMFile",
                          "src" : 13,
                          "trackNumber" : 1,
                          "attributes" : {
                            "ident" : "Rec 04-22-20_002",
                            "gain" : 1.0,
                            "mixToMono" : false
                          },
                            "channelNumber" : "0,1",
                          "effects" : [

                          ],
                          "start" : 0,
                          "duration" : 35,
                          "mediaStart" : 0,
                          "mediaDuration" : 35,
                          "scalar" : 1,
                          "metadata" : {
                            "clipSpeedAttribute" : false
                          },
                          "animationTracks" : {

                          }
                        },
                        {
                          "id" : 66,
                          "_type" : "AMFile",
                          "src" : 13,
                          "trackNumber" : 1,
                          "attributes" : {
                            "ident" : "Rec 04-22-20_002",
                            "gain" : 1.0,
                            "mixToMono" : false
                          },
                            "channelNumber" : "0,1",
                          "effects" : [

                          ],
                          "start" : 35,
                          "duration" : 1077,
                          "mediaStart" : 64,
                          "mediaDuration" : 1077,
                          "scalar" : 1,
                          "metadata" : {
                            "clipSpeedAttribute" : false
                          },
                          "animationTracks" : {

                          }
                        }
                    ],
                    "effects" : [
                        {
                          "effectName" : "NoiseReduction",
                          "category" : "categoryAudioEffects",
                          "parameters" : {
                            "denoiserAmount" : 8.0,
                            "denoiserThreshold" : 0.0,
                            "noiseProfile" : "RS5uPyqrUEBL5Kg/FpCnP+PU7z4O0g8/TzjXPxrpND7b+Og9l2LOPelfST5dCNE9A+aCPbuwDT3S\r\nJWs9iWL7O11rijy2WqI8S9t5PN8mLTx0qPg8nr8VPI7c+Tsv1Rk8SksAPO9bhzsKbZc7yAySO/AE\r\n3zs++1k7ZDpeO7/kzjvnGHo7gCMpO0++OjuTUQo71mbzOgLgqDt9kgg7ZaKuOuTWDDtJn/A6jtbT\r\nOyblXzuw0+w7FgaGOiSOATvZQpo6b5SgOg8WJjrK5Bw76tiMOmXBPTqFBQU65YMJOmNAEDrVnuM6\r\n7PUoOi4yIjrn1rI5jhQKOh6UjDncK+45CkLHORK7BTqeMw06ufIFOsZujjr1gDU6T3KAOoRazzlQ\r\nS3o5BXCsOWWqKznr0N45wTinOT/cTjmmCic6mi4SOjKPrDkApgs6uo6EOQACozn6fUw6TvwjOvg2\r\n3zkO+yU6YoXyOT8h8jnVZ2U5PPg4ORC8ozkwbpA5InVAOQAmTjnZZ2Y5oEhgOaOb2Dn+znE5hD+j\r\nODi82zjYQUQ5KRd5OS7lWjmmPys55YimOKTCFjlKddw42B8tOXok7zgjYW85f+PHOZRsdTkeVgg5\r\nKbcOOcCvaTgYiYk5kwePOf4tHTmtLEA5awCSOFPU8ziPcwk5Fk47OU/zMjnFtUU5IMmaOVT9Pzku\r\nOz85OFHVOLjPUjmHLh45P7F6ONwdoThmdjQ5F1esODWAmjguI/04DIzjOD8YOTkGOq04EHvTOBRr\r\ngTjiyp84168IOf54BDmRUgA5eTITOZxm6zjFFAQ5bGYPORSPjDix5RM5/92NOFIbwjiKvgo5902E\r\nOESQ7TiOORU57wAWOT7G9jisWM041yz4ODBd5TjJWkE5FN6xOA5mjDhMFzI5RtGgOLzcDTlbTAw5\r\nZoK4OIQOdTgoGNU4pwrSOILypziXn404uq3YOPeCIzihrXQ4ADSQOBiVUDia7xM5iHFXOBtnSzho\r\nucY4fFOlOHQ9GjkhJwU57vrQOCRxJTi/N6w4pjGwOOQCYDhyXwM4MfU1ONp1NTh7S0Q4TY6UOG5I\r\nNDjAgys4yX62OLYkijhIESs4TxqAOACclDiNAp04p4egOGwjRjgLVrc4Rhe6OHtOMTjSMwM4cPdb\r\nOOzakTihNzw4GniZOIyCKzjiPSo4wRPLN02OhjjI+3M4S9xFOCKJHDgWUE44u0OFOGInXDhG5jE4\r\nrh9bONKKMDjglX44ZW8VOCjDSDiEM0s4gUcxOIXIDThQzWg4PucMOIaoIThNr0I4mawMOBvGxzc2\r\nG1k4DqUhOGAdKDnSrB44Ksr/N0YUBzlt6wg51HyFOLKZtzm5FCA5Tb2wOIYBEjmielM4cCuhOFRZ\r\nVTjndUE47TXhOH5dkjjY5Qw4cKN4OFu/0zifaVA4lPKlOI6M+jfPFwA4hZPeNzKlZTgS+Ug4w+4s\r\nOYa0LjiYyRI4J9flN5oApTfmCSQ4Q19oOPeVFjjQPEQ5fttrOKK0WDiSj6o4GZTxOCbWcDio1UE4\r\nUgAeOKP41zhv9yQ4B9zmN2QaBzg+Neo4SYE+OJP2GjiwoBU4uZRvOO61xTeWPpg4Z9oMOBrfHDif\r\nKuI3gCgKOHbImjiGlSc4U9apN5N34jfGcD44kUiQN8yY9jeyMIs4NcimN4qnQzgawgQ4RzJLOGUS\r\nAzhAvkA4f0biNw9rJzh5zTE4ELuxN8xbRTiBo2c4LMIOOP8+BjjgezA4uZVkOLlZ0Td4vCM4tJ4M\r\nOCz9GTig/b83+57EN8wmIDjdbFw4rq/DN0WJHjgjdPg3JOf3Nwj/ajgExhE4MMSSN+NQqjdgzCc4\r\nY1ofOEVZ5zd6D3g3j14HOJWu4zfYSLs3EKvnN4gRFjilqco3yNwbOCyuNzgH6Ng3TKlBOFVGGTjp\r\nTgs4NC/cNxhAAzhq7dc3cI+hNzOVGDhPvbM31u6lN24kFzidNgQ4IwLIN8yW3zcocyM4VoTGN4rb\r\npDdy+0w4flYROJaMTzf7dL43kTg5ONoY1DcFfQY4XyciOPBToDi2/Zw3FES1N4CSJjjCOfA3fU8L\r\nODQ6Wjfga6839G/oN2Ip2DcCFd039oSsN9Nz6DcYqDQ4ZLrvN3zHJDgvPSM4htyhN9FlATjCZhs4\r\noDo2OFcS0TeHCdo3mZApOGTBQziHyJ45oghWOREtWzhwvdk3SvcvOM1UzTfdkr04kxe3N8M4ADh6\r\n5+Y4bF3XOKTL1jiEIS845vPMNyn/4zh20gI5RkFsOO1eADiiIoY4sEQ8OEcnqTjkFRk4KGotOPNk\r\nFDgbhgA4dAnMON7ouzhIYwE4owNgOC4gHTlCA/A4e12WODhmjzcfW044uDn9N4RPiTe/ub44laGs\r\nOIShbTdQYlA36tlYOJvPIjgfWio40YE5OMziljchM7I3aBrzN2ZyBDgVO+I3ksnRN9ChmzjkTA84\r\nr6y0N1k1ATheht03oHapNzsw0jd3Zlc3PlesN5NvmDdd03E32Ba/N4ICSDeGDuE3/npGN4p/hTdT\r\nO3k3ktO5N67otTjkpJQ3OfCbN0aBZDf42cc3/VbfNzbNJDdBb3g3D2CMN29ptzfU4aY3/sSCN5jZ\r\nDzjwvo43X+yfN/lwnjfrt4o3QCa1N+2LgTcf8EM3w+irN5XaAzi67683nVLKN0Wx1TemEbQ3P7bZ\r\nN+zgyze5wNc3pKzVNza+pDf+GKg36ngFODL8qTen3gc4A+LwN7fSrjep/H43q+3YN0h3/DcAlE83\r\n8gy2N428wTcjFA44SEdUOLwU+DdvyIc3c62pN7bHkTc4UYA3ryFjN29grjf6SdI3+lS2N9wYhTc0\r\ncYc314CUN1U0hzcqrx43UbSAN3oFfzcuFUA3ca/aN/6RlzfXL5k3JyGKN1ZbcTduO4I3JSihN5lE\r\nrTfcJcI329+3NxcW1TdGQIs3FlSON1aBDDhlxAs30G8hOINw2zd9Lds3Vn/zN8zg+zdufcw35yG6\r\nN8c94jdAPqI3ukb2N+poODgiZjI4SJW9N0Z+Mzj4Lqg3KLLYN5UdqTdqom43UPU9OHdxhTimqow3\r\nyAMLOBiKlzdIPpY3/A3NN5D4wjcgFdw3m2h9N1g+kjawxmE2ihiaNjQpgDZld8M2NU+RNmLrdjZq\r\n6cI2oqGONgwopDZFJbI2Vwx7NnLaijYwtKQ2VGdTNlooGTYm13M2NpVVNtDhyDYvL4c27CtWNsBj\r\nqTbD1EY2vHRbNnkqZjbU9042APlONmaqgza4mTc2tcWCNtJ2WjbKizs2TtKgNpvojjZfllY2OrmB\r\nNi9uIjYoc5Q22gyhNqaEgza0wW4225MoNhRMzTYA42I2oMCBNksXrDa/MUU2HtpKNpzRTjZpOG82\r\nikWQNnDYLTaiK5A2vT9mNkynHDYl/oU2MqV6No5TUDZH+FM2RR6NNnazoza2H3g20Cl+Nsm1GTZO\r\niBc2qaQzN3nqyDWuW7s2T5tANjm6JDY+4B4242dVNxTPgzZkOJk3r0cLNsowHze97NY2NezMNxl9\r\n0DYuaX03O5chNwfchTd0YtQ29Bv5Nha0XjY3N6M2Dpc0NnIObzba50E2978kN+C5BDbkyMs2ZIax\r\nNfIGnTbibTo23fNKNgAEPjYtWGw24LchNnlndDYQlLE23louNj3BSzZiK5g2wkU/NrHeFDayfQU2\r\nZX9BNp/MLjbukDU28dBENtwPZDZ0G1I2Kdo5NuT7IzaoRzI2gPZMNrMskzYgUlE2T2X4NaoyOTY1\r\nyU42ct9kNhBWSTY0h3M2496lNhp8hDYgWwQ2Dr03NuklajbyE0I24eFqNqMveTYOnXc2YAFCNmlF\r\nRzY9QDM2X5t8NpzHQTbySTM250CBNkKJ3zVKdn42lt8rNqgyQDbrGG021SsUNnlcPjbfelo2Q/VI\r\nNsgPVzYrs1c2smhiNpzDwDbWZhc2DyhUNhxLXzYe0Yo2ExohNpSPPjZvnS02d6jZNT5MNTYUegM2\r\nREgVNhYECDY60yI2CrATNqvJmTYS5lc25AACNu+VbjZqKDM2QL83NiUxCTarMgk2+8IvNsAWADam\r\n2sA14kQ/NqcCezaP2Jk2IsMcNjaEKDbM9i029YpqNi2sTzaAzhQ2ndEFNltXWzZhZzA2s6pINgTe\r\niDai0SQ2v24ONu4VSTZ/UkM2/sQdNgCYZDZagBg2gqMfNvhDaTYj8B82GKZrNjpjMjao2T82stdX\r\nNr6FQTbIdTY2JFFnNvTTHTY21YA2ah/xNca8VzY8OGI2Yk5TNurfJzZpS2o2ZCwBNjoFETaR5+41\r\neIEMNhNSVDYmNEk2l84iNs031TUPkJs2n40XNll1QTYgBQg28nhmNjCEFTYmEPk15zgRNkCJkTYO\r\n7TY2qd5aNvJRIjateyM2xNkkNoD9gTaeMRk2575lNpkJaDbeVvI1+d4KNn4gIjZI1xo2iEYSNoEi\r\nCzbqovY1euoXNsqw+TVaskk2Y4QGNlQL8DXdTWs2ZdHtNYodCDZ0Gio2dvrUNYlJAjal+QE2zoQn\r\nNhSdwTXQhRU2WOhwNtIYajZjOGM2XhRENjFiJDaCtR02yD7dNeADGDbjdjg2AjAoNj+CITZjSRw2\r\n/P+xNWyM7zXvcBs28bMvNiyJRDbIqxI2FqN4NucOYTanpR42ojIpNrFpCTa3uCQ2IRUgNugmPDYk\r\nnS82OX8JNigbBTYjwiY2IAwpNqFLMTZV1hU2kEAANo9vgjZo9zw2t105NiEKCjZxqR422nkCNjM4\r\nJDa05g82BOoTNuOoEzaHXxI20uv4NZNSQTaFtmk2Xsg1Ni/1tzU+Lxk2UMsLNivZATacF941FOA7\r\nNmmZFDabCAo2FXUJNoWdJjY09XQ21iogNpCwIzbFCuU1ScckNgCQRTZUSDQ2df00NkK8SDYv9DI2\r\niOwSNh+3KDYNJAA2FfdCNo0CYDY6xEs2HZUoNo0pEDbVPpg2nJQCNjHLGjYEAEo2KzUjNmFh6zUs\r\nZhk2orY2NiGAKDZIuSM2VWkkNt/r3zWM/v01oVwfNq65cjb6VeE1+xm0NVftzDW10is2C7FPNglm\r\nqDVlORk2VWhRNqg/ozWmARk2mnUuNjD2NTZjWbA1JNTTNaU9CjYww2I2wegZNtOdMTbU1PM1qFPN\r\nNeCh7jUyS582gwc+Ni1OBTaKxQ82dQ5ANgrKYTaBsyk2cX0KNgm4MjZeBg823m0zNjhKKTbCEpE1\r\nPNM4NiLvSTZ42xg29KzuNaPXcTWxTU02D0lpNsZUeTaVUlo2OUdjNhfSADaseV025+8xNuTxMTZb\r\n73Q2SIEQNkPSxzUZtBs2Piy/NbIdJjZ+0R028PwrNssKcjaPVMA1/h0MNodVVTYeHF42/r4tNgtO\r\nojXS1vw1TxA3NsRzCjavBvw12q3ZNYH5NDZdpHo2H0kENs29CjYe4N4149jrNSQK3jVcFB82xdYf\r\nNrZiQTbl4AM27noqNjJNWDZiJPs1Gc0aNhkuNjalgyo2E/dFNvZdODbuyTE22ixANgBABDYhMm4/\r\n0aNQQMMaqT+Yg6c/1r/vPr7rDz8VVtc/iD40Pu7O6D3v/M49wJBJPlUm0T1b/oI94lINPejAaj2l\r\nf/47gmyLPJ1sojwannk8ck0vPMkH+TxkaRQ8v1/8O7IKHzxgh/87CIOQO3wAljtyBpc7FF3mO1+I\r\nYjvWzV47yM3PO66egTuz5iA7HYxEOx63FDs+Hu86RK2qO5aLDDuKYMo62lARO6CJ/TrsLtI7jOJf\r\nO8lY7Tv2JpM6mz4NOzpSzDpZIrg6uNo2OmPwKDtaVGw6Zf0VOvRnEzqEThg6hMYWOojMyzpsSDw6\r\nAg8yOiinsTl3zho6okefOf4U9TkpI905Cw0XOjVAHDom7eM5GUenOqT2Jjp6gmE6ELnQOXVThjnY\r\nAMM5PvITOVFk0DmzS585f+yKOVMUKjqiAxc6M7OzOYGnGDo5xqc5Rg+3OWURUjoOny06M2S+Ocp5\r\nKTon4+I5gD/7OTh0gzmhUzU5IbK1OQdGijkukCI5x2lBOUAZUzneYGc56ROiOe6ySzm9X6k4C47t\r\nOJKtSTmg34E5pgBnOSuRPDlrK9I4yDsiObgeDDlJkDU5lnDMOOV0VDkk4MA5F/kcOYtjFDnI6Bk5\r\nz4NoOH6EkDkEv2o5KI4AOZVyXjl4qpE4HPYAOUZhIjkd3C45DeIoOcRAMjnWyKA56v93OUxxaDkm\r\nGNc4up9sOfoS+zh0X4E43wC2ODqXITkZu804D3mtOKwrwjhOsPM4DDo+OYjAzDgmjNU442WSOC49\r\nrzhaZN04easTORNj4DizNyw5bkzsONAPozi3Lw85MjOYOOxmIznNOoY4WQy6OHwKCTl3uVw4S5q4\r\nOKzTEjkgmhs5JNPUOOs2vzjkQwE5UDmtOEzrQDmVzLM4HGW6ONSlVTneT6k4rSMGOdoaETlkPq44\r\nSTFlOG1arTi6LeE4Mve+OFdfZjgy5eE4NAVTODiEqjiTLqE4nBKJOLpT5zhusxE4kNp7OOxymDhd\r\ndQs5PjYiOWgF9zjsZuw4I9UOOF4RfzgzHec4u1Z6OML1MTgrDRU4rN2DOCCPbziQLMk4QV8AODgV\r\n+zfmA7I46kDNOHaM5jddoKA4axGTOMRQgTi5fZA4Hd9mOClqzjiTodA4R3QTOI7ZRDhahhE4NBdj\r\nOMK8eTj4vG84FMmIOIpfUTiafsA3TVylOHu9Tjiz0504JMguOPWXZTjHx5w4wftzOBBiNTjIQDA4\r\nFPcEOHGfqzgLTHU4HpeDOIcYnDhTw3Y4JCoiOIqCJzgkexQ4AlZ2OBqfHzhFM1Y4z6KZNwMqJjj2\r\nemY4CEIrOfkMhDi0lCs4mTcuOddlADkbH004+vawOcbmHDlWD284EtbVOGCtOjh4/eg4DUyPOPQw\r\nIjia1Bo5sU5TOKzhWDhuplw4aHyhOOUrGzjz3qA48MH7N17lFDg7osY3kNtnOO2dcjjvwhQ5NfFN\r\nON8ZCjgcmvE3TInsN62mKDiSoIc4MdUEOLl9UznCbqg4pVBtOGZO2DiUYSs5ukiUOISlnzimF7A4\r\nbUohOeL2Vzi7ip44UEzSN7ntjjipKiE47KqaN01Nizh92o44sfn1N9X1rzjMz6o3lpMJOFtFKjjR\r\nxhg44gOSOILhQDiwESo49tBDOIf2BDjkXtA3J7nXN62oujdWoxU4YDYjOCQW/jdSvG44MUGEN4uG\r\nWTi1sB84s1lBOOaLjTjXaQA4ym1NOJ0RcDgrexg4MvZLONKM+jew/jE4aTNHOAqoejjx28k3ctnz\r\nN8oxwjdaJNU3PsdfOPTaFjgQlrE3GgXRN5h5mjeGFNs3VBFDOErALDgq0ls39sChN/n9MThSyw84\r\nrWT6N2FjhzcE8NA38qUDOM9fwTdQUQo47cUNOO3/Ijjm+w44PuotOIvzvTfTnU84fVUbOBKJSzhT\r\nHpg32dNEODLQAjgKP9o3io4oOAA7mDcxHAE4qTgMODCWIThZZCk491jFN47zGjhqJxc4PugFOM2a\r\nQDgdFuU3yXasN4cn2DdfPoQ4FfozOL4YHTgoJ+s3hgNKOJ1sGjjJ/Mk3Rt11OJ8SijeQk6w3NJdV\r\nN5o/MDgKuuk368a4N4VL6TeAWok3u5PlN3TNbTgAmsA34SMGOLCMRDhJJMg30q4BOEQfkTfWFBk4\r\nbw8OOLqqDzj4kC44PoNmON2/jzkY+VA50ehKOK1KLzgxdpU4N22nN1HhzTjJnp83sAsiOBL/hjjS\r\nk9A4vVzWOOtsYjimvhw4L2R6ODQwMjkyV6Y4Hh2xN+OKnDhKWP03QdKeODBsMjg+4DE4mo4BOEGi\r\nDTjiU8U4wkKlOHE1FjjdjEU4bOe6OKHQ/zhshoo45meGN8WvaTjJ7wM4YHJ9N2EKpTh0dY04nHQv\r\nOCu9uDfrT504ezlbOA68izgTdas3OXiCN9qibjdw5jc4vSCONwzwAzgvx/E37gdTOJI7eTj4Ans3\r\nhDMMOPoCmTc3bNE3xTenN1ICRjfr/cA3gIfNNxMnoTcOzZE3jEhQN7W7gDeOPYg3H6iEN+OixzcJ\r\nLI436CunOKjxqTfdRx83C4uKN57gvTfGfug3qkOGN2T9kjcS7aU3iAy/N9xagDcrNpo3WOUROPy1\r\nkTe2ZsQ3iSWlN2YKxzc2HK83K5BRNy6JXDfFV8o3Eq0JOCrlpjdZiss37hPcN+AXsDdEJJE3Xz7D\r\nN5MC5zdBgu43Of6ZN95KmzcHlgk4V/ypN2j66jeFcgA4QaO5N7szlDdupuQ3nOS9NwCgXzepyZo3\r\nbQiqN8eU8Tc3WUU47tcROMNfkDeWjpg3LOasN4haQzfu4VQ3zLWcN/NgozdAWqI30SxkN+axjTcV\r\nT803LfWqN8srQjewvlw3zA9HN3wmVDdVyeQ3G2SHN4l7rzdcLpQ3bIR5N6BPgzeOUIo3iIq5N+Oq\r\nzjfST5Y3IffBN3oCWzfRQ7U3pJsjOJvMTTfarxI4ZLzMNxnp2zeoWhI4tgUKODhX0Dcdy7E35STM\r\nN3Bmhjet2tQ3hDAgOEW+NTjiM9Y3IGwtOGZNuTd2+rM3EL62N6T4PTdu/zk4y4RsOHAfcTd1GB44\r\nbmdvN7jsiDeNSr03zH/kN9TKmzfE+YA3L2GYNmwOkzYa27c2j8T5NlA5qzZiMVI2tJCqNr6TbjZ4\r\nOG02pw2jNjbosTZSzaQ2TrtSNrW+ZTZtoJQ2pjhDNuIBezYVIIg2z6lCNtRRlTbT/5Q2UCSNNgW+\r\nWTaKHpM2mlR4NmTIZzajEmY2MJdYNpL2IjZctWk2sTw9NudviDYecms28nlzNty4rTbN6ow2IBeU\r\nNr2pbTZgIoU21HZ9NrIxKDatNJg2tNSPNuJCMzasfls2HoYqNqIrVTaN70w2IsIxNgZEjza4iZM2\r\n8PBuNmClXTbCC5I28r2XNk7qEzZQfkU29Y84NggTjzZqJms2WxdINmOBVTbcnXU2qEQ6NmfP4zUa\r\nM1E3VMlJNitm9zaYqAw2IvgcNk8wQzZNwCQ326ccNik48DZEFkc2bDJ3Ny1d+Dbiuro3bEUZNx37\r\nTDdxHj83KTivN5IXzTbiiz83tJ3ONiBQWTYqGhs2LAgjNmaMfDYGXyk3bmM3NmSO0DZ2l1I2VSpW\r\nNiRXcDbcXIk2lFx0NgjLBjZpPSs2TRg7NmSmRzYsVTk2J5ZkNqAalTbIShw20FkjNqImNjZO/TI2\r\nGB6xNlbx/TWx34M22t40NjegKTatxYY2YB4kNgIRqzaaxGU23953NuSPfzZCeYQ2ddJQNhaGOzbA\r\nLUE2OYwWNndbizar5Tc22UIqNlkyODZW/SY2HcJeNmM3QTZarDE2T9QCNtKSMTYZlTQ2Zj4XNkY7\r\nfTap2Fs2chJrNrv1cDalgx02iHAwNqYBGDaqZhY2cMA8NiTWODaXvVU268ohNsYQGDZQU3s227FB\r\nNi5GLDZci2c2IbZfNl+GijbWVN41xlkmNhoDqTZgkRE2LEAoNkRqvDXz7n42BnLdNaxnKzYk0Fk2\r\nPh8bNtK24DVleTk2JMUfNuHOPDaz1xk28/aSNoUqUTaga3o230X9NcAJEzZ2Ex42Tm0XNoRyKjbK\r\n5SA2GcKFNtbwOjaG2zQ2ImZjNqvVLTYWT142MlZUNmTTFTbHPww2ftKDNhKxDzZjrjI2FsNCNtfO\r\nfDZJZBw20RiANliuMzZUaWU2qiEGNhTcjDbFfg02VAwvNtFmKDb+QO41541ZNv8AITbUlEw2Go2U\r\nNiV9QDb24i02npaHNiY2EDY+NJ42HrM8NnegVDYtv1I2rHx+Nk4fETaO+g824BBLNpAJSzbafdc1\r\nt6gQNuhhfzaGwxw2pSheNvUqLTZinpw2SZAbNupFyTXZGgE26515Nqq6PTad+h02W1ouNlC6LTbV\r\na/I1++59NkmXhza4DlI2xr91NiQ7PzbXPSc2tWXMNezWMTZ6SD42T1sKNkG0GTY1NBs2U201NmuK\r\n+zXtNzg2T1iLNqs5Pzacxmg2OdGHNr0+SDYdXwc2pbFpNrUKzTYcvEc2pGlINiMwhzZLcEk28pwr\r\nNv2TITbSggk2Tg0QNtEI4jWipQo27gtDNlqnRja8nts1CPgJNooMVjZfMRE2gU9iNuLyOzZbYyQ2\r\nhNs9NnBWETany0w2SvAGNlIdQDaoQzQ2YDL9NaxqDjaeXYA291h/NqGqDjaHZyA2PqgrNkRWHDa5\r\nChw2FugUNio8JDZLJDw2shR3NpLV2zVSGCM282uBNm1EhjZ/39Y1L42DNtt8DTavqdM1gjplNrzZ\r\nAzYoRz02raHtNV/FITazsjI2zgpBNt41OjZjA1U2M3sbNhIfDjaNFx02yFgYNqjgcza5MBc2iB0U\r\nNnNmHzZKYS02YCUMNlEpnDbSuxk2/mtZNsYDVjaSWGQ20sowNtDfezZT4Ak2aU5LNhU2gDbDAyk2\r\n/S8UNi4jUDb70Y81pZmBNux8CTbWkRg2VpQnNqvxfzZcxUw2Pd4QNsy0FjY2vVo2NH7nNYXtXjba\r\nJvs1IuVdNlUwHTYEqxc2IRQcNgqtTzYYZA82LeNONlySFjZbAUw2/LMmNpWxSTaRriE2wRwyNiUn\r\nOjbqET42SJlVNs9MITazpOU1Za8sNiCFEDZgHPU1rlEINiYKCzbNtkY2JuNINhJEEzY9SOg1PEZL\r\nNqkPlTZLsfE1qkAtNnjtETY30XU2bI4BNloNPTaFfEU2vzgPNtdCTDZjzzg2GEWuNYR5ODZT6yc2\r\n9ogwNuQAITZ/6Vo2yAQdNlGsAzbaeh02yFrwNQUJ8jW/Bxc2fqhaNo9SRTYgLhM2S54QNp8/ADZv\r\nhw42pdA4Ns5XhjbjmDI2mqgGNuQlhzbsfAI23ew3Nte+QjapeV42m/vtNXOI5DW3TwU2cP0oNtvC\r\nUTZ9Ag82qm0gNjnqHDYSaB82UgQgNkv0BDZKMv01xHCINqOHPTbQDi02zZHwNS40DTZ9PAQ2modI\r\nNnwDCzaadBk2K610NjAfQTYDvAk2ZrgSNrmfIDbkE1I2sPhqNtfGtTUKGjA2ACDnNQ==",
                            "noiseTrainingType" : "default"
                          }
                        }
                    ],
                    "start" : 2122,
                    "duration" : 1112,
                    "mediaStart" : 0,
                    "mediaDuration" : 1112,
                    "scalar" : 1,
                    "metadata" : {
                      "clipSpeedAttribute" : false
                    },
                    "animationTracks" : {

                    }
                  }
                ]
              },
              {
                "trackIndex" : 15,
                "medias" : [
                ]
              }
            ]
          }
        }
      ]
    },
    "trackAttributes" : [
      {
        "ident" : "",
        "audioMuted" : false,
        "videoHidden" : false,
        "magnetic" : false,
        "matte" : 0,
        "metadata" : {
          "IsLocked" : "False",
          "WinTrackHeight" : "108.923076923077",
          "trackHeight" : "86"
        }
      },
      {
        "ident" : "",
        "audioMuted" : false,
        "videoHidden" : false,
        "magnetic" : false,
        "matte" : 0,
        "metadata" : {
          "IsLocked" : "False",
          "WinTrackHeight" : "108.923076923077",
          "trackHeight" : "40"
        }
      },
      {
        "ident" : "",
        "audioMuted" : false,
        "videoHidden" : false,
        "magnetic" : false,
        "matte" : 0,
        "metadata" : {
          "IsLocked" : "False",
          "WinTrackHeight" : "108.923076923077",
          "trackHeight" : "40"
        }
      },
      {
        "ident" : "",
        "audioMuted" : false,
        "videoHidden" : false,
        "magnetic" : false,
        "matte" : 0,
        "metadata" : {
          "IsLocked" : "False",
          "WinTrackHeight" : "108.923076923077",
          "trackHeight" : "102"
        }
      },
      {
        "ident" : "",
        "audioMuted" : false,
        "videoHidden" : false,
        "magnetic" : false,
        "matte" : 0,
        "metadata" : {
          "IsLocked" : "False",
          "WinTrackHeight" : "108.923076923077",
          "trackHeight" : "150"
        }
      },
      {
        "ident" : "",
        "audioMuted" : false,
        "videoHidden" : false,
        "magnetic" : false,
        "matte" : 0,
        "metadata" : {
          "IsLocked" : "False",
          "WinTrackHeight" : "108.923076923077",
          "trackHeight" : "150"
        }
      },
      {
        "ident" : "",
        "audioMuted" : false,
        "videoHidden" : false,
        "magnetic" : false,
        "matte" : 0,
        "metadata" : {
          "IsLocked" : "False",
          "WinTrackHeight" : "108.923076923077",
          "trackHeight" : "102"
        }
      },
      {
        "ident" : "",
        "audioMuted" : false,
        "videoHidden" : false,
        "magnetic" : false,
        "matte" : 0,
        "metadata" : {
          "IsLocked" : "False",
          "WinTrackHeight" : "108.923076923077",
          "trackHeight" : "54"
        }
      },
      {
        "ident" : "",
        "audioMuted" : false,
        "videoHidden" : false,
        "magnetic" : false,
        "matte" : 0,
        "metadata" : {
          "IsLocked" : "False",
          "WinTrackHeight" : "108.923076923077",
          "trackHeight" : "86"
        }
      },
      {
        "ident" : "",
        "audioMuted" : false,
        "videoHidden" : false,
        "magnetic" : false,
        "matte" : 0,
        "metadata" : {
          "IsLocked" : "False",
          "WinTrackHeight" : "108.923076923077",
          "trackHeight" : "86"
        }
      },
      {
        "ident" : "",
        "audioMuted" : false,
        "videoHidden" : false,
        "magnetic" : false,
        "matte" : 0,
        "metadata" : {
          "IsLocked" : "False",
          "WinTrackHeight" : "108.923076923077"
        }
      },
      {
        "ident" : "",
        "audioMuted" : false,
        "videoHidden" : false,
        "magnetic" : false,
        "matte" : 0,
        "metadata" : {
          "IsLocked" : "False",
          "WinTrackHeight" : "108.923076923077"
        }
      },
      {
        "ident" : "",
        "audioMuted" : false,
        "videoHidden" : false,
        "magnetic" : false,
        "matte" : 0,
        "metadata" : {
          "IsLocked" : "False",
          "WinTrackHeight" : "108.923076923077"
        }
      },
      {
        "ident" : "",
        "audioMuted" : false,
        "videoHidden" : false,
        "magnetic" : false,
        "matte" : 0,
        "metadata" : {
          "IsLocked" : "False",
          "WinTrackHeight" : "108.923076923077"
        }
      },
      {
        "ident" : "",
        "audioMuted" : false,
        "videoHidden" : false,
        "magnetic" : false,
        "matte" : 0,
        "metadata" : {
          "IsLocked" : "False",
          "WinTrackHeight" : "108.923076923077"
        }
      },
      {
        "ident" : "",
        "audioMuted" : false,
        "videoHidden" : false,
        "magnetic" : false,
        "matte" : 0,
        "metadata" : {
          "IsLocked" : "False",
          "WinTrackHeight" : "108.923076923077"
        }
      }
    ],
    "captionAttributes" : {
      "enabled" : true,
      "fontName" : "Arial",
      "fontSize" : 32,
      "backgroundColor" : [ 0, 0, 0, 127],
      "foregroundColor" : [ 255, 255, 255, 255],
      "lang" : "en",
      "alignment" : 0,
      "defaultFontSize" : true,
      "opacity" : 0.5,
      "backgroundEnabled" : true,
      "backgroundOnlyAroundText" : true
    },
    "backgroundColor" : [ 0, 0, 0, 255]
  },
  "metadata" : {
    "AutoSaveFile" : "",
    "CanvasZoom" : 75,
    "Date" : "2020-01-27 11:33:13 PM",
    "Fit" : 0,
    "IsAutoSave" : "0",
    "Language" : "ENU",
    "ProfileName" : "MP4 only (up to 720p)",
    "Title" : "CamtasiaTemplateWindows",
    "audioNarrationNotes" : "",
    "calloutStyle" : "All",
    "canvasDetached" : "False",
    "canvasPositionHeight" : "0",
    "canvasPositionLeft" : "0",
    "canvasPositionTop" : "0",
    "canvasPositionWidth" : "0",
    "firstMedia" : true
  },
  "audioPlaybackRate" : 44100
,
  "videoPlaybackRate" : 30

}
