{
  "title" : "",
  "description" : "",
  "author" : "",
  "targetLoudness" : -18.0,
  "shouldApplyLoudnessNormalization" : false,
  "videoFormatFrameRate" : 30,
  "audioFormatSampleRate" : 44100,
  "width" : 1280.0,
  "height" : 720.0,
  "version" : "3.0",
  "editRate" : 30,
  "authoringClientName" :  {
    "name" : "Camtasia",
    "platform" : "Windows",
    "version" : "19.0"
  },
  "sourceBin" : [
    {
      "id" : 1,
      "src" : "D:\\Data Files\\Udemy\\Instructor\\Codestars\\Course-Prep-Splash\\Camtasia9TemplateWindows\\codestars_logo.png",
      "rect" : [0, 0, 1061, 168],
      "lastMod" : "20200128T043621",
      "sourceTracks" : [
        {
          "range" : [0, 1],
          "type" : 1,
          "editRate" : 10000000,
          "trackRect" : [0, 0, 1061, 168],
          "sampleRate" : 0,
          "bitDepth" : 32,
          "numChannels" : 0,
          "integratedLUFS" : 100.0,
          "peakLevel" : -1.0,
          "metaData" : ""
        }
      ],
      "metadata" : {
        "timeAdded" : "20200413T010652.786275"
      }
    },
    {
      "id" : 2,
      "src" : "D:\\Data Files\\Udemy\\Instructor\\Codestars\\Course-Prep-Splash\\Camtasia9TemplateWindows\\star.png",
      "rect" : [0, 0, 199, 206],
      "lastMod" : "20200128T043621",
      "sourceTracks" : [
        {
          "range" : [0, 1],
          "type" : 1,
          "editRate" : 10000000,
          "trackRect" : [0, 0, 199, 206],
          "sampleRate" : 0,
          "bitDepth" : 32,
          "numChannels" : 0,
          "integratedLUFS" : 100.0,
          "peakLevel" : -1.0,
          "metaData" : ""
        }
      ],
      "metadata" : {
        "timeAdded" : "20200413T010652.797951"
      }
    },
    {
      "id" : 3,
      "src" : "D:\\Data Files\\Udemy\\Instructor\\Codestars\\Course-Prep-Splash\\Camtasia-JPB-CPP\\Splash_Android.png",
      "rect" : [0, 0, 1920, 1080],
      "lastMod" : "20200201T225340",
      "sourceTracks" : [
        {
          "range" : [0, 1],
          "type" : 1,
          "editRate" : 10000000,
          "trackRect" : [0, 0, 1920, 1080],
          "sampleRate" : 0,
          "bitDepth" : 32,
          "numChannels" : 0,
          "integratedLUFS" : 100.0,
          "peakLevel" : -1.0,
          "metaData" : ""
        }
      ],
      "metadata" : {
        "timeAdded" : "20200413T010652.819235"
      }
    },
    {
      "id" : 4,
      "src" : "C:\\Users\\profj\\Desktop\\Udemy\\Codestars\\CPP\\videos\\Course-Prep-Splash\\JPB-Images\\PNG\\Head.png",
      "rect" : [0, 0, 721, 1024],
      "lastMod" : "20200203T062252",
      "sourceTracks" : [
        {
          "range" : [0, 1],
          "type" : 1,
          "editRate" : 10000000,
          "trackRect" : [0, 0, 721, 1024],
          "sampleRate" : 0,
          "bitDepth" : 32,
          "numChannels" : 0,
          "integratedLUFS" : 100.0,
          "peakLevel" : -1.0,
          "metaData" : ""
        }
      ],
      "metadata" : {
        "timeAdded" : "20200413T010652.821203"
      }
    },
    {
      "id" : 5,
      "src" : "C:\\Users\\profj\\Documents\\Camtasia\\Rec 05-02-20_001.trec",
      "rect" : [0, 0, 1920, 1080],
      "lastMod" : "20200502T043858",
      "sourceTracks" : [
        {
          "range" : [0, 34149],
          "type" : 0,
          "editRate" : 30,
          "trackRect" : [0, 0, 1920, 1080],
          "sampleRate" : 29,
          "bitDepth" : 0,
          "numChannels" : 0,
          "integratedLUFS" : 100.0,
          "peakLevel" : -1.0,
          "metaData" : "2b7b6a00-7a1f-11e2-83d0-0017f200be7f;2b7b6aef-7a1f-11e2-83d0-0017f200be7f;2b7b6af0-7a1f-11e2-83d0-0017f200be7f;2b7b6af1-7a1f-11e2-83d0-0017f200be7f;2b7b6af2-7a1f-11e2-83d0-0017f200be7f;2b7b6af3-7a1f-11e2-83d0-0017f200be7f;2b7b6af5-7a1f-11e2-83d0-0017f200be7f;2b7b6af6-7a1f-11e2-83d0-0017f200be7f;2b7b6af7-7a1f-11e2-83d0-0017f200be7f;2b7b6af8-7a1f-11e2-83d0-0017f200be7f;2b7b6af9-7a1f-11e2-83d0-0017f200be7f;2b7b6afa-7a1f-11e2-83d0-0017f200be7f;"
        },
        {
          "range" : [0, 50187264],
          "type" : 2,
          "editRate" : 44100,
          "trackRect" : [0, 0, 0, 0],
          "sampleRate" : 44100,
          "bitDepth" : 16,
          "numChannels" : 2,
          "integratedLUFS" : -26.6362917597278,
          "peakLevel" : 1.0,
          "metaData" : ""
        },
        {
          "range" : [0, 50201600],
          "type" : 2,
          "editRate" : 44100,
          "trackRect" : [0, 0, 0, 0],
          "sampleRate" : 44100,
          "bitDepth" : 16,
          "numChannels" : 2,
          "integratedLUFS" : -1.79769313486232e+308,
          "peakLevel" : 0.0,
          "metaData" : ""
        }
      ],
      "metadata" : {
        "timeAdded" : "20200502T043858.964511"
      }
    },
    {
      "id" : 6,
      "src" : "C:\\Users\\profj\\Desktop\\Udemy\\Codestars\\CPP\\videos\\section5\\_wavs\\0505-variable-scope-lifetime-fixed.wav",
      "rect" : [0, 0, 0, 0],
      "lastMod" : "20200502T044206",
      "sourceTracks" : [
        {
          "range" : [0, 11433000000],
          "type" : 2,
          "editRate" : 10000000,
          "trackRect" : [0, 0, 0, 0],
          "sampleRate" : 44100,
          "bitDepth" : 16,
          "numChannels" : 2,
          "integratedLUFS" : -29.7940375237491,
          "peakLevel" : 0.71331787109375,
          "metaData" : ""
        }
      ],
      "metadata" : {
        "timeAdded" : "20200502T044222.169756"
      }
    },
    {
      "id" : 7,
      "src" : "C:\\Users\\profj\\Desktop\\Udemy\\Codestars\\CPP\\videos\\section5\\_intro-bulletpoints\\s5-lec5-variable-scope-lifetime\\Slide2.PNG",
      "rect" : [0, 0, 1280, 720],
      "lastMod" : "20200502T041611",
      "sourceTracks" : [
        {
          "range" : [0, 1],
          "type" : 1,
          "editRate" : 10000000,
          "trackRect" : [0, 0, 1280, 720],
          "sampleRate" : 0,
          "bitDepth" : 24,
          "numChannels" : 0,
          "integratedLUFS" : 100.0,
          "peakLevel" : -1.0,
          "metaData" : ""
        }
      ],
      "metadata" : {
        "timeAdded" : "20200502T044457.534506"
      }
    },
    {
      "id" : 8,
      "src" : "C:\\Users\\profj\\Desktop\\Udemy\\Codestars\\CPP\\videos\\section5\\_intro-bulletpoints\\s5-lec5-variable-scope-lifetime\\Slide1.PNG",
      "rect" : [0, 0, 1280, 720],
      "lastMod" : "20200502T041611",
      "sourceTracks" : [
        {
          "range" : [0, 1],
          "type" : 1,
          "editRate" : 10000000,
          "trackRect" : [0, 0, 1280, 720],
          "sampleRate" : 0,
          "bitDepth" : 24,
          "numChannels" : 0,
          "integratedLUFS" : 100.0,
          "peakLevel" : -1.0,
          "metaData" : ""
        }
      ],
      "metadata" : {
        "timeAdded" : "20200502T044457.536500"
      }
    }
  ],
  "timeline" : {
    "id" : 9,
    "sceneTrack" : {
      "scenes" : [
        {
          "duration" : 1052.83333333333,
          "title" : "",
          "type" : "",
          "csml" : {
            "tracks" : [
              {
                "trackIndex" : 0,
                "medias" : [
                ]
              },
              {
                "trackIndex" : 1,
                "medias" : [
                ]
              },
              {
                "trackIndex" : 2,
                "medias" : [
                ]
              },
              {
                "trackIndex" : 3,
                "medias" : [
                ]
              },
              {
                "trackIndex" : 4,
                "medias" : [
                  {
                    "id" : 10,
                    "_type" : "IMFile",
                    "src" : 3,
                    "trackNumber" : 0,
                    "trimStartSum" : 0,
                    "attributes" : {
                      "ident" : "Splash_Android"
                    },
                    "parameters" : {
                      "translation0" : -0.00456702364154329,
                      "translation1" : -6.87439439981899,
                      "scale0" : 0.666671423982989,
                      "scale1" : 0.666671423982989
                    },
                    "effects" : [

                    ],
                    "start" : 0,
                    "duration" : 150,
                    "mediaStart" : 0,
                    "mediaDuration" : 1,
                    "scalar" : 1,
                    "metadata" : {
                      "WinSubProjectDisplayName" : "",
                      "clipSpeedAttribute" : false,
                      "default-scale" : "0.666667",
                      "default-translation0" : 0.00456702366917246,
                      "default-translation1" : -0.00256895081391425,
                      "effectApplied" : "none"
                    },
                    "animationTracks" : {

                    }
                  }
                ],
                "transitions" : [
                  {
                    "name" : "Fade",
                    "duration" : 30,
                    "trivial" : true,
                    "reverse" : false,
                    "useAudioPreRoll" : false,
                    "useVisualPreRoll" : true,
                    "leftMedia" : 10
                  }
                ]
              },
              {
                "trackIndex" : 5,
                "medias" : [
                  {
                    "id" : 11,
                    "_type" : "IMFile",
                    "src" : 2,
                    "trackNumber" : 0,
                    "trimStartSum" : 0,
                    "attributes" : {
                      "ident" : "star"
                    },
                    "parameters" : {
                      "translation0" : {
                        "type" : "double",
                        "defaultValue" : -640.0,
                        "interp" : "linr",
                        "keyframes" : [
                          {
                            "endTime" : 30,
                            "time" : 0,
                            "value" : -522.733906099372,
                            "duration" : 30
                          }
                        ]
                      },
                      "translation1" : {
                        "type" : "double",
                        "defaultValue" : -0.0,
                        "interp" : "linr",
                        "keyframes" : [
                          {
                            "endTime" : 30,
                            "time" : 0,
                            "value" : -277.438113851611,
                            "duration" : 30
                          }
                        ]
                      },
                      "translation2" : {
                        "type" : "double",
                        "defaultValue" : 0.0,
                        "interp" : "linr"
                      },
                      "rotation0" : {
                        "type" : "double",
                        "defaultValue" : 0.0,
                        "interp" : "linr"
                      },
                      "rotation1" : {
                        "type" : "double",
                        "defaultValue" : 0.0,
                        "interp" : "linr"
                      },
                      "rotation2" : {
                        "type" : "double",
                        "defaultValue" : 6.28318530717959,
                        "interp" : "linr",
                        "keyframes" : [
                          {
                            "endTime" : 30,
                            "time" : 0,
                            "value" : 0.0,
                            "duration" : 30
                          }
                        ]
                      },
                      "shear0" : {
                        "type" : "double",
                        "defaultValue" : 0.0,
                        "interp" : "linr"
                      },
                      "shear1" : {
                        "type" : "double",
                        "defaultValue" : 0.0,
                        "interp" : "linr"
                      },
                      "shear2" : {
                        "type" : "double",
                        "defaultValue" : 0.0,
                        "interp" : "linr"
                      },
                      "scale0" : {
                        "type" : "double",
                        "defaultValue" : 0.0,
                        "interp" : "linr",
                        "keyframes" : [
                          {
                            "endTime" : 30,
                            "time" : 0,
                            "value" : 0.344059357782636,
                            "duration" : 30
                          }
                        ]
                      },
                      "scale1" : {
                        "type" : "double",
                        "defaultValue" : 0.0,
                        "interp" : "linr",
                        "keyframes" : [
                          {
                            "endTime" : 30,
                            "time" : 0,
                            "value" : 0.344059357782636,
                            "duration" : 30
                          }
                        ]
                      },
                      "scale2" : {
                        "type" : "double",
                        "defaultValue" : 1.0,
                        "interp" : "linr"
                      },
                      "anchor0" : {
                        "type" : "double",
                        "defaultValue" : 0.0,
                        "interp" : "linr"
                      },
                      "anchor1" : {
                        "type" : "double",
                        "defaultValue" : 0.0,
                        "interp" : "linr"
                      },
                      "anchor2" : {
                        "type" : "double",
                        "defaultValue" : 0.0,
                        "interp" : "linr"
                      },
                      "opacity" : {
                        "type" : "double",
                        "defaultValue" : 1.0,
                        "keyframes" : [
                          {
                            "endTime" : 150,
                            "time" : 120,
                            "value" : 0.0,
                            "duration" : 30
                          }
                        ]
                      }
                    },
                    "effects" : [

                    ],
                    "start" : 0,
                    "duration" : 150,
                    "mediaStart" : 0,
                    "mediaDuration" : 1,
                    "scalar" : 1,
                    "metadata" : {
                      "WinSubProjectDisplayName" : "",
                      "clipSpeedAttribute" : false,
                      "default-scale" : "1",
                      "effectApplied" : "none"
                    },
                    "animationTracks" : {
                      "visual" : [
                        {
                          "endTime" : 30,
                          "duration" : 30,
                          "range" : [ 0, 30]
                        },
                        {
                          "endTime" : 150,
                          "duration" : 30,
                          "range" : [ 120, 30]
                        }
                      ]
                    }
                  },
                  {
                    "id" : 12,
                    "_type" : "IMFile",
                    "src" : 3,
                    "trackNumber" : 0,
                    "trimStartSum" : 0,
                    "attributes" : {
                      "ident" : "Splash_Android"
                    },
                    "parameters" : {
                      "translation0" : {
                        "type" : "double",
                        "defaultValue" : 0.00456702366917246,
                        "interp" : "eioe"
                      },
                      "translation1" : {
                        "type" : "double",
                        "defaultValue" : -0.00256895081391425,
                        "interp" : "eioe"
                      },
                      "scale0" : {
                        "type" : "double",
                        "defaultValue" : 0.666671423982989,
                        "interp" : "eioe"
                      },
                      "scale1" : {
                        "type" : "double",
                        "defaultValue" : 0.666671423982989,
                        "interp" : "eioe"
                      }
                    },
                    "effects" : [

                    ],
                    "start" : 31435,
                    "duration" : 150,
                    "mediaStart" : 0,
                    "mediaDuration" : 1,
                    "scalar" : 1,
                    "metadata" : {
                      "WinSubProjectDisplayName" : "",
                      "clipSpeedAttribute" : false,
                      "default-scale" : "0.666667",
                      "effectApplied" : "none"
                    },
                    "animationTracks" : {

                    }
                  }
                ],
                "transitions" : [
                  {
                    "name" : "Fade",
                    "duration" : 30,
                    "trivial" : true,
                    "reverse" : false,
                    "useAudioPreRoll" : false,
                    "useVisualPreRoll" : true,
                    "rightMedia" : 12
                  },
                  {
                    "name" : "Fade",
                    "duration" : 30,
                    "trivial" : true,
                    "reverse" : false,
                    "useAudioPreRoll" : false,
                    "useVisualPreRoll" : true,
                    "leftMedia" : 12
                  }
                ]
              },
              {
                "trackIndex" : 6,
                "medias" : [
                  {
                    "id" : 13,
                    "_type" : "Callout",
                    "def" : {
                      "kind" : "remix",
                      "shape" : "text",
                      "style" : "bold",
                      "height" : 250.0,
                      "line-spacing" : 0.0,
                      "width" : 1035.85760517811,
                      "word-wrap" : 1.0,
                      "horizontal-alignment" : "left",
                      "resize-behavior" : "resizeText",
                      "text" : "Functions\rVariable Scope and Lifetime",
                      "vertical-alignment" : "center",
                      "font" : {
                        "color-blue" : 1.0,
                        "color-green" : 1.0,
                        "color-red" : 1.0,
                        "size" : 96.0,
                        "tracking" : 0.0,
                        "name" : "Source Sans Pro",
                        "weight" : "Semi Bold"
                      },
                      "textAttributes" : {
                        "type" : "textAttributeList",
                        "keyframes" : [
                          {
                            "endTime" : 0,
                            "time" : 0,
                            "value" : [{"name":"fontSize","rangeEnd":10,"rangeStart":0,"value":55,"valueType":"double"},{"name":"kerning","rangeEnd":37,"rangeStart":0,"value":0,"valueType":"double"},{"name":"fgColor","rangeEnd":37,"rangeStart":0,"value":"(255,255,255,255)","valueType":"color"},{"name":"fontName","rangeEnd":37,"rangeStart":0,"value":"Quicksand","valueType":"string"},{"name":"strikethrough","rangeEnd":37,"rangeStart":0,"value":0,"valueType":"int"},{"name":"underline","rangeEnd":37,"rangeStart":0,"value":0,"valueType":"int"},{"name":"fontWeight","rangeEnd":37,"rangeStart":10,"value":400,"valueType":"int"},{"name":"fontItalic","rangeEnd":37,"rangeStart":0,"value":0,"valueType":"int"},{"name":"fontSize","rangeEnd":37,"rangeStart":10,"value":52,"valueType":"double"},{"name":"fontWeight","rangeEnd":10,"rangeStart":0,"value":700,"valueType":"int"}],
                            "duration" : 0
                          }
                        ]
                      }
                    },
                    "attributes" : {
                      "autoRotateText" : true
                    },
                    "parameters" : {
                      "translation0" : {
                        "type" : "double",
                        "defaultValue" : -913.412651778095,
                        "keyframes" : [
                          {
                            "endTime" : 38,
                            "time" : 8,
                            "value" : 98.5873482219166,
                            "duration" : 30
                          }
                        ]
                      },
                      "translation1" : {
                        "type" : "double",
                        "defaultValue" : -34.812002943898,
                        "keyframes" : [
                          {
                            "endTime" : 38,
                            "time" : 8,
                            "value" : -34.8120029438544,
                            "duration" : 30
                          }
                        ]
                      }
                    },
                    "effects" : [
                        {
                          "effectName" : "DropShadow",
                          "category" : "categoryVisualEffects",
                          "parameters" : {
                            "angle" : {
                              "type" : "double",
                              "defaultValue" : 5.49778714378214,
                              "uiHints" : {
                                "userInterfaceType" : 0,
                                "unitType" : 0
                              },
                              "keyframes" : [
                                {
                                  "endTime" : 38,
                                  "time" : 8,
                                  "value" : 5.49778714378214,
                                  "duration" : 30
                                }
                              ]
                            },
                            "blur" : 10.0,
                            "color-alpha" : 1.0,
                            "color-blue" : 0.1216,
                            "color-green" : 0.1216,
                            "color-red" : 0.1216,
                            "enabled" : 1,
                            "offset" : 10.0,
                            "opacity" : 0.4
                          }
                        }
                    ],
                    "start" : 35,
                    "duration" : 115,
                    "mediaStart" : 8,
                    "mediaDuration" : 115,
                    "scalar" : 1,
                    "metadata" : {
                      "WinSubProjectDisplayName" : "",
                      "clipSpeedAttribute" : false,
                      "default-HAlign" : "center",
                      "default-LineSpace" : 0.0,
                      "default-VAlign" : "center",
                      "default-text-attributes" : "[{\"name\":\"fontWeight\",\"rangeEnd\":37,\"rangeStart\":26,\"value\":100,\"valueType\":\"int\"},{\"name\":\"underline\",\"rangeEnd\":37,\"rangeStart\":0,\"value\":0,\"valueType\":\"int\"},{\"name\":\"fontWeight\",\"rangeEnd\":26,\"rangeStart\":0,\"value\":700,\"valueType\":\"int\"},{\"name\":\"fgColor\",\"rangeEnd\":37,\"rangeStart\":0,\"value\":\"(255,255,255,255)\",\"valueType\":\"color\"},{\"name\":\"fontSize\",\"rangeEnd\":26,\"rangeStart\":0,\"value\":55,\"valueType\":\"double\"},{\"name\":\"fontItalic\",\"rangeEnd\":37,\"rangeStart\":0,\"value\":0,\"valueType\":\"int\"},{\"name\":\"strikethrough\",\"rangeEnd\":37,\"rangeStart\":0,\"value\":0,\"valueType\":\"int\"},{\"name\":\"fontName\",\"rangeEnd\":37,\"rangeStart\":0,\"value\":\"Quicksand\",\"valueType\":\"string\"},{\"name\":\"fontSize\",\"rangeEnd\":37,\"rangeStart\":26,\"value\":52,\"valueType\":\"double\"}]",
                      "default-translation0" : 204.5,
                      "default-translation1" : 0.0
                    },
                    "animationTracks" : {
                      "visual" : [
                        {
                          "endTime" : 38,
                          "duration" : 30,
                          "range" : [ 8, 30]
                        }
                      ]
                    }
                  },
                  {
                    "id" : 14,
                    "_type" : "IMFile",
                    "src" : 2,
                    "trackNumber" : 0,
                    "trimStartSum" : 0,
                    "attributes" : {
                      "ident" : "star"
                    },
                    "parameters" : {
                      "translation0" : {
                        "type" : "double",
                        "defaultValue" : -522.733906099372,
                        "interp" : "linr"
                      },
                      "translation1" : {
                        "type" : "double",
                        "defaultValue" : -277.438113851611,
                        "interp" : "linr"
                      },
                      "translation2" : {
                        "type" : "double",
                        "defaultValue" : 0.0,
                        "interp" : "linr"
                      },
                      "rotation0" : {
                        "type" : "double",
                        "defaultValue" : 0.0,
                        "interp" : "linr"
                      },
                      "rotation1" : {
                        "type" : "double",
                        "defaultValue" : 0.0,
                        "interp" : "linr"
                      },
                      "rotation2" : {
                        "type" : "double",
                        "defaultValue" : 0.0,
                        "interp" : "linr"
                      },
                      "shear0" : {
                        "type" : "double",
                        "defaultValue" : 0.0,
                        "interp" : "linr"
                      },
                      "shear1" : {
                        "type" : "double",
                        "defaultValue" : 0.0,
                        "interp" : "linr"
                      },
                      "shear2" : {
                        "type" : "double",
                        "defaultValue" : 0.0,
                        "interp" : "linr"
                      },
                      "scale0" : {
                        "type" : "double",
                        "defaultValue" : 0.344059357782636,
                        "interp" : "linr"
                      },
                      "scale1" : {
                        "type" : "double",
                        "defaultValue" : 0.344059357782636,
                        "interp" : "linr"
                      },
                      "scale2" : {
                        "type" : "double",
                        "defaultValue" : 1.0,
                        "interp" : "linr"
                      },
                      "anchor0" : {
                        "type" : "double",
                        "defaultValue" : 0.0,
                        "interp" : "linr"
                      },
                      "anchor1" : {
                        "type" : "double",
                        "defaultValue" : 0.0,
                        "interp" : "linr"
                      },
                      "anchor2" : {
                        "type" : "double",
                        "defaultValue" : 0.0,
                        "interp" : "linr"
                      },
                      "opacity" : {
                        "type" : "double",
                        "defaultValue" : 1.0,
                        "interp" : "linr",
                        "keyframes" : [
                          {
                            "endTime" : 150,
                            "time" : 120,
                            "value" : 0.0,
                            "duration" : 30
                          }
                        ]
                      }
                    },
                    "effects" : [

                    ],
                    "start" : 31435,
                    "duration" : 150,
                    "mediaStart" : 0,
                    "mediaDuration" : 1,
                    "scalar" : 1,
                    "metadata" : {
                      "WinSubProjectDisplayName" : "",
                      "clipSpeedAttribute" : false,
                      "default-opacity" : 0.0,
                      "default-scale" : "1",
                      "effectApplied" : "none"
                    },
                    "animationTracks" : {
                      "visual" : [
                        {
                          "endTime" : 150,
                          "duration" : 30,
                          "range" : [ 120, 30]
                        }
                      ]
                    }
                  }
                ],
                "transitions" : [
                  {
                    "name" : "Fade",
                    "duration" : 30,
                    "trivial" : true,
                    "reverse" : false,
                    "useAudioPreRoll" : true,
                    "useVisualPreRoll" : true,
                    "leftMedia" : 13
                  },
                  {
                    "name" : "Fade",
                    "duration" : 30,
                    "trivial" : true,
                    "reverse" : false,
                    "useAudioPreRoll" : true,
                    "useVisualPreRoll" : true,
                    "rightMedia" : 14
                  },
                  {
                    "name" : "Fade",
                    "duration" : 30,
                    "trivial" : true,
                    "reverse" : false,
                    "useAudioPreRoll" : true,
                    "useVisualPreRoll" : true,
                    "leftMedia" : 14
                  }
                ]
              },
              {
                "trackIndex" : 7,
                "medias" : [
                  {
                    "id" : 15,
                    "_type" : "Callout",
                    "def" : {
                      "kind" : "TypeWinText",
                      "shape" : "",
                      "style" : "",
                      "Style" : 5.0,
                      "dimensionTime" : 0.0,
                      "height" : 180.0,
                      "line-spacing" : 0.0,
                      "textIgnoresOpacity" : 0.0,
                      "textRectHeight" : 1.0,
                      "textRectWidth" : 1.0,
                      "textRectX" : 0.0,
                      "textRectY" : 0.0,
                      "textVerticalAlign" : 0.0,
                      "width" : 320.0,
                      "filename" : "C:\\Program Files\\TechSmith\\Camtasia 9\\Media\\Studio\\Callouts\\trans_100x100.xml",
                      "horizontal-alignment" : "center",
                      "name" : "Text",
                      "resize-behavior" : "resizeText",
                      "text" : "{\\rtf1\\ansi\\ansicpg1252\\deff0\\nouicompat\\deflang1033{\\fonttbl{\\f0\\fnil\\fcharset0 Quicksand;}}\r\n{\\colortbl ;\\red255\\green255\\blue255;}\r\n{\\*\\generator Riched20 10.0.18362}\\viewkind4\\uc1 \r\n\\pard\\qc\\cf1\\b\\f0\\fs124 #\\fs256 5\\fs72\\par\r\n}\r\n",
                      "vertical-alignment" : "center",
                      "xmlContent" : "ï»¿<?xml version=\"1.0\"?>\n\n<Overlay version=\"1.0.1\">\n\n<Overlay_Filename>trans_100x100.png</Overlay_Filename>\n<Overlay_Name>Text</Overlay_Name>\n<Text_Top>0</Text_Top>\n<Text_Left>0</Text_Left>\n<Text_Bottom>0</Text_Bottom>\n<Text_Right>0</Text_Right>\n<Fill_Color>0</Fill_Color>\n<Border_Color>0</Border_Color>\n<Style>5</Style>\n</Overlay>",
                      "textAttributes" : {
                        "type" : "textAttributeList",
                        "keyframes" : [
                          {
                            "endTime" : 0,
                            "time" : 0,
                            "value" : null,
                            "duration" : 0
                          }
                        ]
                      }
                    },
                    "attributes" : {
                      "autoRotateText" : true
                    },
                    "parameters" : {
                      "translation0" : {
                        "type" : "double",
                        "defaultValue" : -820.538865370044,
                        "keyframes" : [
                          {
                            "endTime" : 65,
                            "time" : 35,
                            "value" : -499.16666666668,
                            "duration" : 30
                          }
                        ]
                      },
                      "translation1" : {
                        "type" : "double",
                        "defaultValue" : -34.8120029438978,
                        "keyframes" : [
                          {
                            "endTime" : 65,
                            "time" : 35,
                            "value" : -34.8120029438634,
                            "duration" : 30
                          }
                        ]
                      },
                      "scale0" : {
                        "type" : "double",
                        "defaultValue" : 0.580906148866913,
                        "keyframes" : [
                          {
                            "endTime" : 65,
                            "time" : 35,
                            "value" : 0.580906148866913,
                            "duration" : 30
                          }
                        ]
                      },
                      "scale1" : {
                        "type" : "double",
                        "defaultValue" : 1.43801063442563,
                        "keyframes" : [
                          {
                            "endTime" : 65,
                            "time" : 35,
                            "value" : 1.43801063442563,
                            "duration" : 30
                          }
                        ]
                      }
                    },
                    "effects" : [

                    ],
                    "start" : 35,
                    "duration" : 115,
                    "mediaStart" : 35,
                    "mediaDuration" : 115,
                    "scalar" : 1,
                    "metadata" : {
                      "WinSubProjectDisplayName" : "",
                      "clipSpeedAttribute" : false,
                      "default-legacy-fill-style" : 5.0,
                      "default-legacy-text-callout-vertical-align" : "middle",
                      "default-rotation2" : 0.0,
                      "default-scale0" : 1.0,
                      "default-scale1" : 1.0,
                      "default-text" : "{\\rtf1\\ansi\\ansicpg1252\\deff0\\deflang1033{\\fonttbl{\\f0\\fswiss\\fprq2\\fcharset0 Arial;}}{\\colortbl ;\\red255\\green255\\blue255;}\\viewkind4\\uc1\\pard\\qc\\cf1\\fs72 abc}",
                      "default-translation0" : 0.0,
                      "default-translation1" : 0.0
                    },
                    "animationTracks" : {
                      "visual" : [
                        {
                          "endTime" : 65,
                          "duration" : 30,
                          "range" : [ 35, 30]
                        }
                      ]
                    }
                  },
                  {
                    "id" : 16,
                    "_type" : "IMFile",
                    "src" : 1,
                    "trackNumber" : 0,
                    "trimStartSum" : 0,
                    "attributes" : {
                      "ident" : "codestars_logo"
                    },
                    "parameters" : {
                      "translation0" : {
                        "type" : "double",
                        "defaultValue" : -263.136792317664,
                        "interp" : "linr"
                      },
                      "translation1" : {
                        "type" : "double",
                        "defaultValue" : -271.784183685799,
                        "interp" : "linr"
                      },
                      "translation2" : {
                        "type" : "double",
                        "defaultValue" : 0.0,
                        "interp" : "linr"
                      },
                      "rotation0" : {
                        "type" : "double",
                        "defaultValue" : 0.0,
                        "interp" : "linr"
                      },
                      "rotation1" : {
                        "type" : "double",
                        "defaultValue" : 0.0,
                        "interp" : "linr"
                      },
                      "rotation2" : {
                        "type" : "double",
                        "defaultValue" : 0.0,
                        "interp" : "linr"
                      },
                      "shear0" : {
                        "type" : "double",
                        "defaultValue" : 0.0,
                        "interp" : "linr"
                      },
                      "shear1" : {
                        "type" : "double",
                        "defaultValue" : 0.0,
                        "interp" : "linr"
                      },
                      "shear2" : {
                        "type" : "double",
                        "defaultValue" : 0.0,
                        "interp" : "linr"
                      },
                      "scale0" : {
                        "type" : "double",
                        "defaultValue" : 0.402192662926175,
                        "interp" : "linr"
                      },
                      "scale1" : {
                        "type" : "double",
                        "defaultValue" : 0.402192662926175,
                        "interp" : "linr"
                      },
                      "scale2" : {
                        "type" : "double",
                        "defaultValue" : 1.0,
                        "interp" : "linr"
                      },
                      "anchor0" : {
                        "type" : "double",
                        "defaultValue" : 0.0,
                        "interp" : "linr"
                      },
                      "anchor1" : {
                        "type" : "double",
                        "defaultValue" : 0.0,
                        "interp" : "linr"
                      },
                      "anchor2" : {
                        "type" : "double",
                        "defaultValue" : 0.0,
                        "interp" : "linr"
                      },
                      "opacity" : {
                        "type" : "double",
                        "defaultValue" : 0.0,
                        "interp" : "linr"
                      }
                    },
                    "effects" : [

                    ],
                    "start" : 31435,
                    "duration" : 150,
                    "mediaStart" : 0,
                    "mediaDuration" : 1,
                    "scalar" : 1,
                    "metadata" : {
                      "WinSubProjectDisplayName" : "",
                      "clipSpeedAttribute" : false,
                      "default-scale" : "1",
                      "effectApplied" : "none"
                    },
                    "animationTracks" : {

                    }
                  }
                ],
                "transitions" : [
                  {
                    "name" : "Fade",
                    "duration" : 30,
                    "trivial" : true,
                    "reverse" : false,
                    "useAudioPreRoll" : true,
                    "useVisualPreRoll" : true,
                    "leftMedia" : 15
                  },
                  {
                    "name" : "Fade",
                    "duration" : 30,
                    "trivial" : true,
                    "reverse" : false,
                    "useAudioPreRoll" : true,
                    "useVisualPreRoll" : true,
                    "rightMedia" : 16
                  },
                  {
                    "name" : "Fade",
                    "duration" : 30,
                    "trivial" : true,
                    "reverse" : false,
                    "useAudioPreRoll" : true,
                    "useVisualPreRoll" : true,
                    "leftMedia" : 16
                  }
                ]
              },
              {
                "trackIndex" : 8,
                "medias" : [
                  {
                    "id" : 17,
                    "_type" : "IMFile",
                    "src" : 1,
                    "trackNumber" : 0,
                    "trimStartSum" : 0,
                    "attributes" : {
                      "ident" : "codestars_logo"
                    },
                    "parameters" : {
                      "translation0" : {
                        "type" : "double",
                        "defaultValue" : -263.136792317664,
                        "interp" : "linr"
                      },
                      "translation1" : {
                        "type" : "double",
                        "defaultValue" : -271.784183685799,
                        "interp" : "linr"
                      },
                      "translation2" : {
                        "type" : "double",
                        "defaultValue" : 0.0,
                        "interp" : "linr"
                      },
                      "rotation0" : {
                        "type" : "double",
                        "defaultValue" : 0.0,
                        "interp" : "linr"
                      },
                      "rotation1" : {
                        "type" : "double",
                        "defaultValue" : 0.0,
                        "interp" : "linr"
                      },
                      "rotation2" : {
                        "type" : "double",
                        "defaultValue" : 0.0,
                        "interp" : "linr"
                      },
                      "shear0" : {
                        "type" : "double",
                        "defaultValue" : 0.0,
                        "interp" : "linr"
                      },
                      "shear1" : {
                        "type" : "double",
                        "defaultValue" : 0.0,
                        "interp" : "linr"
                      },
                      "shear2" : {
                        "type" : "double",
                        "defaultValue" : 0.0,
                        "interp" : "linr"
                      },
                      "scale0" : {
                        "type" : "double",
                        "defaultValue" : 0.402192662926175,
                        "interp" : "linr"
                      },
                      "scale1" : {
                        "type" : "double",
                        "defaultValue" : 0.402192662926175,
                        "interp" : "linr"
                      },
                      "scale2" : {
                        "type" : "double",
                        "defaultValue" : 1.0,
                        "interp" : "linr"
                      },
                      "anchor0" : {
                        "type" : "double",
                        "defaultValue" : 0.0,
                        "interp" : "linr"
                      },
                      "anchor1" : {
                        "type" : "double",
                        "defaultValue" : 0.0,
                        "interp" : "linr"
                      },
                      "anchor2" : {
                        "type" : "double",
                        "defaultValue" : 0.0,
                        "interp" : "linr"
                      }
                    },
                    "effects" : [

                    ],
                    "start" : 0,
                    "duration" : 150,
                    "mediaStart" : 0,
                    "mediaDuration" : 1,
                    "scalar" : 1,
                    "metadata" : {
                      "WinSubProjectDisplayName" : "",
                      "clipSpeedAttribute" : false,
                      "default-scale" : "1",
                      "effectApplied" : "none"
                    },
                    "animationTracks" : {

                    }
                  },
                  {
                    "id" : 18,
                    "_type" : "IMFile",
                    "src" : 1,
                    "trackNumber" : 0,
                    "trimStartSum" : 0,
                    "attributes" : {
                      "ident" : "codestars_logo"
                    },
                    "parameters" : {
                      "translation0" : {
                        "type" : "double",
                        "defaultValue" : -263.136792317664,
                        "interp" : "linr"
                      },
                      "translation1" : {
                        "type" : "double",
                        "defaultValue" : -271.784183685799,
                        "interp" : "linr"
                      },
                      "translation2" : {
                        "type" : "double",
                        "defaultValue" : 0.0,
                        "interp" : "linr"
                      },
                      "rotation0" : {
                        "type" : "double",
                        "defaultValue" : 0.0,
                        "interp" : "linr"
                      },
                      "rotation1" : {
                        "type" : "double",
                        "defaultValue" : 0.0,
                        "interp" : "linr"
                      },
                      "rotation2" : {
                        "type" : "double",
                        "defaultValue" : 0.0,
                        "interp" : "linr"
                      },
                      "shear0" : {
                        "type" : "double",
                        "defaultValue" : 0.0,
                        "interp" : "linr"
                      },
                      "shear1" : {
                        "type" : "double",
                        "defaultValue" : 0.0,
                        "interp" : "linr"
                      },
                      "shear2" : {
                        "type" : "double",
                        "defaultValue" : 0.0,
                        "interp" : "linr"
                      },
                      "scale0" : {
                        "type" : "double",
                        "defaultValue" : 0.402192662926175,
                        "interp" : "linr"
                      },
                      "scale1" : {
                        "type" : "double",
                        "defaultValue" : 0.402192662926175,
                        "interp" : "linr"
                      },
                      "scale2" : {
                        "type" : "double",
                        "defaultValue" : 1.0,
                        "interp" : "linr"
                      },
                      "anchor0" : {
                        "type" : "double",
                        "defaultValue" : 0.0,
                        "interp" : "linr"
                      },
                      "anchor1" : {
                        "type" : "double",
                        "defaultValue" : 0.0,
                        "interp" : "linr"
                      },
                      "anchor2" : {
                        "type" : "double",
                        "defaultValue" : 0.0,
                        "interp" : "linr"
                      }
                    },
                    "effects" : [

                    ],
                    "start" : 31435,
                    "duration" : 150,
                    "mediaStart" : 0,
                    "mediaDuration" : 1,
                    "scalar" : 1,
                    "metadata" : {
                      "WinSubProjectDisplayName" : "",
                      "clipSpeedAttribute" : false,
                      "default-scale" : "1",
                      "effectApplied" : "none"
                    },
                    "animationTracks" : {

                    }
                  }
                ],
                "transitions" : [
                  {
                    "name" : "Fade",
                    "duration" : 30,
                    "trivial" : true,
                    "reverse" : false,
                    "useAudioPreRoll" : true,
                    "useVisualPreRoll" : true,
                    "leftMedia" : 17
                  },
                  {
                    "name" : "Fade",
                    "duration" : 30,
                    "trivial" : true,
                    "reverse" : false,
                    "useAudioPreRoll" : true,
                    "useVisualPreRoll" : true,
                    "rightMedia" : 18
                  },
                  {
                    "name" : "Fade",
                    "duration" : 30,
                    "trivial" : true,
                    "reverse" : false,
                    "useAudioPreRoll" : true,
                    "useVisualPreRoll" : true,
                    "leftMedia" : 18
                  }
                ]
              },
              {
                "trackIndex" : 9,
                "medias" : [
                  {
                    "id" : 19,
                    "_type" : "Callout",
                    "def" : {
                      "kind" : "TypeWinText",
                      "shape" : "",
                      "style" : "",
                      "Style" : {
                        "type" : "double",
                        "defaultValue" : 5.0,
                        "interp" : "linr"
                      },
                      "dimensionTime" : {
                        "type" : "double",
                        "defaultValue" : 0.0,
                        "interp" : "linr"
                      },
                      "height" : {
                        "type" : "double",
                        "defaultValue" : 180.0,
                        "interp" : "linr"
                      },
                      "line-spacing" : {
                        "type" : "double",
                        "defaultValue" : 0.0,
                        "interp" : "linr"
                      },
                      "textIgnoresOpacity" : {
                        "type" : "double",
                        "defaultValue" : 0.0,
                        "interp" : "linr"
                      },
                      "textRectHeight" : {
                        "type" : "double",
                        "defaultValue" : 1.0,
                        "interp" : "linr"
                      },
                      "textRectWidth" : {
                        "type" : "double",
                        "defaultValue" : 1.0,
                        "interp" : "linr"
                      },
                      "textRectX" : {
                        "type" : "double",
                        "defaultValue" : 0.0,
                        "interp" : "linr"
                      },
                      "textRectY" : {
                        "type" : "double",
                        "defaultValue" : 0.0,
                        "interp" : "linr"
                      },
                      "textVerticalAlign" : {
                        "type" : "double",
                        "defaultValue" : -1.0,
                        "interp" : "linr"
                      },
                      "width" : {
                        "type" : "double",
                        "defaultValue" : 320.0,
                        "interp" : "linr"
                      },
                      "filename" : "C:\\Program Files\\TechSmith\\Camtasia 9\\Media\\Studio\\Callouts\\trans_100x100.xml",
                      "horizontal-alignment" : "center",
                      "name" : "Text",
                      "resize-behavior" : "resizeText",
                      "text" : "{\\rtf1\\ansi\\ansicpg1252\\deff0\\nouicompat\\deflang1033{\\fonttbl{\\f0\\fnil\\fcharset0 Quicksand;}}\r\n{\\colortbl ;\\red255\\green255\\blue255;}\r\n{\\*\\generator Riched20 10.0.18362}\\viewkind4\\uc1 \r\n\\pard\\cf1\\f0\\fs80 The Complete\\par\r\n\\b\\fs90 C++ Developer Course\\par\r\n}\r\n",
                      "vertical-alignment" : "center",
                      "xmlContent" : "ï»¿<?xml version=\"1.0\"?>\n\n<Overlay version=\"1.0.1\">\n\n<Overlay_Filename>trans_100x100.png</Overlay_Filename>\n<Overlay_Name>Text</Overlay_Name>\n<Text_Top>0</Text_Top>\n<Text_Left>0</Text_Left>\n<Text_Bottom>0</Text_Bottom>\n<Text_Right>0</Text_Right>\n<Fill_Color>0</Fill_Color>\n<Border_Color>0</Border_Color>\n<Style>5</Style>\n</Overlay>",
                      "textAttributes" : {
                        "type" : "textAttributeList",
                        "keyframes" : [
                          {
                            "endTime" : 0,
                            "time" : 0,
                            "value" : null,
                            "duration" : 0
                          }
                        ]
                      }
                    },
                    "attributes" : {
                      "autoRotateText" : true
                    },
                    "parameters" : {
                      "translation0" : {
                        "type" : "double",
                        "defaultValue" : -70.9521418731169,
                        "interp" : "eioe"
                      },
                      "translation1" : {
                        "type" : "double",
                        "defaultValue" : 239.738828503294,
                        "interp" : "eioe"
                      },
                      "scale0" : {
                        "type" : "double",
                        "defaultValue" : 3.12385809835021,
                        "interp" : "eioe"
                      },
                      "scale1" : {
                        "type" : "double",
                        "defaultValue" : 1.00002854389906,
                        "interp" : "eioe"
                      }
                    },
                    "effects" : [

                    ],
                    "start" : 31435,
                    "duration" : 150,
                    "mediaStart" : 0,
                    "mediaDuration" : 150,
                    "scalar" : 1,
                    "metadata" : {
                      "WinSubProjectDisplayName" : "",
                      "clipSpeedAttribute" : false,
                      "default-legacy-fill-style" : 5.0,
                      "default-legacy-text-callout-vertical-align" : "middle",
                      "default-scale0" : 1.0,
                      "default-scale1" : 1.0,
                      "default-text" : "{\\rtf1\\ansi\\ansicpg1252\\deff0\\deflang1033{\\fonttbl{\\f0\\fswiss\\fprq2\\fcharset0 Arial;}}{\\colortbl ;\\red255\\green255\\blue255;}\\viewkind4\\uc1\\pard\\qc\\cf1\\fs72 abc}",
                      "default-translation0" : 0.0,
                      "default-translation1" : 0.0
                    },
                    "animationTracks" : {

                    }
                  }
                ],
                "transitions" : [
                  {
                    "name" : "Fade",
                    "duration" : 30,
                    "trivial" : true,
                    "reverse" : false,
                    "useAudioPreRoll" : true,
                    "useVisualPreRoll" : true,
                    "rightMedia" : 19
                  },
                  {
                    "name" : "Fade",
                    "duration" : 30,
                    "trivial" : true,
                    "reverse" : false,
                    "useAudioPreRoll" : true,
                    "useVisualPreRoll" : true,
                    "leftMedia" : 19
                  }
                ]
              },
              {
                "trackIndex" : 10,
                "medias" : [
                  {
                    "id" : 20,
                    "_type" : "Callout",
                    "def" : {
                      "kind" : "TypeWinText",
                      "shape" : "",
                      "style" : "",
                      "Style" : 5.0,
                      "dimensionTime" : 0.0,
                      "height" : 180.0,
                      "line-spacing" : 0.0,
                      "textIgnoresOpacity" : 0.0,
                      "textRectHeight" : 1.0,
                      "textRectWidth" : 1.0,
                      "textRectX" : 0.0,
                      "textRectY" : 0.0,
                      "textVerticalAlign" : -1.0,
                      "width" : 320.0,
                      "filename" : "C:\\Program Files\\TechSmith\\Camtasia 9\\Media\\Studio\\Callouts\\trans_100x100.xml",
                      "horizontal-alignment" : "center",
                      "name" : "Text",
                      "resize-behavior" : "resizeText",
                      "text" : "{\\rtf1\\ansi\\ansicpg1252\\deff0\\nouicompat\\deflang1033{\\fonttbl{\\f0\\fnil\\fcharset0 Quicksand;}}\r\n{\\colortbl ;\\red255\\green255\\blue255;}\r\n{\\*\\generator Riched20 10.0.18362}\\viewkind4\\uc1 \r\n\\pard\\cf1\\f0\\fs80 The Complete\\par\r\n\\b\\fs90 C++ Developer Course\\par\r\n}\r\n",
                      "vertical-alignment" : "center",
                      "xmlContent" : "ï»¿<?xml version=\"1.0\"?>\n\n<Overlay version=\"1.0.1\">\n\n<Overlay_Filename>trans_100x100.png</Overlay_Filename>\n<Overlay_Name>Text</Overlay_Name>\n<Text_Top>0</Text_Top>\n<Text_Left>0</Text_Left>\n<Text_Bottom>0</Text_Bottom>\n<Text_Right>0</Text_Right>\n<Fill_Color>0</Fill_Color>\n<Border_Color>0</Border_Color>\n<Style>5</Style>\n</Overlay>",
                      "textAttributes" : {
                        "type" : "textAttributeList",
                        "keyframes" : [
                          {
                            "endTime" : 0,
                            "time" : 0,
                            "value" : null,
                            "duration" : 0
                          }
                        ]
                      }
                    },
                    "attributes" : {
                      "autoRotateText" : true
                    },
                    "parameters" : {
                      "translation0" : -70.9521418731169,
                      "translation1" : 239.738828503294,
                      "scale0" : 3.12385809835021,
                      "scale1" : 1.00002854389906
                    },
                    "effects" : [

                    ],
                    "start" : 0,
                    "duration" : 150,
                    "mediaStart" : 0,
                    "mediaDuration" : 150,
                    "scalar" : 1,
                    "metadata" : {
                      "WinSubProjectDisplayName" : "",
                      "clipSpeedAttribute" : false,
                      "default-legacy-fill-style" : 5.0,
                      "default-legacy-text-callout-vertical-align" : "middle",
                      "default-scale0" : 1.0,
                      "default-scale1" : 1.0,
                      "default-text" : "{\\rtf1\\ansi\\ansicpg1252\\deff0\\deflang1033{\\fonttbl{\\f0\\fswiss\\fprq2\\fcharset0 Arial;}}{\\colortbl ;\\red255\\green255\\blue255;}\\viewkind4\\uc1\\pard\\qc\\cf1\\fs72 abc}",
                      "default-translation0" : 0.0,
                      "default-translation1" : 0.0
                    },
                    "animationTracks" : {

                    }
                  },
                  {
                    "id" : 21,
                    "_type" : "IMFile",
                    "src" : 4,
                    "trackNumber" : 0,
                    "trimStartSum" : 0,
                    "attributes" : {
                      "ident" : "Head"
                    },
                    "parameters" : {
                      "translation0" : {
                        "type" : "double",
                        "defaultValue" : 537.015153862789,
                        "interp" : "eioe"
                      },
                      "translation1" : {
                        "type" : "double",
                        "defaultValue" : -206.400000000049,
                        "interp" : "eioe"
                      },
                      "scale0" : {
                        "type" : "double",
                        "defaultValue" : 0.35,
                        "interp" : "eioe"
                      },
                      "scale1" : {
                        "type" : "double",
                        "defaultValue" : 0.35,
                        "interp" : "eioe"
                      }
                    },
                    "effects" : [

                    ],
                    "start" : 31435,
                    "duration" : 150,
                    "mediaStart" : 0,
                    "mediaDuration" : 1,
                    "scalar" : 1,
                    "metadata" : {
                      "WinSubProjectDisplayName" : "",
                      "clipSpeedAttribute" : false,
                      "default-scale0" : 0.703125,
                      "default-scale1" : 0.703125,
                      "default-translation0" : 0.0,
                      "default-translation1" : 0.0
                    },
                    "animationTracks" : {

                    }
                  }
                ],
                "transitions" : [
                  {
                    "name" : "Fade",
                    "duration" : 30,
                    "trivial" : true,
                    "reverse" : false,
                    "useAudioPreRoll" : true,
                    "useVisualPreRoll" : true,
                    "leftMedia" : 20
                  },
                  {
                    "name" : "Fade",
                    "duration" : 30,
                    "trivial" : false,
                    "reverse" : false,
                    "useAudioPreRoll" : true,
                    "useVisualPreRoll" : true,
                    "rightMedia" : 21
                  },
                  {
                    "name" : "Fade",
                    "duration" : 30,
                    "trivial" : false,
                    "reverse" : false,
                    "useAudioPreRoll" : true,
                    "useVisualPreRoll" : true,
                    "leftMedia" : 21
                  }
                ]
              },
              {
                "trackIndex" : 11,
                "medias" : [
                  {
                    "id" : 22,
                    "_type" : "IMFile",
                    "src" : 4,
                    "trackNumber" : 0,
                    "trimStartSum" : 0,
                    "attributes" : {
                      "ident" : "Head"
                    },
                    "parameters" : {
                      "translation0" : 513.825000000109,
                      "translation1" : -179.200000000031,
                      "scale0" : 0.35,
                      "scale1" : 0.35
                    },
                    "effects" : [

                    ],
                    "start" : 0,
                    "duration" : 150,
                    "mediaStart" : 0,
                    "mediaDuration" : 1,
                    "scalar" : 1,
                    "metadata" : {
                      "WinSubProjectDisplayName" : "",
                      "clipSpeedAttribute" : false,
                      "default-scale0" : 0.703125,
                      "default-scale1" : 0.703125,
                      "default-translation0" : 0.0,
                      "default-translation1" : 0.0
                    },
                    "animationTracks" : {

                    }
                  }
                ],
                "transitions" : [
                  {
                    "name" : "Fade",
                    "duration" : 30,
                    "trivial" : false,
                    "reverse" : false,
                    "useAudioPreRoll" : true,
                    "useVisualPreRoll" : true,
                    "leftMedia" : 22
                  }
                ]
              },
              {
                "trackIndex" : 12,
                "medias" : [
                  {
                    "id" : 23,
                    "_type" : "IMFile",
                    "src" : 8,
                    "trackNumber" : 0,
                    "trimStartSum" : 0,
                    "attributes" : {
                      "ident" : "Slide1"
                    },
                    "effects" : [

                    ],
                    "start" : 150,
                    "duration" : 2673,
                    "mediaStart" : 0,
                    "mediaDuration" : 1,
                    "scalar" : 1,
                    "metadata" : {
                      "clipSpeedAttribute" : false
                    },
                    "animationTracks" : {

                    }
                  },
                  {
                    "id" : 24,
                    "_type" : "StitchedMedia",
                    "minMediaStart" : 0,
                    "attributes" : {
                      "ident" : "Rec 05-02-20_001",
                      "gain" : 1.0,
                      "mixToMono" : false
                    },
                    "parameters" : {
                      "translation0" : {
                        "type" : "double",
                        "defaultValue" : 0.0,
                        "keyframes" : [
                          {
                            "endTime" : 3493,
                            "time" : 3463,
                            "value" : 4.25982405506929,
                            "duration" : 30
                          },
                          {
                            "endTime" : 3907,
                            "time" : 3877,
                            "value" : -327.140049016982,
                            "duration" : 30
                          },
                          {
                            "endTime" : 4020,
                            "time" : 3990,
                            "value" : 16.5386488949988,
                            "duration" : 30
                          },
                          {
                            "endTime" : 4132,
                            "time" : 4102,
                            "value" : 348.186482972969,
                            "duration" : 30
                          },
                          {
                            "endTime" : 13485,
                            "time" : 13455,
                            "value" : 269.056330678633,
                            "duration" : 30
                          },
                          {
                            "endTime" : 14263,
                            "time" : 14233,
                            "value" : 484.279781888614,
                            "duration" : 30
                          },
                          {
                            "endTime" : 14525,
                            "time" : 14495,
                            "value" : 484.279831252837,
                            "duration" : 30
                          },
                          {
                            "endTime" : 14856,
                            "time" : 14826,
                            "value" : 484.279772015777,
                            "duration" : 30
                          },
                          {
                            "endTime" : 18642,
                            "time" : 18612,
                            "value" : 328.429082052261,
                            "duration" : 30
                          },
                          {
                            "endTime" : 22324,
                            "time" : 22294,
                            "value" : 460.440020621059,
                            "duration" : 30
                          },
                          {
                            "endTime" : 22842,
                            "time" : 22812,
                            "value" : 491.282055824868,
                            "duration" : 30
                          },
                          {
                            "endTime" : 27269,
                            "time" : 27239,
                            "value" : -3.68078458450327e-05,
                            "duration" : 30
                          },
                          {
                            "endTime" : 27536,
                            "time" : 27506,
                            "value" : 381.531918710628,
                            "duration" : 30
                          },
                          {
                            "endTime" : 27673,
                            "time" : 27643,
                            "value" : 49.4912539926271,
                            "duration" : 30
                          },
                          {
                            "endTime" : 28014,
                            "time" : 27984,
                            "value" : -381.531767146926,
                            "duration" : 30
                          },
                          {
                            "endTime" : 28126,
                            "time" : 28096,
                            "value" : 63.8888203438566,
                            "duration" : 30
                          },
                          {
                            "endTime" : 28256,
                            "time" : 28226,
                            "value" : 442.406588638215,
                            "duration" : 30
                          },
                          {
                            "endTime" : 30895,
                            "time" : 30865,
                            "value" : 639.731921988786,
                            "duration" : 30
                          },
                          {
                            "endTime" : 31373,
                            "time" : 31343,
                            "value" : 441.600925043244,
                            "duration" : 30
                          }
                        ]
                      },
                      "translation1" : {
                        "type" : "double",
                        "defaultValue" : 0.0,
                        "keyframes" : [
                          {
                            "endTime" : 3493,
                            "time" : 3463,
                            "value" : -15.3346867849329,
                            "duration" : 30
                          },
                          {
                            "endTime" : 3907,
                            "time" : 3877,
                            "value" : -184.016270667788,
                            "duration" : 30
                          },
                          {
                            "endTime" : 4020,
                            "time" : 3990,
                            "value" : -15.6683950211439,
                            "duration" : 30
                          },
                          {
                            "endTime" : 4132,
                            "time" : 4102,
                            "value" : -195.854967649388,
                            "duration" : 30
                          },
                          {
                            "endTime" : 13485,
                            "time" : 13455,
                            "value" : -151.344176427456,
                            "duration" : 30
                          },
                          {
                            "endTime" : 14263,
                            "time" : 14233,
                            "value" : -272.407399301967,
                            "duration" : 30
                          },
                          {
                            "endTime" : 14525,
                            "time" : 14495,
                            "value" : 66.2913601033885,
                            "duration" : 30
                          },
                          {
                            "endTime" : 14856,
                            "time" : 14826,
                            "value" : -174.36299556742,
                            "duration" : 30
                          },
                          {
                            "endTime" : 18642,
                            "time" : 18612,
                            "value" : -184.741396947816,
                            "duration" : 30
                          },
                          {
                            "endTime" : 22324,
                            "time" : 22294,
                            "value" : -258.997534117841,
                            "duration" : 30
                          },
                          {
                            "endTime" : 22842,
                            "time" : 22812,
                            "value" : -150.785248423653,
                            "duration" : 30
                          },
                          {
                            "endTime" : 27269,
                            "time" : 27239,
                            "value" : 3.82493744846002e-05,
                            "duration" : 30
                          },
                          {
                            "endTime" : 27536,
                            "time" : 27506,
                            "value" : -214.611632974826,
                            "duration" : 30
                          },
                          {
                            "endTime" : 27673,
                            "time" : 27643,
                            "value" : -20.2463862288984,
                            "duration" : 30
                          },
                          {
                            "endTime" : 28014,
                            "time" : 27984,
                            "value" : -214.611724919857,
                            "duration" : 30
                          },
                          {
                            "endTime" : 28126,
                            "time" : 28096,
                            "value" : -28.3449407204577,
                            "duration" : 30
                          },
                          {
                            "endTime" : 28256,
                            "time" : 28226,
                            "value" : -248.853631715947,
                            "duration" : 30
                          },
                          {
                            "endTime" : 30895,
                            "time" : 30865,
                            "value" : -359.849103723786,
                            "duration" : 30
                          },
                          {
                            "endTime" : 31373,
                            "time" : 31343,
                            "value" : -248.400440512348,
                            "duration" : 30
                          }
                        ]
                      },
                      "scale0" : {
                        "type" : "double",
                        "defaultValue" : 0.666666666666667,
                        "keyframes" : [
                          {
                            "endTime" : 3493,
                            "time" : 3463,
                            "value" : 1.00743758721663,
                            "duration" : 30
                          },
                          {
                            "endTime" : 3907,
                            "time" : 3877,
                            "value" : 1.00743748490368,
                            "duration" : 30
                          },
                          {
                            "endTime" : 4020,
                            "time" : 3990,
                            "value" : 1.02936089081402,
                            "duration" : 30
                          },
                          {
                            "endTime" : 13485,
                            "time" : 13455,
                            "value" : 0.946933636631085,
                            "duration" : 30
                          },
                          {
                            "endTime" : 14263,
                            "time" : 14233,
                            "value" : 1.17112472625482,
                            "duration" : 30
                          },
                          {
                            "endTime" : 14525,
                            "time" : 14495,
                            "value" : 1.17112479388633,
                            "duration" : 30
                          },
                          {
                            "endTime" : 14856,
                            "time" : 14826,
                            "value" : 1.17112474158011,
                            "duration" : 30
                          },
                          {
                            "endTime" : 18642,
                            "time" : 18612,
                            "value" : 1.00878030332767,
                            "duration" : 30
                          },
                          {
                            "endTime" : 22324,
                            "time" : 22294,
                            "value" : 1.14629169689218,
                            "duration" : 30
                          },
                          {
                            "endTime" : 22842,
                            "time" : 22812,
                            "value" : 1.17841876783515,
                            "duration" : 30
                          },
                          {
                            "endTime" : 27269,
                            "time" : 27239,
                            "value" : 0.666666616366404,
                            "duration" : 30
                          },
                          {
                            "endTime" : 27536,
                            "time" : 27506,
                            "value" : 1.06409566963447,
                            "duration" : 30
                          },
                          {
                            "endTime" : 27673,
                            "time" : 27643,
                            "value" : 1.06409567413457,
                            "duration" : 30
                          },
                          {
                            "endTime" : 28014,
                            "time" : 27984,
                            "value" : 1.06409574670785,
                            "duration" : 30
                          },
                          {
                            "endTime" : 28126,
                            "time" : 28096,
                            "value" : 1.06409588844903,
                            "duration" : 30
                          },
                          {
                            "endTime" : 28256,
                            "time" : 28226,
                            "value" : 1.12750684294674,
                            "duration" : 30
                          },
                          {
                            "endTime" : 30895,
                            "time" : 30865,
                            "value" : 1.33305410300336,
                            "duration" : 30
                          },
                          {
                            "endTime" : 31373,
                            "time" : 31343,
                            "value" : 1.126667680275,
                            "duration" : 30
                          }
                        ]
                      },
                      "scale1" : {
                        "type" : "double",
                        "defaultValue" : 0.666666666666667,
                        "keyframes" : [
                          {
                            "endTime" : 3493,
                            "time" : 3463,
                            "value" : 1.00743753569444,
                            "duration" : 30
                          },
                          {
                            "endTime" : 4020,
                            "time" : 3990,
                            "value" : 1.0293610485672,
                            "duration" : 30
                          },
                          {
                            "endTime" : 13485,
                            "time" : 13455,
                            "value" : 0.946933655202166,
                            "duration" : 30
                          },
                          {
                            "endTime" : 14263,
                            "time" : 14233,
                            "value" : 1.17112480452722,
                            "duration" : 30
                          },
                          {
                            "endTime" : 18642,
                            "time" : 18612,
                            "value" : 1.00878035697014,
                            "duration" : 30
                          },
                          {
                            "endTime" : 22324,
                            "time" : 22294,
                            "value" : 1.14629171810891,
                            "duration" : 30
                          },
                          {
                            "endTime" : 22842,
                            "time" : 22812,
                            "value" : 1.17841883086178,
                            "duration" : 30
                          },
                          {
                            "endTime" : 27269,
                            "time" : 27239,
                            "value" : 0.666666556578106,
                            "duration" : 30
                          },
                          {
                            "endTime" : 27536,
                            "time" : 27506,
                            "value" : 1.06409560844717,
                            "duration" : 30
                          },
                          {
                            "endTime" : 27673,
                            "time" : 27643,
                            "value" : 1.06409578007789,
                            "duration" : 30
                          },
                          {
                            "endTime" : 28256,
                            "time" : 28226,
                            "value" : 1.12750671529666,
                            "duration" : 30
                          },
                          {
                            "endTime" : 30895,
                            "time" : 30865,
                            "value" : 1.33305388042682,
                            "duration" : 30
                          },
                          {
                            "endTime" : 31373,
                            "time" : 31343,
                            "value" : 1.12666746656556,
                            "duration" : 30
                          }
                        ]
                      },
                      "volume" : {
                        "type" : "double",
                        "keyframes" : [
                          {
                            "endTime" : 0,
                            "time" : 0,
                            "value" : 1.0,
                            "duration" : 0
                          },
                          {
                            "endTime" : 26867,
                            "time" : 26867,
                            "value" : 1.0,
                            "duration" : 0
                          },
                          {
                            "endTime" : 26868,
                            "time" : 26868,
                            "value" : 0.0,
                            "duration" : 0
                          },
                          {
                            "endTime" : 27021,
                            "time" : 27021,
                            "value" : 0.0,
                            "duration" : 0
                          },
                          {
                            "endTime" : 27022,
                            "time" : 27022,
                            "value" : 1.0,
                            "duration" : 0
                          }
                        ]
                      },
                      "cursorOpacity" : 1.0,
                      "cursorScale" : 1.0
                    },
                    "medias" : [
                        {
                          "id" : 25,
                          "_type" : "UnifiedMedia",
                          "video" : 
                              {
                                "id" : 26,
                                "_type" : "ScreenVMFile",
                                "src" : 5,
                                "trackNumber" : 0,
                                "attributes" : {
                                  "ident" : "Rec 05-02-20_001"
                                },
                                "parameters" : {
                                  "cursorScale" : {
                                    "type" : "double",
                                    "defaultValue" : 0.0,
                                    "interp" : "linr"
                                  },
                                  "cursorOpacity" : {
                                    "type" : "double",
                                    "defaultValue" : 0.0,
                                    "interp" : "linr"
                                  }
                                },
                                "effects" : [

                                ],
                                "start" : 0,
                                "duration" : 6716,
                                "mediaStart" : 0,
                                "mediaDuration" : 6716,
                                "scalar" : 1,
                                "animationTracks" : {

                                }
                              },
                          "audio" : 
                              {
                                "id" : 27,
                                "_type" : "AMFile",
                                "src" : 5,
                                "trackNumber" : 2,
                                "attributes" : {
                                  "ident" : "",
                                  "gain" : 1.0,
                                  "mixToMono" : false
                                },
                                  "channelNumber" : "0,1",
                                "effects" : [

                                ],
                                "start" : 0,
                                "duration" : 6716,
                                "mediaStart" : 0,
                                "mediaDuration" : 6716,
                                "scalar" : 1,
                                "animationTracks" : {

                                }
                              }
,
                          "start" : 0,
                          "duration" : 6716,
                          "mediaStart" : 0,
                          "mediaDuration" : 34149,
                          "scalar" : 1,
                          "metadata" : {
                            "AutoAppliedSmartFocus" : "False",
                            "clipSpeedAttribute" : false,
                            "default-scale0" : 0.666666666666667,
                            "default-scale1" : 0.666666666666667,
                            "default-translation0" : 0.0,
                            "default-translation1" : 0.0
                          }
                        },
                        {
                          "id" : 28,
                          "_type" : "UnifiedMedia",
                          "video" : 
                              {
                                "id" : 29,
                                "_type" : "ScreenVMFile",
                                "src" : 5,
                                "trackNumber" : 0,
                                "attributes" : {
                                  "ident" : "Rec 05-02-20_001"
                                },
                                "parameters" : {
                                  "cursorScale" : {
                                    "type" : "double",
                                    "defaultValue" : 0.0,
                                    "interp" : "linr"
                                  },
                                  "cursorOpacity" : {
                                    "type" : "double",
                                    "defaultValue" : 0.0,
                                    "interp" : "linr"
                                  }
                                },
                                "effects" : [

                                ],
                                "start" : 6716,
                                "duration" : 2611,
                                "mediaStart" : 7004,
                                "mediaDuration" : 2611,
                                "scalar" : 1,
                                "animationTracks" : {

                                }
                              },
                          "audio" : 
                              {
                                "id" : 30,
                                "_type" : "AMFile",
                                "src" : 5,
                                "trackNumber" : 2,
                                "attributes" : {
                                  "ident" : "",
                                  "gain" : 1.0,
                                  "mixToMono" : false
                                },
                                  "channelNumber" : "0,1",
                                "effects" : [

                                ],
                                "start" : 6716,
                                "duration" : 2611,
                                "mediaStart" : 7004,
                                "mediaDuration" : 2611,
                                "scalar" : 1,
                                "animationTracks" : {

                                }
                              }
,
                          "start" : 6716,
                          "duration" : 2611,
                          "mediaStart" : 0,
                          "mediaDuration" : 34149,
                          "scalar" : 1,
                          "metadata" : {
                            "AutoAppliedSmartFocus" : "False",
                            "clipSpeedAttribute" : false,
                            "default-scale0" : 0.666666666666667,
                            "default-scale1" : 0.666666666666667,
                            "default-translation0" : 0.0,
                            "default-translation1" : 0.0
                          }
                        },
                        {
                          "id" : 31,
                          "_type" : "UnifiedMedia",
                          "video" : 
                              {
                                "id" : 32,
                                "_type" : "ScreenVMFile",
                                "src" : 5,
                                "trackNumber" : 0,
                                "attributes" : {
                                  "ident" : "Rec 05-02-20_001"
                                },
                                "parameters" : {
                                  "cursorScale" : {
                                    "type" : "double",
                                    "defaultValue" : 0.0,
                                    "interp" : "linr"
                                  },
                                  "cursorOpacity" : {
                                    "type" : "double",
                                    "defaultValue" : 0.0,
                                    "interp" : "linr"
                                  }
                                },
                                "effects" : [

                                ],
                                "start" : 9327,
                                "duration" : 1392,
                                "mediaStart" : 10240,
                                "mediaDuration" : 1392,
                                "scalar" : 1,
                                "animationTracks" : {

                                }
                              },
                          "audio" : 
                              {
                                "id" : 33,
                                "_type" : "AMFile",
                                "src" : 5,
                                "trackNumber" : 2,
                                "attributes" : {
                                  "ident" : "",
                                  "gain" : 1.0,
                                  "mixToMono" : false
                                },
                                  "channelNumber" : "0,1",
                                "effects" : [

                                ],
                                "start" : 9327,
                                "duration" : 1392,
                                "mediaStart" : 10240,
                                "mediaDuration" : 1392,
                                "scalar" : 1,
                                "animationTracks" : {

                                }
                              }
,
                          "start" : 9327,
                          "duration" : 1392,
                          "mediaStart" : 0,
                          "mediaDuration" : 34149,
                          "scalar" : 1,
                          "metadata" : {
                            "AutoAppliedSmartFocus" : "False",
                            "clipSpeedAttribute" : false,
                            "default-scale0" : 0.666666666666667,
                            "default-scale1" : 0.666666666666667,
                            "default-translation0" : 0.0,
                            "default-translation1" : 0.0
                          }
                        },
                        {
                          "id" : 34,
                          "_type" : "UnifiedMedia",
                          "video" : 
                              {
                                "id" : 35,
                                "_type" : "ScreenVMFile",
                                "src" : 5,
                                "trackNumber" : 0,
                                "attributes" : {
                                  "ident" : "Rec 05-02-20_001"
                                },
                                "parameters" : {
                                  "cursorScale" : {
                                    "type" : "double",
                                    "defaultValue" : 0.0,
                                    "interp" : "linr"
                                  },
                                  "cursorOpacity" : {
                                    "type" : "double",
                                    "defaultValue" : 0.0,
                                    "interp" : "linr"
                                  }
                                },
                                "effects" : [

                                ],
                                "start" : 10719,
                                "duration" : 3034,
                                "mediaStart" : 11883,
                                "mediaDuration" : 3034,
                                "scalar" : 1,
                                "animationTracks" : {

                                }
                              },
                          "audio" : 
                              {
                                "id" : 36,
                                "_type" : "AMFile",
                                "src" : 5,
                                "trackNumber" : 2,
                                "attributes" : {
                                  "ident" : "",
                                  "gain" : 1.0,
                                  "mixToMono" : false
                                },
                                  "channelNumber" : "0,1",
                                "effects" : [

                                ],
                                "start" : 10719,
                                "duration" : 3034,
                                "mediaStart" : 11883,
                                "mediaDuration" : 3034,
                                "scalar" : 1,
                                "animationTracks" : {

                                }
                              }
,
                          "start" : 10719,
                          "duration" : 3034,
                          "mediaStart" : 0,
                          "mediaDuration" : 34149,
                          "scalar" : 1,
                          "metadata" : {
                            "AutoAppliedSmartFocus" : "False",
                            "clipSpeedAttribute" : false,
                            "default-scale0" : 0.666666666666667,
                            "default-scale1" : 0.666666666666667,
                            "default-translation0" : 0.0,
                            "default-translation1" : 0.0
                          }
                        },
                        {
                          "id" : 37,
                          "_type" : "UnifiedMedia",
                          "video" : 
                              {
                                "id" : 38,
                                "_type" : "ScreenVMFile",
                                "src" : 5,
                                "trackNumber" : 0,
                                "attributes" : {
                                  "ident" : "Rec 05-02-20_001"
                                },
                                "parameters" : {
                                  "cursorScale" : {
                                    "type" : "double",
                                    "defaultValue" : 0.0,
                                    "interp" : "linr"
                                  },
                                  "cursorOpacity" : {
                                    "type" : "double",
                                    "defaultValue" : 0.0,
                                    "interp" : "linr"
                                  }
                                },
                                "effects" : [

                                ],
                                "start" : 13753,
                                "duration" : 342,
                                "mediaStart" : 15129,
                                "mediaDuration" : 342,
                                "scalar" : 1,
                                "animationTracks" : {

                                }
                              },
                          "audio" : 
                              {
                                "id" : 39,
                                "_type" : "AMFile",
                                "src" : 5,
                                "trackNumber" : 2,
                                "attributes" : {
                                  "ident" : "",
                                  "gain" : 1.0,
                                  "mixToMono" : false
                                },
                                  "channelNumber" : "0,1",
                                "effects" : [

                                ],
                                "start" : 13753,
                                "duration" : 342,
                                "mediaStart" : 15129,
                                "mediaDuration" : 342,
                                "scalar" : 1,
                                "animationTracks" : {

                                }
                              }
,
                          "start" : 13753,
                          "duration" : 342,
                          "mediaStart" : 0,
                          "mediaDuration" : 34149,
                          "scalar" : 1,
                          "metadata" : {
                            "AutoAppliedSmartFocus" : "False",
                            "clipSpeedAttribute" : false,
                            "default-scale0" : 0.666666666666667,
                            "default-scale1" : 0.666666666666667,
                            "default-translation0" : 0.0,
                            "default-translation1" : 0.0
                          }
                        },
                        {
                          "id" : 40,
                          "_type" : "UnifiedMedia",
                          "video" : 
                              {
                                "id" : 41,
                                "_type" : "ScreenVMFile",
                                "src" : 5,
                                "trackNumber" : 0,
                                "attributes" : {
                                  "ident" : "Rec 05-02-20_001"
                                },
                                "parameters" : {
                                  "cursorScale" : {
                                    "type" : "double",
                                    "defaultValue" : 0.0,
                                    "interp" : "linr"
                                  },
                                  "cursorOpacity" : {
                                    "type" : "double",
                                    "defaultValue" : 0.0,
                                    "interp" : "linr"
                                  }
                                },
                                "effects" : [

                                ],
                                "start" : 14095,
                                "duration" : 11141,
                                "mediaStart" : 15755,
                                "mediaDuration" : 11141,
                                "scalar" : 1,
                                "animationTracks" : {

                                }
                              },
                          "audio" : 
                              {
                                "id" : 42,
                                "_type" : "AMFile",
                                "src" : 5,
                                "trackNumber" : 2,
                                "attributes" : {
                                  "ident" : "",
                                  "gain" : 1.0,
                                  "mixToMono" : false
                                },
                                  "channelNumber" : "0,1",
                                "effects" : [

                                ],
                                "start" : 14095,
                                "duration" : 11141,
                                "mediaStart" : 15755,
                                "mediaDuration" : 11141,
                                "scalar" : 1,
                                "animationTracks" : {

                                }
                              }
,
                          "start" : 14095,
                          "duration" : 11141,
                          "mediaStart" : 0,
                          "mediaDuration" : 34149,
                          "scalar" : 1,
                          "metadata" : {
                            "AutoAppliedSmartFocus" : "False",
                            "clipSpeedAttribute" : false,
                            "default-scale0" : 0.666666666666667,
                            "default-scale1" : 0.666666666666667,
                            "default-translation0" : 0.0,
                            "default-translation1" : 0.0
                          }
                        },
                        {
                          "id" : 43,
                          "_type" : "UnifiedMedia",
                          "video" : 
                              {
                                "id" : 44,
                                "_type" : "ScreenVMFile",
                                "src" : 5,
                                "trackNumber" : 0,
                                "attributes" : {
                                  "ident" : "Rec 05-02-20_001"
                                },
                                "parameters" : {
                                  "cursorScale" : {
                                    "type" : "double",
                                    "defaultValue" : 0.0,
                                    "interp" : "linr"
                                  },
                                  "cursorOpacity" : {
                                    "type" : "double",
                                    "defaultValue" : 0.0,
                                    "interp" : "linr"
                                  }
                                },
                                "effects" : [

                                ],
                                "start" : 25236,
                                "duration" : 1625,
                                "mediaStart" : 27042,
                                "mediaDuration" : 1625,
                                "scalar" : 1,
                                "animationTracks" : {

                                }
                              },
                          "audio" : 
                              {
                                "id" : 45,
                                "_type" : "AMFile",
                                "src" : 5,
                                "trackNumber" : 2,
                                "attributes" : {
                                  "ident" : "",
                                  "gain" : 1.0,
                                  "mixToMono" : false
                                },
                                  "channelNumber" : "0,1",
                                "effects" : [

                                ],
                                "start" : 25236,
                                "duration" : 1625,
                                "mediaStart" : 27042,
                                "mediaDuration" : 1625,
                                "scalar" : 1,
                                "animationTracks" : {

                                }
                              }
,
                          "start" : 25236,
                          "duration" : 1625,
                          "mediaStart" : 0,
                          "mediaDuration" : 34149,
                          "scalar" : 1,
                          "metadata" : {
                            "AutoAppliedSmartFocus" : "False",
                            "clipSpeedAttribute" : false,
                            "default-scale0" : 0.666666666666667,
                            "default-scale1" : 0.666666666666667,
                            "default-translation0" : 0.0,
                            "default-translation1" : 0.0
                          }
                        },
                        {
                          "id" : 46,
                          "_type" : "UnifiedMedia",
                          "video" : 
                              {
                                "id" : 47,
                                "_type" : "ScreenVMFile",
                                "src" : 5,
                                "trackNumber" : 0,
                                "attributes" : {
                                  "ident" : "Rec 05-02-20_001"
                                },
                                "parameters" : {
                                  "cursorScale" : {
                                    "type" : "double",
                                    "defaultValue" : 0.0,
                                    "interp" : "linr"
                                  },
                                  "cursorOpacity" : {
                                    "type" : "double",
                                    "defaultValue" : 0.0,
                                    "interp" : "linr"
                                  }
                                },
                                "effects" : [

                                ],
                                "start" : 26861,
                                "duration" : 810,
                                "mediaStart" : 28891,
                                "mediaDuration" : 810,
                                "scalar" : 1,
                                "animationTracks" : {

                                }
                              },
                          "audio" : 
                              {
                                "id" : 48,
                                "_type" : "AMFile",
                                "src" : 5,
                                "trackNumber" : 2,
                                "attributes" : {
                                  "ident" : "",
                                  "gain" : 1.0,
                                  "mixToMono" : false
                                },
                                  "channelNumber" : "0,1",
                                "effects" : [

                                ],
                                "start" : 26861,
                                "duration" : 810,
                                "mediaStart" : 28891,
                                "mediaDuration" : 810,
                                "scalar" : 1,
                                "animationTracks" : {

                                }
                              }
,
                          "start" : 26861,
                          "duration" : 810,
                          "mediaStart" : 0,
                          "mediaDuration" : 34149,
                          "scalar" : 1,
                          "metadata" : {
                            "AutoAppliedSmartFocus" : "False",
                            "clipSpeedAttribute" : false,
                            "default-scale0" : 0.666666666666667,
                            "default-scale1" : 0.666666666666667,
                            "default-translation0" : 0.0,
                            "default-translation1" : 0.0
                          }
                        },
                        {
                          "id" : 49,
                          "_type" : "UnifiedMedia",
                          "video" : 
                              {
                                "id" : 50,
                                "_type" : "ScreenVMFile",
                                "src" : 5,
                                "trackNumber" : 0,
                                "attributes" : {
                                  "ident" : "Rec 05-02-20_001"
                                },
                                "parameters" : {
                                  "cursorScale" : {
                                    "type" : "double",
                                    "defaultValue" : 0.0,
                                    "interp" : "linr"
                                  },
                                  "cursorOpacity" : {
                                    "type" : "double",
                                    "defaultValue" : 0.0,
                                    "interp" : "linr"
                                  }
                                },
                                "effects" : [

                                ],
                                "start" : 27671,
                                "duration" : 4301,
                                "mediaStart" : 29848,
                                "mediaDuration" : 4301,
                                "scalar" : 1,
                                "animationTracks" : {

                                }
                              },
                          "audio" : 
                              {
                                "id" : 51,
                                "_type" : "AMFile",
                                "src" : 5,
                                "trackNumber" : 2,
                                "attributes" : {
                                  "ident" : "",
                                  "gain" : 1.0,
                                  "mixToMono" : false
                                },
                                  "channelNumber" : "0,1",
                                "effects" : [

                                ],
                                "start" : 27671,
                                "duration" : 4301,
                                "mediaStart" : 29848,
                                "mediaDuration" : 4301,
                                "scalar" : 1,
                                "animationTracks" : {

                                }
                              }
,
                          "start" : 27671,
                          "duration" : 4301,
                          "mediaStart" : 0,
                          "mediaDuration" : 34149,
                          "scalar" : 1,
                          "metadata" : {
                            "AutoAppliedSmartFocus" : "False",
                            "clipSpeedAttribute" : false,
                            "default-scale0" : 0.666666666666667,
                            "default-scale1" : 0.666666666666667,
                            "default-translation0" : 0.0,
                            "default-translation1" : 0.0
                          }
                        }
                    ],
                    "effects" : [

                    ],
                    "start" : 2823,
                    "duration" : 28612,
                    "mediaStart" : 3360,
                    "mediaDuration" : 28612,
                    "scalar" : 1,
                    "metadata" : {
                      "AutoAppliedSmartFocus" : "False",
                      "clipSpeedAttribute" : false,
                      "default-scale0" : 1.06409566963447,
                      "default-scale1" : 1.06409560844717,
                      "default-translation0" : 381.531918710628,
                      "default-translation1" : -214.611632974826
                    },
                    "animationTracks" : {
                      "visual" : [
                        {
                          "endTime" : 3493,
                          "duration" : 30,
                          "range" : [ 3463, 30]
                        },
                        {
                          "endTime" : 3907,
                          "duration" : 30,
                          "range" : [ 3877, 30]
                        },
                        {
                          "endTime" : 4020,
                          "duration" : 30,
                          "range" : [ 3990, 30]
                        },
                        {
                          "endTime" : 4132,
                          "duration" : 30,
                          "range" : [ 4102, 30]
                        },
                        {
                          "endTime" : 13485,
                          "duration" : 30,
                          "range" : [ 13455, 30]
                        },
                        {
                          "endTime" : 14263,
                          "duration" : 30,
                          "range" : [ 14233, 30]
                        },
                        {
                          "endTime" : 14525,
                          "duration" : 30,
                          "range" : [ 14495, 30]
                        },
                        {
                          "endTime" : 14856,
                          "duration" : 30,
                          "range" : [ 14826, 30]
                        },
                        {
                          "endTime" : 18642,
                          "duration" : 30,
                          "range" : [ 18612, 30]
                        },
                        {
                          "endTime" : 22324,
                          "duration" : 30,
                          "range" : [ 22294, 30]
                        },
                        {
                          "endTime" : 22842,
                          "duration" : 30,
                          "range" : [ 22812, 30]
                        },
                        {
                          "endTime" : 27269,
                          "duration" : 30,
                          "range" : [ 27239, 30]
                        },
                        {
                          "endTime" : 27536,
                          "duration" : 30,
                          "range" : [ 27506, 30]
                        },
                        {
                          "endTime" : 27673,
                          "duration" : 30,
                          "range" : [ 27643, 30]
                        },
                        {
                          "endTime" : 28014,
                          "duration" : 30,
                          "range" : [ 27984, 30]
                        },
                        {
                          "endTime" : 28126,
                          "duration" : 30,
                          "range" : [ 28096, 30]
                        },
                        {
                          "endTime" : 28256,
                          "duration" : 30,
                          "range" : [ 28226, 30]
                        },
                        {
                          "endTime" : 30895,
                          "duration" : 30,
                          "range" : [ 30865, 30]
                        },
                        {
                          "endTime" : 31373,
                          "duration" : 30,
                          "range" : [ 31343, 30]
                        }
                      ]
                    }
                  }
                ],
                "transitions" : [
                  {
                    "name" : "Fade",
                    "duration" : 30,
                    "trivial" : false,
                    "reverse" : false,
                    "useAudioPreRoll" : true,
                    "useVisualPreRoll" : true,
                    "rightMedia" : 23
                  },
                  {
                    "name" : "Fade",
                    "duration" : 30,
                    "trivial" : false,
                    "reverse" : false,
                    "useAudioPreRoll" : true,
                    "useVisualPreRoll" : true,
                    "leftMedia" : 23
                  },
                  {
                    "name" : "Fade",
                    "duration" : 30,
                    "trivial" : false,
                    "reverse" : false,
                    "useAudioPreRoll" : true,
                    "useVisualPreRoll" : true,
                    "rightMedia" : 24
                  },
                  {
                    "name" : "Fade",
                    "duration" : 30,
                    "trivial" : false,
                    "reverse" : false,
                    "useAudioPreRoll" : true,
                    "useVisualPreRoll" : true,
                    "leftMedia" : 24
                  }
                ]
              },
              {
                "trackIndex" : 13,
                "medias" : [
                  {
                    "id" : 52,
                    "_type" : "StitchedMedia",
                    "minMediaStart" : 0,
                    "attributes" : {
                      "ident" : "0505-variable-scope-lifetime-fixed",
                      "gain" : 1.0,
                      "mixToMono" : false
                    },
                    "parameters" : {
                      "volume" : {
                        "type" : "double",
                        "keyframes" : [
                          {
                            "endTime" : 0,
                            "time" : 0,
                            "value" : 1.0,
                            "duration" : 0
                          },
                          {
                            "endTime" : 26811,
                            "time" : 26811,
                            "value" : 1.0,
                            "duration" : 0
                          },
                          {
                            "endTime" : 26812,
                            "time" : 26812,
                            "value" : 0.0,
                            "duration" : 0
                          },
                          {
                            "endTime" : 26965,
                            "time" : 26965,
                            "value" : 0.0,
                            "duration" : 0
                          },
                          {
                            "endTime" : 26966,
                            "time" : 26966,
                            "value" : 1.0,
                            "duration" : 0
                          }
                        ]
                      },
                      "cursorOpacity" : 1.0,
                      "cursorScale" : 1.0
                    },
                    "medias" : [
                        {
                          "id" : 53,
                          "_type" : "AMFile",
                          "src" : 6,
                          "trackNumber" : 0,
                          "attributes" : {
                            "ident" : "0505-variable-scope-lifetime-fixed",
                            "gain" : 1.0,
                            "mixToMono" : false
                          },
                            "channelNumber" : "0,1",
                          "effects" : [

                          ],
                          "start" : 0,
                          "duration" : 3149,
                          "mediaStart" : 0,
                          "mediaDuration" : 3149,
                          "scalar" : 1,
                          "metadata" : {
                            "clipSpeedAttribute" : false
                          },
                          "animationTracks" : {

                          }
                        },
                        {
                          "id" : 54,
                          "_type" : "AMFile",
                          "src" : 6,
                          "trackNumber" : 0,
                          "attributes" : {
                            "ident" : "0505-variable-scope-lifetime-fixed",
                            "gain" : 1.0,
                            "mixToMono" : false
                          },
                            "channelNumber" : "0,1",
                          "effects" : [

                          ],
                          "start" : 3149,
                          "duration" : 3511,
                          "mediaStart" : 3355,
                          "mediaDuration" : 3511,
                          "scalar" : 1,
                          "metadata" : {
                            "clipSpeedAttribute" : false
                          },
                          "animationTracks" : {

                          }
                        },
                        {
                          "id" : 55,
                          "_type" : "AMFile",
                          "src" : 6,
                          "trackNumber" : 0,
                          "attributes" : {
                            "ident" : "0505-variable-scope-lifetime-fixed",
                            "gain" : 1.0,
                            "mixToMono" : false
                          },
                            "channelNumber" : "0,1",
                          "effects" : [

                          ],
                          "start" : 6660,
                          "duration" : 2611,
                          "mediaStart" : 7154,
                          "mediaDuration" : 2611,
                          "scalar" : 1,
                          "metadata" : {
                            "clipSpeedAttribute" : false
                          },
                          "animationTracks" : {

                          }
                        },
                        {
                          "id" : 56,
                          "_type" : "AMFile",
                          "src" : 6,
                          "trackNumber" : 0,
                          "attributes" : {
                            "ident" : "0505-variable-scope-lifetime-fixed",
                            "gain" : 1.0,
                            "mixToMono" : false
                          },
                            "channelNumber" : "0,1",
                          "effects" : [

                          ],
                          "start" : 9271,
                          "duration" : 1392,
                          "mediaStart" : 10390,
                          "mediaDuration" : 1392,
                          "scalar" : 1,
                          "metadata" : {
                            "clipSpeedAttribute" : false
                          },
                          "animationTracks" : {

                          }
                        },
                        {
                          "id" : 57,
                          "_type" : "AMFile",
                          "src" : 6,
                          "trackNumber" : 0,
                          "attributes" : {
                            "ident" : "0505-variable-scope-lifetime-fixed",
                            "gain" : 1.0,
                            "mixToMono" : false
                          },
                            "channelNumber" : "0,1",
                          "effects" : [

                          ],
                          "start" : 10663,
                          "duration" : 3034,
                          "mediaStart" : 12033,
                          "mediaDuration" : 3034,
                          "scalar" : 1,
                          "metadata" : {
                            "clipSpeedAttribute" : false
                          },
                          "animationTracks" : {

                          }
                        },
                        {
                          "id" : 58,
                          "_type" : "AMFile",
                          "src" : 6,
                          "trackNumber" : 0,
                          "attributes" : {
                            "ident" : "0505-variable-scope-lifetime-fixed",
                            "gain" : 1.0,
                            "mixToMono" : false
                          },
                            "channelNumber" : "0,1",
                          "effects" : [

                          ],
                          "start" : 13697,
                          "duration" : 342,
                          "mediaStart" : 15279,
                          "mediaDuration" : 342,
                          "scalar" : 1,
                          "metadata" : {
                            "clipSpeedAttribute" : false
                          },
                          "animationTracks" : {

                          }
                        },
                        {
                          "id" : 59,
                          "_type" : "AMFile",
                          "src" : 6,
                          "trackNumber" : 0,
                          "attributes" : {
                            "ident" : "0505-variable-scope-lifetime-fixed",
                            "gain" : 1.0,
                            "mixToMono" : false
                          },
                            "channelNumber" : "0,1",
                          "effects" : [

                          ],
                          "start" : 14039,
                          "duration" : 11141,
                          "mediaStart" : 15905,
                          "mediaDuration" : 11141,
                          "scalar" : 1,
                          "metadata" : {
                            "clipSpeedAttribute" : false
                          },
                          "animationTracks" : {

                          }
                        },
                        {
                          "id" : 60,
                          "_type" : "AMFile",
                          "src" : 6,
                          "trackNumber" : 0,
                          "attributes" : {
                            "ident" : "0505-variable-scope-lifetime-fixed",
                            "gain" : 1.0,
                            "mixToMono" : false
                          },
                            "channelNumber" : "0,1",
                          "effects" : [

                          ],
                          "start" : 25180,
                          "duration" : 1625,
                          "mediaStart" : 27192,
                          "mediaDuration" : 1625,
                          "scalar" : 1,
                          "metadata" : {
                            "clipSpeedAttribute" : false
                          },
                          "animationTracks" : {

                          }
                        },
                        {
                          "id" : 61,
                          "_type" : "AMFile",
                          "src" : 6,
                          "trackNumber" : 0,
                          "attributes" : {
                            "ident" : "0505-variable-scope-lifetime-fixed",
                            "gain" : 1.0,
                            "mixToMono" : false
                          },
                            "channelNumber" : "0,1",
                          "effects" : [

                          ],
                          "start" : 26805,
                          "duration" : 810,
                          "mediaStart" : 29041,
                          "mediaDuration" : 810,
                          "scalar" : 1,
                          "metadata" : {
                            "clipSpeedAttribute" : false
                          },
                          "animationTracks" : {

                          }
                        },
                        {
                          "id" : 62,
                          "_type" : "AMFile",
                          "src" : 6,
                          "trackNumber" : 0,
                          "attributes" : {
                            "ident" : "0505-variable-scope-lifetime-fixed",
                            "gain" : 1.0,
                            "mixToMono" : false
                          },
                            "channelNumber" : "0,1",
                          "effects" : [

                          ],
                          "start" : 27615,
                          "duration" : 4301,
                          "mediaStart" : 29998,
                          "mediaDuration" : 4301,
                          "scalar" : 1,
                          "metadata" : {
                            "clipSpeedAttribute" : false
                          },
                          "animationTracks" : {

                          }
                        }
                    ],
                    "effects" : [

                    ],
                    "start" : 0,
                    "duration" : 31435,
                    "mediaStart" : 481,
                    "mediaDuration" : 31435,
                    "scalar" : 1,
                    "metadata" : {
                      "clipSpeedAttribute" : false
                    },
                    "animationTracks" : {

                    }
                  }
                ]
              },
              {
                "trackIndex" : 14,
                "medias" : [
                  {
                    "id" : 63,
                    "_type" : "IMFile",
                    "src" : 7,
                    "trackNumber" : 0,
                    "trimStartSum" : 0,
                    "attributes" : {
                      "ident" : "Slide2"
                    },
                    "effects" : [

                    ],
                    "start" : 24818,
                    "duration" : 1696,
                    "mediaStart" : 0,
                    "mediaDuration" : 1,
                    "scalar" : 1,
                    "metadata" : {
                      "clipSpeedAttribute" : false
                    },
                    "animationTracks" : {

                    }
                  }
                ],
                "transitions" : [
                  {
                    "name" : "Fade",
                    "duration" : 30,
                    "trivial" : false,
                    "reverse" : false,
                    "useAudioPreRoll" : true,
                    "useVisualPreRoll" : true,
                    "rightMedia" : 63
                  },
                  {
                    "name" : "Fade",
                    "duration" : 30,
                    "trivial" : false,
                    "reverse" : false,
                    "useAudioPreRoll" : true,
                    "useVisualPreRoll" : true,
                    "leftMedia" : 63
                  }
                ]
              },
              {
                "trackIndex" : 15,
                "medias" : [
                ]
              }
            ]
          }
        }
      ]
    },
    "trackAttributes" : [
      {
        "ident" : "",
        "audioMuted" : false,
        "videoHidden" : false,
        "magnetic" : false,
        "matte" : 0,
        "metadata" : {
          "IsLocked" : "False",
          "WinTrackHeight" : "108.923076923077",
          "trackHeight" : "86"
        }
      },
      {
        "ident" : "",
        "audioMuted" : false,
        "videoHidden" : false,
        "magnetic" : false,
        "matte" : 0,
        "metadata" : {
          "IsLocked" : "False",
          "WinTrackHeight" : "108.923076923077",
          "trackHeight" : "40"
        }
      },
      {
        "ident" : "",
        "audioMuted" : false,
        "videoHidden" : false,
        "magnetic" : false,
        "matte" : 0,
        "metadata" : {
          "IsLocked" : "False",
          "WinTrackHeight" : "108.923076923077",
          "trackHeight" : "40"
        }
      },
      {
        "ident" : "",
        "audioMuted" : false,
        "videoHidden" : false,
        "magnetic" : false,
        "matte" : 0,
        "metadata" : {
          "IsLocked" : "False",
          "WinTrackHeight" : "108.923076923077",
          "trackHeight" : "102"
        }
      },
      {
        "ident" : "",
        "audioMuted" : false,
        "videoHidden" : false,
        "magnetic" : false,
        "matte" : 0,
        "metadata" : {
          "IsLocked" : "False",
          "WinTrackHeight" : "108.923076923077",
          "trackHeight" : "150"
        }
      },
      {
        "ident" : "",
        "audioMuted" : false,
        "videoHidden" : false,
        "magnetic" : false,
        "matte" : 0,
        "metadata" : {
          "IsLocked" : "False",
          "WinTrackHeight" : "108.923076923077",
          "trackHeight" : "150"
        }
      },
      {
        "ident" : "",
        "audioMuted" : false,
        "videoHidden" : false,
        "magnetic" : false,
        "matte" : 0,
        "metadata" : {
          "IsLocked" : "False",
          "WinTrackHeight" : "108.923076923077",
          "trackHeight" : "102"
        }
      },
      {
        "ident" : "",
        "audioMuted" : false,
        "videoHidden" : false,
        "magnetic" : false,
        "matte" : 0,
        "metadata" : {
          "IsLocked" : "False",
          "WinTrackHeight" : "108.923076923077",
          "trackHeight" : "54"
        }
      },
      {
        "ident" : "",
        "audioMuted" : false,
        "videoHidden" : false,
        "magnetic" : false,
        "matte" : 0,
        "metadata" : {
          "IsLocked" : "False",
          "WinTrackHeight" : "108.923076923077",
          "trackHeight" : "86"
        }
      },
      {
        "ident" : "",
        "audioMuted" : false,
        "videoHidden" : false,
        "magnetic" : false,
        "matte" : 0,
        "metadata" : {
          "IsLocked" : "False",
          "WinTrackHeight" : "108.923076923077",
          "trackHeight" : "86"
        }
      },
      {
        "ident" : "",
        "audioMuted" : false,
        "videoHidden" : false,
        "magnetic" : false,
        "matte" : 0,
        "metadata" : {
          "IsLocked" : "False",
          "WinTrackHeight" : "108.923076923077"
        }
      },
      {
        "ident" : "",
        "audioMuted" : false,
        "videoHidden" : false,
        "magnetic" : false,
        "matte" : 0,
        "metadata" : {
          "IsLocked" : "False",
          "WinTrackHeight" : "108.923076923077"
        }
      },
      {
        "ident" : "",
        "audioMuted" : false,
        "videoHidden" : false,
        "magnetic" : false,
        "matte" : 0,
        "metadata" : {
          "IsLocked" : "False",
          "WinTrackHeight" : "108.923076923077"
        }
      },
      {
        "ident" : "",
        "audioMuted" : false,
        "videoHidden" : false,
        "magnetic" : false,
        "matte" : 0,
        "metadata" : {
          "IsLocked" : "False",
          "WinTrackHeight" : "108.923076923077"
        }
      },
      {
        "ident" : "",
        "audioMuted" : false,
        "videoHidden" : false,
        "magnetic" : false,
        "matte" : 0,
        "metadata" : {
          "IsLocked" : "False",
          "WinTrackHeight" : "108.923076923077"
        }
      },
      {
        "ident" : "",
        "audioMuted" : false,
        "videoHidden" : false,
        "magnetic" : false,
        "matte" : 0,
        "metadata" : {
          "IsLocked" : "False",
          "WinTrackHeight" : "108.923076923077"
        }
      }
    ],
    "captionAttributes" : {
      "enabled" : true,
      "fontName" : "Arial",
      "fontSize" : 32,
      "backgroundColor" : [ 0, 0, 0, 127],
      "foregroundColor" : [ 255, 255, 255, 255],
      "lang" : "en",
      "alignment" : 0,
      "defaultFontSize" : true,
      "opacity" : 0.5,
      "backgroundEnabled" : true,
      "backgroundOnlyAroundText" : true
    },
    "backgroundColor" : [ 0, 0, 0, 255]
  },
  "metadata" : {
    "AutoSaveFile" : "",
    "CanvasZoom" : 75,
    "Date" : "2020-01-27 11:33:13 PM",
    "Fit" : 1,
    "IsAutoSave" : "0",
    "Language" : "ENU",
    "ProfileName" : "MP4 only (up to 720p)",
    "ProjectDimensionsChanged" : "0",
    "Title" : "CamtasiaTemplateWindows",
    "audioNarrationNotes" : "",
    "calloutStyle" : "All",
    "canvasDetached" : "False",
    "canvasPositionHeight" : "0",
    "canvasPositionLeft" : "0",
    "canvasPositionTop" : "0",
    "canvasPositionWidth" : "0",
    "firstMedia" : true
  },
  "audioPlaybackRate" : 44100
,
  "videoPlaybackRate" : 30

}
