{
  "title" : "",
  "description" : "",
  "author" : "",
  "targetLoudness" : -18.0,
  "shouldApplyLoudnessNormalization" : false,
  "videoFormatFrameRate" : 30,
  "audioFormatSampleRate" : 44100,
  "width" : 1280.0,
  "height" : 720.0,
  "version" : "3.0",
  "editRate" : 30,
  "authoringClientName" :  {
    "name" : "Camtasia",
    "platform" : "Windows",
    "version" : "19.0"
  },
  "sourceBin" : [
    {
      "id" : 1,
      "src" : "D:\\Data Files\\Udemy\\Instructor\\Codestars\\Course-Prep-Splash\\Camtasia9TemplateWindows\\codestars_logo.png",
      "rect" : [0, 0, 1061, 168],
      "lastMod" : "20200128T043621",
      "sourceTracks" : [
        {
          "range" : [0, 1],
          "type" : 1,
          "editRate" : 10000000,
          "trackRect" : [0, 0, 1061, 168],
          "sampleRate" : 0,
          "bitDepth" : 32,
          "numChannels" : 0,
          "integratedLUFS" : 100.0,
          "peakLevel" : -1.0,
          "metaData" : ""
        }
      ],
      "metadata" : {
        "timeAdded" : "20200413T010652.786275"
      }
    },
    {
      "id" : 2,
      "src" : "D:\\Data Files\\Udemy\\Instructor\\Codestars\\Course-Prep-Splash\\Camtasia9TemplateWindows\\star.png",
      "rect" : [0, 0, 199, 206],
      "lastMod" : "20200128T043621",
      "sourceTracks" : [
        {
          "range" : [0, 1],
          "type" : 1,
          "editRate" : 10000000,
          "trackRect" : [0, 0, 199, 206],
          "sampleRate" : 0,
          "bitDepth" : 32,
          "numChannels" : 0,
          "integratedLUFS" : 100.0,
          "peakLevel" : -1.0,
          "metaData" : ""
        }
      ],
      "metadata" : {
        "timeAdded" : "20200413T010652.797951"
      }
    },
    {
      "id" : 3,
      "src" : "D:\\Data Files\\Udemy\\Instructor\\Codestars\\Course-Prep-Splash\\Camtasia-JPB-CPP\\Splash_Android.png",
      "rect" : [0, 0, 1920, 1080],
      "lastMod" : "20200201T225340",
      "sourceTracks" : [
        {
          "range" : [0, 1],
          "type" : 1,
          "editRate" : 10000000,
          "trackRect" : [0, 0, 1920, 1080],
          "sampleRate" : 0,
          "bitDepth" : 32,
          "numChannels" : 0,
          "integratedLUFS" : 100.0,
          "peakLevel" : -1.0,
          "metaData" : ""
        }
      ],
      "metadata" : {
        "timeAdded" : "20200413T010652.819235"
      }
    },
    {
      "id" : 4,
      "src" : "C:\\Users\\profj\\Desktop\\Udemy\\Codestars\\CPP\\videos\\Course-Prep-Splash\\JPB-Images\\PNG\\Head.png",
      "rect" : [0, 0, 721, 1024],
      "lastMod" : "20200203T062252",
      "sourceTracks" : [
        {
          "range" : [0, 1],
          "type" : 1,
          "editRate" : 10000000,
          "trackRect" : [0, 0, 721, 1024],
          "sampleRate" : 0,
          "bitDepth" : 32,
          "numChannels" : 0,
          "integratedLUFS" : 100.0,
          "peakLevel" : -1.0,
          "metaData" : ""
        }
      ],
      "metadata" : {
        "timeAdded" : "20200413T010652.821203"
      }
    },
    {
      "id" : 5,
      "src" : "C:\\Users\\profj\\Desktop\\Udemy\\Codestars\\CPP\\videos\\section5\\_intro-bulletpoints\\s5-lec8-recursion\\Slide1.PNG",
      "rect" : [0, 0, 1280, 720],
      "lastMod" : "20200503T030307",
      "sourceTracks" : [
        {
          "range" : [0, 1],
          "type" : 1,
          "editRate" : 10000000,
          "trackRect" : [0, 0, 1280, 720],
          "sampleRate" : 0,
          "bitDepth" : 24,
          "numChannels" : 0,
          "integratedLUFS" : 100.0,
          "peakLevel" : -1.0,
          "metaData" : ""
        }
      ],
      "metadata" : {
        "timeAdded" : "20200503T032541.632348"
      }
    },
    {
      "id" : 6,
      "src" : "C:\\Users\\profj\\Desktop\\Udemy\\Codestars\\CPP\\videos\\section5\\_intro-bulletpoints\\s5-lec8-recursion\\Slide2.PNG",
      "rect" : [0, 0, 1280, 720],
      "lastMod" : "20200503T030308",
      "sourceTracks" : [
        {
          "range" : [0, 1],
          "type" : 1,
          "editRate" : 10000000,
          "trackRect" : [0, 0, 1280, 720],
          "sampleRate" : 0,
          "bitDepth" : 24,
          "numChannels" : 0,
          "integratedLUFS" : 100.0,
          "peakLevel" : -1.0,
          "metaData" : ""
        }
      ],
      "metadata" : {
        "timeAdded" : "20200503T032542.876880"
      }
    },
    {
      "id" : 7,
      "src" : "C:\\Users\\profj\\Desktop\\Udemy\\Codestars\\CPP\\videos\\section5\\_intro-bulletpoints\\s5-lec8-recursion\\Slide3.PNG",
      "rect" : [0, 0, 1280, 720],
      "lastMod" : "20200503T030308",
      "sourceTracks" : [
        {
          "range" : [0, 1],
          "type" : 1,
          "editRate" : 10000000,
          "trackRect" : [0, 0, 1280, 720],
          "sampleRate" : 0,
          "bitDepth" : 24,
          "numChannels" : 0,
          "integratedLUFS" : 100.0,
          "peakLevel" : -1.0,
          "metaData" : ""
        }
      ],
      "metadata" : {
        "timeAdded" : "20200503T032544.253252"
      }
    },
    {
      "id" : 8,
      "src" : "C:\\Users\\profj\\Desktop\\Udemy\\Codestars\\CPP\\videos\\section5\\_intro-bulletpoints\\s5-lec8-recursion\\Slide4.PNG",
      "rect" : [0, 0, 1280, 720],
      "lastMod" : "20200503T030308",
      "sourceTracks" : [
        {
          "range" : [0, 1],
          "type" : 1,
          "editRate" : 10000000,
          "trackRect" : [0, 0, 1280, 720],
          "sampleRate" : 0,
          "bitDepth" : 24,
          "numChannels" : 0,
          "integratedLUFS" : 100.0,
          "peakLevel" : -1.0,
          "metaData" : ""
        }
      ],
      "metadata" : {
        "timeAdded" : "20200503T032545.712651"
      }
    },
    {
      "id" : 9,
      "src" : "C:\\Users\\profj\\Desktop\\Udemy\\Codestars\\CPP\\videos\\section5\\_intro-bulletpoints\\s5-lec8-recursion\\Slide5.PNG",
      "rect" : [0, 0, 1280, 720],
      "lastMod" : "20200503T030308",
      "sourceTracks" : [
        {
          "range" : [0, 1],
          "type" : 1,
          "editRate" : 10000000,
          "trackRect" : [0, 0, 1280, 720],
          "sampleRate" : 0,
          "bitDepth" : 24,
          "numChannels" : 0,
          "integratedLUFS" : 100.0,
          "peakLevel" : -1.0,
          "metaData" : ""
        }
      ],
      "metadata" : {
        "timeAdded" : "20200503T032548.721294"
      }
    },
    {
      "id" : 10,
      "src" : "C:\\Users\\profj\\Desktop\\Udemy\\Codestars\\CPP\\videos\\section5\\_intro-bulletpoints\\s5-lec8-recursion\\Slide6.PNG",
      "rect" : [0, 0, 1280, 720],
      "lastMod" : "20200503T030308",
      "sourceTracks" : [
        {
          "range" : [0, 1],
          "type" : 1,
          "editRate" : 10000000,
          "trackRect" : [0, 0, 1280, 720],
          "sampleRate" : 0,
          "bitDepth" : 24,
          "numChannels" : 0,
          "integratedLUFS" : 100.0,
          "peakLevel" : -1.0,
          "metaData" : ""
        }
      ],
      "metadata" : {
        "timeAdded" : "20200503T032550.079408"
      }
    },
    {
      "id" : 11,
      "src" : "C:\\Users\\profj\\Desktop\\Udemy\\Codestars\\CPP\\videos\\section5\\_intro-bulletpoints\\s5-lec8-recursion\\Slide7.PNG",
      "rect" : [0, 0, 1280, 720],
      "lastMod" : "20200503T030308",
      "sourceTracks" : [
        {
          "range" : [0, 1],
          "type" : 1,
          "editRate" : 10000000,
          "trackRect" : [0, 0, 1280, 720],
          "sampleRate" : 0,
          "bitDepth" : 24,
          "numChannels" : 0,
          "integratedLUFS" : 100.0,
          "peakLevel" : -1.0,
          "metaData" : ""
        }
      ],
      "metadata" : {
        "timeAdded" : "20200503T032553.456715"
      }
    },
    {
      "id" : 12,
      "src" : "C:\\Users\\profj\\Desktop\\Udemy\\Codestars\\CPP\\videos\\section5\\_intro-bulletpoints\\s5-lec8-recursion\\Slide8.PNG",
      "rect" : [0, 0, 1280, 720],
      "lastMod" : "20200503T030308",
      "sourceTracks" : [
        {
          "range" : [0, 1],
          "type" : 1,
          "editRate" : 10000000,
          "trackRect" : [0, 0, 1280, 720],
          "sampleRate" : 0,
          "bitDepth" : 24,
          "numChannels" : 0,
          "integratedLUFS" : 100.0,
          "peakLevel" : -1.0,
          "metaData" : ""
        }
      ],
      "metadata" : {
        "timeAdded" : "20200503T032555.514582"
      }
    },
    {
      "id" : 13,
      "src" : "C:\\Users\\profj\\Desktop\\Udemy\\Codestars\\CPP\\videos\\section5\\_intro-bulletpoints\\s5-lec8-recursion\\Slide9.PNG",
      "rect" : [0, 0, 1280, 720],
      "lastMod" : "20200503T030309",
      "sourceTracks" : [
        {
          "range" : [0, 1],
          "type" : 1,
          "editRate" : 10000000,
          "trackRect" : [0, 0, 1280, 720],
          "sampleRate" : 0,
          "bitDepth" : 24,
          "numChannels" : 0,
          "integratedLUFS" : 100.0,
          "peakLevel" : -1.0,
          "metaData" : ""
        }
      ],
      "metadata" : {
        "timeAdded" : "20200503T032557.140556"
      }
    },
    {
      "id" : 14,
      "src" : "C:\\Users\\profj\\Desktop\\Udemy\\Codestars\\CPP\\videos\\section5\\_intro-bulletpoints\\s5-lec8-recursion\\Slide10.PNG",
      "rect" : [0, 0, 1280, 720],
      "lastMod" : "20200503T030309",
      "sourceTracks" : [
        {
          "range" : [0, 1],
          "type" : 1,
          "editRate" : 10000000,
          "trackRect" : [0, 0, 1280, 720],
          "sampleRate" : 0,
          "bitDepth" : 24,
          "numChannels" : 0,
          "integratedLUFS" : 100.0,
          "peakLevel" : -1.0,
          "metaData" : ""
        }
      ],
      "metadata" : {
        "timeAdded" : "20200503T032558.423670"
      }
    },
    {
      "id" : 15,
      "src" : "C:\\Users\\profj\\Desktop\\Udemy\\Codestars\\CPP\\videos\\section5\\_intro-bulletpoints\\s5-lec8-recursion\\Slide11.PNG",
      "rect" : [0, 0, 1280, 720],
      "lastMod" : "20200503T030309",
      "sourceTracks" : [
        {
          "range" : [0, 1],
          "type" : 1,
          "editRate" : 10000000,
          "trackRect" : [0, 0, 1280, 720],
          "sampleRate" : 0,
          "bitDepth" : 24,
          "numChannels" : 0,
          "integratedLUFS" : 100.0,
          "peakLevel" : -1.0,
          "metaData" : ""
        }
      ],
      "metadata" : {
        "timeAdded" : "20200503T032559.807486"
      }
    },
    {
      "id" : 16,
      "src" : "C:\\Users\\profj\\Desktop\\Udemy\\Codestars\\CPP\\videos\\section5\\_intro-bulletpoints\\s5-lec8-recursion\\Slide18.PNG",
      "rect" : [0, 0, 1280, 720],
      "lastMod" : "20200503T030310",
      "sourceTracks" : [
        {
          "range" : [0, 1],
          "type" : 1,
          "editRate" : 10000000,
          "trackRect" : [0, 0, 1280, 720],
          "sampleRate" : 0,
          "bitDepth" : 24,
          "numChannels" : 0,
          "integratedLUFS" : 100.0,
          "peakLevel" : -1.0,
          "metaData" : ""
        }
      ],
      "metadata" : {
        "timeAdded" : "20200503T032610.908954"
      }
    },
    {
      "id" : 17,
      "src" : "C:\\Users\\profj\\Documents\\Camtasia\\Rec 05-03-20_003.trec",
      "rect" : [0, 0, 1920, 1080],
      "lastMod" : "20200504T031436",
      "sourceTracks" : [
        {
          "range" : [0, 34687],
          "type" : 0,
          "editRate" : 30,
          "trackRect" : [0, 0, 1920, 1080],
          "sampleRate" : 29,
          "bitDepth" : 0,
          "numChannels" : 0,
          "integratedLUFS" : 100.0,
          "peakLevel" : -1.0,
          "metaData" : "2b7b6a00-7a1f-11e2-83d0-0017f200be7f;2b7b6aef-7a1f-11e2-83d0-0017f200be7f;2b7b6af0-7a1f-11e2-83d0-0017f200be7f;2b7b6af1-7a1f-11e2-83d0-0017f200be7f;2b7b6af2-7a1f-11e2-83d0-0017f200be7f;2b7b6af3-7a1f-11e2-83d0-0017f200be7f;2b7b6af5-7a1f-11e2-83d0-0017f200be7f;2b7b6af6-7a1f-11e2-83d0-0017f200be7f;2b7b6af7-7a1f-11e2-83d0-0017f200be7f;2b7b6af8-7a1f-11e2-83d0-0017f200be7f;2b7b6af9-7a1f-11e2-83d0-0017f200be7f;2b7b6afa-7a1f-11e2-83d0-0017f200be7f;"
        },
        {
          "range" : [0, 50980864],
          "type" : 2,
          "editRate" : 44100,
          "trackRect" : [0, 0, 0, 0],
          "sampleRate" : 44100,
          "bitDepth" : 16,
          "numChannels" : 2,
          "integratedLUFS" : -26.9732041638971,
          "peakLevel" : 1.0,
          "metaData" : ""
        },
        {
          "range" : [0, 50992128],
          "type" : 2,
          "editRate" : 44100,
          "trackRect" : [0, 0, 0, 0],
          "sampleRate" : 44100,
          "bitDepth" : 16,
          "numChannels" : 2,
          "integratedLUFS" : 0.0,
          "peakLevel" : 0.0,
          "metaData" : ""
        }
      ],
      "metadata" : {
        "timeAdded" : "20200504T031437.462952"
      }
    },
    {
      "id" : 18,
      "src" : "C:\\Users\\profj\\Desktop\\Udemy\\Codestars\\CPP\\videos\\section5\\_wavs\\0508-recursion-fixed.wav",
      "rect" : [0, 0, 0, 0],
      "lastMod" : "20200504T032051",
      "sourceTracks" : [
        {
          "range" : [0, 11562333334],
          "type" : 2,
          "editRate" : 10000000,
          "trackRect" : [0, 0, 0, 0],
          "sampleRate" : 44100,
          "bitDepth" : 16,
          "numChannels" : 2,
          "integratedLUFS" : -30.1796325836195,
          "peakLevel" : 0.7158203125,
          "metaData" : ""
        }
      ],
      "metadata" : {
        "timeAdded" : "20200504T032106.153040"
      }
    },
    {
      "id" : 19,
      "src" : "C:\\Users\\profj\\Desktop\\Udemy\\Codestars\\CPP\\videos\\section5\\_intro-bulletpoints\\s5-lec8-recursion\\s5-lec8-recursion-modified\\0atTheTop.PNG",
      "rect" : [0, 0, 1280, 720],
      "lastMod" : "20200504T051333",
      "sourceTracks" : [
        {
          "range" : [0, 1],
          "type" : 1,
          "editRate" : 10000000,
          "trackRect" : [0, 0, 1280, 720],
          "sampleRate" : 0,
          "bitDepth" : 24,
          "numChannels" : 0,
          "integratedLUFS" : 100.0,
          "peakLevel" : -1.0,
          "metaData" : ""
        }
      ],
      "metadata" : {
        "timeAdded" : "20200504T051418.706519"
      }
    },
    {
      "id" : 20,
      "src" : "C:\\Users\\profj\\Desktop\\Udemy\\Codestars\\CPP\\videos\\section5\\_intro-bulletpoints\\s5-lec8-recursion\\s5-lec8-recursion-modified\\PopOff0.PNG",
      "rect" : [0, 0, 1280, 720],
      "lastMod" : "20200504T051333",
      "sourceTracks" : [
        {
          "range" : [0, 1],
          "type" : 1,
          "editRate" : 10000000,
          "trackRect" : [0, 0, 1280, 720],
          "sampleRate" : 0,
          "bitDepth" : 24,
          "numChannels" : 0,
          "integratedLUFS" : 100.0,
          "peakLevel" : -1.0,
          "metaData" : ""
        }
      ],
      "metadata" : {
        "timeAdded" : "20200504T051418.710508"
      }
    },
    {
      "id" : 21,
      "src" : "C:\\Users\\profj\\Documents\\Camtasia\\Rec 05-04-20.trec",
      "rect" : [0, 0, 1920, 1080],
      "lastMod" : "20200504T051940",
      "sourceTracks" : [
        {
          "range" : [0, 229],
          "type" : 0,
          "editRate" : 30,
          "trackRect" : [0, 0, 1920, 1080],
          "sampleRate" : 29,
          "bitDepth" : 0,
          "numChannels" : 0,
          "integratedLUFS" : 100.0,
          "peakLevel" : -1.0,
          "metaData" : "2b7b6a00-7a1f-11e2-83d0-0017f200be7f;2b7b6aef-7a1f-11e2-83d0-0017f200be7f;2b7b6af0-7a1f-11e2-83d0-0017f200be7f;2b7b6af1-7a1f-11e2-83d0-0017f200be7f;2b7b6af2-7a1f-11e2-83d0-0017f200be7f;2b7b6af3-7a1f-11e2-83d0-0017f200be7f;2b7b6af5-7a1f-11e2-83d0-0017f200be7f;2b7b6af6-7a1f-11e2-83d0-0017f200be7f;2b7b6af7-7a1f-11e2-83d0-0017f200be7f;2b7b6af8-7a1f-11e2-83d0-0017f200be7f;2b7b6af9-7a1f-11e2-83d0-0017f200be7f;2b7b6afa-7a1f-11e2-83d0-0017f200be7f;"
        },
        {
          "range" : [0, 331776],
          "type" : 2,
          "editRate" : 44100,
          "trackRect" : [0, 0, 0, 0],
          "sampleRate" : 44100,
          "bitDepth" : 16,
          "numChannels" : 2,
          "integratedLUFS" : -35.4952862913833,
          "peakLevel" : 0.06402587890625,
          "metaData" : ""
        },
        {
          "range" : [0, 333824],
          "type" : 2,
          "editRate" : 44100,
          "trackRect" : [0, 0, 0, 0],
          "sampleRate" : 44100,
          "bitDepth" : 16,
          "numChannels" : 2,
          "integratedLUFS" : 0.0,
          "peakLevel" : 0.0,
          "metaData" : ""
        }
      ],
      "metadata" : {
        "timeAdded" : "20200504T051940.892614"
      }
    },
    {
      "id" : 22,
      "src" : "C:\\Users\\profj\\Desktop\\Udemy\\Codestars\\CPP\\videos\\section5\\_intro-bulletpoints\\s5-lec8-recursion\\s5-lec8-recursion-modified\\basic\\Slide12.PNG",
      "rect" : [0, 0, 1280, 720],
      "lastMod" : "20200504T051333",
      "sourceTracks" : [
        {
          "range" : [0, 1],
          "type" : 1,
          "editRate" : 10000000,
          "trackRect" : [0, 0, 1280, 720],
          "sampleRate" : 0,
          "bitDepth" : 24,
          "numChannels" : 0,
          "integratedLUFS" : 100.0,
          "peakLevel" : -1.0,
          "metaData" : ""
        }
      ],
      "metadata" : {
        "timeAdded" : "20200504T053627.458871"
      }
    },
    {
      "id" : 23,
      "src" : "C:\\Users\\profj\\Desktop\\Udemy\\Codestars\\CPP\\videos\\section5\\_intro-bulletpoints\\s5-lec8-recursion\\s5-lec8-recursion-modified\\basic\\Slide13.PNG",
      "rect" : [0, 0, 1280, 720],
      "lastMod" : "20200504T051333",
      "sourceTracks" : [
        {
          "range" : [0, 1],
          "type" : 1,
          "editRate" : 10000000,
          "trackRect" : [0, 0, 1280, 720],
          "sampleRate" : 0,
          "bitDepth" : 24,
          "numChannels" : 0,
          "integratedLUFS" : 100.0,
          "peakLevel" : -1.0,
          "metaData" : ""
        }
      ],
      "metadata" : {
        "timeAdded" : "20200504T053652.920357"
      }
    },
    {
      "id" : 24,
      "src" : "C:\\Users\\profj\\Desktop\\Udemy\\Codestars\\CPP\\videos\\section5\\_intro-bulletpoints\\s5-lec8-recursion\\s5-lec8-recursion-modified\\basic\\Slide14.PNG",
      "rect" : [0, 0, 1280, 720],
      "lastMod" : "20200504T051334",
      "sourceTracks" : [
        {
          "range" : [0, 1],
          "type" : 1,
          "editRate" : 10000000,
          "trackRect" : [0, 0, 1280, 720],
          "sampleRate" : 0,
          "bitDepth" : 24,
          "numChannels" : 0,
          "integratedLUFS" : 100.0,
          "peakLevel" : -1.0,
          "metaData" : ""
        }
      ],
      "metadata" : {
        "timeAdded" : "20200504T053701.925053"
      }
    },
    {
      "id" : 25,
      "src" : "C:\\Users\\profj\\Desktop\\Udemy\\Codestars\\CPP\\videos\\section5\\_intro-bulletpoints\\s5-lec8-recursion\\s5-lec8-recursion-modified\\basic\\Slide15.PNG",
      "rect" : [0, 0, 1280, 720],
      "lastMod" : "20200504T051334",
      "sourceTracks" : [
        {
          "range" : [0, 1],
          "type" : 1,
          "editRate" : 10000000,
          "trackRect" : [0, 0, 1280, 720],
          "sampleRate" : 0,
          "bitDepth" : 24,
          "numChannels" : 0,
          "integratedLUFS" : 100.0,
          "peakLevel" : -1.0,
          "metaData" : ""
        }
      ],
      "metadata" : {
        "timeAdded" : "20200504T053709.306055"
      }
    },
    {
      "id" : 26,
      "src" : "C:\\Users\\profj\\Desktop\\Udemy\\Codestars\\CPP\\videos\\section5\\_intro-bulletpoints\\s5-lec8-recursion\\s5-lec8-recursion-modified\\basic\\Slide16.PNG",
      "rect" : [0, 0, 1280, 720],
      "lastMod" : "20200504T051334",
      "sourceTracks" : [
        {
          "range" : [0, 1],
          "type" : 1,
          "editRate" : 10000000,
          "trackRect" : [0, 0, 1280, 720],
          "sampleRate" : 0,
          "bitDepth" : 24,
          "numChannels" : 0,
          "integratedLUFS" : 100.0,
          "peakLevel" : -1.0,
          "metaData" : ""
        }
      ],
      "metadata" : {
        "timeAdded" : "20200504T053719.237228"
      }
    },
    {
      "id" : 27,
      "src" : "C:\\Users\\profj\\Desktop\\Udemy\\Codestars\\CPP\\videos\\section5\\_intro-bulletpoints\\s5-lec8-recursion\\s5-lec8-recursion-modified\\basic\\Slide17.PNG",
      "rect" : [0, 0, 1280, 720],
      "lastMod" : "20200504T051334",
      "sourceTracks" : [
        {
          "range" : [0, 1],
          "type" : 1,
          "editRate" : 10000000,
          "trackRect" : [0, 0, 1280, 720],
          "sampleRate" : 0,
          "bitDepth" : 24,
          "numChannels" : 0,
          "integratedLUFS" : 100.0,
          "peakLevel" : -1.0,
          "metaData" : ""
        }
      ],
      "metadata" : {
        "timeAdded" : "20200504T053727.937377"
      }
    },
    {
      "id" : 28,
      "src" : "C:\\Users\\profj\\Documents\\Camtasia\\Rec 05-21-20_005.trec",
      "rect" : [0, 0, 1920, 1080],
      "lastMod" : "20200521T204947",
      "sourceTracks" : [
        {
          "range" : [0, 1662],
          "type" : 0,
          "editRate" : 30,
          "trackRect" : [0, 0, 1920, 1080],
          "sampleRate" : 29,
          "bitDepth" : 0,
          "numChannels" : 0,
          "integratedLUFS" : 100.0,
          "peakLevel" : -1.0,
          "metaData" : "2b7b6a00-7a1f-11e2-83d0-0017f200be7f;2b7b6aef-7a1f-11e2-83d0-0017f200be7f;2b7b6af0-7a1f-11e2-83d0-0017f200be7f;2b7b6af1-7a1f-11e2-83d0-0017f200be7f;2b7b6af2-7a1f-11e2-83d0-0017f200be7f;2b7b6af3-7a1f-11e2-83d0-0017f200be7f;2b7b6af5-7a1f-11e2-83d0-0017f200be7f;2b7b6af6-7a1f-11e2-83d0-0017f200be7f;2b7b6af7-7a1f-11e2-83d0-0017f200be7f;2b7b6af8-7a1f-11e2-83d0-0017f200be7f;2b7b6af9-7a1f-11e2-83d0-0017f200be7f;2b7b6afa-7a1f-11e2-83d0-0017f200be7f;"
        },
        {
          "range" : [0, 2426880],
          "type" : 2,
          "editRate" : 44100,
          "trackRect" : [0, 0, 0, 0],
          "sampleRate" : 44100,
          "bitDepth" : 16,
          "numChannels" : 2,
          "integratedLUFS" : -29.0051568658065,
          "peakLevel" : 0.283843994140625,
          "metaData" : ""
        },
        {
          "range" : [0, 2441216],
          "type" : 2,
          "editRate" : 44100,
          "trackRect" : [0, 0, 0, 0],
          "sampleRate" : 44100,
          "bitDepth" : 16,
          "numChannels" : 2,
          "integratedLUFS" : -1.79769313486232e+308,
          "peakLevel" : 0.0,
          "metaData" : ""
        }
      ],
      "metadata" : {
        "timeAdded" : "20200521T204948.258400"
      }
    },
    {
      "id" : 29,
      "src" : "C:\\Users\\profj\\Desktop\\Udemy\\Codestars\\CPP\\videos\\section5\\_wavs\\0508-recursion-splice-1-fixed.wav",
      "rect" : [0, 0, 0, 0],
      "lastMod" : "20200521T205248",
      "sourceTracks" : [
        {
          "range" : [0, 429533561],
          "type" : 2,
          "editRate" : 10000000,
          "trackRect" : [0, 0, 0, 0],
          "sampleRate" : 44100,
          "bitDepth" : 16,
          "numChannels" : 2,
          "integratedLUFS" : -33.7878296117198,
          "peakLevel" : 0.164031982421875,
          "metaData" : ""
        }
      ],
      "metadata" : {
        "timeAdded" : "20200521T205256.912296"
      }
    }
  ],
  "timeline" : {
    "id" : 30,
    "sceneTrack" : {
      "scenes" : [
        {
          "duration" : 1047.2,
          "title" : "",
          "type" : "",
          "csml" : {
            "tracks" : [
              {
                "trackIndex" : 0,
                "medias" : [
                ]
              },
              {
                "trackIndex" : 1,
                "medias" : [
                ]
              },
              {
                "trackIndex" : 2,
                "medias" : [
                ]
              },
              {
                "trackIndex" : 3,
                "medias" : [
                ]
              },
              {
                "trackIndex" : 4,
                "medias" : [
                  {
                    "id" : 31,
                    "_type" : "IMFile",
                    "src" : 3,
                    "trackNumber" : 0,
                    "trimStartSum" : 0,
                    "attributes" : {
                      "ident" : "Splash_Android"
                    },
                    "parameters" : {
                      "translation0" : -0.00456702364154329,
                      "translation1" : -6.87439439981899,
                      "scale0" : 0.666671423982989,
                      "scale1" : 0.666671423982989
                    },
                    "effects" : [

                    ],
                    "start" : 0,
                    "duration" : 150,
                    "mediaStart" : 0,
                    "mediaDuration" : 1,
                    "scalar" : 1,
                    "metadata" : {
                      "WinSubProjectDisplayName" : "",
                      "clipSpeedAttribute" : false,
                      "default-scale" : "0.666667",
                      "default-translation0" : 0.00456702366917246,
                      "default-translation1" : -0.00256895081391425,
                      "effectApplied" : "none"
                    },
                    "animationTracks" : {

                    }
                  }
                ],
                "transitions" : [
                  {
                    "name" : "Fade",
                    "duration" : 30,
                    "trivial" : true,
                    "reverse" : false,
                    "useAudioPreRoll" : false,
                    "useVisualPreRoll" : true,
                    "leftMedia" : 31
                  }
                ]
              },
              {
                "trackIndex" : 5,
                "medias" : [
                  {
                    "id" : 32,
                    "_type" : "IMFile",
                    "src" : 2,
                    "trackNumber" : 0,
                    "trimStartSum" : 0,
                    "attributes" : {
                      "ident" : "star"
                    },
                    "parameters" : {
                      "translation0" : {
                        "type" : "double",
                        "defaultValue" : -640.0,
                        "interp" : "linr",
                        "keyframes" : [
                          {
                            "endTime" : 30,
                            "time" : 0,
                            "value" : -522.733906099372,
                            "duration" : 30
                          }
                        ]
                      },
                      "translation1" : {
                        "type" : "double",
                        "defaultValue" : -0.0,
                        "interp" : "linr",
                        "keyframes" : [
                          {
                            "endTime" : 30,
                            "time" : 0,
                            "value" : -277.438113851611,
                            "duration" : 30
                          }
                        ]
                      },
                      "translation2" : {
                        "type" : "double",
                        "defaultValue" : 0.0,
                        "interp" : "linr"
                      },
                      "rotation0" : {
                        "type" : "double",
                        "defaultValue" : 0.0,
                        "interp" : "linr"
                      },
                      "rotation1" : {
                        "type" : "double",
                        "defaultValue" : 0.0,
                        "interp" : "linr"
                      },
                      "rotation2" : {
                        "type" : "double",
                        "defaultValue" : 6.28318530717959,
                        "interp" : "linr",
                        "keyframes" : [
                          {
                            "endTime" : 30,
                            "time" : 0,
                            "value" : 0.0,
                            "duration" : 30
                          }
                        ]
                      },
                      "shear0" : {
                        "type" : "double",
                        "defaultValue" : 0.0,
                        "interp" : "linr"
                      },
                      "shear1" : {
                        "type" : "double",
                        "defaultValue" : 0.0,
                        "interp" : "linr"
                      },
                      "shear2" : {
                        "type" : "double",
                        "defaultValue" : 0.0,
                        "interp" : "linr"
                      },
                      "scale0" : {
                        "type" : "double",
                        "defaultValue" : 0.0,
                        "interp" : "linr",
                        "keyframes" : [
                          {
                            "endTime" : 30,
                            "time" : 0,
                            "value" : 0.344059357782636,
                            "duration" : 30
                          }
                        ]
                      },
                      "scale1" : {
                        "type" : "double",
                        "defaultValue" : 0.0,
                        "interp" : "linr",
                        "keyframes" : [
                          {
                            "endTime" : 30,
                            "time" : 0,
                            "value" : 0.344059357782636,
                            "duration" : 30
                          }
                        ]
                      },
                      "scale2" : {
                        "type" : "double",
                        "defaultValue" : 1.0,
                        "interp" : "linr"
                      },
                      "anchor0" : {
                        "type" : "double",
                        "defaultValue" : 0.0,
                        "interp" : "linr"
                      },
                      "anchor1" : {
                        "type" : "double",
                        "defaultValue" : 0.0,
                        "interp" : "linr"
                      },
                      "anchor2" : {
                        "type" : "double",
                        "defaultValue" : 0.0,
                        "interp" : "linr"
                      },
                      "opacity" : {
                        "type" : "double",
                        "defaultValue" : 1.0,
                        "keyframes" : [
                          {
                            "endTime" : 150,
                            "time" : 120,
                            "value" : 0.0,
                            "duration" : 30
                          }
                        ]
                      }
                    },
                    "effects" : [

                    ],
                    "start" : 0,
                    "duration" : 150,
                    "mediaStart" : 0,
                    "mediaDuration" : 1,
                    "scalar" : 1,
                    "metadata" : {
                      "WinSubProjectDisplayName" : "",
                      "clipSpeedAttribute" : false,
                      "default-scale" : "1",
                      "effectApplied" : "none"
                    },
                    "animationTracks" : {
                      "visual" : [
                        {
                          "endTime" : 30,
                          "duration" : 30,
                          "range" : [ 0, 30]
                        },
                        {
                          "endTime" : 150,
                          "duration" : 30,
                          "range" : [ 120, 30]
                        }
                      ]
                    }
                  }
                ]
              },
              {
                "trackIndex" : 6,
                "medias" : [
                  {
                    "id" : 33,
                    "_type" : "Callout",
                    "def" : {
                      "kind" : "remix",
                      "shape" : "text",
                      "style" : "bold",
                      "height" : 250.0,
                      "line-spacing" : 0.0,
                      "width" : 1035.85760517811,
                      "word-wrap" : 1.0,
                      "horizontal-alignment" : "left",
                      "resize-behavior" : "resizeText",
                      "text" : "Functions\rRecursion",
                      "vertical-alignment" : "center",
                      "font" : {
                        "color-blue" : 1.0,
                        "color-green" : 1.0,
                        "color-red" : 1.0,
                        "size" : 96.0,
                        "tracking" : 0.0,
                        "name" : "Source Sans Pro",
                        "weight" : "Semi Bold"
                      },
                      "textAttributes" : {
                        "type" : "textAttributeList",
                        "keyframes" : [
                          {
                            "endTime" : 0,
                            "time" : 0,
                            "value" : [{"name":"strikethrough","rangeEnd":19,"rangeStart":0,"value":0,"valueType":"int"},{"name":"fontSize","rangeEnd":10,"rangeStart":0,"value":55,"valueType":"double"},{"name":"fontItalic","rangeEnd":19,"rangeStart":0,"value":0,"valueType":"int"},{"name":"underline","rangeEnd":19,"rangeStart":0,"value":0,"valueType":"int"},{"name":"fontSize","rangeEnd":19,"rangeStart":10,"value":52,"valueType":"double"},{"name":"fontName","rangeEnd":19,"rangeStart":0,"value":"Quicksand","valueType":"string"},{"name":"fontWeight","rangeEnd":19,"rangeStart":10,"value":400,"valueType":"int"},{"name":"kerning","rangeEnd":19,"rangeStart":0,"value":0,"valueType":"double"},{"name":"fontWeight","rangeEnd":10,"rangeStart":0,"value":700,"valueType":"int"},{"name":"fgColor","rangeEnd":19,"rangeStart":0,"value":"(255,255,255,255)","valueType":"color"}],
                            "duration" : 0
                          }
                        ]
                      }
                    },
                    "attributes" : {
                      "autoRotateText" : true
                    },
                    "parameters" : {
                      "translation0" : {
                        "type" : "double",
                        "defaultValue" : -913.412651778095,
                        "keyframes" : [
                          {
                            "endTime" : 38,
                            "time" : 8,
                            "value" : 98.5873482219166,
                            "duration" : 30
                          }
                        ]
                      },
                      "translation1" : {
                        "type" : "double",
                        "defaultValue" : -34.812002943898,
                        "keyframes" : [
                          {
                            "endTime" : 38,
                            "time" : 8,
                            "value" : -34.8120029438544,
                            "duration" : 30
                          }
                        ]
                      }
                    },
                    "effects" : [
                        {
                          "effectName" : "DropShadow",
                          "category" : "categoryVisualEffects",
                          "parameters" : {
                            "angle" : {
                              "type" : "double",
                              "defaultValue" : 5.49778714378214,
                              "uiHints" : {
                                "userInterfaceType" : 0,
                                "unitType" : 0
                              },
                              "keyframes" : [
                                {
                                  "endTime" : 38,
                                  "time" : 8,
                                  "value" : 5.49778714378214,
                                  "duration" : 30
                                }
                              ]
                            },
                            "blur" : 10.0,
                            "color-alpha" : 1.0,
                            "color-blue" : 0.1216,
                            "color-green" : 0.1216,
                            "color-red" : 0.1216,
                            "enabled" : 1,
                            "offset" : 10.0,
                            "opacity" : 0.4
                          }
                        }
                    ],
                    "start" : 35,
                    "duration" : 115,
                    "mediaStart" : 8,
                    "mediaDuration" : 115,
                    "scalar" : 1,
                    "metadata" : {
                      "WinSubProjectDisplayName" : "",
                      "clipSpeedAttribute" : false,
                      "default-HAlign" : "center",
                      "default-LineSpace" : 0.0,
                      "default-VAlign" : "center",
                      "default-text-attributes" : "[{\"name\":\"fontWeight\",\"rangeEnd\":37,\"rangeStart\":26,\"value\":100,\"valueType\":\"int\"},{\"name\":\"underline\",\"rangeEnd\":37,\"rangeStart\":0,\"value\":0,\"valueType\":\"int\"},{\"name\":\"fontWeight\",\"rangeEnd\":26,\"rangeStart\":0,\"value\":700,\"valueType\":\"int\"},{\"name\":\"fgColor\",\"rangeEnd\":37,\"rangeStart\":0,\"value\":\"(255,255,255,255)\",\"valueType\":\"color\"},{\"name\":\"fontSize\",\"rangeEnd\":26,\"rangeStart\":0,\"value\":55,\"valueType\":\"double\"},{\"name\":\"fontItalic\",\"rangeEnd\":37,\"rangeStart\":0,\"value\":0,\"valueType\":\"int\"},{\"name\":\"strikethrough\",\"rangeEnd\":37,\"rangeStart\":0,\"value\":0,\"valueType\":\"int\"},{\"name\":\"fontName\",\"rangeEnd\":37,\"rangeStart\":0,\"value\":\"Quicksand\",\"valueType\":\"string\"},{\"name\":\"fontSize\",\"rangeEnd\":37,\"rangeStart\":26,\"value\":52,\"valueType\":\"double\"}]",
                      "default-translation0" : 204.5,
                      "default-translation1" : 0.0
                    },
                    "animationTracks" : {
                      "visual" : [
                        {
                          "endTime" : 38,
                          "duration" : 30,
                          "range" : [ 8, 30]
                        }
                      ]
                    }
                  },
                  {
                    "id" : 34,
                    "_type" : "IMFile",
                    "src" : 3,
                    "trackNumber" : 0,
                    "trimStartSum" : 0,
                    "attributes" : {
                      "ident" : "Splash_Android"
                    },
                    "parameters" : {
                      "translation0" : 0.00456702366917246,
                      "translation1" : -0.00256895081391425,
                      "scale0" : 0.666671423982989,
                      "scale1" : 0.666671423982989
                    },
                    "effects" : [

                    ],
                    "start" : 31266,
                    "duration" : 150,
                    "mediaStart" : 0,
                    "mediaDuration" : 1,
                    "scalar" : 1,
                    "metadata" : {
                      "WinSubProjectDisplayName" : "",
                      "clipSpeedAttribute" : false,
                      "default-scale" : "0.666667",
                      "effectApplied" : "none"
                    },
                    "animationTracks" : {

                    }
                  }
                ],
                "transitions" : [
                  {
                    "name" : "Fade",
                    "duration" : 30,
                    "trivial" : true,
                    "reverse" : false,
                    "useAudioPreRoll" : true,
                    "useVisualPreRoll" : true,
                    "leftMedia" : 33
                  },
                  {
                    "name" : "Fade",
                    "duration" : 30,
                    "trivial" : true,
                    "reverse" : false,
                    "useAudioPreRoll" : false,
                    "useVisualPreRoll" : true,
                    "rightMedia" : 34
                  },
                  {
                    "name" : "Fade",
                    "duration" : 30,
                    "trivial" : true,
                    "reverse" : false,
                    "useAudioPreRoll" : false,
                    "useVisualPreRoll" : true,
                    "leftMedia" : 34
                  }
                ]
              },
              {
                "trackIndex" : 7,
                "medias" : [
                  {
                    "id" : 35,
                    "_type" : "Callout",
                    "def" : {
                      "kind" : "TypeWinText",
                      "shape" : "",
                      "style" : "",
                      "Style" : 5.0,
                      "dimensionTime" : 0.0,
                      "height" : 180.0,
                      "line-spacing" : 0.0,
                      "textIgnoresOpacity" : 0.0,
                      "textRectHeight" : 1.0,
                      "textRectWidth" : 1.0,
                      "textRectX" : 0.0,
                      "textRectY" : 0.0,
                      "textVerticalAlign" : 0.0,
                      "width" : 320.0,
                      "filename" : "C:\\Program Files\\TechSmith\\Camtasia 9\\Media\\Studio\\Callouts\\trans_100x100.xml",
                      "horizontal-alignment" : "center",
                      "name" : "Text",
                      "resize-behavior" : "resizeText",
                      "text" : "{\\rtf1\\ansi\\ansicpg1252\\deff0\\nouicompat\\deflang1033{\\fonttbl{\\f0\\fnil\\fcharset0 Quicksand;}}\r\n{\\colortbl ;\\red255\\green255\\blue255;}\r\n{\\*\\generator Riched20 10.0.18362}\\viewkind4\\uc1 \r\n\\pard\\qc\\cf1\\b\\f0\\fs124 #\\fs256 5\\fs72\\par\r\n}\r\n",
                      "vertical-alignment" : "center",
                      "xmlContent" : "ï»¿<?xml version=\"1.0\"?>\n\n<Overlay version=\"1.0.1\">\n\n<Overlay_Filename>trans_100x100.png</Overlay_Filename>\n<Overlay_Name>Text</Overlay_Name>\n<Text_Top>0</Text_Top>\n<Text_Left>0</Text_Left>\n<Text_Bottom>0</Text_Bottom>\n<Text_Right>0</Text_Right>\n<Fill_Color>0</Fill_Color>\n<Border_Color>0</Border_Color>\n<Style>5</Style>\n</Overlay>",
                      "textAttributes" : {
                        "type" : "textAttributeList",
                        "keyframes" : [
                          {
                            "endTime" : 0,
                            "time" : 0,
                            "value" : null,
                            "duration" : 0
                          }
                        ]
                      }
                    },
                    "attributes" : {
                      "autoRotateText" : true
                    },
                    "parameters" : {
                      "translation0" : {
                        "type" : "double",
                        "defaultValue" : -820.538865370044,
                        "keyframes" : [
                          {
                            "endTime" : 65,
                            "time" : 35,
                            "value" : -499.16666666668,
                            "duration" : 30
                          }
                        ]
                      },
                      "translation1" : {
                        "type" : "double",
                        "defaultValue" : -34.8120029438978,
                        "keyframes" : [
                          {
                            "endTime" : 65,
                            "time" : 35,
                            "value" : -34.8120029438634,
                            "duration" : 30
                          }
                        ]
                      },
                      "scale0" : {
                        "type" : "double",
                        "defaultValue" : 0.580906148866913,
                        "keyframes" : [
                          {
                            "endTime" : 65,
                            "time" : 35,
                            "value" : 0.580906148866913,
                            "duration" : 30
                          }
                        ]
                      },
                      "scale1" : {
                        "type" : "double",
                        "defaultValue" : 1.43801063442563,
                        "keyframes" : [
                          {
                            "endTime" : 65,
                            "time" : 35,
                            "value" : 1.43801063442563,
                            "duration" : 30
                          }
                        ]
                      }
                    },
                    "effects" : [

                    ],
                    "start" : 35,
                    "duration" : 115,
                    "mediaStart" : 35,
                    "mediaDuration" : 115,
                    "scalar" : 1,
                    "metadata" : {
                      "WinSubProjectDisplayName" : "",
                      "clipSpeedAttribute" : false,
                      "default-legacy-fill-style" : 5.0,
                      "default-legacy-text-callout-vertical-align" : "middle",
                      "default-rotation2" : 0.0,
                      "default-scale0" : 1.0,
                      "default-scale1" : 1.0,
                      "default-text" : "{\\rtf1\\ansi\\ansicpg1252\\deff0\\deflang1033{\\fonttbl{\\f0\\fswiss\\fprq2\\fcharset0 Arial;}}{\\colortbl ;\\red255\\green255\\blue255;}\\viewkind4\\uc1\\pard\\qc\\cf1\\fs72 abc}",
                      "default-translation0" : 0.0,
                      "default-translation1" : 0.0
                    },
                    "animationTracks" : {
                      "visual" : [
                        {
                          "endTime" : 65,
                          "duration" : 30,
                          "range" : [ 35, 30]
                        }
                      ]
                    }
                  },
                  {
                    "id" : 36,
                    "_type" : "IMFile",
                    "src" : 2,
                    "trackNumber" : 0,
                    "trimStartSum" : 0,
                    "attributes" : {
                      "ident" : "star"
                    },
                    "parameters" : {
                      "translation0" : {
                        "type" : "double",
                        "defaultValue" : -522.733906099372,
                        "interp" : "linr"
                      },
                      "translation1" : {
                        "type" : "double",
                        "defaultValue" : -277.438113851611,
                        "interp" : "linr"
                      },
                      "translation2" : {
                        "type" : "double",
                        "defaultValue" : 0.0,
                        "interp" : "linr"
                      },
                      "rotation0" : {
                        "type" : "double",
                        "defaultValue" : 0.0,
                        "interp" : "linr"
                      },
                      "rotation1" : {
                        "type" : "double",
                        "defaultValue" : 0.0,
                        "interp" : "linr"
                      },
                      "rotation2" : {
                        "type" : "double",
                        "defaultValue" : 0.0,
                        "interp" : "linr"
                      },
                      "shear0" : {
                        "type" : "double",
                        "defaultValue" : 0.0,
                        "interp" : "linr"
                      },
                      "shear1" : {
                        "type" : "double",
                        "defaultValue" : 0.0,
                        "interp" : "linr"
                      },
                      "shear2" : {
                        "type" : "double",
                        "defaultValue" : 0.0,
                        "interp" : "linr"
                      },
                      "scale0" : {
                        "type" : "double",
                        "defaultValue" : 0.344059357782636,
                        "interp" : "linr"
                      },
                      "scale1" : {
                        "type" : "double",
                        "defaultValue" : 0.344059357782636,
                        "interp" : "linr"
                      },
                      "scale2" : {
                        "type" : "double",
                        "defaultValue" : 1.0,
                        "interp" : "linr"
                      },
                      "anchor0" : {
                        "type" : "double",
                        "defaultValue" : 0.0,
                        "interp" : "linr"
                      },
                      "anchor1" : {
                        "type" : "double",
                        "defaultValue" : 0.0,
                        "interp" : "linr"
                      },
                      "anchor2" : {
                        "type" : "double",
                        "defaultValue" : 0.0,
                        "interp" : "linr"
                      },
                      "opacity" : {
                        "type" : "double",
                        "defaultValue" : 1.0,
                        "keyframes" : [
                          {
                            "endTime" : 150,
                            "time" : 120,
                            "value" : 0.0,
                            "duration" : 30
                          }
                        ]
                      }
                    },
                    "effects" : [

                    ],
                    "start" : 31266,
                    "duration" : 150,
                    "mediaStart" : 0,
                    "mediaDuration" : 1,
                    "scalar" : 1,
                    "metadata" : {
                      "WinSubProjectDisplayName" : "",
                      "clipSpeedAttribute" : false,
                      "default-opacity" : 0.0,
                      "default-scale" : "1",
                      "effectApplied" : "none"
                    },
                    "animationTracks" : {
                      "visual" : [
                        {
                          "endTime" : 150,
                          "duration" : 30,
                          "range" : [ 120, 30]
                        }
                      ]
                    }
                  }
                ],
                "transitions" : [
                  {
                    "name" : "Fade",
                    "duration" : 30,
                    "trivial" : true,
                    "reverse" : false,
                    "useAudioPreRoll" : true,
                    "useVisualPreRoll" : true,
                    "leftMedia" : 35
                  },
                  {
                    "name" : "Fade",
                    "duration" : 30,
                    "trivial" : true,
                    "reverse" : false,
                    "useAudioPreRoll" : true,
                    "useVisualPreRoll" : true,
                    "rightMedia" : 36
                  },
                  {
                    "name" : "Fade",
                    "duration" : 30,
                    "trivial" : true,
                    "reverse" : false,
                    "useAudioPreRoll" : true,
                    "useVisualPreRoll" : true,
                    "leftMedia" : 36
                  }
                ]
              },
              {
                "trackIndex" : 8,
                "medias" : [
                  {
                    "id" : 37,
                    "_type" : "IMFile",
                    "src" : 1,
                    "trackNumber" : 0,
                    "trimStartSum" : 0,
                    "attributes" : {
                      "ident" : "codestars_logo"
                    },
                    "parameters" : {
                      "translation0" : {
                        "type" : "double",
                        "defaultValue" : -263.136792317664,
                        "interp" : "linr"
                      },
                      "translation1" : {
                        "type" : "double",
                        "defaultValue" : -271.784183685799,
                        "interp" : "linr"
                      },
                      "translation2" : {
                        "type" : "double",
                        "defaultValue" : 0.0,
                        "interp" : "linr"
                      },
                      "rotation0" : {
                        "type" : "double",
                        "defaultValue" : 0.0,
                        "interp" : "linr"
                      },
                      "rotation1" : {
                        "type" : "double",
                        "defaultValue" : 0.0,
                        "interp" : "linr"
                      },
                      "rotation2" : {
                        "type" : "double",
                        "defaultValue" : 0.0,
                        "interp" : "linr"
                      },
                      "shear0" : {
                        "type" : "double",
                        "defaultValue" : 0.0,
                        "interp" : "linr"
                      },
                      "shear1" : {
                        "type" : "double",
                        "defaultValue" : 0.0,
                        "interp" : "linr"
                      },
                      "shear2" : {
                        "type" : "double",
                        "defaultValue" : 0.0,
                        "interp" : "linr"
                      },
                      "scale0" : {
                        "type" : "double",
                        "defaultValue" : 0.402192662926175,
                        "interp" : "linr"
                      },
                      "scale1" : {
                        "type" : "double",
                        "defaultValue" : 0.402192662926175,
                        "interp" : "linr"
                      },
                      "scale2" : {
                        "type" : "double",
                        "defaultValue" : 1.0,
                        "interp" : "linr"
                      },
                      "anchor0" : {
                        "type" : "double",
                        "defaultValue" : 0.0,
                        "interp" : "linr"
                      },
                      "anchor1" : {
                        "type" : "double",
                        "defaultValue" : 0.0,
                        "interp" : "linr"
                      },
                      "anchor2" : {
                        "type" : "double",
                        "defaultValue" : 0.0,
                        "interp" : "linr"
                      }
                    },
                    "effects" : [

                    ],
                    "start" : 0,
                    "duration" : 150,
                    "mediaStart" : 0,
                    "mediaDuration" : 1,
                    "scalar" : 1,
                    "metadata" : {
                      "WinSubProjectDisplayName" : "",
                      "clipSpeedAttribute" : false,
                      "default-scale" : "1",
                      "effectApplied" : "none"
                    },
                    "animationTracks" : {

                    }
                  },
                  {
                    "id" : 38,
                    "_type" : "IMFile",
                    "src" : 1,
                    "trackNumber" : 0,
                    "trimStartSum" : 0,
                    "attributes" : {
                      "ident" : "codestars_logo"
                    },
                    "parameters" : {
                      "translation0" : {
                        "type" : "double",
                        "defaultValue" : -263.136792317664,
                        "interp" : "linr"
                      },
                      "translation1" : {
                        "type" : "double",
                        "defaultValue" : -271.784183685799,
                        "interp" : "linr"
                      },
                      "translation2" : {
                        "type" : "double",
                        "defaultValue" : 0.0,
                        "interp" : "linr"
                      },
                      "rotation0" : {
                        "type" : "double",
                        "defaultValue" : 0.0,
                        "interp" : "linr"
                      },
                      "rotation1" : {
                        "type" : "double",
                        "defaultValue" : 0.0,
                        "interp" : "linr"
                      },
                      "rotation2" : {
                        "type" : "double",
                        "defaultValue" : 0.0,
                        "interp" : "linr"
                      },
                      "shear0" : {
                        "type" : "double",
                        "defaultValue" : 0.0,
                        "interp" : "linr"
                      },
                      "shear1" : {
                        "type" : "double",
                        "defaultValue" : 0.0,
                        "interp" : "linr"
                      },
                      "shear2" : {
                        "type" : "double",
                        "defaultValue" : 0.0,
                        "interp" : "linr"
                      },
                      "scale0" : {
                        "type" : "double",
                        "defaultValue" : 0.402192662926175,
                        "interp" : "linr"
                      },
                      "scale1" : {
                        "type" : "double",
                        "defaultValue" : 0.402192662926175,
                        "interp" : "linr"
                      },
                      "scale2" : {
                        "type" : "double",
                        "defaultValue" : 1.0,
                        "interp" : "linr"
                      },
                      "anchor0" : {
                        "type" : "double",
                        "defaultValue" : 0.0,
                        "interp" : "linr"
                      },
                      "anchor1" : {
                        "type" : "double",
                        "defaultValue" : 0.0,
                        "interp" : "linr"
                      },
                      "anchor2" : {
                        "type" : "double",
                        "defaultValue" : 0.0,
                        "interp" : "linr"
                      },
                      "opacity" : 0.0
                    },
                    "effects" : [

                    ],
                    "start" : 31266,
                    "duration" : 150,
                    "mediaStart" : 0,
                    "mediaDuration" : 1,
                    "scalar" : 1,
                    "metadata" : {
                      "WinSubProjectDisplayName" : "",
                      "clipSpeedAttribute" : false,
                      "default-scale" : "1",
                      "effectApplied" : "none"
                    },
                    "animationTracks" : {

                    }
                  }
                ],
                "transitions" : [
                  {
                    "name" : "Fade",
                    "duration" : 30,
                    "trivial" : true,
                    "reverse" : false,
                    "useAudioPreRoll" : true,
                    "useVisualPreRoll" : true,
                    "leftMedia" : 37
                  },
                  {
                    "name" : "Fade",
                    "duration" : 30,
                    "trivial" : true,
                    "reverse" : false,
                    "useAudioPreRoll" : true,
                    "useVisualPreRoll" : true,
                    "rightMedia" : 38
                  },
                  {
                    "name" : "Fade",
                    "duration" : 30,
                    "trivial" : true,
                    "reverse" : false,
                    "useAudioPreRoll" : true,
                    "useVisualPreRoll" : true,
                    "leftMedia" : 38
                  }
                ]
              },
              {
                "trackIndex" : 9,
                "medias" : [
                  {
                    "id" : 39,
                    "_type" : "IMFile",
                    "src" : 1,
                    "trackNumber" : 0,
                    "trimStartSum" : 0,
                    "attributes" : {
                      "ident" : "codestars_logo"
                    },
                    "parameters" : {
                      "translation0" : {
                        "type" : "double",
                        "defaultValue" : -263.136792317664,
                        "interp" : "linr"
                      },
                      "translation1" : {
                        "type" : "double",
                        "defaultValue" : -271.784183685799,
                        "interp" : "linr"
                      },
                      "translation2" : {
                        "type" : "double",
                        "defaultValue" : 0.0,
                        "interp" : "linr"
                      },
                      "rotation0" : {
                        "type" : "double",
                        "defaultValue" : 0.0,
                        "interp" : "linr"
                      },
                      "rotation1" : {
                        "type" : "double",
                        "defaultValue" : 0.0,
                        "interp" : "linr"
                      },
                      "rotation2" : {
                        "type" : "double",
                        "defaultValue" : 0.0,
                        "interp" : "linr"
                      },
                      "shear0" : {
                        "type" : "double",
                        "defaultValue" : 0.0,
                        "interp" : "linr"
                      },
                      "shear1" : {
                        "type" : "double",
                        "defaultValue" : 0.0,
                        "interp" : "linr"
                      },
                      "shear2" : {
                        "type" : "double",
                        "defaultValue" : 0.0,
                        "interp" : "linr"
                      },
                      "scale0" : {
                        "type" : "double",
                        "defaultValue" : 0.402192662926175,
                        "interp" : "linr"
                      },
                      "scale1" : {
                        "type" : "double",
                        "defaultValue" : 0.402192662926175,
                        "interp" : "linr"
                      },
                      "scale2" : {
                        "type" : "double",
                        "defaultValue" : 1.0,
                        "interp" : "linr"
                      },
                      "anchor0" : {
                        "type" : "double",
                        "defaultValue" : 0.0,
                        "interp" : "linr"
                      },
                      "anchor1" : {
                        "type" : "double",
                        "defaultValue" : 0.0,
                        "interp" : "linr"
                      },
                      "anchor2" : {
                        "type" : "double",
                        "defaultValue" : 0.0,
                        "interp" : "linr"
                      }
                    },
                    "effects" : [

                    ],
                    "start" : 31266,
                    "duration" : 150,
                    "mediaStart" : 0,
                    "mediaDuration" : 1,
                    "scalar" : 1,
                    "metadata" : {
                      "WinSubProjectDisplayName" : "",
                      "clipSpeedAttribute" : false,
                      "default-scale" : "1",
                      "effectApplied" : "none"
                    },
                    "animationTracks" : {

                    }
                  }
                ],
                "transitions" : [
                  {
                    "name" : "Fade",
                    "duration" : 30,
                    "trivial" : true,
                    "reverse" : false,
                    "useAudioPreRoll" : true,
                    "useVisualPreRoll" : true,
                    "rightMedia" : 39
                  },
                  {
                    "name" : "Fade",
                    "duration" : 30,
                    "trivial" : true,
                    "reverse" : false,
                    "useAudioPreRoll" : true,
                    "useVisualPreRoll" : true,
                    "leftMedia" : 39
                  }
                ]
              },
              {
                "trackIndex" : 10,
                "medias" : [
                  {
                    "id" : 40,
                    "_type" : "Callout",
                    "def" : {
                      "kind" : "TypeWinText",
                      "shape" : "",
                      "style" : "",
                      "Style" : 5.0,
                      "dimensionTime" : 0.0,
                      "height" : 180.0,
                      "line-spacing" : 0.0,
                      "textIgnoresOpacity" : 0.0,
                      "textRectHeight" : 1.0,
                      "textRectWidth" : 1.0,
                      "textRectX" : 0.0,
                      "textRectY" : 0.0,
                      "textVerticalAlign" : -1.0,
                      "width" : 320.0,
                      "filename" : "C:\\Program Files\\TechSmith\\Camtasia 9\\Media\\Studio\\Callouts\\trans_100x100.xml",
                      "horizontal-alignment" : "center",
                      "name" : "Text",
                      "resize-behavior" : "resizeText",
                      "text" : "{\\rtf1\\ansi\\ansicpg1252\\deff0\\nouicompat\\deflang1033{\\fonttbl{\\f0\\fnil\\fcharset0 Quicksand;}}\r\n{\\colortbl ;\\red255\\green255\\blue255;}\r\n{\\*\\generator Riched20 10.0.18362}\\viewkind4\\uc1 \r\n\\pard\\cf1\\f0\\fs80 The Complete\\par\r\n\\b\\fs90 C++ Developer Course\\par\r\n}\r\n",
                      "vertical-alignment" : "center",
                      "xmlContent" : "ï»¿<?xml version=\"1.0\"?>\n\n<Overlay version=\"1.0.1\">\n\n<Overlay_Filename>trans_100x100.png</Overlay_Filename>\n<Overlay_Name>Text</Overlay_Name>\n<Text_Top>0</Text_Top>\n<Text_Left>0</Text_Left>\n<Text_Bottom>0</Text_Bottom>\n<Text_Right>0</Text_Right>\n<Fill_Color>0</Fill_Color>\n<Border_Color>0</Border_Color>\n<Style>5</Style>\n</Overlay>",
                      "textAttributes" : {
                        "type" : "textAttributeList",
                        "keyframes" : [
                          {
                            "endTime" : 0,
                            "time" : 0,
                            "value" : null,
                            "duration" : 0
                          }
                        ]
                      }
                    },
                    "attributes" : {
                      "autoRotateText" : true
                    },
                    "parameters" : {
                      "translation0" : -70.9521418731169,
                      "translation1" : 239.738828503294,
                      "scale0" : 3.12385809835021,
                      "scale1" : 1.00002854389906
                    },
                    "effects" : [

                    ],
                    "start" : 0,
                    "duration" : 150,
                    "mediaStart" : 0,
                    "mediaDuration" : 150,
                    "scalar" : 1,
                    "metadata" : {
                      "WinSubProjectDisplayName" : "",
                      "clipSpeedAttribute" : false,
                      "default-legacy-fill-style" : 5.0,
                      "default-legacy-text-callout-vertical-align" : "middle",
                      "default-scale0" : 1.0,
                      "default-scale1" : 1.0,
                      "default-text" : "{\\rtf1\\ansi\\ansicpg1252\\deff0\\deflang1033{\\fonttbl{\\f0\\fswiss\\fprq2\\fcharset0 Arial;}}{\\colortbl ;\\red255\\green255\\blue255;}\\viewkind4\\uc1\\pard\\qc\\cf1\\fs72 abc}",
                      "default-translation0" : 0.0,
                      "default-translation1" : 0.0
                    },
                    "animationTracks" : {

                    }
                  },
                  {
                    "id" : 41,
                    "_type" : "Callout",
                    "def" : {
                      "kind" : "TypeWinText",
                      "shape" : "",
                      "style" : "",
                      "Style" : 5.0,
                      "dimensionTime" : 0.0,
                      "height" : 180.0,
                      "line-spacing" : 0.0,
                      "textIgnoresOpacity" : 0.0,
                      "textRectHeight" : 1.0,
                      "textRectWidth" : 1.0,
                      "textRectX" : 0.0,
                      "textRectY" : 0.0,
                      "textVerticalAlign" : -1.0,
                      "width" : 320.0,
                      "filename" : "C:\\Program Files\\TechSmith\\Camtasia 9\\Media\\Studio\\Callouts\\trans_100x100.xml",
                      "horizontal-alignment" : "center",
                      "name" : "Text",
                      "resize-behavior" : "resizeText",
                      "text" : "{\\rtf1\\ansi\\ansicpg1252\\deff0\\nouicompat\\deflang1033{\\fonttbl{\\f0\\fnil\\fcharset0 Quicksand;}}\r\n{\\colortbl ;\\red255\\green255\\blue255;}\r\n{\\*\\generator Riched20 10.0.18362}\\viewkind4\\uc1 \r\n\\pard\\cf1\\f0\\fs80 The Complete\\par\r\n\\b\\fs90 C++ Developer Course\\par\r\n}\r\n",
                      "vertical-alignment" : "center",
                      "xmlContent" : "ï»¿<?xml version=\"1.0\"?>\n\n<Overlay version=\"1.0.1\">\n\n<Overlay_Filename>trans_100x100.png</Overlay_Filename>\n<Overlay_Name>Text</Overlay_Name>\n<Text_Top>0</Text_Top>\n<Text_Left>0</Text_Left>\n<Text_Bottom>0</Text_Bottom>\n<Text_Right>0</Text_Right>\n<Fill_Color>0</Fill_Color>\n<Border_Color>0</Border_Color>\n<Style>5</Style>\n</Overlay>",
                      "textAttributes" : {
                        "type" : "textAttributeList",
                        "keyframes" : [
                          {
                            "endTime" : 0,
                            "time" : 0,
                            "value" : null,
                            "duration" : 0
                          }
                        ]
                      }
                    },
                    "attributes" : {
                      "autoRotateText" : true
                    },
                    "parameters" : {
                      "translation0" : -70.9521418731169,
                      "translation1" : 239.738828503294,
                      "scale0" : 3.12385809835021,
                      "scale1" : 1.00002854389906
                    },
                    "effects" : [

                    ],
                    "start" : 31266,
                    "duration" : 150,
                    "mediaStart" : 0,
                    "mediaDuration" : 150,
                    "scalar" : 1,
                    "metadata" : {
                      "WinSubProjectDisplayName" : "",
                      "clipSpeedAttribute" : false,
                      "default-legacy-fill-style" : 5.0,
                      "default-legacy-text-callout-vertical-align" : "middle",
                      "default-scale0" : 1.0,
                      "default-scale1" : 1.0,
                      "default-text" : "{\\rtf1\\ansi\\ansicpg1252\\deff0\\deflang1033{\\fonttbl{\\f0\\fswiss\\fprq2\\fcharset0 Arial;}}{\\colortbl ;\\red255\\green255\\blue255;}\\viewkind4\\uc1\\pard\\qc\\cf1\\fs72 abc}",
                      "default-translation0" : 0.0,
                      "default-translation1" : 0.0
                    },
                    "animationTracks" : {

                    }
                  }
                ],
                "transitions" : [
                  {
                    "name" : "Fade",
                    "duration" : 30,
                    "trivial" : true,
                    "reverse" : false,
                    "useAudioPreRoll" : true,
                    "useVisualPreRoll" : true,
                    "leftMedia" : 40
                  },
                  {
                    "name" : "Fade",
                    "duration" : 30,
                    "trivial" : true,
                    "reverse" : false,
                    "useAudioPreRoll" : true,
                    "useVisualPreRoll" : true,
                    "rightMedia" : 41
                  },
                  {
                    "name" : "Fade",
                    "duration" : 30,
                    "trivial" : true,
                    "reverse" : false,
                    "useAudioPreRoll" : true,
                    "useVisualPreRoll" : true,
                    "leftMedia" : 41
                  }
                ]
              },
              {
                "trackIndex" : 11,
                "medias" : [
                  {
                    "id" : 42,
                    "_type" : "IMFile",
                    "src" : 4,
                    "trackNumber" : 0,
                    "trimStartSum" : 0,
                    "attributes" : {
                      "ident" : "Head"
                    },
                    "parameters" : {
                      "translation0" : 513.825000000109,
                      "translation1" : -179.200000000031,
                      "scale0" : 0.35,
                      "scale1" : 0.35
                    },
                    "effects" : [

                    ],
                    "start" : 0,
                    "duration" : 150,
                    "mediaStart" : 0,
                    "mediaDuration" : 1,
                    "scalar" : 1,
                    "metadata" : {
                      "WinSubProjectDisplayName" : "",
                      "clipSpeedAttribute" : false,
                      "default-scale0" : 0.703125,
                      "default-scale1" : 0.703125,
                      "default-translation0" : 0.0,
                      "default-translation1" : 0.0
                    },
                    "animationTracks" : {

                    }
                  },
                  {
                    "id" : 43,
                    "_type" : "IMFile",
                    "src" : 4,
                    "trackNumber" : 0,
                    "trimStartSum" : 0,
                    "attributes" : {
                      "ident" : "Head"
                    },
                    "parameters" : {
                      "translation0" : 537.015153862789,
                      "translation1" : -206.400000000049,
                      "scale0" : 0.35,
                      "scale1" : 0.35
                    },
                    "effects" : [

                    ],
                    "start" : 31266,
                    "duration" : 150,
                    "mediaStart" : 0,
                    "mediaDuration" : 1,
                    "scalar" : 1,
                    "metadata" : {
                      "WinSubProjectDisplayName" : "",
                      "clipSpeedAttribute" : false,
                      "default-scale0" : 0.703125,
                      "default-scale1" : 0.703125,
                      "default-translation0" : 0.0,
                      "default-translation1" : 0.0
                    },
                    "animationTracks" : {

                    }
                  }
                ],
                "transitions" : [
                  {
                    "name" : "Fade",
                    "duration" : 30,
                    "trivial" : false,
                    "reverse" : false,
                    "useAudioPreRoll" : true,
                    "useVisualPreRoll" : true,
                    "leftMedia" : 42
                  },
                  {
                    "name" : "Fade",
                    "duration" : 30,
                    "trivial" : false,
                    "reverse" : false,
                    "useAudioPreRoll" : true,
                    "useVisualPreRoll" : true,
                    "rightMedia" : 43
                  },
                  {
                    "name" : "Fade",
                    "duration" : 30,
                    "trivial" : false,
                    "reverse" : false,
                    "useAudioPreRoll" : true,
                    "useVisualPreRoll" : true,
                    "leftMedia" : 43
                  }
                ]
              },
              {
                "trackIndex" : 12,
                "medias" : [
                  {
                    "id" : 44,
                    "_type" : "IMFile",
                    "src" : 5,
                    "trackNumber" : 0,
                    "trimStartSum" : 30,
                    "attributes" : {
                      "ident" : "Slide1"
                    },
                    "effects" : [

                    ],
                    "start" : 150,
                    "duration" : 678,
                    "mediaStart" : 0,
                    "mediaDuration" : 1,
                    "scalar" : 1,
                    "metadata" : {
                      "clipSpeedAttribute" : false
                    },
                    "animationTracks" : {

                    }
                  },
                  {
                    "id" : 45,
                    "_type" : "IMFile",
                    "src" : 5,
                    "trackNumber" : 0,
                    "trimStartSum" : 721,
                    "attributes" : {
                      "ident" : "Slide1"
                    },
                    "effects" : [

                    ],
                    "start" : 828,
                    "duration" : 606,
                    "mediaStart" : 0,
                    "mediaDuration" : 1,
                    "scalar" : 1,
                    "metadata" : {
                      "clipSpeedAttribute" : false
                    },
                    "animationTracks" : {

                    }
                  },
                  {
                    "id" : 46,
                    "_type" : "IMFile",
                    "src" : 5,
                    "trackNumber" : 0,
                    "trimStartSum" : 1338,
                    "attributes" : {
                      "ident" : "Slide1"
                    },
                    "effects" : [

                    ],
                    "start" : 1434,
                    "duration" : 1734,
                    "mediaStart" : 0,
                    "mediaDuration" : 1,
                    "scalar" : 1,
                    "metadata" : {
                      "clipSpeedAttribute" : false
                    },
                    "animationTracks" : {

                    }
                  },
                  {
                    "id" : 47,
                    "_type" : "IMFile",
                    "src" : 5,
                    "trackNumber" : 0,
                    "trimStartSum" : 1783,
                    "attributes" : {
                      "ident" : "Slide1"
                    },
                    "effects" : [

                    ],
                    "start" : 3168,
                    "duration" : 5,
                    "mediaStart" : 0,
                    "mediaDuration" : 1,
                    "scalar" : 1,
                    "metadata" : {
                      "clipSpeedAttribute" : false
                    },
                    "animationTracks" : {

                    }
                  },
                  {
                    "id" : 48,
                    "_type" : "IMFile",
                    "src" : 5,
                    "trackNumber" : 0,
                    "trimStartSum" : 1826,
                    "attributes" : {
                      "ident" : "Slide1"
                    },
                    "effects" : [

                    ],
                    "start" : 3173,
                    "duration" : 55,
                    "mediaStart" : 0,
                    "mediaDuration" : 1,
                    "scalar" : 1,
                    "metadata" : {
                      "clipSpeedAttribute" : false
                    },
                    "animationTracks" : {

                    }
                  },
                  {
                    "id" : 49,
                    "_type" : "StitchedMedia",
                    "minMediaStart" : 0,
                    "attributes" : {
                      "ident" : "Rec 05-03-20_003",
                      "gain" : 1.0,
                      "mixToMono" : false
                    },
                    "parameters" : {
                      "translation0" : {
                        "type" : "double",
                        "defaultValue" : 0.0,
                        "keyframes" : [
                          {
                            "endTime" : 2541,
                            "time" : 2511,
                            "value" : 41.782438587128,
                            "duration" : 30
                          },
                          {
                            "endTime" : 2934,
                            "time" : 2904,
                            "value" : -348.186569995875,
                            "duration" : 30
                          },
                          {
                            "endTime" : 3023,
                            "time" : 2993,
                            "value" : -26.9844081163076,
                            "duration" : 30
                          },
                          {
                            "endTime" : 3119,
                            "time" : 3089,
                            "value" : 348.186423202785,
                            "duration" : 30
                          }
                        ]
                      },
                      "translation1" : {
                        "type" : "double",
                        "defaultValue" : 0.0,
                        "keyframes" : [
                          {
                            "endTime" : 2541,
                            "time" : 2511,
                            "value" : -23.5025925317154,
                            "duration" : 30
                          },
                          {
                            "endTime" : 2934,
                            "time" : 2904,
                            "value" : -195.854967649388,
                            "duration" : 30
                          },
                          {
                            "endTime" : 3023,
                            "time" : 2993,
                            "value" : -39.1709882644091,
                            "duration" : 30
                          },
                          {
                            "endTime" : 3119,
                            "time" : 3089,
                            "value" : -195.854967649388,
                            "duration" : 30
                          }
                        ]
                      },
                      "scale0" : {
                        "type" : "double",
                        "defaultValue" : 0.666666666666667,
                        "keyframes" : [
                          {
                            "endTime" : 2541,
                            "time" : 2511,
                            "value" : 1.02936093394747,
                            "duration" : 30
                          },
                          {
                            "endTime" : 2934,
                            "time" : 2904,
                            "value" : 1.02936083781452,
                            "duration" : 30
                          },
                          {
                            "endTime" : 3023,
                            "time" : 2993,
                            "value" : 1.02936083649684,
                            "duration" : 30
                          }
                        ]
                      },
                      "scale1" : {
                        "type" : "double",
                        "defaultValue" : 0.666666666666667,
                        "keyframes" : [
                          {
                            "endTime" : 2541,
                            "time" : 2511,
                            "value" : 1.0293610485672,
                            "duration" : 30
                          }
                        ]
                      },
                      "volume" : 1.0,
                      "cursorOpacity" : 1.0,
                      "cursorScale" : 1.0
                    },
                    "medias" : [
                        {
                          "id" : 50,
                          "_type" : "UnifiedMedia",
                          "video" : 
                              {
                                "id" : 51,
                                "_type" : "ScreenVMFile",
                                "src" : 17,
                                "trackNumber" : 0,
                                "attributes" : {
                                  "ident" : "Rec 05-03-20_003"
                                },
                                "parameters" : {
                                  "cursorScale" : {
                                    "type" : "double",
                                    "defaultValue" : 0.0,
                                    "interp" : "linr"
                                  },
                                  "cursorOpacity" : {
                                    "type" : "double",
                                    "defaultValue" : 0.0,
                                    "interp" : "linr"
                                  }
                                },
                                "effects" : [

                                ],
                                "start" : 0,
                                "duration" : 3123,
                                "mediaStart" : 0,
                                "mediaDuration" : 3123,
                                "scalar" : 1,
                                "animationTracks" : {

                                }
                              },
                          "audio" : 
                              {
                                "id" : 52,
                                "_type" : "AMFile",
                                "src" : 17,
                                "trackNumber" : 2,
                                "attributes" : {
                                  "ident" : "",
                                  "gain" : 1.0,
                                  "mixToMono" : false
                                },
                                  "channelNumber" : "0,1",
                                "effects" : [

                                ],
                                "start" : 0,
                                "duration" : 3123,
                                "mediaStart" : 0,
                                "mediaDuration" : 3123,
                                "scalar" : 1,
                                "animationTracks" : {

                                }
                              }
,
                          "start" : 0,
                          "duration" : 3123,
                          "mediaStart" : 0,
                          "mediaDuration" : 34687,
                          "scalar" : 1,
                          "metadata" : {
                            "AutoAppliedSmartFocus" : "False",
                            "clipSpeedAttribute" : false,
                            "default-scale0" : 0.666666666666667,
                            "default-scale1" : 0.666666666666667,
                            "default-translation0" : 0.0,
                            "default-translation1" : 0.0
                          }
                        },
                        {
                          "id" : 53,
                          "_type" : "UnifiedMedia",
                          "video" : 
                              {
                                "id" : 54,
                                "_type" : "ScreenVMFile",
                                "src" : 17,
                                "trackNumber" : 0,
                                "attributes" : {
                                  "ident" : "Rec 05-03-20_003"
                                },
                                "parameters" : {
                                  "cursorScale" : {
                                    "type" : "double",
                                    "defaultValue" : 0.0,
                                    "interp" : "linr"
                                  },
                                  "cursorOpacity" : {
                                    "type" : "double",
                                    "defaultValue" : 0.0,
                                    "interp" : "linr"
                                  }
                                },
                                "effects" : [

                                ],
                                "start" : 3123,
                                "duration" : 1368,
                                "mediaStart" : 3228,
                                "mediaDuration" : 1368,
                                "scalar" : 1,
                                "animationTracks" : {

                                }
                              },
                          "audio" : 
                              {
                                "id" : 55,
                                "_type" : "AMFile",
                                "src" : 17,
                                "trackNumber" : 2,
                                "attributes" : {
                                  "ident" : "",
                                  "gain" : 1.0,
                                  "mixToMono" : false
                                },
                                  "channelNumber" : "0,1",
                                "effects" : [

                                ],
                                "start" : 3123,
                                "duration" : 1368,
                                "mediaStart" : 3228,
                                "mediaDuration" : 1368,
                                "scalar" : 1,
                                "animationTracks" : {

                                }
                              }
,
                          "start" : 3123,
                          "duration" : 1368,
                          "mediaStart" : 0,
                          "mediaDuration" : 34687,
                          "scalar" : 1,
                          "metadata" : {
                            "AutoAppliedSmartFocus" : "False",
                            "clipSpeedAttribute" : false,
                            "default-scale0" : 0.666666666666667,
                            "default-scale1" : 0.666666666666667,
                            "default-translation0" : 0.0,
                            "default-translation1" : 0.0
                          }
                        },
                        {
                          "id" : 56,
                          "_type" : "UnifiedMedia",
                          "video" : 
                              {
                                "id" : 57,
                                "_type" : "ScreenVMFile",
                                "src" : 17,
                                "trackNumber" : 0,
                                "attributes" : {
                                  "ident" : "Rec 05-03-20_003"
                                },
                                "parameters" : {
                                  "cursorScale" : {
                                    "type" : "double",
                                    "defaultValue" : 0.0,
                                    "interp" : "linr"
                                  },
                                  "cursorOpacity" : {
                                    "type" : "double",
                                    "defaultValue" : 0.0,
                                    "interp" : "linr"
                                  }
                                },
                                "effects" : [

                                ],
                                "start" : 4491,
                                "duration" : 134,
                                "mediaStart" : 4832,
                                "mediaDuration" : 134,
                                "scalar" : 1,
                                "animationTracks" : {

                                }
                              },
                          "audio" : 
                              {
                                "id" : 58,
                                "_type" : "AMFile",
                                "src" : 17,
                                "trackNumber" : 2,
                                "attributes" : {
                                  "ident" : "",
                                  "gain" : 1.0,
                                  "mixToMono" : false
                                },
                                  "channelNumber" : "0,1",
                                "effects" : [

                                ],
                                "start" : 4491,
                                "duration" : 134,
                                "mediaStart" : 4832,
                                "mediaDuration" : 134,
                                "scalar" : 1,
                                "animationTracks" : {

                                }
                              }
,
                          "start" : 4491,
                          "duration" : 134,
                          "mediaStart" : 0,
                          "mediaDuration" : 34687,
                          "scalar" : 1,
                          "metadata" : {
                            "AutoAppliedSmartFocus" : "False",
                            "clipSpeedAttribute" : false,
                            "default-scale0" : 0.666666666666667,
                            "default-scale1" : 0.666666666666667,
                            "default-translation0" : 0.0,
                            "default-translation1" : 0.0
                          }
                        },
                        {
                          "id" : 59,
                          "_type" : "UnifiedMedia",
                          "video" : 
                              {
                                "id" : 60,
                                "_type" : "ScreenVMFile",
                                "src" : 17,
                                "trackNumber" : 0,
                                "attributes" : {
                                  "ident" : "Rec 05-03-20_003"
                                },
                                "parameters" : {
                                  "cursorScale" : {
                                    "type" : "double",
                                    "defaultValue" : 0.0,
                                    "interp" : "linr"
                                  },
                                  "cursorOpacity" : {
                                    "type" : "double",
                                    "defaultValue" : 0.0,
                                    "interp" : "linr"
                                  }
                                },
                                "effects" : [

                                ],
                                "start" : 4625,
                                "duration" : 649,
                                "mediaStart" : 5071,
                                "mediaDuration" : 649,
                                "scalar" : 1,
                                "animationTracks" : {

                                }
                              },
                          "audio" : 
                              {
                                "id" : 61,
                                "_type" : "AMFile",
                                "src" : 17,
                                "trackNumber" : 2,
                                "attributes" : {
                                  "ident" : "",
                                  "gain" : 1.0,
                                  "mixToMono" : false
                                },
                                  "channelNumber" : "0,1",
                                "effects" : [

                                ],
                                "start" : 4625,
                                "duration" : 649,
                                "mediaStart" : 5071,
                                "mediaDuration" : 649,
                                "scalar" : 1,
                                "animationTracks" : {

                                }
                              }
,
                          "start" : 4625,
                          "duration" : 649,
                          "mediaStart" : 0,
                          "mediaDuration" : 34687,
                          "scalar" : 1,
                          "metadata" : {
                            "AutoAppliedSmartFocus" : "False",
                            "clipSpeedAttribute" : false,
                            "default-scale0" : 0.666666666666667,
                            "default-scale1" : 0.666666666666667,
                            "default-translation0" : 0.0,
                            "default-translation1" : 0.0
                          }
                        },
                        {
                          "id" : 62,
                          "_type" : "UnifiedMedia",
                          "video" : 
                              {
                                "id" : 63,
                                "_type" : "ScreenVMFile",
                                "src" : 17,
                                "trackNumber" : 0,
                                "attributes" : {
                                  "ident" : "Rec 05-03-20_003"
                                },
                                "parameters" : {
                                  "cursorScale" : {
                                    "type" : "double",
                                    "defaultValue" : 0.0,
                                    "interp" : "linr"
                                  },
                                  "cursorOpacity" : {
                                    "type" : "double",
                                    "defaultValue" : 0.0,
                                    "interp" : "linr"
                                  }
                                },
                                "effects" : [

                                ],
                                "start" : 5274,
                                "duration" : 5186,
                                "mediaStart" : 6466,
                                "mediaDuration" : 5186,
                                "scalar" : 1,
                                "animationTracks" : {

                                }
                              },
                          "audio" : 
                              {
                                "id" : 64,
                                "_type" : "AMFile",
                                "src" : 17,
                                "trackNumber" : 2,
                                "attributes" : {
                                  "ident" : "",
                                  "gain" : 1.0,
                                  "mixToMono" : false
                                },
                                  "channelNumber" : "0,1",
                                "effects" : [

                                ],
                                "start" : 5274,
                                "duration" : 5186,
                                "mediaStart" : 6466,
                                "mediaDuration" : 5186,
                                "scalar" : 1,
                                "animationTracks" : {

                                }
                              }
,
                          "start" : 5274,
                          "duration" : 5186,
                          "mediaStart" : 0,
                          "mediaDuration" : 34687,
                          "scalar" : 1,
                          "metadata" : {
                            "AutoAppliedSmartFocus" : "False",
                            "clipSpeedAttribute" : false,
                            "default-scale0" : 0.666666666666667,
                            "default-scale1" : 0.666666666666667,
                            "default-translation0" : 0.0,
                            "default-translation1" : 0.0
                          }
                        },
                        {
                          "id" : 65,
                          "_type" : "UnifiedMedia",
                          "video" : 
                              {
                                "id" : 66,
                                "_type" : "ScreenVMFile",
                                "src" : 17,
                                "trackNumber" : 0,
                                "attributes" : {
                                  "ident" : "Rec 05-03-20_003"
                                },
                                "parameters" : {
                                  "cursorScale" : {
                                    "type" : "double",
                                    "defaultValue" : 0.0,
                                    "interp" : "linr"
                                  },
                                  "cursorOpacity" : {
                                    "type" : "double",
                                    "defaultValue" : 0.0,
                                    "interp" : "linr"
                                  }
                                },
                                "effects" : [

                                ],
                                "start" : 10460,
                                "duration" : 178,
                                "mediaStart" : 11815,
                                "mediaDuration" : 178,
                                "scalar" : 1,
                                "animationTracks" : {

                                }
                              },
                          "audio" : 
                              {
                                "id" : 67,
                                "_type" : "AMFile",
                                "src" : 17,
                                "trackNumber" : 2,
                                "attributes" : {
                                  "ident" : "",
                                  "gain" : 1.0,
                                  "mixToMono" : false
                                },
                                  "channelNumber" : "0,1",
                                "effects" : [

                                ],
                                "start" : 10460,
                                "duration" : 178,
                                "mediaStart" : 11815,
                                "mediaDuration" : 178,
                                "scalar" : 1,
                                "animationTracks" : {

                                }
                              }
,
                          "start" : 10460,
                          "duration" : 178,
                          "mediaStart" : 0,
                          "mediaDuration" : 34687,
                          "scalar" : 1,
                          "metadata" : {
                            "AutoAppliedSmartFocus" : "False",
                            "clipSpeedAttribute" : false,
                            "default-scale0" : 0.666666666666667,
                            "default-scale1" : 0.666666666666667,
                            "default-translation0" : 0.0,
                            "default-translation1" : 0.0
                          }
                        },
                        {
                          "id" : 68,
                          "_type" : "UnifiedMedia",
                          "video" : 
                              {
                                "id" : 69,
                                "_type" : "ScreenVMFile",
                                "src" : 17,
                                "trackNumber" : 0,
                                "attributes" : {
                                  "ident" : "Rec 05-03-20_003"
                                },
                                "parameters" : {
                                  "cursorScale" : {
                                    "type" : "double",
                                    "defaultValue" : 0.0,
                                    "interp" : "linr"
                                  },
                                  "cursorOpacity" : {
                                    "type" : "double",
                                    "defaultValue" : 0.0,
                                    "interp" : "linr"
                                  }
                                },
                                "effects" : [

                                ],
                                "start" : 10638,
                                "duration" : 1185,
                                "mediaStart" : 12432,
                                "mediaDuration" : 1185,
                                "scalar" : 1,
                                "animationTracks" : {

                                }
                              },
                          "audio" : 
                              {
                                "id" : 70,
                                "_type" : "AMFile",
                                "src" : 17,
                                "trackNumber" : 2,
                                "attributes" : {
                                  "ident" : "",
                                  "gain" : 1.0,
                                  "mixToMono" : false
                                },
                                  "channelNumber" : "0,1",
                                "effects" : [

                                ],
                                "start" : 10638,
                                "duration" : 1185,
                                "mediaStart" : 12432,
                                "mediaDuration" : 1185,
                                "scalar" : 1,
                                "animationTracks" : {

                                }
                              }
,
                          "start" : 10638,
                          "duration" : 1185,
                          "mediaStart" : 0,
                          "mediaDuration" : 34687,
                          "scalar" : 1,
                          "metadata" : {
                            "AutoAppliedSmartFocus" : "False",
                            "clipSpeedAttribute" : false,
                            "default-scale0" : 0.666666666666667,
                            "default-scale1" : 0.666666666666667,
                            "default-translation0" : 0.0,
                            "default-translation1" : 0.0
                          }
                        },
                        {
                          "id" : 71,
                          "_type" : "UnifiedMedia",
                          "video" : 
                              {
                                "id" : 72,
                                "_type" : "ScreenVMFile",
                                "src" : 17,
                                "trackNumber" : 0,
                                "attributes" : {
                                  "ident" : "Rec 05-03-20_003"
                                },
                                "parameters" : {
                                  "cursorScale" : {
                                    "type" : "double",
                                    "defaultValue" : 0.0,
                                    "interp" : "linr"
                                  },
                                  "cursorOpacity" : {
                                    "type" : "double",
                                    "defaultValue" : 0.0,
                                    "interp" : "linr"
                                  }
                                },
                                "effects" : [

                                ],
                                "start" : 11823,
                                "duration" : 41,
                                "mediaStart" : 13639,
                                "mediaDuration" : 41,
                                "scalar" : 1,
                                "animationTracks" : {

                                }
                              },
                          "audio" : 
                              {
                                "id" : 73,
                                "_type" : "AMFile",
                                "src" : 17,
                                "trackNumber" : 2,
                                "attributes" : {
                                  "ident" : "",
                                  "gain" : 1.0,
                                  "mixToMono" : false
                                },
                                  "channelNumber" : "0,1",
                                "effects" : [

                                ],
                                "start" : 11823,
                                "duration" : 41,
                                "mediaStart" : 13639,
                                "mediaDuration" : 41,
                                "scalar" : 1,
                                "animationTracks" : {

                                }
                              }
,
                          "start" : 11823,
                          "duration" : 41,
                          "mediaStart" : 0,
                          "mediaDuration" : 34687,
                          "scalar" : 1,
                          "metadata" : {
                            "AutoAppliedSmartFocus" : "False",
                            "clipSpeedAttribute" : false,
                            "default-scale0" : 0.666666666666667,
                            "default-scale1" : 0.666666666666667,
                            "default-translation0" : 0.0,
                            "default-translation1" : 0.0
                          }
                        },
                        {
                          "id" : 74,
                          "_type" : "UnifiedMedia",
                          "video" : 
                              {
                                "id" : 75,
                                "_type" : "ScreenVMFile",
                                "src" : 17,
                                "trackNumber" : 0,
                                "attributes" : {
                                  "ident" : "Rec 05-03-20_003"
                                },
                                "parameters" : {
                                  "cursorScale" : {
                                    "type" : "double",
                                    "defaultValue" : 0.0,
                                    "interp" : "linr"
                                  },
                                  "cursorOpacity" : {
                                    "type" : "double",
                                    "defaultValue" : 0.0,
                                    "interp" : "linr"
                                  }
                                },
                                "effects" : [

                                ],
                                "start" : 11864,
                                "duration" : 20032,
                                "mediaStart" : 14655,
                                "mediaDuration" : 20032,
                                "scalar" : 1,
                                "animationTracks" : {

                                }
                              },
                          "audio" : 
                              {
                                "id" : 76,
                                "_type" : "AMFile",
                                "src" : 17,
                                "trackNumber" : 2,
                                "attributes" : {
                                  "ident" : "",
                                  "gain" : 1.0,
                                  "mixToMono" : false
                                },
                                  "channelNumber" : "0,1",
                                "effects" : [

                                ],
                                "start" : 11864,
                                "duration" : 20032,
                                "mediaStart" : 14655,
                                "mediaDuration" : 20032,
                                "scalar" : 1,
                                "animationTracks" : {

                                }
                              }
,
                          "start" : 11864,
                          "duration" : 20032,
                          "mediaStart" : 0,
                          "mediaDuration" : 34687,
                          "scalar" : 1,
                          "metadata" : {
                            "AutoAppliedSmartFocus" : "False",
                            "clipSpeedAttribute" : false,
                            "default-scale0" : 0.666666666666667,
                            "default-scale1" : 0.666666666666667,
                            "default-translation0" : 0.0,
                            "default-translation1" : 0.0
                          }
                        }
                    ],
                    "effects" : [

                    ],
                    "start" : 3228,
                    "duration" : 10117,
                    "mediaStart" : 2443,
                    "mediaDuration" : 10117,
                    "scalar" : 1,
                    "metadata" : {
                      "AutoAppliedSmartFocus" : "False",
                      "clipSpeedAttribute" : false
                    },
                    "animationTracks" : {
                      "visual" : [
                        {
                          "endTime" : 2541,
                          "duration" : 30,
                          "range" : [ 2511, 30]
                        },
                        {
                          "endTime" : 2934,
                          "duration" : 30,
                          "range" : [ 2904, 30]
                        },
                        {
                          "endTime" : 3023,
                          "duration" : 30,
                          "range" : [ 2993, 30]
                        },
                        {
                          "endTime" : 3119,
                          "duration" : 30,
                          "range" : [ 3089, 30]
                        }
                      ]
                    }
                  },
                  {
                    "id" : 77,
                    "_type" : "StitchedMedia",
                    "minMediaStart" : 0,
                    "attributes" : {
                      "ident" : "Rec 05-03-20_003",
                      "gain" : 1.0,
                      "mixToMono" : false
                    },
                    "parameters" : {
                      "translation0" : {
                        "type" : "double",
                        "defaultValue" : 0.0,
                        "keyframes" : [
                          {
                            "endTime" : 2541,
                            "time" : 2511,
                            "value" : 41.782438587128,
                            "duration" : 30
                          },
                          {
                            "endTime" : 2934,
                            "time" : 2904,
                            "value" : -348.186569995875,
                            "duration" : 30
                          },
                          {
                            "endTime" : 3023,
                            "time" : 2993,
                            "value" : -26.9844081163076,
                            "duration" : 30
                          },
                          {
                            "endTime" : 3119,
                            "time" : 3089,
                            "value" : 348.186423202785,
                            "duration" : 30
                          }
                        ]
                      },
                      "translation1" : {
                        "type" : "double",
                        "defaultValue" : 0.0,
                        "keyframes" : [
                          {
                            "endTime" : 2541,
                            "time" : 2511,
                            "value" : -23.5025925317154,
                            "duration" : 30
                          },
                          {
                            "endTime" : 2934,
                            "time" : 2904,
                            "value" : -195.854967649388,
                            "duration" : 30
                          },
                          {
                            "endTime" : 3023,
                            "time" : 2993,
                            "value" : -39.1709882644091,
                            "duration" : 30
                          },
                          {
                            "endTime" : 3119,
                            "time" : 3089,
                            "value" : -195.854967649388,
                            "duration" : 30
                          }
                        ]
                      },
                      "scale0" : {
                        "type" : "double",
                        "defaultValue" : 0.666666666666667,
                        "keyframes" : [
                          {
                            "endTime" : 2541,
                            "time" : 2511,
                            "value" : 1.02936093394747,
                            "duration" : 30
                          },
                          {
                            "endTime" : 2934,
                            "time" : 2904,
                            "value" : 1.02936083781452,
                            "duration" : 30
                          },
                          {
                            "endTime" : 3023,
                            "time" : 2993,
                            "value" : 1.02936083649684,
                            "duration" : 30
                          }
                        ]
                      },
                      "scale1" : {
                        "type" : "double",
                        "defaultValue" : 0.666666666666667,
                        "keyframes" : [
                          {
                            "endTime" : 2541,
                            "time" : 2511,
                            "value" : 1.0293610485672,
                            "duration" : 30
                          }
                        ]
                      },
                      "volume" : 1.0,
                      "cursorOpacity" : 1.0,
                      "cursorScale" : 1.0
                    },
                    "medias" : [
                        {
                          "id" : 78,
                          "_type" : "UnifiedMedia",
                          "video" : 
                              {
                                "id" : 79,
                                "_type" : "ScreenVMFile",
                                "src" : 17,
                                "trackNumber" : 0,
                                "attributes" : {
                                  "ident" : "Rec 05-03-20_003"
                                },
                                "parameters" : {
                                  "cursorScale" : {
                                    "type" : "double",
                                    "defaultValue" : 0.0,
                                    "interp" : "linr"
                                  },
                                  "cursorOpacity" : {
                                    "type" : "double",
                                    "defaultValue" : 0.0,
                                    "interp" : "linr"
                                  }
                                },
                                "effects" : [

                                ],
                                "start" : 0,
                                "duration" : 3123,
                                "mediaStart" : 0,
                                "mediaDuration" : 3123,
                                "scalar" : 1,
                                "animationTracks" : {

                                }
                              },
                          "audio" : 
                              {
                                "id" : 80,
                                "_type" : "AMFile",
                                "src" : 17,
                                "trackNumber" : 2,
                                "attributes" : {
                                  "ident" : "",
                                  "gain" : 1.0,
                                  "mixToMono" : false
                                },
                                  "channelNumber" : "0,1",
                                "effects" : [

                                ],
                                "start" : 0,
                                "duration" : 3123,
                                "mediaStart" : 0,
                                "mediaDuration" : 3123,
                                "scalar" : 1,
                                "animationTracks" : {

                                }
                              }
,
                          "start" : 0,
                          "duration" : 3123,
                          "mediaStart" : 0,
                          "mediaDuration" : 34687,
                          "scalar" : 1,
                          "metadata" : {
                            "AutoAppliedSmartFocus" : "False",
                            "clipSpeedAttribute" : false,
                            "default-scale0" : 0.666666666666667,
                            "default-scale1" : 0.666666666666667,
                            "default-translation0" : 0.0,
                            "default-translation1" : 0.0
                          }
                        },
                        {
                          "id" : 81,
                          "_type" : "UnifiedMedia",
                          "video" : 
                              {
                                "id" : 82,
                                "_type" : "ScreenVMFile",
                                "src" : 17,
                                "trackNumber" : 0,
                                "attributes" : {
                                  "ident" : "Rec 05-03-20_003"
                                },
                                "parameters" : {
                                  "cursorScale" : {
                                    "type" : "double",
                                    "defaultValue" : 0.0,
                                    "interp" : "linr"
                                  },
                                  "cursorOpacity" : {
                                    "type" : "double",
                                    "defaultValue" : 0.0,
                                    "interp" : "linr"
                                  }
                                },
                                "effects" : [

                                ],
                                "start" : 3123,
                                "duration" : 1368,
                                "mediaStart" : 3228,
                                "mediaDuration" : 1368,
                                "scalar" : 1,
                                "animationTracks" : {

                                }
                              },
                          "audio" : 
                              {
                                "id" : 83,
                                "_type" : "AMFile",
                                "src" : 17,
                                "trackNumber" : 2,
                                "attributes" : {
                                  "ident" : "",
                                  "gain" : 1.0,
                                  "mixToMono" : false
                                },
                                  "channelNumber" : "0,1",
                                "effects" : [

                                ],
                                "start" : 3123,
                                "duration" : 1368,
                                "mediaStart" : 3228,
                                "mediaDuration" : 1368,
                                "scalar" : 1,
                                "animationTracks" : {

                                }
                              }
,
                          "start" : 3123,
                          "duration" : 1368,
                          "mediaStart" : 0,
                          "mediaDuration" : 34687,
                          "scalar" : 1,
                          "metadata" : {
                            "AutoAppliedSmartFocus" : "False",
                            "clipSpeedAttribute" : false,
                            "default-scale0" : 0.666666666666667,
                            "default-scale1" : 0.666666666666667,
                            "default-translation0" : 0.0,
                            "default-translation1" : 0.0
                          }
                        },
                        {
                          "id" : 84,
                          "_type" : "UnifiedMedia",
                          "video" : 
                              {
                                "id" : 85,
                                "_type" : "ScreenVMFile",
                                "src" : 17,
                                "trackNumber" : 0,
                                "attributes" : {
                                  "ident" : "Rec 05-03-20_003"
                                },
                                "parameters" : {
                                  "cursorScale" : {
                                    "type" : "double",
                                    "defaultValue" : 0.0,
                                    "interp" : "linr"
                                  },
                                  "cursorOpacity" : {
                                    "type" : "double",
                                    "defaultValue" : 0.0,
                                    "interp" : "linr"
                                  }
                                },
                                "effects" : [

                                ],
                                "start" : 4491,
                                "duration" : 134,
                                "mediaStart" : 4832,
                                "mediaDuration" : 134,
                                "scalar" : 1,
                                "animationTracks" : {

                                }
                              },
                          "audio" : 
                              {
                                "id" : 86,
                                "_type" : "AMFile",
                                "src" : 17,
                                "trackNumber" : 2,
                                "attributes" : {
                                  "ident" : "",
                                  "gain" : 1.0,
                                  "mixToMono" : false
                                },
                                  "channelNumber" : "0,1",
                                "effects" : [

                                ],
                                "start" : 4491,
                                "duration" : 134,
                                "mediaStart" : 4832,
                                "mediaDuration" : 134,
                                "scalar" : 1,
                                "animationTracks" : {

                                }
                              }
,
                          "start" : 4491,
                          "duration" : 134,
                          "mediaStart" : 0,
                          "mediaDuration" : 34687,
                          "scalar" : 1,
                          "metadata" : {
                            "AutoAppliedSmartFocus" : "False",
                            "clipSpeedAttribute" : false,
                            "default-scale0" : 0.666666666666667,
                            "default-scale1" : 0.666666666666667,
                            "default-translation0" : 0.0,
                            "default-translation1" : 0.0
                          }
                        },
                        {
                          "id" : 87,
                          "_type" : "UnifiedMedia",
                          "video" : 
                              {
                                "id" : 88,
                                "_type" : "ScreenVMFile",
                                "src" : 17,
                                "trackNumber" : 0,
                                "attributes" : {
                                  "ident" : "Rec 05-03-20_003"
                                },
                                "parameters" : {
                                  "cursorScale" : {
                                    "type" : "double",
                                    "defaultValue" : 0.0,
                                    "interp" : "linr"
                                  },
                                  "cursorOpacity" : {
                                    "type" : "double",
                                    "defaultValue" : 0.0,
                                    "interp" : "linr"
                                  }
                                },
                                "effects" : [

                                ],
                                "start" : 4625,
                                "duration" : 649,
                                "mediaStart" : 5071,
                                "mediaDuration" : 649,
                                "scalar" : 1,
                                "animationTracks" : {

                                }
                              },
                          "audio" : 
                              {
                                "id" : 89,
                                "_type" : "AMFile",
                                "src" : 17,
                                "trackNumber" : 2,
                                "attributes" : {
                                  "ident" : "",
                                  "gain" : 1.0,
                                  "mixToMono" : false
                                },
                                  "channelNumber" : "0,1",
                                "effects" : [

                                ],
                                "start" : 4625,
                                "duration" : 649,
                                "mediaStart" : 5071,
                                "mediaDuration" : 649,
                                "scalar" : 1,
                                "animationTracks" : {

                                }
                              }
,
                          "start" : 4625,
                          "duration" : 649,
                          "mediaStart" : 0,
                          "mediaDuration" : 34687,
                          "scalar" : 1,
                          "metadata" : {
                            "AutoAppliedSmartFocus" : "False",
                            "clipSpeedAttribute" : false,
                            "default-scale0" : 0.666666666666667,
                            "default-scale1" : 0.666666666666667,
                            "default-translation0" : 0.0,
                            "default-translation1" : 0.0
                          }
                        },
                        {
                          "id" : 90,
                          "_type" : "UnifiedMedia",
                          "video" : 
                              {
                                "id" : 91,
                                "_type" : "ScreenVMFile",
                                "src" : 17,
                                "trackNumber" : 0,
                                "attributes" : {
                                  "ident" : "Rec 05-03-20_003"
                                },
                                "parameters" : {
                                  "cursorScale" : {
                                    "type" : "double",
                                    "defaultValue" : 0.0,
                                    "interp" : "linr"
                                  },
                                  "cursorOpacity" : {
                                    "type" : "double",
                                    "defaultValue" : 0.0,
                                    "interp" : "linr"
                                  }
                                },
                                "effects" : [

                                ],
                                "start" : 5274,
                                "duration" : 5186,
                                "mediaStart" : 6466,
                                "mediaDuration" : 5186,
                                "scalar" : 1,
                                "animationTracks" : {

                                }
                              },
                          "audio" : 
                              {
                                "id" : 92,
                                "_type" : "AMFile",
                                "src" : 17,
                                "trackNumber" : 2,
                                "attributes" : {
                                  "ident" : "",
                                  "gain" : 1.0,
                                  "mixToMono" : false
                                },
                                  "channelNumber" : "0,1",
                                "effects" : [

                                ],
                                "start" : 5274,
                                "duration" : 5186,
                                "mediaStart" : 6466,
                                "mediaDuration" : 5186,
                                "scalar" : 1,
                                "animationTracks" : {

                                }
                              }
,
                          "start" : 5274,
                          "duration" : 5186,
                          "mediaStart" : 0,
                          "mediaDuration" : 34687,
                          "scalar" : 1,
                          "metadata" : {
                            "AutoAppliedSmartFocus" : "False",
                            "clipSpeedAttribute" : false,
                            "default-scale0" : 0.666666666666667,
                            "default-scale1" : 0.666666666666667,
                            "default-translation0" : 0.0,
                            "default-translation1" : 0.0
                          }
                        },
                        {
                          "id" : 93,
                          "_type" : "UnifiedMedia",
                          "video" : 
                              {
                                "id" : 94,
                                "_type" : "ScreenVMFile",
                                "src" : 17,
                                "trackNumber" : 0,
                                "attributes" : {
                                  "ident" : "Rec 05-03-20_003"
                                },
                                "parameters" : {
                                  "cursorScale" : {
                                    "type" : "double",
                                    "defaultValue" : 0.0,
                                    "interp" : "linr"
                                  },
                                  "cursorOpacity" : {
                                    "type" : "double",
                                    "defaultValue" : 0.0,
                                    "interp" : "linr"
                                  }
                                },
                                "effects" : [

                                ],
                                "start" : 10460,
                                "duration" : 178,
                                "mediaStart" : 11815,
                                "mediaDuration" : 178,
                                "scalar" : 1,
                                "animationTracks" : {

                                }
                              },
                          "audio" : 
                              {
                                "id" : 95,
                                "_type" : "AMFile",
                                "src" : 17,
                                "trackNumber" : 2,
                                "attributes" : {
                                  "ident" : "",
                                  "gain" : 1.0,
                                  "mixToMono" : false
                                },
                                  "channelNumber" : "0,1",
                                "effects" : [

                                ],
                                "start" : 10460,
                                "duration" : 178,
                                "mediaStart" : 11815,
                                "mediaDuration" : 178,
                                "scalar" : 1,
                                "animationTracks" : {

                                }
                              }
,
                          "start" : 10460,
                          "duration" : 178,
                          "mediaStart" : 0,
                          "mediaDuration" : 34687,
                          "scalar" : 1,
                          "metadata" : {
                            "AutoAppliedSmartFocus" : "False",
                            "clipSpeedAttribute" : false,
                            "default-scale0" : 0.666666666666667,
                            "default-scale1" : 0.666666666666667,
                            "default-translation0" : 0.0,
                            "default-translation1" : 0.0
                          }
                        },
                        {
                          "id" : 96,
                          "_type" : "UnifiedMedia",
                          "video" : 
                              {
                                "id" : 97,
                                "_type" : "ScreenVMFile",
                                "src" : 17,
                                "trackNumber" : 0,
                                "attributes" : {
                                  "ident" : "Rec 05-03-20_003"
                                },
                                "parameters" : {
                                  "cursorScale" : {
                                    "type" : "double",
                                    "defaultValue" : 0.0,
                                    "interp" : "linr"
                                  },
                                  "cursorOpacity" : {
                                    "type" : "double",
                                    "defaultValue" : 0.0,
                                    "interp" : "linr"
                                  }
                                },
                                "effects" : [

                                ],
                                "start" : 10638,
                                "duration" : 1185,
                                "mediaStart" : 12432,
                                "mediaDuration" : 1185,
                                "scalar" : 1,
                                "animationTracks" : {

                                }
                              },
                          "audio" : 
                              {
                                "id" : 98,
                                "_type" : "AMFile",
                                "src" : 17,
                                "trackNumber" : 2,
                                "attributes" : {
                                  "ident" : "",
                                  "gain" : 1.0,
                                  "mixToMono" : false
                                },
                                  "channelNumber" : "0,1",
                                "effects" : [

                                ],
                                "start" : 10638,
                                "duration" : 1185,
                                "mediaStart" : 12432,
                                "mediaDuration" : 1185,
                                "scalar" : 1,
                                "animationTracks" : {

                                }
                              }
,
                          "start" : 10638,
                          "duration" : 1185,
                          "mediaStart" : 0,
                          "mediaDuration" : 34687,
                          "scalar" : 1,
                          "metadata" : {
                            "AutoAppliedSmartFocus" : "False",
                            "clipSpeedAttribute" : false,
                            "default-scale0" : 0.666666666666667,
                            "default-scale1" : 0.666666666666667,
                            "default-translation0" : 0.0,
                            "default-translation1" : 0.0
                          }
                        },
                        {
                          "id" : 99,
                          "_type" : "UnifiedMedia",
                          "video" : 
                              {
                                "id" : 100,
                                "_type" : "ScreenVMFile",
                                "src" : 17,
                                "trackNumber" : 0,
                                "attributes" : {
                                  "ident" : "Rec 05-03-20_003"
                                },
                                "parameters" : {
                                  "cursorScale" : {
                                    "type" : "double",
                                    "defaultValue" : 0.0,
                                    "interp" : "linr"
                                  },
                                  "cursorOpacity" : {
                                    "type" : "double",
                                    "defaultValue" : 0.0,
                                    "interp" : "linr"
                                  }
                                },
                                "effects" : [

                                ],
                                "start" : 11823,
                                "duration" : 41,
                                "mediaStart" : 13639,
                                "mediaDuration" : 41,
                                "scalar" : 1,
                                "animationTracks" : {

                                }
                              },
                          "audio" : 
                              {
                                "id" : 101,
                                "_type" : "AMFile",
                                "src" : 17,
                                "trackNumber" : 2,
                                "attributes" : {
                                  "ident" : "",
                                  "gain" : 1.0,
                                  "mixToMono" : false
                                },
                                  "channelNumber" : "0,1",
                                "effects" : [

                                ],
                                "start" : 11823,
                                "duration" : 41,
                                "mediaStart" : 13639,
                                "mediaDuration" : 41,
                                "scalar" : 1,
                                "animationTracks" : {

                                }
                              }
,
                          "start" : 11823,
                          "duration" : 41,
                          "mediaStart" : 0,
                          "mediaDuration" : 34687,
                          "scalar" : 1,
                          "metadata" : {
                            "AutoAppliedSmartFocus" : "False",
                            "clipSpeedAttribute" : false,
                            "default-scale0" : 0.666666666666667,
                            "default-scale1" : 0.666666666666667,
                            "default-translation0" : 0.0,
                            "default-translation1" : 0.0
                          }
                        },
                        {
                          "id" : 102,
                          "_type" : "UnifiedMedia",
                          "video" : 
                              {
                                "id" : 103,
                                "_type" : "ScreenVMFile",
                                "src" : 17,
                                "trackNumber" : 0,
                                "attributes" : {
                                  "ident" : "Rec 05-03-20_003"
                                },
                                "parameters" : {
                                  "cursorScale" : {
                                    "type" : "double",
                                    "defaultValue" : 0.0,
                                    "interp" : "linr"
                                  },
                                  "cursorOpacity" : {
                                    "type" : "double",
                                    "defaultValue" : 0.0,
                                    "interp" : "linr"
                                  }
                                },
                                "effects" : [

                                ],
                                "start" : 11864,
                                "duration" : 20032,
                                "mediaStart" : 14655,
                                "mediaDuration" : 20032,
                                "scalar" : 1,
                                "animationTracks" : {

                                }
                              },
                          "audio" : 
                              {
                                "id" : 104,
                                "_type" : "AMFile",
                                "src" : 17,
                                "trackNumber" : 2,
                                "attributes" : {
                                  "ident" : "",
                                  "gain" : 1.0,
                                  "mixToMono" : false
                                },
                                  "channelNumber" : "0,1",
                                "effects" : [

                                ],
                                "start" : 11864,
                                "duration" : 20032,
                                "mediaStart" : 14655,
                                "mediaDuration" : 20032,
                                "scalar" : 1,
                                "animationTracks" : {

                                }
                              }
,
                          "start" : 11864,
                          "duration" : 20032,
                          "mediaStart" : 0,
                          "mediaDuration" : 34687,
                          "scalar" : 1,
                          "metadata" : {
                            "AutoAppliedSmartFocus" : "False",
                            "clipSpeedAttribute" : false,
                            "default-scale0" : 0.666666666666667,
                            "default-scale1" : 0.666666666666667,
                            "default-translation0" : 0.0,
                            "default-translation1" : 0.0
                          }
                        }
                    ],
                    "effects" : [

                    ],
                    "start" : 13352,
                    "duration" : 50,
                    "mediaStart" : 12560,
                    "mediaDuration" : 50,
                    "scalar" : 1,
                    "metadata" : {
                      "AutoAppliedSmartFocus" : "False",
                      "clipSpeedAttribute" : false
                    },
                    "animationTracks" : {
                      "visual" : [
                        {
                          "endTime" : 2541,
                          "duration" : 30,
                          "range" : [ 2511, 30]
                        },
                        {
                          "endTime" : 2934,
                          "duration" : 30,
                          "range" : [ 2904, 30]
                        },
                        {
                          "endTime" : 3023,
                          "duration" : 30,
                          "range" : [ 2993, 30]
                        },
                        {
                          "endTime" : 3119,
                          "duration" : 30,
                          "range" : [ 3089, 30]
                        }
                      ]
                    }
                  },
                  {
                    "id" : 105,
                    "_type" : "StitchedMedia",
                    "minMediaStart" : 0,
                    "attributes" : {
                      "ident" : "Rec 05-03-20_003",
                      "gain" : 1.0,
                      "mixToMono" : false
                    },
                    "parameters" : {
                      "translation0" : {
                        "type" : "double",
                        "defaultValue" : 0.0,
                        "keyframes" : [
                          {
                            "endTime" : 2541,
                            "time" : 2511,
                            "value" : 41.782438587128,
                            "duration" : 30
                          },
                          {
                            "endTime" : 2934,
                            "time" : 2904,
                            "value" : -348.186569995875,
                            "duration" : 30
                          },
                          {
                            "endTime" : 3023,
                            "time" : 2993,
                            "value" : -26.9844081163076,
                            "duration" : 30
                          },
                          {
                            "endTime" : 3119,
                            "time" : 3089,
                            "value" : 348.186423202785,
                            "duration" : 30
                          }
                        ]
                      },
                      "translation1" : {
                        "type" : "double",
                        "defaultValue" : 0.0,
                        "keyframes" : [
                          {
                            "endTime" : 2541,
                            "time" : 2511,
                            "value" : -23.5025925317154,
                            "duration" : 30
                          },
                          {
                            "endTime" : 2934,
                            "time" : 2904,
                            "value" : -195.854967649388,
                            "duration" : 30
                          },
                          {
                            "endTime" : 3023,
                            "time" : 2993,
                            "value" : -39.1709882644091,
                            "duration" : 30
                          },
                          {
                            "endTime" : 3119,
                            "time" : 3089,
                            "value" : -195.854967649388,
                            "duration" : 30
                          }
                        ]
                      },
                      "scale0" : {
                        "type" : "double",
                        "defaultValue" : 0.666666666666667,
                        "keyframes" : [
                          {
                            "endTime" : 2541,
                            "time" : 2511,
                            "value" : 1.02936093394747,
                            "duration" : 30
                          },
                          {
                            "endTime" : 2934,
                            "time" : 2904,
                            "value" : 1.02936083781452,
                            "duration" : 30
                          },
                          {
                            "endTime" : 3023,
                            "time" : 2993,
                            "value" : 1.02936083649684,
                            "duration" : 30
                          }
                        ]
                      },
                      "scale1" : {
                        "type" : "double",
                        "defaultValue" : 0.666666666666667,
                        "keyframes" : [
                          {
                            "endTime" : 2541,
                            "time" : 2511,
                            "value" : 1.0293610485672,
                            "duration" : 30
                          }
                        ]
                      },
                      "volume" : 1.0,
                      "cursorOpacity" : 1.0,
                      "cursorScale" : 1.0
                    },
                    "medias" : [
                        {
                          "id" : 106,
                          "_type" : "UnifiedMedia",
                          "video" : 
                              {
                                "id" : 107,
                                "_type" : "ScreenVMFile",
                                "src" : 17,
                                "trackNumber" : 0,
                                "attributes" : {
                                  "ident" : "Rec 05-03-20_003"
                                },
                                "parameters" : {
                                  "cursorScale" : {
                                    "type" : "double",
                                    "defaultValue" : 0.0,
                                    "interp" : "linr"
                                  },
                                  "cursorOpacity" : {
                                    "type" : "double",
                                    "defaultValue" : 0.0,
                                    "interp" : "linr"
                                  }
                                },
                                "effects" : [

                                ],
                                "start" : 0,
                                "duration" : 3123,
                                "mediaStart" : 0,
                                "mediaDuration" : 3123,
                                "scalar" : 1,
                                "animationTracks" : {

                                }
                              },
                          "audio" : 
                              {
                                "id" : 108,
                                "_type" : "AMFile",
                                "src" : 17,
                                "trackNumber" : 2,
                                "attributes" : {
                                  "ident" : "",
                                  "gain" : 1.0,
                                  "mixToMono" : false
                                },
                                  "channelNumber" : "0,1",
                                "effects" : [

                                ],
                                "start" : 0,
                                "duration" : 3123,
                                "mediaStart" : 0,
                                "mediaDuration" : 3123,
                                "scalar" : 1,
                                "animationTracks" : {

                                }
                              }
,
                          "start" : 0,
                          "duration" : 3123,
                          "mediaStart" : 0,
                          "mediaDuration" : 34687,
                          "scalar" : 1,
                          "metadata" : {
                            "AutoAppliedSmartFocus" : "False",
                            "clipSpeedAttribute" : false,
                            "default-scale0" : 0.666666666666667,
                            "default-scale1" : 0.666666666666667,
                            "default-translation0" : 0.0,
                            "default-translation1" : 0.0
                          }
                        },
                        {
                          "id" : 109,
                          "_type" : "UnifiedMedia",
                          "video" : 
                              {
                                "id" : 110,
                                "_type" : "ScreenVMFile",
                                "src" : 17,
                                "trackNumber" : 0,
                                "attributes" : {
                                  "ident" : "Rec 05-03-20_003"
                                },
                                "parameters" : {
                                  "cursorScale" : {
                                    "type" : "double",
                                    "defaultValue" : 0.0,
                                    "interp" : "linr"
                                  },
                                  "cursorOpacity" : {
                                    "type" : "double",
                                    "defaultValue" : 0.0,
                                    "interp" : "linr"
                                  }
                                },
                                "effects" : [

                                ],
                                "start" : 3123,
                                "duration" : 1368,
                                "mediaStart" : 3228,
                                "mediaDuration" : 1368,
                                "scalar" : 1,
                                "animationTracks" : {

                                }
                              },
                          "audio" : 
                              {
                                "id" : 111,
                                "_type" : "AMFile",
                                "src" : 17,
                                "trackNumber" : 2,
                                "attributes" : {
                                  "ident" : "",
                                  "gain" : 1.0,
                                  "mixToMono" : false
                                },
                                  "channelNumber" : "0,1",
                                "effects" : [

                                ],
                                "start" : 3123,
                                "duration" : 1368,
                                "mediaStart" : 3228,
                                "mediaDuration" : 1368,
                                "scalar" : 1,
                                "animationTracks" : {

                                }
                              }
,
                          "start" : 3123,
                          "duration" : 1368,
                          "mediaStart" : 0,
                          "mediaDuration" : 34687,
                          "scalar" : 1,
                          "metadata" : {
                            "AutoAppliedSmartFocus" : "False",
                            "clipSpeedAttribute" : false,
                            "default-scale0" : 0.666666666666667,
                            "default-scale1" : 0.666666666666667,
                            "default-translation0" : 0.0,
                            "default-translation1" : 0.0
                          }
                        },
                        {
                          "id" : 112,
                          "_type" : "UnifiedMedia",
                          "video" : 
                              {
                                "id" : 113,
                                "_type" : "ScreenVMFile",
                                "src" : 17,
                                "trackNumber" : 0,
                                "attributes" : {
                                  "ident" : "Rec 05-03-20_003"
                                },
                                "parameters" : {
                                  "cursorScale" : {
                                    "type" : "double",
                                    "defaultValue" : 0.0,
                                    "interp" : "linr"
                                  },
                                  "cursorOpacity" : {
                                    "type" : "double",
                                    "defaultValue" : 0.0,
                                    "interp" : "linr"
                                  }
                                },
                                "effects" : [

                                ],
                                "start" : 4491,
                                "duration" : 134,
                                "mediaStart" : 4832,
                                "mediaDuration" : 134,
                                "scalar" : 1,
                                "animationTracks" : {

                                }
                              },
                          "audio" : 
                              {
                                "id" : 114,
                                "_type" : "AMFile",
                                "src" : 17,
                                "trackNumber" : 2,
                                "attributes" : {
                                  "ident" : "",
                                  "gain" : 1.0,
                                  "mixToMono" : false
                                },
                                  "channelNumber" : "0,1",
                                "effects" : [

                                ],
                                "start" : 4491,
                                "duration" : 134,
                                "mediaStart" : 4832,
                                "mediaDuration" : 134,
                                "scalar" : 1,
                                "animationTracks" : {

                                }
                              }
,
                          "start" : 4491,
                          "duration" : 134,
                          "mediaStart" : 0,
                          "mediaDuration" : 34687,
                          "scalar" : 1,
                          "metadata" : {
                            "AutoAppliedSmartFocus" : "False",
                            "clipSpeedAttribute" : false,
                            "default-scale0" : 0.666666666666667,
                            "default-scale1" : 0.666666666666667,
                            "default-translation0" : 0.0,
                            "default-translation1" : 0.0
                          }
                        },
                        {
                          "id" : 115,
                          "_type" : "UnifiedMedia",
                          "video" : 
                              {
                                "id" : 116,
                                "_type" : "ScreenVMFile",
                                "src" : 17,
                                "trackNumber" : 0,
                                "attributes" : {
                                  "ident" : "Rec 05-03-20_003"
                                },
                                "parameters" : {
                                  "cursorScale" : {
                                    "type" : "double",
                                    "defaultValue" : 0.0,
                                    "interp" : "linr"
                                  },
                                  "cursorOpacity" : {
                                    "type" : "double",
                                    "defaultValue" : 0.0,
                                    "interp" : "linr"
                                  }
                                },
                                "effects" : [

                                ],
                                "start" : 4625,
                                "duration" : 649,
                                "mediaStart" : 5071,
                                "mediaDuration" : 649,
                                "scalar" : 1,
                                "animationTracks" : {

                                }
                              },
                          "audio" : 
                              {
                                "id" : 117,
                                "_type" : "AMFile",
                                "src" : 17,
                                "trackNumber" : 2,
                                "attributes" : {
                                  "ident" : "",
                                  "gain" : 1.0,
                                  "mixToMono" : false
                                },
                                  "channelNumber" : "0,1",
                                "effects" : [

                                ],
                                "start" : 4625,
                                "duration" : 649,
                                "mediaStart" : 5071,
                                "mediaDuration" : 649,
                                "scalar" : 1,
                                "animationTracks" : {

                                }
                              }
,
                          "start" : 4625,
                          "duration" : 649,
                          "mediaStart" : 0,
                          "mediaDuration" : 34687,
                          "scalar" : 1,
                          "metadata" : {
                            "AutoAppliedSmartFocus" : "False",
                            "clipSpeedAttribute" : false,
                            "default-scale0" : 0.666666666666667,
                            "default-scale1" : 0.666666666666667,
                            "default-translation0" : 0.0,
                            "default-translation1" : 0.0
                          }
                        },
                        {
                          "id" : 118,
                          "_type" : "UnifiedMedia",
                          "video" : 
                              {
                                "id" : 119,
                                "_type" : "ScreenVMFile",
                                "src" : 17,
                                "trackNumber" : 0,
                                "attributes" : {
                                  "ident" : "Rec 05-03-20_003"
                                },
                                "parameters" : {
                                  "cursorScale" : {
                                    "type" : "double",
                                    "defaultValue" : 0.0,
                                    "interp" : "linr"
                                  },
                                  "cursorOpacity" : {
                                    "type" : "double",
                                    "defaultValue" : 0.0,
                                    "interp" : "linr"
                                  }
                                },
                                "effects" : [

                                ],
                                "start" : 5274,
                                "duration" : 5186,
                                "mediaStart" : 6466,
                                "mediaDuration" : 5186,
                                "scalar" : 1,
                                "animationTracks" : {

                                }
                              },
                          "audio" : 
                              {
                                "id" : 120,
                                "_type" : "AMFile",
                                "src" : 17,
                                "trackNumber" : 2,
                                "attributes" : {
                                  "ident" : "",
                                  "gain" : 1.0,
                                  "mixToMono" : false
                                },
                                  "channelNumber" : "0,1",
                                "effects" : [

                                ],
                                "start" : 5274,
                                "duration" : 5186,
                                "mediaStart" : 6466,
                                "mediaDuration" : 5186,
                                "scalar" : 1,
                                "animationTracks" : {

                                }
                              }
,
                          "start" : 5274,
                          "duration" : 5186,
                          "mediaStart" : 0,
                          "mediaDuration" : 34687,
                          "scalar" : 1,
                          "metadata" : {
                            "AutoAppliedSmartFocus" : "False",
                            "clipSpeedAttribute" : false,
                            "default-scale0" : 0.666666666666667,
                            "default-scale1" : 0.666666666666667,
                            "default-translation0" : 0.0,
                            "default-translation1" : 0.0
                          }
                        },
                        {
                          "id" : 121,
                          "_type" : "UnifiedMedia",
                          "video" : 
                              {
                                "id" : 122,
                                "_type" : "ScreenVMFile",
                                "src" : 17,
                                "trackNumber" : 0,
                                "attributes" : {
                                  "ident" : "Rec 05-03-20_003"
                                },
                                "parameters" : {
                                  "cursorScale" : {
                                    "type" : "double",
                                    "defaultValue" : 0.0,
                                    "interp" : "linr"
                                  },
                                  "cursorOpacity" : {
                                    "type" : "double",
                                    "defaultValue" : 0.0,
                                    "interp" : "linr"
                                  }
                                },
                                "effects" : [

                                ],
                                "start" : 10460,
                                "duration" : 178,
                                "mediaStart" : 11815,
                                "mediaDuration" : 178,
                                "scalar" : 1,
                                "animationTracks" : {

                                }
                              },
                          "audio" : 
                              {
                                "id" : 123,
                                "_type" : "AMFile",
                                "src" : 17,
                                "trackNumber" : 2,
                                "attributes" : {
                                  "ident" : "",
                                  "gain" : 1.0,
                                  "mixToMono" : false
                                },
                                  "channelNumber" : "0,1",
                                "effects" : [

                                ],
                                "start" : 10460,
                                "duration" : 178,
                                "mediaStart" : 11815,
                                "mediaDuration" : 178,
                                "scalar" : 1,
                                "animationTracks" : {

                                }
                              }
,
                          "start" : 10460,
                          "duration" : 178,
                          "mediaStart" : 0,
                          "mediaDuration" : 34687,
                          "scalar" : 1,
                          "metadata" : {
                            "AutoAppliedSmartFocus" : "False",
                            "clipSpeedAttribute" : false,
                            "default-scale0" : 0.666666666666667,
                            "default-scale1" : 0.666666666666667,
                            "default-translation0" : 0.0,
                            "default-translation1" : 0.0
                          }
                        },
                        {
                          "id" : 124,
                          "_type" : "UnifiedMedia",
                          "video" : 
                              {
                                "id" : 125,
                                "_type" : "ScreenVMFile",
                                "src" : 17,
                                "trackNumber" : 0,
                                "attributes" : {
                                  "ident" : "Rec 05-03-20_003"
                                },
                                "parameters" : {
                                  "cursorScale" : {
                                    "type" : "double",
                                    "defaultValue" : 0.0,
                                    "interp" : "linr"
                                  },
                                  "cursorOpacity" : {
                                    "type" : "double",
                                    "defaultValue" : 0.0,
                                    "interp" : "linr"
                                  }
                                },
                                "effects" : [

                                ],
                                "start" : 10638,
                                "duration" : 1185,
                                "mediaStart" : 12432,
                                "mediaDuration" : 1185,
                                "scalar" : 1,
                                "animationTracks" : {

                                }
                              },
                          "audio" : 
                              {
                                "id" : 126,
                                "_type" : "AMFile",
                                "src" : 17,
                                "trackNumber" : 2,
                                "attributes" : {
                                  "ident" : "",
                                  "gain" : 1.0,
                                  "mixToMono" : false
                                },
                                  "channelNumber" : "0,1",
                                "effects" : [

                                ],
                                "start" : 10638,
                                "duration" : 1185,
                                "mediaStart" : 12432,
                                "mediaDuration" : 1185,
                                "scalar" : 1,
                                "animationTracks" : {

                                }
                              }
,
                          "start" : 10638,
                          "duration" : 1185,
                          "mediaStart" : 0,
                          "mediaDuration" : 34687,
                          "scalar" : 1,
                          "metadata" : {
                            "AutoAppliedSmartFocus" : "False",
                            "clipSpeedAttribute" : false,
                            "default-scale0" : 0.666666666666667,
                            "default-scale1" : 0.666666666666667,
                            "default-translation0" : 0.0,
                            "default-translation1" : 0.0
                          }
                        },
                        {
                          "id" : 127,
                          "_type" : "UnifiedMedia",
                          "video" : 
                              {
                                "id" : 128,
                                "_type" : "ScreenVMFile",
                                "src" : 17,
                                "trackNumber" : 0,
                                "attributes" : {
                                  "ident" : "Rec 05-03-20_003"
                                },
                                "parameters" : {
                                  "cursorScale" : {
                                    "type" : "double",
                                    "defaultValue" : 0.0,
                                    "interp" : "linr"
                                  },
                                  "cursorOpacity" : {
                                    "type" : "double",
                                    "defaultValue" : 0.0,
                                    "interp" : "linr"
                                  }
                                },
                                "effects" : [

                                ],
                                "start" : 11823,
                                "duration" : 41,
                                "mediaStart" : 13639,
                                "mediaDuration" : 41,
                                "scalar" : 1,
                                "animationTracks" : {

                                }
                              },
                          "audio" : 
                              {
                                "id" : 129,
                                "_type" : "AMFile",
                                "src" : 17,
                                "trackNumber" : 2,
                                "attributes" : {
                                  "ident" : "",
                                  "gain" : 1.0,
                                  "mixToMono" : false
                                },
                                  "channelNumber" : "0,1",
                                "effects" : [

                                ],
                                "start" : 11823,
                                "duration" : 41,
                                "mediaStart" : 13639,
                                "mediaDuration" : 41,
                                "scalar" : 1,
                                "animationTracks" : {

                                }
                              }
,
                          "start" : 11823,
                          "duration" : 41,
                          "mediaStart" : 0,
                          "mediaDuration" : 34687,
                          "scalar" : 1,
                          "metadata" : {
                            "AutoAppliedSmartFocus" : "False",
                            "clipSpeedAttribute" : false,
                            "default-scale0" : 0.666666666666667,
                            "default-scale1" : 0.666666666666667,
                            "default-translation0" : 0.0,
                            "default-translation1" : 0.0
                          }
                        },
                        {
                          "id" : 130,
                          "_type" : "UnifiedMedia",
                          "video" : 
                              {
                                "id" : 131,
                                "_type" : "ScreenVMFile",
                                "src" : 17,
                                "trackNumber" : 0,
                                "attributes" : {
                                  "ident" : "Rec 05-03-20_003"
                                },
                                "parameters" : {
                                  "cursorScale" : {
                                    "type" : "double",
                                    "defaultValue" : 0.0,
                                    "interp" : "linr"
                                  },
                                  "cursorOpacity" : {
                                    "type" : "double",
                                    "defaultValue" : 0.0,
                                    "interp" : "linr"
                                  }
                                },
                                "effects" : [

                                ],
                                "start" : 11864,
                                "duration" : 20032,
                                "mediaStart" : 14655,
                                "mediaDuration" : 20032,
                                "scalar" : 1,
                                "animationTracks" : {

                                }
                              },
                          "audio" : 
                              {
                                "id" : 132,
                                "_type" : "AMFile",
                                "src" : 17,
                                "trackNumber" : 2,
                                "attributes" : {
                                  "ident" : "",
                                  "gain" : 1.0,
                                  "mixToMono" : false
                                },
                                  "channelNumber" : "0,1",
                                "effects" : [

                                ],
                                "start" : 11864,
                                "duration" : 20032,
                                "mediaStart" : 14655,
                                "mediaDuration" : 20032,
                                "scalar" : 1,
                                "animationTracks" : {

                                }
                              }
,
                          "start" : 11864,
                          "duration" : 20032,
                          "mediaStart" : 0,
                          "mediaDuration" : 34687,
                          "scalar" : 1,
                          "metadata" : {
                            "AutoAppliedSmartFocus" : "False",
                            "clipSpeedAttribute" : false,
                            "default-scale0" : 0.666666666666667,
                            "default-scale1" : 0.666666666666667,
                            "default-translation0" : 0.0,
                            "default-translation1" : 0.0
                          }
                        }
                    ],
                    "effects" : [

                    ],
                    "start" : 13411,
                    "duration" : 40,
                    "mediaStart" : 12610,
                    "mediaDuration" : 40,
                    "scalar" : 1,
                    "metadata" : {
                      "AutoAppliedSmartFocus" : "False",
                      "clipSpeedAttribute" : false
                    },
                    "animationTracks" : {
                      "visual" : [
                        {
                          "endTime" : 2541,
                          "duration" : 30,
                          "range" : [ 2511, 30]
                        },
                        {
                          "endTime" : 2934,
                          "duration" : 30,
                          "range" : [ 2904, 30]
                        },
                        {
                          "endTime" : 3023,
                          "duration" : 30,
                          "range" : [ 2993, 30]
                        },
                        {
                          "endTime" : 3119,
                          "duration" : 30,
                          "range" : [ 3089, 30]
                        }
                      ]
                    }
                  },
                  {
                    "id" : 133,
                    "_type" : "StitchedMedia",
                    "minMediaStart" : 0,
                    "attributes" : {
                      "ident" : "Rec 05-03-20_003",
                      "gain" : 1.0,
                      "mixToMono" : false
                    },
                    "parameters" : {
                      "translation0" : {
                        "type" : "double",
                        "defaultValue" : 0.0,
                        "keyframes" : [
                          {
                            "endTime" : 2541,
                            "time" : 2511,
                            "value" : 41.782438587128,
                            "duration" : 30
                          },
                          {
                            "endTime" : 2934,
                            "time" : 2904,
                            "value" : -348.186569995875,
                            "duration" : 30
                          },
                          {
                            "endTime" : 3023,
                            "time" : 2993,
                            "value" : -26.9844081163076,
                            "duration" : 30
                          },
                          {
                            "endTime" : 3119,
                            "time" : 3089,
                            "value" : 348.186423202785,
                            "duration" : 30
                          }
                        ]
                      },
                      "translation1" : {
                        "type" : "double",
                        "defaultValue" : 0.0,
                        "keyframes" : [
                          {
                            "endTime" : 2541,
                            "time" : 2511,
                            "value" : -23.5025925317154,
                            "duration" : 30
                          },
                          {
                            "endTime" : 2934,
                            "time" : 2904,
                            "value" : -195.854967649388,
                            "duration" : 30
                          },
                          {
                            "endTime" : 3023,
                            "time" : 2993,
                            "value" : -39.1709882644091,
                            "duration" : 30
                          },
                          {
                            "endTime" : 3119,
                            "time" : 3089,
                            "value" : -195.854967649388,
                            "duration" : 30
                          }
                        ]
                      },
                      "scale0" : {
                        "type" : "double",
                        "defaultValue" : 0.666666666666667,
                        "keyframes" : [
                          {
                            "endTime" : 2541,
                            "time" : 2511,
                            "value" : 1.02936093394747,
                            "duration" : 30
                          },
                          {
                            "endTime" : 2934,
                            "time" : 2904,
                            "value" : 1.02936083781452,
                            "duration" : 30
                          },
                          {
                            "endTime" : 3023,
                            "time" : 2993,
                            "value" : 1.02936083649684,
                            "duration" : 30
                          }
                        ]
                      },
                      "scale1" : {
                        "type" : "double",
                        "defaultValue" : 0.666666666666667,
                        "keyframes" : [
                          {
                            "endTime" : 2541,
                            "time" : 2511,
                            "value" : 1.0293610485672,
                            "duration" : 30
                          }
                        ]
                      },
                      "volume" : {
                        "type" : "double",
                        "keyframes" : [
                          {
                            "endTime" : 0,
                            "time" : 0,
                            "value" : 1.0,
                            "duration" : 0
                          },
                          {
                            "endTime" : 13210,
                            "time" : 13210,
                            "value" : 1.0,
                            "duration" : 0
                          },
                          {
                            "endTime" : 13211,
                            "time" : 13211,
                            "value" : 0.0,
                            "duration" : 0
                          },
                          {
                            "endTime" : 13245,
                            "time" : 13245,
                            "value" : 0.0,
                            "duration" : 0
                          },
                          {
                            "endTime" : 13246,
                            "time" : 13246,
                            "value" : 1.0,
                            "duration" : 0
                          }
                        ]
                      },
                      "cursorOpacity" : 1.0,
                      "cursorScale" : 1.0
                    },
                    "medias" : [
                        {
                          "id" : 134,
                          "_type" : "UnifiedMedia",
                          "video" : 
                              {
                                "id" : 135,
                                "_type" : "ScreenVMFile",
                                "src" : 17,
                                "trackNumber" : 0,
                                "attributes" : {
                                  "ident" : "Rec 05-03-20_003"
                                },
                                "parameters" : {
                                  "cursorScale" : {
                                    "type" : "double",
                                    "defaultValue" : 0.0,
                                    "interp" : "linr"
                                  },
                                  "cursorOpacity" : {
                                    "type" : "double",
                                    "defaultValue" : 0.0,
                                    "interp" : "linr"
                                  }
                                },
                                "effects" : [

                                ],
                                "start" : 0,
                                "duration" : 3123,
                                "mediaStart" : 0,
                                "mediaDuration" : 3123,
                                "scalar" : 1,
                                "animationTracks" : {

                                }
                              },
                          "audio" : 
                              {
                                "id" : 136,
                                "_type" : "AMFile",
                                "src" : 17,
                                "trackNumber" : 2,
                                "attributes" : {
                                  "ident" : "",
                                  "gain" : 1.0,
                                  "mixToMono" : false
                                },
                                  "channelNumber" : "0,1",
                                "effects" : [

                                ],
                                "start" : 0,
                                "duration" : 3123,
                                "mediaStart" : 0,
                                "mediaDuration" : 3123,
                                "scalar" : 1,
                                "animationTracks" : {

                                }
                              }
,
                          "start" : 0,
                          "duration" : 3123,
                          "mediaStart" : 0,
                          "mediaDuration" : 34687,
                          "scalar" : 1,
                          "metadata" : {
                            "AutoAppliedSmartFocus" : "False",
                            "clipSpeedAttribute" : false,
                            "default-scale0" : 0.666666666666667,
                            "default-scale1" : 0.666666666666667,
                            "default-translation0" : 0.0,
                            "default-translation1" : 0.0
                          }
                        },
                        {
                          "id" : 137,
                          "_type" : "UnifiedMedia",
                          "video" : 
                              {
                                "id" : 138,
                                "_type" : "ScreenVMFile",
                                "src" : 17,
                                "trackNumber" : 0,
                                "attributes" : {
                                  "ident" : "Rec 05-03-20_003"
                                },
                                "parameters" : {
                                  "cursorScale" : {
                                    "type" : "double",
                                    "defaultValue" : 0.0,
                                    "interp" : "linr"
                                  },
                                  "cursorOpacity" : {
                                    "type" : "double",
                                    "defaultValue" : 0.0,
                                    "interp" : "linr"
                                  }
                                },
                                "effects" : [

                                ],
                                "start" : 3123,
                                "duration" : 1368,
                                "mediaStart" : 3228,
                                "mediaDuration" : 1368,
                                "scalar" : 1,
                                "animationTracks" : {

                                }
                              },
                          "audio" : 
                              {
                                "id" : 139,
                                "_type" : "AMFile",
                                "src" : 17,
                                "trackNumber" : 2,
                                "attributes" : {
                                  "ident" : "",
                                  "gain" : 1.0,
                                  "mixToMono" : false
                                },
                                  "channelNumber" : "0,1",
                                "effects" : [

                                ],
                                "start" : 3123,
                                "duration" : 1368,
                                "mediaStart" : 3228,
                                "mediaDuration" : 1368,
                                "scalar" : 1,
                                "animationTracks" : {

                                }
                              }
,
                          "start" : 3123,
                          "duration" : 1368,
                          "mediaStart" : 0,
                          "mediaDuration" : 34687,
                          "scalar" : 1,
                          "metadata" : {
                            "AutoAppliedSmartFocus" : "False",
                            "clipSpeedAttribute" : false,
                            "default-scale0" : 0.666666666666667,
                            "default-scale1" : 0.666666666666667,
                            "default-translation0" : 0.0,
                            "default-translation1" : 0.0
                          }
                        },
                        {
                          "id" : 140,
                          "_type" : "UnifiedMedia",
                          "video" : 
                              {
                                "id" : 141,
                                "_type" : "ScreenVMFile",
                                "src" : 17,
                                "trackNumber" : 0,
                                "attributes" : {
                                  "ident" : "Rec 05-03-20_003"
                                },
                                "parameters" : {
                                  "cursorScale" : {
                                    "type" : "double",
                                    "defaultValue" : 0.0,
                                    "interp" : "linr"
                                  },
                                  "cursorOpacity" : {
                                    "type" : "double",
                                    "defaultValue" : 0.0,
                                    "interp" : "linr"
                                  }
                                },
                                "effects" : [

                                ],
                                "start" : 4491,
                                "duration" : 134,
                                "mediaStart" : 4832,
                                "mediaDuration" : 134,
                                "scalar" : 1,
                                "animationTracks" : {

                                }
                              },
                          "audio" : 
                              {
                                "id" : 142,
                                "_type" : "AMFile",
                                "src" : 17,
                                "trackNumber" : 2,
                                "attributes" : {
                                  "ident" : "",
                                  "gain" : 1.0,
                                  "mixToMono" : false
                                },
                                  "channelNumber" : "0,1",
                                "effects" : [

                                ],
                                "start" : 4491,
                                "duration" : 134,
                                "mediaStart" : 4832,
                                "mediaDuration" : 134,
                                "scalar" : 1,
                                "animationTracks" : {

                                }
                              }
,
                          "start" : 4491,
                          "duration" : 134,
                          "mediaStart" : 0,
                          "mediaDuration" : 34687,
                          "scalar" : 1,
                          "metadata" : {
                            "AutoAppliedSmartFocus" : "False",
                            "clipSpeedAttribute" : false,
                            "default-scale0" : 0.666666666666667,
                            "default-scale1" : 0.666666666666667,
                            "default-translation0" : 0.0,
                            "default-translation1" : 0.0
                          }
                        },
                        {
                          "id" : 143,
                          "_type" : "UnifiedMedia",
                          "video" : 
                              {
                                "id" : 144,
                                "_type" : "ScreenVMFile",
                                "src" : 17,
                                "trackNumber" : 0,
                                "attributes" : {
                                  "ident" : "Rec 05-03-20_003"
                                },
                                "parameters" : {
                                  "cursorScale" : {
                                    "type" : "double",
                                    "defaultValue" : 0.0,
                                    "interp" : "linr"
                                  },
                                  "cursorOpacity" : {
                                    "type" : "double",
                                    "defaultValue" : 0.0,
                                    "interp" : "linr"
                                  }
                                },
                                "effects" : [

                                ],
                                "start" : 4625,
                                "duration" : 649,
                                "mediaStart" : 5071,
                                "mediaDuration" : 649,
                                "scalar" : 1,
                                "animationTracks" : {

                                }
                              },
                          "audio" : 
                              {
                                "id" : 145,
                                "_type" : "AMFile",
                                "src" : 17,
                                "trackNumber" : 2,
                                "attributes" : {
                                  "ident" : "",
                                  "gain" : 1.0,
                                  "mixToMono" : false
                                },
                                  "channelNumber" : "0,1",
                                "effects" : [

                                ],
                                "start" : 4625,
                                "duration" : 649,
                                "mediaStart" : 5071,
                                "mediaDuration" : 649,
                                "scalar" : 1,
                                "animationTracks" : {

                                }
                              }
,
                          "start" : 4625,
                          "duration" : 649,
                          "mediaStart" : 0,
                          "mediaDuration" : 34687,
                          "scalar" : 1,
                          "metadata" : {
                            "AutoAppliedSmartFocus" : "False",
                            "clipSpeedAttribute" : false,
                            "default-scale0" : 0.666666666666667,
                            "default-scale1" : 0.666666666666667,
                            "default-translation0" : 0.0,
                            "default-translation1" : 0.0
                          }
                        },
                        {
                          "id" : 146,
                          "_type" : "UnifiedMedia",
                          "video" : 
                              {
                                "id" : 147,
                                "_type" : "ScreenVMFile",
                                "src" : 17,
                                "trackNumber" : 0,
                                "attributes" : {
                                  "ident" : "Rec 05-03-20_003"
                                },
                                "parameters" : {
                                  "cursorScale" : {
                                    "type" : "double",
                                    "defaultValue" : 0.0,
                                    "interp" : "linr"
                                  },
                                  "cursorOpacity" : {
                                    "type" : "double",
                                    "defaultValue" : 0.0,
                                    "interp" : "linr"
                                  }
                                },
                                "effects" : [

                                ],
                                "start" : 5274,
                                "duration" : 5186,
                                "mediaStart" : 6466,
                                "mediaDuration" : 5186,
                                "scalar" : 1,
                                "animationTracks" : {

                                }
                              },
                          "audio" : 
                              {
                                "id" : 148,
                                "_type" : "AMFile",
                                "src" : 17,
                                "trackNumber" : 2,
                                "attributes" : {
                                  "ident" : "",
                                  "gain" : 1.0,
                                  "mixToMono" : false
                                },
                                  "channelNumber" : "0,1",
                                "effects" : [

                                ],
                                "start" : 5274,
                                "duration" : 5186,
                                "mediaStart" : 6466,
                                "mediaDuration" : 5186,
                                "scalar" : 1,
                                "animationTracks" : {

                                }
                              }
,
                          "start" : 5274,
                          "duration" : 5186,
                          "mediaStart" : 0,
                          "mediaDuration" : 34687,
                          "scalar" : 1,
                          "metadata" : {
                            "AutoAppliedSmartFocus" : "False",
                            "clipSpeedAttribute" : false,
                            "default-scale0" : 0.666666666666667,
                            "default-scale1" : 0.666666666666667,
                            "default-translation0" : 0.0,
                            "default-translation1" : 0.0
                          }
                        },
                        {
                          "id" : 149,
                          "_type" : "UnifiedMedia",
                          "video" : 
                              {
                                "id" : 150,
                                "_type" : "ScreenVMFile",
                                "src" : 17,
                                "trackNumber" : 0,
                                "attributes" : {
                                  "ident" : "Rec 05-03-20_003"
                                },
                                "parameters" : {
                                  "cursorScale" : {
                                    "type" : "double",
                                    "defaultValue" : 0.0,
                                    "interp" : "linr"
                                  },
                                  "cursorOpacity" : {
                                    "type" : "double",
                                    "defaultValue" : 0.0,
                                    "interp" : "linr"
                                  }
                                },
                                "effects" : [

                                ],
                                "start" : 10460,
                                "duration" : 178,
                                "mediaStart" : 11815,
                                "mediaDuration" : 178,
                                "scalar" : 1,
                                "animationTracks" : {

                                }
                              },
                          "audio" : 
                              {
                                "id" : 151,
                                "_type" : "AMFile",
                                "src" : 17,
                                "trackNumber" : 2,
                                "attributes" : {
                                  "ident" : "",
                                  "gain" : 1.0,
                                  "mixToMono" : false
                                },
                                  "channelNumber" : "0,1",
                                "effects" : [

                                ],
                                "start" : 10460,
                                "duration" : 178,
                                "mediaStart" : 11815,
                                "mediaDuration" : 178,
                                "scalar" : 1,
                                "animationTracks" : {

                                }
                              }
,
                          "start" : 10460,
                          "duration" : 178,
                          "mediaStart" : 0,
                          "mediaDuration" : 34687,
                          "scalar" : 1,
                          "metadata" : {
                            "AutoAppliedSmartFocus" : "False",
                            "clipSpeedAttribute" : false,
                            "default-scale0" : 0.666666666666667,
                            "default-scale1" : 0.666666666666667,
                            "default-translation0" : 0.0,
                            "default-translation1" : 0.0
                          }
                        },
                        {
                          "id" : 152,
                          "_type" : "UnifiedMedia",
                          "video" : 
                              {
                                "id" : 153,
                                "_type" : "ScreenVMFile",
                                "src" : 17,
                                "trackNumber" : 0,
                                "attributes" : {
                                  "ident" : "Rec 05-03-20_003"
                                },
                                "parameters" : {
                                  "cursorScale" : {
                                    "type" : "double",
                                    "defaultValue" : 0.0,
                                    "interp" : "linr"
                                  },
                                  "cursorOpacity" : {
                                    "type" : "double",
                                    "defaultValue" : 0.0,
                                    "interp" : "linr"
                                  }
                                },
                                "effects" : [

                                ],
                                "start" : 10638,
                                "duration" : 1185,
                                "mediaStart" : 12432,
                                "mediaDuration" : 1185,
                                "scalar" : 1,
                                "animationTracks" : {

                                }
                              },
                          "audio" : 
                              {
                                "id" : 154,
                                "_type" : "AMFile",
                                "src" : 17,
                                "trackNumber" : 2,
                                "attributes" : {
                                  "ident" : "",
                                  "gain" : 1.0,
                                  "mixToMono" : false
                                },
                                  "channelNumber" : "0,1",
                                "effects" : [

                                ],
                                "start" : 10638,
                                "duration" : 1185,
                                "mediaStart" : 12432,
                                "mediaDuration" : 1185,
                                "scalar" : 1,
                                "animationTracks" : {

                                }
                              }
,
                          "start" : 10638,
                          "duration" : 1185,
                          "mediaStart" : 0,
                          "mediaDuration" : 34687,
                          "scalar" : 1,
                          "metadata" : {
                            "AutoAppliedSmartFocus" : "False",
                            "clipSpeedAttribute" : false,
                            "default-scale0" : 0.666666666666667,
                            "default-scale1" : 0.666666666666667,
                            "default-translation0" : 0.0,
                            "default-translation1" : 0.0
                          }
                        },
                        {
                          "id" : 155,
                          "_type" : "UnifiedMedia",
                          "video" : 
                              {
                                "id" : 156,
                                "_type" : "ScreenVMFile",
                                "src" : 17,
                                "trackNumber" : 0,
                                "attributes" : {
                                  "ident" : "Rec 05-03-20_003"
                                },
                                "parameters" : {
                                  "cursorScale" : {
                                    "type" : "double",
                                    "defaultValue" : 0.0,
                                    "interp" : "linr"
                                  },
                                  "cursorOpacity" : {
                                    "type" : "double",
                                    "defaultValue" : 0.0,
                                    "interp" : "linr"
                                  }
                                },
                                "effects" : [

                                ],
                                "start" : 11823,
                                "duration" : 41,
                                "mediaStart" : 13639,
                                "mediaDuration" : 41,
                                "scalar" : 1,
                                "animationTracks" : {

                                }
                              },
                          "audio" : 
                              {
                                "id" : 157,
                                "_type" : "AMFile",
                                "src" : 17,
                                "trackNumber" : 2,
                                "attributes" : {
                                  "ident" : "",
                                  "gain" : 1.0,
                                  "mixToMono" : false
                                },
                                  "channelNumber" : "0,1",
                                "effects" : [

                                ],
                                "start" : 11823,
                                "duration" : 41,
                                "mediaStart" : 13639,
                                "mediaDuration" : 41,
                                "scalar" : 1,
                                "animationTracks" : {

                                }
                              }
,
                          "start" : 11823,
                          "duration" : 41,
                          "mediaStart" : 0,
                          "mediaDuration" : 34687,
                          "scalar" : 1,
                          "metadata" : {
                            "AutoAppliedSmartFocus" : "False",
                            "clipSpeedAttribute" : false,
                            "default-scale0" : 0.666666666666667,
                            "default-scale1" : 0.666666666666667,
                            "default-translation0" : 0.0,
                            "default-translation1" : 0.0
                          }
                        },
                        {
                          "id" : 158,
                          "_type" : "UnifiedMedia",
                          "video" : 
                              {
                                "id" : 159,
                                "_type" : "ScreenVMFile",
                                "src" : 17,
                                "trackNumber" : 0,
                                "attributes" : {
                                  "ident" : "Rec 05-03-20_003"
                                },
                                "parameters" : {
                                  "cursorScale" : {
                                    "type" : "double",
                                    "defaultValue" : 0.0,
                                    "interp" : "linr"
                                  },
                                  "cursorOpacity" : {
                                    "type" : "double",
                                    "defaultValue" : 0.0,
                                    "interp" : "linr"
                                  }
                                },
                                "effects" : [

                                ],
                                "start" : 11864,
                                "duration" : 1049,
                                "mediaStart" : 14655,
                                "mediaDuration" : 1049,
                                "scalar" : 1,
                                "animationTracks" : {

                                }
                              },
                          "audio" : 
                              {
                                "id" : 160,
                                "_type" : "AMFile",
                                "src" : 17,
                                "trackNumber" : 2,
                                "attributes" : {
                                  "ident" : "",
                                  "gain" : 1.0,
                                  "mixToMono" : false
                                },
                                  "channelNumber" : "0,1",
                                "effects" : [

                                ],
                                "start" : 11864,
                                "duration" : 1049,
                                "mediaStart" : 14655,
                                "mediaDuration" : 1049,
                                "scalar" : 1,
                                "animationTracks" : {

                                }
                              }
,
                          "start" : 11864,
                          "duration" : 1049,
                          "mediaStart" : 0,
                          "mediaDuration" : 34687,
                          "scalar" : 1,
                          "metadata" : {
                            "AutoAppliedSmartFocus" : "False",
                            "clipSpeedAttribute" : false,
                            "default-scale0" : 0.666666666666667,
                            "default-scale1" : 0.666666666666667,
                            "default-translation0" : 0.0,
                            "default-translation1" : 0.0
                          }
                        },
                        {
                          "id" : 161,
                          "_type" : "UnifiedMedia",
                          "video" : 
                              {
                                "id" : 162,
                                "_type" : "ScreenVMFile",
                                "src" : 17,
                                "trackNumber" : 0,
                                "attributes" : {
                                  "ident" : "Rec 05-03-20_003"
                                },
                                "parameters" : {
                                  "cursorScale" : {
                                    "type" : "double",
                                    "defaultValue" : 0.0,
                                    "interp" : "linr"
                                  },
                                  "cursorOpacity" : {
                                    "type" : "double",
                                    "defaultValue" : 0.0,
                                    "interp" : "linr"
                                  }
                                },
                                "effects" : [

                                ],
                                "start" : 12913,
                                "duration" : 18920,
                                "mediaStart" : 15767,
                                "mediaDuration" : 18920,
                                "scalar" : 1,
                                "animationTracks" : {

                                }
                              },
                          "audio" : 
                              {
                                "id" : 163,
                                "_type" : "AMFile",
                                "src" : 17,
                                "trackNumber" : 2,
                                "attributes" : {
                                  "ident" : "",
                                  "gain" : 1.0,
                                  "mixToMono" : false
                                },
                                  "channelNumber" : "0,1",
                                "effects" : [

                                ],
                                "start" : 12913,
                                "duration" : 18920,
                                "mediaStart" : 15767,
                                "mediaDuration" : 18920,
                                "scalar" : 1,
                                "animationTracks" : {

                                }
                              }
,
                          "start" : 12913,
                          "duration" : 18920,
                          "mediaStart" : 0,
                          "mediaDuration" : 34687,
                          "scalar" : 1,
                          "metadata" : {
                            "AutoAppliedSmartFocus" : "False",
                            "clipSpeedAttribute" : false,
                            "default-scale0" : 0.666666666666667,
                            "default-scale1" : 0.666666666666667,
                            "default-translation0" : 0.0,
                            "default-translation1" : 0.0
                          }
                        }
                    ],
                    "effects" : [

                    ],
                    "start" : 13462,
                    "duration" : 592,
                    "mediaStart" : 12650,
                    "mediaDuration" : 592,
                    "scalar" : 1,
                    "metadata" : {
                      "AutoAppliedSmartFocus" : "False",
                      "clipSpeedAttribute" : false
                    },
                    "animationTracks" : {
                      "visual" : [
                        {
                          "endTime" : 2541,
                          "duration" : 30,
                          "range" : [ 2511, 30]
                        },
                        {
                          "endTime" : 2934,
                          "duration" : 30,
                          "range" : [ 2904, 30]
                        },
                        {
                          "endTime" : 3023,
                          "duration" : 30,
                          "range" : [ 2993, 30]
                        },
                        {
                          "endTime" : 3119,
                          "duration" : 30,
                          "range" : [ 3089, 30]
                        }
                      ]
                    }
                  },
                  {
                    "id" : 164,
                    "_type" : "StitchedMedia",
                    "minMediaStart" : 0,
                    "attributes" : {
                      "ident" : "Rec 05-03-20_003",
                      "gain" : 1.0,
                      "mixToMono" : false
                    },
                    "parameters" : {
                      "translation0" : {
                        "type" : "double",
                        "defaultValue" : 0.0,
                        "keyframes" : [
                          {
                            "endTime" : 2541,
                            "time" : 2511,
                            "value" : 41.782438587128,
                            "duration" : 30
                          },
                          {
                            "endTime" : 2934,
                            "time" : 2904,
                            "value" : -348.186569995875,
                            "duration" : 30
                          },
                          {
                            "endTime" : 3023,
                            "time" : 2993,
                            "value" : -26.9844081163076,
                            "duration" : 30
                          },
                          {
                            "endTime" : 3119,
                            "time" : 3089,
                            "value" : 348.186423202785,
                            "duration" : 30
                          }
                        ]
                      },
                      "translation1" : {
                        "type" : "double",
                        "defaultValue" : 0.0,
                        "keyframes" : [
                          {
                            "endTime" : 2541,
                            "time" : 2511,
                            "value" : -23.5025925317154,
                            "duration" : 30
                          },
                          {
                            "endTime" : 2934,
                            "time" : 2904,
                            "value" : -195.854967649388,
                            "duration" : 30
                          },
                          {
                            "endTime" : 3023,
                            "time" : 2993,
                            "value" : -39.1709882644091,
                            "duration" : 30
                          },
                          {
                            "endTime" : 3119,
                            "time" : 3089,
                            "value" : -195.854967649388,
                            "duration" : 30
                          }
                        ]
                      },
                      "scale0" : {
                        "type" : "double",
                        "defaultValue" : 0.666666666666667,
                        "keyframes" : [
                          {
                            "endTime" : 2541,
                            "time" : 2511,
                            "value" : 1.02936093394747,
                            "duration" : 30
                          },
                          {
                            "endTime" : 2934,
                            "time" : 2904,
                            "value" : 1.02936083781452,
                            "duration" : 30
                          },
                          {
                            "endTime" : 3023,
                            "time" : 2993,
                            "value" : 1.02936083649684,
                            "duration" : 30
                          }
                        ]
                      },
                      "scale1" : {
                        "type" : "double",
                        "defaultValue" : 0.666666666666667,
                        "keyframes" : [
                          {
                            "endTime" : 2541,
                            "time" : 2511,
                            "value" : 1.0293610485672,
                            "duration" : 30
                          }
                        ]
                      },
                      "volume" : {
                        "type" : "double",
                        "keyframes" : [
                          {
                            "endTime" : 0,
                            "time" : 0,
                            "value" : 1.0,
                            "duration" : 0
                          },
                          {
                            "endTime" : 13210,
                            "time" : 13210,
                            "value" : 1.0,
                            "duration" : 0
                          },
                          {
                            "endTime" : 13211,
                            "time" : 13211,
                            "value" : 0.0,
                            "duration" : 0
                          },
                          {
                            "endTime" : 13245,
                            "time" : 13245,
                            "value" : 0.0,
                            "duration" : 0
                          },
                          {
                            "endTime" : 13246,
                            "time" : 13246,
                            "value" : 1.0,
                            "duration" : 0
                          }
                        ]
                      },
                      "cursorOpacity" : 1.0,
                      "cursorScale" : 1.0
                    },
                    "medias" : [
                        {
                          "id" : 165,
                          "_type" : "UnifiedMedia",
                          "video" : 
                              {
                                "id" : 166,
                                "_type" : "ScreenVMFile",
                                "src" : 17,
                                "trackNumber" : 0,
                                "attributes" : {
                                  "ident" : "Rec 05-03-20_003"
                                },
                                "parameters" : {
                                  "cursorScale" : {
                                    "type" : "double",
                                    "defaultValue" : 0.0,
                                    "interp" : "linr"
                                  },
                                  "cursorOpacity" : {
                                    "type" : "double",
                                    "defaultValue" : 0.0,
                                    "interp" : "linr"
                                  }
                                },
                                "effects" : [

                                ],
                                "start" : 0,
                                "duration" : 3123,
                                "mediaStart" : 0,
                                "mediaDuration" : 3123,
                                "scalar" : 1,
                                "animationTracks" : {

                                }
                              },
                          "audio" : 
                              {
                                "id" : 167,
                                "_type" : "AMFile",
                                "src" : 17,
                                "trackNumber" : 2,
                                "attributes" : {
                                  "ident" : "",
                                  "gain" : 1.0,
                                  "mixToMono" : false
                                },
                                  "channelNumber" : "0,1",
                                "effects" : [

                                ],
                                "start" : 0,
                                "duration" : 3123,
                                "mediaStart" : 0,
                                "mediaDuration" : 3123,
                                "scalar" : 1,
                                "animationTracks" : {

                                }
                              }
,
                          "start" : 0,
                          "duration" : 3123,
                          "mediaStart" : 0,
                          "mediaDuration" : 34687,
                          "scalar" : 1,
                          "metadata" : {
                            "AutoAppliedSmartFocus" : "False",
                            "clipSpeedAttribute" : false,
                            "default-scale0" : 0.666666666666667,
                            "default-scale1" : 0.666666666666667,
                            "default-translation0" : 0.0,
                            "default-translation1" : 0.0
                          }
                        },
                        {
                          "id" : 168,
                          "_type" : "UnifiedMedia",
                          "video" : 
                              {
                                "id" : 169,
                                "_type" : "ScreenVMFile",
                                "src" : 17,
                                "trackNumber" : 0,
                                "attributes" : {
                                  "ident" : "Rec 05-03-20_003"
                                },
                                "parameters" : {
                                  "cursorScale" : {
                                    "type" : "double",
                                    "defaultValue" : 0.0,
                                    "interp" : "linr"
                                  },
                                  "cursorOpacity" : {
                                    "type" : "double",
                                    "defaultValue" : 0.0,
                                    "interp" : "linr"
                                  }
                                },
                                "effects" : [

                                ],
                                "start" : 3123,
                                "duration" : 1368,
                                "mediaStart" : 3228,
                                "mediaDuration" : 1368,
                                "scalar" : 1,
                                "animationTracks" : {

                                }
                              },
                          "audio" : 
                              {
                                "id" : 170,
                                "_type" : "AMFile",
                                "src" : 17,
                                "trackNumber" : 2,
                                "attributes" : {
                                  "ident" : "",
                                  "gain" : 1.0,
                                  "mixToMono" : false
                                },
                                  "channelNumber" : "0,1",
                                "effects" : [

                                ],
                                "start" : 3123,
                                "duration" : 1368,
                                "mediaStart" : 3228,
                                "mediaDuration" : 1368,
                                "scalar" : 1,
                                "animationTracks" : {

                                }
                              }
,
                          "start" : 3123,
                          "duration" : 1368,
                          "mediaStart" : 0,
                          "mediaDuration" : 34687,
                          "scalar" : 1,
                          "metadata" : {
                            "AutoAppliedSmartFocus" : "False",
                            "clipSpeedAttribute" : false,
                            "default-scale0" : 0.666666666666667,
                            "default-scale1" : 0.666666666666667,
                            "default-translation0" : 0.0,
                            "default-translation1" : 0.0
                          }
                        },
                        {
                          "id" : 171,
                          "_type" : "UnifiedMedia",
                          "video" : 
                              {
                                "id" : 172,
                                "_type" : "ScreenVMFile",
                                "src" : 17,
                                "trackNumber" : 0,
                                "attributes" : {
                                  "ident" : "Rec 05-03-20_003"
                                },
                                "parameters" : {
                                  "cursorScale" : {
                                    "type" : "double",
                                    "defaultValue" : 0.0,
                                    "interp" : "linr"
                                  },
                                  "cursorOpacity" : {
                                    "type" : "double",
                                    "defaultValue" : 0.0,
                                    "interp" : "linr"
                                  }
                                },
                                "effects" : [

                                ],
                                "start" : 4491,
                                "duration" : 134,
                                "mediaStart" : 4832,
                                "mediaDuration" : 134,
                                "scalar" : 1,
                                "animationTracks" : {

                                }
                              },
                          "audio" : 
                              {
                                "id" : 173,
                                "_type" : "AMFile",
                                "src" : 17,
                                "trackNumber" : 2,
                                "attributes" : {
                                  "ident" : "",
                                  "gain" : 1.0,
                                  "mixToMono" : false
                                },
                                  "channelNumber" : "0,1",
                                "effects" : [

                                ],
                                "start" : 4491,
                                "duration" : 134,
                                "mediaStart" : 4832,
                                "mediaDuration" : 134,
                                "scalar" : 1,
                                "animationTracks" : {

                                }
                              }
,
                          "start" : 4491,
                          "duration" : 134,
                          "mediaStart" : 0,
                          "mediaDuration" : 34687,
                          "scalar" : 1,
                          "metadata" : {
                            "AutoAppliedSmartFocus" : "False",
                            "clipSpeedAttribute" : false,
                            "default-scale0" : 0.666666666666667,
                            "default-scale1" : 0.666666666666667,
                            "default-translation0" : 0.0,
                            "default-translation1" : 0.0
                          }
                        },
                        {
                          "id" : 174,
                          "_type" : "UnifiedMedia",
                          "video" : 
                              {
                                "id" : 175,
                                "_type" : "ScreenVMFile",
                                "src" : 17,
                                "trackNumber" : 0,
                                "attributes" : {
                                  "ident" : "Rec 05-03-20_003"
                                },
                                "parameters" : {
                                  "cursorScale" : {
                                    "type" : "double",
                                    "defaultValue" : 0.0,
                                    "interp" : "linr"
                                  },
                                  "cursorOpacity" : {
                                    "type" : "double",
                                    "defaultValue" : 0.0,
                                    "interp" : "linr"
                                  }
                                },
                                "effects" : [

                                ],
                                "start" : 4625,
                                "duration" : 649,
                                "mediaStart" : 5071,
                                "mediaDuration" : 649,
                                "scalar" : 1,
                                "animationTracks" : {

                                }
                              },
                          "audio" : 
                              {
                                "id" : 176,
                                "_type" : "AMFile",
                                "src" : 17,
                                "trackNumber" : 2,
                                "attributes" : {
                                  "ident" : "",
                                  "gain" : 1.0,
                                  "mixToMono" : false
                                },
                                  "channelNumber" : "0,1",
                                "effects" : [

                                ],
                                "start" : 4625,
                                "duration" : 649,
                                "mediaStart" : 5071,
                                "mediaDuration" : 649,
                                "scalar" : 1,
                                "animationTracks" : {

                                }
                              }
,
                          "start" : 4625,
                          "duration" : 649,
                          "mediaStart" : 0,
                          "mediaDuration" : 34687,
                          "scalar" : 1,
                          "metadata" : {
                            "AutoAppliedSmartFocus" : "False",
                            "clipSpeedAttribute" : false,
                            "default-scale0" : 0.666666666666667,
                            "default-scale1" : 0.666666666666667,
                            "default-translation0" : 0.0,
                            "default-translation1" : 0.0
                          }
                        },
                        {
                          "id" : 177,
                          "_type" : "UnifiedMedia",
                          "video" : 
                              {
                                "id" : 178,
                                "_type" : "ScreenVMFile",
                                "src" : 17,
                                "trackNumber" : 0,
                                "attributes" : {
                                  "ident" : "Rec 05-03-20_003"
                                },
                                "parameters" : {
                                  "cursorScale" : {
                                    "type" : "double",
                                    "defaultValue" : 0.0,
                                    "interp" : "linr"
                                  },
                                  "cursorOpacity" : {
                                    "type" : "double",
                                    "defaultValue" : 0.0,
                                    "interp" : "linr"
                                  }
                                },
                                "effects" : [

                                ],
                                "start" : 5274,
                                "duration" : 5186,
                                "mediaStart" : 6466,
                                "mediaDuration" : 5186,
                                "scalar" : 1,
                                "animationTracks" : {

                                }
                              },
                          "audio" : 
                              {
                                "id" : 179,
                                "_type" : "AMFile",
                                "src" : 17,
                                "trackNumber" : 2,
                                "attributes" : {
                                  "ident" : "",
                                  "gain" : 1.0,
                                  "mixToMono" : false
                                },
                                  "channelNumber" : "0,1",
                                "effects" : [

                                ],
                                "start" : 5274,
                                "duration" : 5186,
                                "mediaStart" : 6466,
                                "mediaDuration" : 5186,
                                "scalar" : 1,
                                "animationTracks" : {

                                }
                              }
,
                          "start" : 5274,
                          "duration" : 5186,
                          "mediaStart" : 0,
                          "mediaDuration" : 34687,
                          "scalar" : 1,
                          "metadata" : {
                            "AutoAppliedSmartFocus" : "False",
                            "clipSpeedAttribute" : false,
                            "default-scale0" : 0.666666666666667,
                            "default-scale1" : 0.666666666666667,
                            "default-translation0" : 0.0,
                            "default-translation1" : 0.0
                          }
                        },
                        {
                          "id" : 180,
                          "_type" : "UnifiedMedia",
                          "video" : 
                              {
                                "id" : 181,
                                "_type" : "ScreenVMFile",
                                "src" : 17,
                                "trackNumber" : 0,
                                "attributes" : {
                                  "ident" : "Rec 05-03-20_003"
                                },
                                "parameters" : {
                                  "cursorScale" : {
                                    "type" : "double",
                                    "defaultValue" : 0.0,
                                    "interp" : "linr"
                                  },
                                  "cursorOpacity" : {
                                    "type" : "double",
                                    "defaultValue" : 0.0,
                                    "interp" : "linr"
                                  }
                                },
                                "effects" : [

                                ],
                                "start" : 10460,
                                "duration" : 178,
                                "mediaStart" : 11815,
                                "mediaDuration" : 178,
                                "scalar" : 1,
                                "animationTracks" : {

                                }
                              },
                          "audio" : 
                              {
                                "id" : 182,
                                "_type" : "AMFile",
                                "src" : 17,
                                "trackNumber" : 2,
                                "attributes" : {
                                  "ident" : "",
                                  "gain" : 1.0,
                                  "mixToMono" : false
                                },
                                  "channelNumber" : "0,1",
                                "effects" : [

                                ],
                                "start" : 10460,
                                "duration" : 178,
                                "mediaStart" : 11815,
                                "mediaDuration" : 178,
                                "scalar" : 1,
                                "animationTracks" : {

                                }
                              }
,
                          "start" : 10460,
                          "duration" : 178,
                          "mediaStart" : 0,
                          "mediaDuration" : 34687,
                          "scalar" : 1,
                          "metadata" : {
                            "AutoAppliedSmartFocus" : "False",
                            "clipSpeedAttribute" : false,
                            "default-scale0" : 0.666666666666667,
                            "default-scale1" : 0.666666666666667,
                            "default-translation0" : 0.0,
                            "default-translation1" : 0.0
                          }
                        },
                        {
                          "id" : 183,
                          "_type" : "UnifiedMedia",
                          "video" : 
                              {
                                "id" : 184,
                                "_type" : "ScreenVMFile",
                                "src" : 17,
                                "trackNumber" : 0,
                                "attributes" : {
                                  "ident" : "Rec 05-03-20_003"
                                },
                                "parameters" : {
                                  "cursorScale" : {
                                    "type" : "double",
                                    "defaultValue" : 0.0,
                                    "interp" : "linr"
                                  },
                                  "cursorOpacity" : {
                                    "type" : "double",
                                    "defaultValue" : 0.0,
                                    "interp" : "linr"
                                  }
                                },
                                "effects" : [

                                ],
                                "start" : 10638,
                                "duration" : 1185,
                                "mediaStart" : 12432,
                                "mediaDuration" : 1185,
                                "scalar" : 1,
                                "animationTracks" : {

                                }
                              },
                          "audio" : 
                              {
                                "id" : 185,
                                "_type" : "AMFile",
                                "src" : 17,
                                "trackNumber" : 2,
                                "attributes" : {
                                  "ident" : "",
                                  "gain" : 1.0,
                                  "mixToMono" : false
                                },
                                  "channelNumber" : "0,1",
                                "effects" : [

                                ],
                                "start" : 10638,
                                "duration" : 1185,
                                "mediaStart" : 12432,
                                "mediaDuration" : 1185,
                                "scalar" : 1,
                                "animationTracks" : {

                                }
                              }
,
                          "start" : 10638,
                          "duration" : 1185,
                          "mediaStart" : 0,
                          "mediaDuration" : 34687,
                          "scalar" : 1,
                          "metadata" : {
                            "AutoAppliedSmartFocus" : "False",
                            "clipSpeedAttribute" : false,
                            "default-scale0" : 0.666666666666667,
                            "default-scale1" : 0.666666666666667,
                            "default-translation0" : 0.0,
                            "default-translation1" : 0.0
                          }
                        },
                        {
                          "id" : 186,
                          "_type" : "UnifiedMedia",
                          "video" : 
                              {
                                "id" : 187,
                                "_type" : "ScreenVMFile",
                                "src" : 17,
                                "trackNumber" : 0,
                                "attributes" : {
                                  "ident" : "Rec 05-03-20_003"
                                },
                                "parameters" : {
                                  "cursorScale" : {
                                    "type" : "double",
                                    "defaultValue" : 0.0,
                                    "interp" : "linr"
                                  },
                                  "cursorOpacity" : {
                                    "type" : "double",
                                    "defaultValue" : 0.0,
                                    "interp" : "linr"
                                  }
                                },
                                "effects" : [

                                ],
                                "start" : 11823,
                                "duration" : 41,
                                "mediaStart" : 13639,
                                "mediaDuration" : 41,
                                "scalar" : 1,
                                "animationTracks" : {

                                }
                              },
                          "audio" : 
                              {
                                "id" : 188,
                                "_type" : "AMFile",
                                "src" : 17,
                                "trackNumber" : 2,
                                "attributes" : {
                                  "ident" : "",
                                  "gain" : 1.0,
                                  "mixToMono" : false
                                },
                                  "channelNumber" : "0,1",
                                "effects" : [

                                ],
                                "start" : 11823,
                                "duration" : 41,
                                "mediaStart" : 13639,
                                "mediaDuration" : 41,
                                "scalar" : 1,
                                "animationTracks" : {

                                }
                              }
,
                          "start" : 11823,
                          "duration" : 41,
                          "mediaStart" : 0,
                          "mediaDuration" : 34687,
                          "scalar" : 1,
                          "metadata" : {
                            "AutoAppliedSmartFocus" : "False",
                            "clipSpeedAttribute" : false,
                            "default-scale0" : 0.666666666666667,
                            "default-scale1" : 0.666666666666667,
                            "default-translation0" : 0.0,
                            "default-translation1" : 0.0
                          }
                        },
                        {
                          "id" : 189,
                          "_type" : "UnifiedMedia",
                          "video" : 
                              {
                                "id" : 190,
                                "_type" : "ScreenVMFile",
                                "src" : 17,
                                "trackNumber" : 0,
                                "attributes" : {
                                  "ident" : "Rec 05-03-20_003"
                                },
                                "parameters" : {
                                  "cursorScale" : {
                                    "type" : "double",
                                    "defaultValue" : 0.0,
                                    "interp" : "linr"
                                  },
                                  "cursorOpacity" : {
                                    "type" : "double",
                                    "defaultValue" : 0.0,
                                    "interp" : "linr"
                                  }
                                },
                                "effects" : [

                                ],
                                "start" : 11864,
                                "duration" : 1049,
                                "mediaStart" : 14655,
                                "mediaDuration" : 1049,
                                "scalar" : 1,
                                "animationTracks" : {

                                }
                              },
                          "audio" : 
                              {
                                "id" : 191,
                                "_type" : "AMFile",
                                "src" : 17,
                                "trackNumber" : 2,
                                "attributes" : {
                                  "ident" : "",
                                  "gain" : 1.0,
                                  "mixToMono" : false
                                },
                                  "channelNumber" : "0,1",
                                "effects" : [

                                ],
                                "start" : 11864,
                                "duration" : 1049,
                                "mediaStart" : 14655,
                                "mediaDuration" : 1049,
                                "scalar" : 1,
                                "animationTracks" : {

                                }
                              }
,
                          "start" : 11864,
                          "duration" : 1049,
                          "mediaStart" : 0,
                          "mediaDuration" : 34687,
                          "scalar" : 1,
                          "metadata" : {
                            "AutoAppliedSmartFocus" : "False",
                            "clipSpeedAttribute" : false,
                            "default-scale0" : 0.666666666666667,
                            "default-scale1" : 0.666666666666667,
                            "default-translation0" : 0.0,
                            "default-translation1" : 0.0
                          }
                        },
                        {
                          "id" : 192,
                          "_type" : "UnifiedMedia",
                          "video" : 
                              {
                                "id" : 193,
                                "_type" : "ScreenVMFile",
                                "src" : 17,
                                "trackNumber" : 0,
                                "attributes" : {
                                  "ident" : "Rec 05-03-20_003"
                                },
                                "parameters" : {
                                  "cursorScale" : {
                                    "type" : "double",
                                    "defaultValue" : 0.0,
                                    "interp" : "linr"
                                  },
                                  "cursorOpacity" : {
                                    "type" : "double",
                                    "defaultValue" : 0.0,
                                    "interp" : "linr"
                                  }
                                },
                                "effects" : [

                                ],
                                "start" : 12913,
                                "duration" : 18920,
                                "mediaStart" : 15767,
                                "mediaDuration" : 18920,
                                "scalar" : 1,
                                "animationTracks" : {

                                }
                              },
                          "audio" : 
                              {
                                "id" : 194,
                                "_type" : "AMFile",
                                "src" : 17,
                                "trackNumber" : 2,
                                "attributes" : {
                                  "ident" : "",
                                  "gain" : 1.0,
                                  "mixToMono" : false
                                },
                                  "channelNumber" : "0,1",
                                "effects" : [

                                ],
                                "start" : 12913,
                                "duration" : 18920,
                                "mediaStart" : 15767,
                                "mediaDuration" : 18920,
                                "scalar" : 1,
                                "animationTracks" : {

                                }
                              }
,
                          "start" : 12913,
                          "duration" : 18920,
                          "mediaStart" : 0,
                          "mediaDuration" : 34687,
                          "scalar" : 1,
                          "metadata" : {
                            "AutoAppliedSmartFocus" : "False",
                            "clipSpeedAttribute" : false,
                            "default-scale0" : 0.666666666666667,
                            "default-scale1" : 0.666666666666667,
                            "default-translation0" : 0.0,
                            "default-translation1" : 0.0
                          }
                        }
                    ],
                    "effects" : [

                    ],
                    "start" : 14069,
                    "duration" : 25,
                    "mediaStart" : 13242,
                    "mediaDuration" : 25,
                    "scalar" : 1,
                    "metadata" : {
                      "AutoAppliedSmartFocus" : "False",
                      "clipSpeedAttribute" : false
                    },
                    "animationTracks" : {
                      "visual" : [
                        {
                          "endTime" : 2541,
                          "duration" : 30,
                          "range" : [ 2511, 30]
                        },
                        {
                          "endTime" : 2934,
                          "duration" : 30,
                          "range" : [ 2904, 30]
                        },
                        {
                          "endTime" : 3023,
                          "duration" : 30,
                          "range" : [ 2993, 30]
                        },
                        {
                          "endTime" : 3119,
                          "duration" : 30,
                          "range" : [ 3089, 30]
                        }
                      ]
                    }
                  },
                  {
                    "id" : 195,
                    "_type" : "StitchedMedia",
                    "minMediaStart" : 0,
                    "attributes" : {
                      "ident" : "Rec 05-03-20_003",
                      "gain" : 1.0,
                      "mixToMono" : false
                    },
                    "parameters" : {
                      "translation0" : {
                        "type" : "double",
                        "defaultValue" : 0.0,
                        "keyframes" : [
                          {
                            "endTime" : 2541,
                            "time" : 2511,
                            "value" : 41.782438587128,
                            "duration" : 30
                          },
                          {
                            "endTime" : 2934,
                            "time" : 2904,
                            "value" : -348.186569995875,
                            "duration" : 30
                          },
                          {
                            "endTime" : 3023,
                            "time" : 2993,
                            "value" : -26.9844081163076,
                            "duration" : 30
                          },
                          {
                            "endTime" : 3119,
                            "time" : 3089,
                            "value" : 348.186423202785,
                            "duration" : 30
                          }
                        ]
                      },
                      "translation1" : {
                        "type" : "double",
                        "defaultValue" : 0.0,
                        "keyframes" : [
                          {
                            "endTime" : 2541,
                            "time" : 2511,
                            "value" : -23.5025925317154,
                            "duration" : 30
                          },
                          {
                            "endTime" : 2934,
                            "time" : 2904,
                            "value" : -195.854967649388,
                            "duration" : 30
                          },
                          {
                            "endTime" : 3023,
                            "time" : 2993,
                            "value" : -39.1709882644091,
                            "duration" : 30
                          },
                          {
                            "endTime" : 3119,
                            "time" : 3089,
                            "value" : -195.854967649388,
                            "duration" : 30
                          }
                        ]
                      },
                      "scale0" : {
                        "type" : "double",
                        "defaultValue" : 0.666666666666667,
                        "keyframes" : [
                          {
                            "endTime" : 2541,
                            "time" : 2511,
                            "value" : 1.02936093394747,
                            "duration" : 30
                          },
                          {
                            "endTime" : 2934,
                            "time" : 2904,
                            "value" : 1.02936083781452,
                            "duration" : 30
                          },
                          {
                            "endTime" : 3023,
                            "time" : 2993,
                            "value" : 1.02936083649684,
                            "duration" : 30
                          }
                        ]
                      },
                      "scale1" : {
                        "type" : "double",
                        "defaultValue" : 0.666666666666667,
                        "keyframes" : [
                          {
                            "endTime" : 2541,
                            "time" : 2511,
                            "value" : 1.0293610485672,
                            "duration" : 30
                          }
                        ]
                      },
                      "volume" : {
                        "type" : "double",
                        "keyframes" : [
                          {
                            "endTime" : 0,
                            "time" : 0,
                            "value" : 1.0,
                            "duration" : 0
                          },
                          {
                            "endTime" : 13210,
                            "time" : 13210,
                            "value" : 1.0,
                            "duration" : 0
                          },
                          {
                            "endTime" : 13211,
                            "time" : 13211,
                            "value" : 0.0,
                            "duration" : 0
                          },
                          {
                            "endTime" : 13245,
                            "time" : 13245,
                            "value" : 0.0,
                            "duration" : 0
                          },
                          {
                            "endTime" : 13246,
                            "time" : 13246,
                            "value" : 1.0,
                            "duration" : 0
                          }
                        ]
                      },
                      "cursorOpacity" : 1.0,
                      "cursorScale" : 1.0
                    },
                    "medias" : [
                        {
                          "id" : 196,
                          "_type" : "UnifiedMedia",
                          "video" : 
                              {
                                "id" : 197,
                                "_type" : "ScreenVMFile",
                                "src" : 17,
                                "trackNumber" : 0,
                                "attributes" : {
                                  "ident" : "Rec 05-03-20_003"
                                },
                                "parameters" : {
                                  "cursorScale" : {
                                    "type" : "double",
                                    "defaultValue" : 0.0,
                                    "interp" : "linr"
                                  },
                                  "cursorOpacity" : {
                                    "type" : "double",
                                    "defaultValue" : 0.0,
                                    "interp" : "linr"
                                  }
                                },
                                "effects" : [

                                ],
                                "start" : 0,
                                "duration" : 3123,
                                "mediaStart" : 0,
                                "mediaDuration" : 3123,
                                "scalar" : 1,
                                "animationTracks" : {

                                }
                              },
                          "audio" : 
                              {
                                "id" : 198,
                                "_type" : "AMFile",
                                "src" : 17,
                                "trackNumber" : 2,
                                "attributes" : {
                                  "ident" : "",
                                  "gain" : 1.0,
                                  "mixToMono" : false
                                },
                                  "channelNumber" : "0,1",
                                "effects" : [

                                ],
                                "start" : 0,
                                "duration" : 3123,
                                "mediaStart" : 0,
                                "mediaDuration" : 3123,
                                "scalar" : 1,
                                "animationTracks" : {

                                }
                              }
,
                          "start" : 0,
                          "duration" : 3123,
                          "mediaStart" : 0,
                          "mediaDuration" : 34687,
                          "scalar" : 1,
                          "metadata" : {
                            "AutoAppliedSmartFocus" : "False",
                            "clipSpeedAttribute" : false,
                            "default-scale0" : 0.666666666666667,
                            "default-scale1" : 0.666666666666667,
                            "default-translation0" : 0.0,
                            "default-translation1" : 0.0
                          }
                        },
                        {
                          "id" : 199,
                          "_type" : "UnifiedMedia",
                          "video" : 
                              {
                                "id" : 200,
                                "_type" : "ScreenVMFile",
                                "src" : 17,
                                "trackNumber" : 0,
                                "attributes" : {
                                  "ident" : "Rec 05-03-20_003"
                                },
                                "parameters" : {
                                  "cursorScale" : {
                                    "type" : "double",
                                    "defaultValue" : 0.0,
                                    "interp" : "linr"
                                  },
                                  "cursorOpacity" : {
                                    "type" : "double",
                                    "defaultValue" : 0.0,
                                    "interp" : "linr"
                                  }
                                },
                                "effects" : [

                                ],
                                "start" : 3123,
                                "duration" : 1368,
                                "mediaStart" : 3228,
                                "mediaDuration" : 1368,
                                "scalar" : 1,
                                "animationTracks" : {

                                }
                              },
                          "audio" : 
                              {
                                "id" : 201,
                                "_type" : "AMFile",
                                "src" : 17,
                                "trackNumber" : 2,
                                "attributes" : {
                                  "ident" : "",
                                  "gain" : 1.0,
                                  "mixToMono" : false
                                },
                                  "channelNumber" : "0,1",
                                "effects" : [

                                ],
                                "start" : 3123,
                                "duration" : 1368,
                                "mediaStart" : 3228,
                                "mediaDuration" : 1368,
                                "scalar" : 1,
                                "animationTracks" : {

                                }
                              }
,
                          "start" : 3123,
                          "duration" : 1368,
                          "mediaStart" : 0,
                          "mediaDuration" : 34687,
                          "scalar" : 1,
                          "metadata" : {
                            "AutoAppliedSmartFocus" : "False",
                            "clipSpeedAttribute" : false,
                            "default-scale0" : 0.666666666666667,
                            "default-scale1" : 0.666666666666667,
                            "default-translation0" : 0.0,
                            "default-translation1" : 0.0
                          }
                        },
                        {
                          "id" : 202,
                          "_type" : "UnifiedMedia",
                          "video" : 
                              {
                                "id" : 203,
                                "_type" : "ScreenVMFile",
                                "src" : 17,
                                "trackNumber" : 0,
                                "attributes" : {
                                  "ident" : "Rec 05-03-20_003"
                                },
                                "parameters" : {
                                  "cursorScale" : {
                                    "type" : "double",
                                    "defaultValue" : 0.0,
                                    "interp" : "linr"
                                  },
                                  "cursorOpacity" : {
                                    "type" : "double",
                                    "defaultValue" : 0.0,
                                    "interp" : "linr"
                                  }
                                },
                                "effects" : [

                                ],
                                "start" : 4491,
                                "duration" : 134,
                                "mediaStart" : 4832,
                                "mediaDuration" : 134,
                                "scalar" : 1,
                                "animationTracks" : {

                                }
                              },
                          "audio" : 
                              {
                                "id" : 204,
                                "_type" : "AMFile",
                                "src" : 17,
                                "trackNumber" : 2,
                                "attributes" : {
                                  "ident" : "",
                                  "gain" : 1.0,
                                  "mixToMono" : false
                                },
                                  "channelNumber" : "0,1",
                                "effects" : [

                                ],
                                "start" : 4491,
                                "duration" : 134,
                                "mediaStart" : 4832,
                                "mediaDuration" : 134,
                                "scalar" : 1,
                                "animationTracks" : {

                                }
                              }
,
                          "start" : 4491,
                          "duration" : 134,
                          "mediaStart" : 0,
                          "mediaDuration" : 34687,
                          "scalar" : 1,
                          "metadata" : {
                            "AutoAppliedSmartFocus" : "False",
                            "clipSpeedAttribute" : false,
                            "default-scale0" : 0.666666666666667,
                            "default-scale1" : 0.666666666666667,
                            "default-translation0" : 0.0,
                            "default-translation1" : 0.0
                          }
                        },
                        {
                          "id" : 205,
                          "_type" : "UnifiedMedia",
                          "video" : 
                              {
                                "id" : 206,
                                "_type" : "ScreenVMFile",
                                "src" : 17,
                                "trackNumber" : 0,
                                "attributes" : {
                                  "ident" : "Rec 05-03-20_003"
                                },
                                "parameters" : {
                                  "cursorScale" : {
                                    "type" : "double",
                                    "defaultValue" : 0.0,
                                    "interp" : "linr"
                                  },
                                  "cursorOpacity" : {
                                    "type" : "double",
                                    "defaultValue" : 0.0,
                                    "interp" : "linr"
                                  }
                                },
                                "effects" : [

                                ],
                                "start" : 4625,
                                "duration" : 649,
                                "mediaStart" : 5071,
                                "mediaDuration" : 649,
                                "scalar" : 1,
                                "animationTracks" : {

                                }
                              },
                          "audio" : 
                              {
                                "id" : 207,
                                "_type" : "AMFile",
                                "src" : 17,
                                "trackNumber" : 2,
                                "attributes" : {
                                  "ident" : "",
                                  "gain" : 1.0,
                                  "mixToMono" : false
                                },
                                  "channelNumber" : "0,1",
                                "effects" : [

                                ],
                                "start" : 4625,
                                "duration" : 649,
                                "mediaStart" : 5071,
                                "mediaDuration" : 649,
                                "scalar" : 1,
                                "animationTracks" : {

                                }
                              }
,
                          "start" : 4625,
                          "duration" : 649,
                          "mediaStart" : 0,
                          "mediaDuration" : 34687,
                          "scalar" : 1,
                          "metadata" : {
                            "AutoAppliedSmartFocus" : "False",
                            "clipSpeedAttribute" : false,
                            "default-scale0" : 0.666666666666667,
                            "default-scale1" : 0.666666666666667,
                            "default-translation0" : 0.0,
                            "default-translation1" : 0.0
                          }
                        },
                        {
                          "id" : 208,
                          "_type" : "UnifiedMedia",
                          "video" : 
                              {
                                "id" : 209,
                                "_type" : "ScreenVMFile",
                                "src" : 17,
                                "trackNumber" : 0,
                                "attributes" : {
                                  "ident" : "Rec 05-03-20_003"
                                },
                                "parameters" : {
                                  "cursorScale" : {
                                    "type" : "double",
                                    "defaultValue" : 0.0,
                                    "interp" : "linr"
                                  },
                                  "cursorOpacity" : {
                                    "type" : "double",
                                    "defaultValue" : 0.0,
                                    "interp" : "linr"
                                  }
                                },
                                "effects" : [

                                ],
                                "start" : 5274,
                                "duration" : 5186,
                                "mediaStart" : 6466,
                                "mediaDuration" : 5186,
                                "scalar" : 1,
                                "animationTracks" : {

                                }
                              },
                          "audio" : 
                              {
                                "id" : 210,
                                "_type" : "AMFile",
                                "src" : 17,
                                "trackNumber" : 2,
                                "attributes" : {
                                  "ident" : "",
                                  "gain" : 1.0,
                                  "mixToMono" : false
                                },
                                  "channelNumber" : "0,1",
                                "effects" : [

                                ],
                                "start" : 5274,
                                "duration" : 5186,
                                "mediaStart" : 6466,
                                "mediaDuration" : 5186,
                                "scalar" : 1,
                                "animationTracks" : {

                                }
                              }
,
                          "start" : 5274,
                          "duration" : 5186,
                          "mediaStart" : 0,
                          "mediaDuration" : 34687,
                          "scalar" : 1,
                          "metadata" : {
                            "AutoAppliedSmartFocus" : "False",
                            "clipSpeedAttribute" : false,
                            "default-scale0" : 0.666666666666667,
                            "default-scale1" : 0.666666666666667,
                            "default-translation0" : 0.0,
                            "default-translation1" : 0.0
                          }
                        },
                        {
                          "id" : 211,
                          "_type" : "UnifiedMedia",
                          "video" : 
                              {
                                "id" : 212,
                                "_type" : "ScreenVMFile",
                                "src" : 17,
                                "trackNumber" : 0,
                                "attributes" : {
                                  "ident" : "Rec 05-03-20_003"
                                },
                                "parameters" : {
                                  "cursorScale" : {
                                    "type" : "double",
                                    "defaultValue" : 0.0,
                                    "interp" : "linr"
                                  },
                                  "cursorOpacity" : {
                                    "type" : "double",
                                    "defaultValue" : 0.0,
                                    "interp" : "linr"
                                  }
                                },
                                "effects" : [

                                ],
                                "start" : 10460,
                                "duration" : 178,
                                "mediaStart" : 11815,
                                "mediaDuration" : 178,
                                "scalar" : 1,
                                "animationTracks" : {

                                }
                              },
                          "audio" : 
                              {
                                "id" : 213,
                                "_type" : "AMFile",
                                "src" : 17,
                                "trackNumber" : 2,
                                "attributes" : {
                                  "ident" : "",
                                  "gain" : 1.0,
                                  "mixToMono" : false
                                },
                                  "channelNumber" : "0,1",
                                "effects" : [

                                ],
                                "start" : 10460,
                                "duration" : 178,
                                "mediaStart" : 11815,
                                "mediaDuration" : 178,
                                "scalar" : 1,
                                "animationTracks" : {

                                }
                              }
,
                          "start" : 10460,
                          "duration" : 178,
                          "mediaStart" : 0,
                          "mediaDuration" : 34687,
                          "scalar" : 1,
                          "metadata" : {
                            "AutoAppliedSmartFocus" : "False",
                            "clipSpeedAttribute" : false,
                            "default-scale0" : 0.666666666666667,
                            "default-scale1" : 0.666666666666667,
                            "default-translation0" : 0.0,
                            "default-translation1" : 0.0
                          }
                        },
                        {
                          "id" : 214,
                          "_type" : "UnifiedMedia",
                          "video" : 
                              {
                                "id" : 215,
                                "_type" : "ScreenVMFile",
                                "src" : 17,
                                "trackNumber" : 0,
                                "attributes" : {
                                  "ident" : "Rec 05-03-20_003"
                                },
                                "parameters" : {
                                  "cursorScale" : {
                                    "type" : "double",
                                    "defaultValue" : 0.0,
                                    "interp" : "linr"
                                  },
                                  "cursorOpacity" : {
                                    "type" : "double",
                                    "defaultValue" : 0.0,
                                    "interp" : "linr"
                                  }
                                },
                                "effects" : [

                                ],
                                "start" : 10638,
                                "duration" : 1185,
                                "mediaStart" : 12432,
                                "mediaDuration" : 1185,
                                "scalar" : 1,
                                "animationTracks" : {

                                }
                              },
                          "audio" : 
                              {
                                "id" : 216,
                                "_type" : "AMFile",
                                "src" : 17,
                                "trackNumber" : 2,
                                "attributes" : {
                                  "ident" : "",
                                  "gain" : 1.0,
                                  "mixToMono" : false
                                },
                                  "channelNumber" : "0,1",
                                "effects" : [

                                ],
                                "start" : 10638,
                                "duration" : 1185,
                                "mediaStart" : 12432,
                                "mediaDuration" : 1185,
                                "scalar" : 1,
                                "animationTracks" : {

                                }
                              }
,
                          "start" : 10638,
                          "duration" : 1185,
                          "mediaStart" : 0,
                          "mediaDuration" : 34687,
                          "scalar" : 1,
                          "metadata" : {
                            "AutoAppliedSmartFocus" : "False",
                            "clipSpeedAttribute" : false,
                            "default-scale0" : 0.666666666666667,
                            "default-scale1" : 0.666666666666667,
                            "default-translation0" : 0.0,
                            "default-translation1" : 0.0
                          }
                        },
                        {
                          "id" : 217,
                          "_type" : "UnifiedMedia",
                          "video" : 
                              {
                                "id" : 218,
                                "_type" : "ScreenVMFile",
                                "src" : 17,
                                "trackNumber" : 0,
                                "attributes" : {
                                  "ident" : "Rec 05-03-20_003"
                                },
                                "parameters" : {
                                  "cursorScale" : {
                                    "type" : "double",
                                    "defaultValue" : 0.0,
                                    "interp" : "linr"
                                  },
                                  "cursorOpacity" : {
                                    "type" : "double",
                                    "defaultValue" : 0.0,
                                    "interp" : "linr"
                                  }
                                },
                                "effects" : [

                                ],
                                "start" : 11823,
                                "duration" : 41,
                                "mediaStart" : 13639,
                                "mediaDuration" : 41,
                                "scalar" : 1,
                                "animationTracks" : {

                                }
                              },
                          "audio" : 
                              {
                                "id" : 219,
                                "_type" : "AMFile",
                                "src" : 17,
                                "trackNumber" : 2,
                                "attributes" : {
                                  "ident" : "",
                                  "gain" : 1.0,
                                  "mixToMono" : false
                                },
                                  "channelNumber" : "0,1",
                                "effects" : [

                                ],
                                "start" : 11823,
                                "duration" : 41,
                                "mediaStart" : 13639,
                                "mediaDuration" : 41,
                                "scalar" : 1,
                                "animationTracks" : {

                                }
                              }
,
                          "start" : 11823,
                          "duration" : 41,
                          "mediaStart" : 0,
                          "mediaDuration" : 34687,
                          "scalar" : 1,
                          "metadata" : {
                            "AutoAppliedSmartFocus" : "False",
                            "clipSpeedAttribute" : false,
                            "default-scale0" : 0.666666666666667,
                            "default-scale1" : 0.666666666666667,
                            "default-translation0" : 0.0,
                            "default-translation1" : 0.0
                          }
                        },
                        {
                          "id" : 220,
                          "_type" : "UnifiedMedia",
                          "video" : 
                              {
                                "id" : 221,
                                "_type" : "ScreenVMFile",
                                "src" : 17,
                                "trackNumber" : 0,
                                "attributes" : {
                                  "ident" : "Rec 05-03-20_003"
                                },
                                "parameters" : {
                                  "cursorScale" : {
                                    "type" : "double",
                                    "defaultValue" : 0.0,
                                    "interp" : "linr"
                                  },
                                  "cursorOpacity" : {
                                    "type" : "double",
                                    "defaultValue" : 0.0,
                                    "interp" : "linr"
                                  }
                                },
                                "effects" : [

                                ],
                                "start" : 11864,
                                "duration" : 1049,
                                "mediaStart" : 14655,
                                "mediaDuration" : 1049,
                                "scalar" : 1,
                                "animationTracks" : {

                                }
                              },
                          "audio" : 
                              {
                                "id" : 222,
                                "_type" : "AMFile",
                                "src" : 17,
                                "trackNumber" : 2,
                                "attributes" : {
                                  "ident" : "",
                                  "gain" : 1.0,
                                  "mixToMono" : false
                                },
                                  "channelNumber" : "0,1",
                                "effects" : [

                                ],
                                "start" : 11864,
                                "duration" : 1049,
                                "mediaStart" : 14655,
                                "mediaDuration" : 1049,
                                "scalar" : 1,
                                "animationTracks" : {

                                }
                              }
,
                          "start" : 11864,
                          "duration" : 1049,
                          "mediaStart" : 0,
                          "mediaDuration" : 34687,
                          "scalar" : 1,
                          "metadata" : {
                            "AutoAppliedSmartFocus" : "False",
                            "clipSpeedAttribute" : false,
                            "default-scale0" : 0.666666666666667,
                            "default-scale1" : 0.666666666666667,
                            "default-translation0" : 0.0,
                            "default-translation1" : 0.0
                          }
                        },
                        {
                          "id" : 223,
                          "_type" : "UnifiedMedia",
                          "video" : 
                              {
                                "id" : 224,
                                "_type" : "ScreenVMFile",
                                "src" : 17,
                                "trackNumber" : 0,
                                "attributes" : {
                                  "ident" : "Rec 05-03-20_003"
                                },
                                "parameters" : {
                                  "cursorScale" : {
                                    "type" : "double",
                                    "defaultValue" : 0.0,
                                    "interp" : "linr"
                                  },
                                  "cursorOpacity" : {
                                    "type" : "double",
                                    "defaultValue" : 0.0,
                                    "interp" : "linr"
                                  }
                                },
                                "effects" : [

                                ],
                                "start" : 12913,
                                "duration" : 18920,
                                "mediaStart" : 15767,
                                "mediaDuration" : 18920,
                                "scalar" : 1,
                                "animationTracks" : {

                                }
                              },
                          "audio" : 
                              {
                                "id" : 225,
                                "_type" : "AMFile",
                                "src" : 17,
                                "trackNumber" : 2,
                                "attributes" : {
                                  "ident" : "",
                                  "gain" : 1.0,
                                  "mixToMono" : false
                                },
                                  "channelNumber" : "0,1",
                                "effects" : [

                                ],
                                "start" : 12913,
                                "duration" : 18920,
                                "mediaStart" : 15767,
                                "mediaDuration" : 18920,
                                "scalar" : 1,
                                "animationTracks" : {

                                }
                              }
,
                          "start" : 12913,
                          "duration" : 18920,
                          "mediaStart" : 0,
                          "mediaDuration" : 34687,
                          "scalar" : 1,
                          "metadata" : {
                            "AutoAppliedSmartFocus" : "False",
                            "clipSpeedAttribute" : false,
                            "default-scale0" : 0.666666666666667,
                            "default-scale1" : 0.666666666666667,
                            "default-translation0" : 0.0,
                            "default-translation1" : 0.0
                          }
                        }
                    ],
                    "effects" : [

                    ],
                    "start" : 14139,
                    "duration" : 30,
                    "mediaStart" : 13267,
                    "mediaDuration" : 30,
                    "scalar" : 1,
                    "metadata" : {
                      "AutoAppliedSmartFocus" : "False",
                      "clipSpeedAttribute" : false
                    },
                    "animationTracks" : {
                      "visual" : [
                        {
                          "endTime" : 2541,
                          "duration" : 30,
                          "range" : [ 2511, 30]
                        },
                        {
                          "endTime" : 2934,
                          "duration" : 30,
                          "range" : [ 2904, 30]
                        },
                        {
                          "endTime" : 3023,
                          "duration" : 30,
                          "range" : [ 2993, 30]
                        },
                        {
                          "endTime" : 3119,
                          "duration" : 30,
                          "range" : [ 3089, 30]
                        }
                      ]
                    }
                  },
                  {
                    "id" : 226,
                    "_type" : "StitchedMedia",
                    "minMediaStart" : 0,
                    "attributes" : {
                      "ident" : "Rec 05-03-20_003",
                      "gain" : 1.0,
                      "mixToMono" : false
                    },
                    "parameters" : {
                      "translation0" : {
                        "type" : "double",
                        "defaultValue" : 0.0,
                        "keyframes" : [
                          {
                            "endTime" : 2541,
                            "time" : 2511,
                            "value" : 41.782438587128,
                            "duration" : 30
                          },
                          {
                            "endTime" : 2934,
                            "time" : 2904,
                            "value" : -348.186569995875,
                            "duration" : 30
                          },
                          {
                            "endTime" : 3023,
                            "time" : 2993,
                            "value" : -26.9844081163076,
                            "duration" : 30
                          },
                          {
                            "endTime" : 3119,
                            "time" : 3089,
                            "value" : 348.186423202785,
                            "duration" : 30
                          },
                          {
                            "endTime" : 16383,
                            "time" : 16353,
                            "value" : 287.626338165123,
                            "duration" : 30
                          },
                          {
                            "endTime" : 19293,
                            "time" : 19263,
                            "value" : 529.522893416363,
                            "duration" : 30
                          },
                          {
                            "endTime" : 24531,
                            "time" : 24501,
                            "value" : 19.5735719623513,
                            "duration" : 30
                          },
                          {
                            "endTime" : 24641,
                            "time" : 24611,
                            "value" : -34.9657791469365,
                            "duration" : 30
                          },
                          {
                            "endTime" : 24917,
                            "time" : 24887,
                            "value" : -432.816784196925,
                            "duration" : 30
                          },
                          {
                            "endTime" : 24978,
                            "time" : 24948,
                            "value" : -16.0651615655774,
                            "duration" : 30
                          },
                          {
                            "endTime" : 25068,
                            "time" : 25038,
                            "value" : 432.817085765235,
                            "duration" : 30
                          }
                        ]
                      },
                      "translation1" : {
                        "type" : "double",
                        "defaultValue" : 0.0,
                        "keyframes" : [
                          {
                            "endTime" : 2541,
                            "time" : 2511,
                            "value" : -23.5025925317154,
                            "duration" : 30
                          },
                          {
                            "endTime" : 2934,
                            "time" : 2904,
                            "value" : -195.854967649388,
                            "duration" : 30
                          },
                          {
                            "endTime" : 3023,
                            "time" : 2993,
                            "value" : -39.1709882644091,
                            "duration" : 30
                          },
                          {
                            "endTime" : 3119,
                            "time" : 3089,
                            "value" : -195.854967649388,
                            "duration" : 30
                          },
                          {
                            "endTime" : 16383,
                            "time" : 16353,
                            "value" : -161.789923997421,
                            "duration" : 30
                          },
                          {
                            "endTime" : 19293,
                            "time" : 19263,
                            "value" : -297.856879272824,
                            "duration" : 30
                          },
                          {
                            "endTime" : 24531,
                            "time" : 24501,
                            "value" : -75.3334451110502,
                            "duration" : 30
                          },
                          {
                            "endTime" : 24641,
                            "time" : 24611,
                            "value" : -39.3362430050539,
                            "duration" : 30
                          },
                          {
                            "endTime" : 24917,
                            "time" : 24887,
                            "value" : -243.459482394708,
                            "duration" : 30
                          },
                          {
                            "endTime" : 24978,
                            "time" : 24948,
                            "value" : -22.3259765321136,
                            "duration" : 30
                          },
                          {
                            "endTime" : 25068,
                            "time" : 25038,
                            "value" : -243.459482394708,
                            "duration" : 30
                          }
                        ]
                      },
                      "scale0" : {
                        "type" : "double",
                        "defaultValue" : 0.666666666666667,
                        "keyframes" : [
                          {
                            "endTime" : 2541,
                            "time" : 2511,
                            "value" : 1.02936093394747,
                            "duration" : 30
                          },
                          {
                            "endTime" : 2934,
                            "time" : 2904,
                            "value" : 1.02936083781452,
                            "duration" : 30
                          },
                          {
                            "endTime" : 3023,
                            "time" : 2993,
                            "value" : 1.02936083649684,
                            "duration" : 30
                          },
                          {
                            "endTime" : 16383,
                            "time" : 16353,
                            "value" : 0.966277404773645,
                            "duration" : 30
                          },
                          {
                            "endTime" : 19293,
                            "time" : 19263,
                            "value" : 1.2182530046556,
                            "duration" : 30
                          },
                          {
                            "endTime" : 24531,
                            "time" : 24501,
                            "value" : 1.21825309286396,
                            "duration" : 30
                          },
                          {
                            "endTime" : 24641,
                            "time" : 24611,
                            "value" : 1.11751741189388,
                            "duration" : 30
                          },
                          {
                            "endTime" : 24917,
                            "time" : 24887,
                            "value" : 1.11751761332338,
                            "duration" : 30
                          },
                          {
                            "endTime" : 24978,
                            "time" : 24948,
                            "value" : 1.11751781332239,
                            "duration" : 30
                          },
                          {
                            "endTime" : 25068,
                            "time" : 25038,
                            "value" : 1.1175177881437,
                            "duration" : 30
                          }
                        ]
                      },
                      "scale1" : {
                        "type" : "double",
                        "defaultValue" : 0.666666666666667,
                        "keyframes" : [
                          {
                            "endTime" : 2541,
                            "time" : 2511,
                            "value" : 1.0293610485672,
                            "duration" : 30
                          },
                          {
                            "endTime" : 16383,
                            "time" : 16353,
                            "value" : 0.966277632084533,
                            "duration" : 30
                          },
                          {
                            "endTime" : 19293,
                            "time" : 19263,
                            "value" : 1.21825347077794,
                            "duration" : 30
                          },
                          {
                            "endTime" : 24641,
                            "time" : 24611,
                            "value" : 1.11751755712913,
                            "duration" : 30
                          }
                        ]
                      },
                      "volume" : {
                        "type" : "double",
                        "keyframes" : [
                          {
                            "endTime" : 0,
                            "time" : 0,
                            "value" : 1.0,
                            "duration" : 0
                          },
                          {
                            "endTime" : 13210,
                            "time" : 13210,
                            "value" : 1.0,
                            "duration" : 0
                          },
                          {
                            "endTime" : 13211,
                            "time" : 13211,
                            "value" : 0.0,
                            "duration" : 0
                          },
                          {
                            "endTime" : 13245,
                            "time" : 13245,
                            "value" : 0.0,
                            "duration" : 0
                          },
                          {
                            "endTime" : 13246,
                            "time" : 13246,
                            "value" : 1.0,
                            "duration" : 0
                          },
                          {
                            "endTime" : 24015,
                            "time" : 24015,
                            "value" : 1.0,
                            "duration" : 0
                          },
                          {
                            "endTime" : 24016,
                            "time" : 24016,
                            "value" : 0.0,
                            "duration" : 0
                          },
                          {
                            "endTime" : 24181,
                            "time" : 24181,
                            "value" : 0.0,
                            "duration" : 0
                          },
                          {
                            "endTime" : 24182,
                            "time" : 24182,
                            "value" : 1.0,
                            "duration" : 0
                          }
                        ]
                      },
                      "cursorOpacity" : 1.0,
                      "cursorScale" : 1.0
                    },
                    "medias" : [
                        {
                          "id" : 227,
                          "_type" : "UnifiedMedia",
                          "video" : 
                              {
                                "id" : 228,
                                "_type" : "ScreenVMFile",
                                "src" : 17,
                                "trackNumber" : 0,
                                "attributes" : {
                                  "ident" : "Rec 05-03-20_003"
                                },
                                "parameters" : {
                                  "cursorScale" : {
                                    "type" : "double",
                                    "defaultValue" : 0.0,
                                    "interp" : "linr"
                                  },
                                  "cursorOpacity" : {
                                    "type" : "double",
                                    "defaultValue" : 0.0,
                                    "interp" : "linr"
                                  }
                                },
                                "effects" : [

                                ],
                                "start" : 0,
                                "duration" : 3123,
                                "mediaStart" : 0,
                                "mediaDuration" : 3123,
                                "scalar" : 1,
                                "animationTracks" : {

                                }
                              },
                          "audio" : 
                              {
                                "id" : 229,
                                "_type" : "AMFile",
                                "src" : 17,
                                "trackNumber" : 2,
                                "attributes" : {
                                  "ident" : "",
                                  "gain" : 1.0,
                                  "mixToMono" : false
                                },
                                  "channelNumber" : "0,1",
                                "effects" : [

                                ],
                                "start" : 0,
                                "duration" : 3123,
                                "mediaStart" : 0,
                                "mediaDuration" : 3123,
                                "scalar" : 1,
                                "animationTracks" : {

                                }
                              }
,
                          "start" : 0,
                          "duration" : 3123,
                          "mediaStart" : 0,
                          "mediaDuration" : 34687,
                          "scalar" : 1,
                          "metadata" : {
                            "AutoAppliedSmartFocus" : "False",
                            "clipSpeedAttribute" : false,
                            "default-scale0" : 0.666666666666667,
                            "default-scale1" : 0.666666666666667,
                            "default-translation0" : 0.0,
                            "default-translation1" : 0.0
                          }
                        },
                        {
                          "id" : 230,
                          "_type" : "UnifiedMedia",
                          "video" : 
                              {
                                "id" : 231,
                                "_type" : "ScreenVMFile",
                                "src" : 17,
                                "trackNumber" : 0,
                                "attributes" : {
                                  "ident" : "Rec 05-03-20_003"
                                },
                                "parameters" : {
                                  "cursorScale" : {
                                    "type" : "double",
                                    "defaultValue" : 0.0,
                                    "interp" : "linr"
                                  },
                                  "cursorOpacity" : {
                                    "type" : "double",
                                    "defaultValue" : 0.0,
                                    "interp" : "linr"
                                  }
                                },
                                "effects" : [

                                ],
                                "start" : 3123,
                                "duration" : 1368,
                                "mediaStart" : 3228,
                                "mediaDuration" : 1368,
                                "scalar" : 1,
                                "animationTracks" : {

                                }
                              },
                          "audio" : 
                              {
                                "id" : 232,
                                "_type" : "AMFile",
                                "src" : 17,
                                "trackNumber" : 2,
                                "attributes" : {
                                  "ident" : "",
                                  "gain" : 1.0,
                                  "mixToMono" : false
                                },
                                  "channelNumber" : "0,1",
                                "effects" : [

                                ],
                                "start" : 3123,
                                "duration" : 1368,
                                "mediaStart" : 3228,
                                "mediaDuration" : 1368,
                                "scalar" : 1,
                                "animationTracks" : {

                                }
                              }
,
                          "start" : 3123,
                          "duration" : 1368,
                          "mediaStart" : 0,
                          "mediaDuration" : 34687,
                          "scalar" : 1,
                          "metadata" : {
                            "AutoAppliedSmartFocus" : "False",
                            "clipSpeedAttribute" : false,
                            "default-scale0" : 0.666666666666667,
                            "default-scale1" : 0.666666666666667,
                            "default-translation0" : 0.0,
                            "default-translation1" : 0.0
                          }
                        },
                        {
                          "id" : 233,
                          "_type" : "UnifiedMedia",
                          "video" : 
                              {
                                "id" : 234,
                                "_type" : "ScreenVMFile",
                                "src" : 17,
                                "trackNumber" : 0,
                                "attributes" : {
                                  "ident" : "Rec 05-03-20_003"
                                },
                                "parameters" : {
                                  "cursorScale" : {
                                    "type" : "double",
                                    "defaultValue" : 0.0,
                                    "interp" : "linr"
                                  },
                                  "cursorOpacity" : {
                                    "type" : "double",
                                    "defaultValue" : 0.0,
                                    "interp" : "linr"
                                  }
                                },
                                "effects" : [

                                ],
                                "start" : 4491,
                                "duration" : 134,
                                "mediaStart" : 4832,
                                "mediaDuration" : 134,
                                "scalar" : 1,
                                "animationTracks" : {

                                }
                              },
                          "audio" : 
                              {
                                "id" : 235,
                                "_type" : "AMFile",
                                "src" : 17,
                                "trackNumber" : 2,
                                "attributes" : {
                                  "ident" : "",
                                  "gain" : 1.0,
                                  "mixToMono" : false
                                },
                                  "channelNumber" : "0,1",
                                "effects" : [

                                ],
                                "start" : 4491,
                                "duration" : 134,
                                "mediaStart" : 4832,
                                "mediaDuration" : 134,
                                "scalar" : 1,
                                "animationTracks" : {

                                }
                              }
,
                          "start" : 4491,
                          "duration" : 134,
                          "mediaStart" : 0,
                          "mediaDuration" : 34687,
                          "scalar" : 1,
                          "metadata" : {
                            "AutoAppliedSmartFocus" : "False",
                            "clipSpeedAttribute" : false,
                            "default-scale0" : 0.666666666666667,
                            "default-scale1" : 0.666666666666667,
                            "default-translation0" : 0.0,
                            "default-translation1" : 0.0
                          }
                        },
                        {
                          "id" : 236,
                          "_type" : "UnifiedMedia",
                          "video" : 
                              {
                                "id" : 237,
                                "_type" : "ScreenVMFile",
                                "src" : 17,
                                "trackNumber" : 0,
                                "attributes" : {
                                  "ident" : "Rec 05-03-20_003"
                                },
                                "parameters" : {
                                  "cursorScale" : {
                                    "type" : "double",
                                    "defaultValue" : 0.0,
                                    "interp" : "linr"
                                  },
                                  "cursorOpacity" : {
                                    "type" : "double",
                                    "defaultValue" : 0.0,
                                    "interp" : "linr"
                                  }
                                },
                                "effects" : [

                                ],
                                "start" : 4625,
                                "duration" : 649,
                                "mediaStart" : 5071,
                                "mediaDuration" : 649,
                                "scalar" : 1,
                                "animationTracks" : {

                                }
                              },
                          "audio" : 
                              {
                                "id" : 238,
                                "_type" : "AMFile",
                                "src" : 17,
                                "trackNumber" : 2,
                                "attributes" : {
                                  "ident" : "",
                                  "gain" : 1.0,
                                  "mixToMono" : false
                                },
                                  "channelNumber" : "0,1",
                                "effects" : [

                                ],
                                "start" : 4625,
                                "duration" : 649,
                                "mediaStart" : 5071,
                                "mediaDuration" : 649,
                                "scalar" : 1,
                                "animationTracks" : {

                                }
                              }
,
                          "start" : 4625,
                          "duration" : 649,
                          "mediaStart" : 0,
                          "mediaDuration" : 34687,
                          "scalar" : 1,
                          "metadata" : {
                            "AutoAppliedSmartFocus" : "False",
                            "clipSpeedAttribute" : false,
                            "default-scale0" : 0.666666666666667,
                            "default-scale1" : 0.666666666666667,
                            "default-translation0" : 0.0,
                            "default-translation1" : 0.0
                          }
                        },
                        {
                          "id" : 239,
                          "_type" : "UnifiedMedia",
                          "video" : 
                              {
                                "id" : 240,
                                "_type" : "ScreenVMFile",
                                "src" : 17,
                                "trackNumber" : 0,
                                "attributes" : {
                                  "ident" : "Rec 05-03-20_003"
                                },
                                "parameters" : {
                                  "cursorScale" : {
                                    "type" : "double",
                                    "defaultValue" : 0.0,
                                    "interp" : "linr"
                                  },
                                  "cursorOpacity" : {
                                    "type" : "double",
                                    "defaultValue" : 0.0,
                                    "interp" : "linr"
                                  }
                                },
                                "effects" : [

                                ],
                                "start" : 5274,
                                "duration" : 5186,
                                "mediaStart" : 6466,
                                "mediaDuration" : 5186,
                                "scalar" : 1,
                                "animationTracks" : {

                                }
                              },
                          "audio" : 
                              {
                                "id" : 241,
                                "_type" : "AMFile",
                                "src" : 17,
                                "trackNumber" : 2,
                                "attributes" : {
                                  "ident" : "",
                                  "gain" : 1.0,
                                  "mixToMono" : false
                                },
                                  "channelNumber" : "0,1",
                                "effects" : [

                                ],
                                "start" : 5274,
                                "duration" : 5186,
                                "mediaStart" : 6466,
                                "mediaDuration" : 5186,
                                "scalar" : 1,
                                "animationTracks" : {

                                }
                              }
,
                          "start" : 5274,
                          "duration" : 5186,
                          "mediaStart" : 0,
                          "mediaDuration" : 34687,
                          "scalar" : 1,
                          "metadata" : {
                            "AutoAppliedSmartFocus" : "False",
                            "clipSpeedAttribute" : false,
                            "default-scale0" : 0.666666666666667,
                            "default-scale1" : 0.666666666666667,
                            "default-translation0" : 0.0,
                            "default-translation1" : 0.0
                          }
                        },
                        {
                          "id" : 242,
                          "_type" : "UnifiedMedia",
                          "video" : 
                              {
                                "id" : 243,
                                "_type" : "ScreenVMFile",
                                "src" : 17,
                                "trackNumber" : 0,
                                "attributes" : {
                                  "ident" : "Rec 05-03-20_003"
                                },
                                "parameters" : {
                                  "cursorScale" : {
                                    "type" : "double",
                                    "defaultValue" : 0.0,
                                    "interp" : "linr"
                                  },
                                  "cursorOpacity" : {
                                    "type" : "double",
                                    "defaultValue" : 0.0,
                                    "interp" : "linr"
                                  }
                                },
                                "effects" : [

                                ],
                                "start" : 10460,
                                "duration" : 178,
                                "mediaStart" : 11815,
                                "mediaDuration" : 178,
                                "scalar" : 1,
                                "animationTracks" : {

                                }
                              },
                          "audio" : 
                              {
                                "id" : 244,
                                "_type" : "AMFile",
                                "src" : 17,
                                "trackNumber" : 2,
                                "attributes" : {
                                  "ident" : "",
                                  "gain" : 1.0,
                                  "mixToMono" : false
                                },
                                  "channelNumber" : "0,1",
                                "effects" : [

                                ],
                                "start" : 10460,
                                "duration" : 178,
                                "mediaStart" : 11815,
                                "mediaDuration" : 178,
                                "scalar" : 1,
                                "animationTracks" : {

                                }
                              }
,
                          "start" : 10460,
                          "duration" : 178,
                          "mediaStart" : 0,
                          "mediaDuration" : 34687,
                          "scalar" : 1,
                          "metadata" : {
                            "AutoAppliedSmartFocus" : "False",
                            "clipSpeedAttribute" : false,
                            "default-scale0" : 0.666666666666667,
                            "default-scale1" : 0.666666666666667,
                            "default-translation0" : 0.0,
                            "default-translation1" : 0.0
                          }
                        },
                        {
                          "id" : 245,
                          "_type" : "UnifiedMedia",
                          "video" : 
                              {
                                "id" : 246,
                                "_type" : "ScreenVMFile",
                                "src" : 17,
                                "trackNumber" : 0,
                                "attributes" : {
                                  "ident" : "Rec 05-03-20_003"
                                },
                                "parameters" : {
                                  "cursorScale" : {
                                    "type" : "double",
                                    "defaultValue" : 0.0,
                                    "interp" : "linr"
                                  },
                                  "cursorOpacity" : {
                                    "type" : "double",
                                    "defaultValue" : 0.0,
                                    "interp" : "linr"
                                  }
                                },
                                "effects" : [

                                ],
                                "start" : 10638,
                                "duration" : 1185,
                                "mediaStart" : 12432,
                                "mediaDuration" : 1185,
                                "scalar" : 1,
                                "animationTracks" : {

                                }
                              },
                          "audio" : 
                              {
                                "id" : 247,
                                "_type" : "AMFile",
                                "src" : 17,
                                "trackNumber" : 2,
                                "attributes" : {
                                  "ident" : "",
                                  "gain" : 1.0,
                                  "mixToMono" : false
                                },
                                  "channelNumber" : "0,1",
                                "effects" : [

                                ],
                                "start" : 10638,
                                "duration" : 1185,
                                "mediaStart" : 12432,
                                "mediaDuration" : 1185,
                                "scalar" : 1,
                                "animationTracks" : {

                                }
                              }
,
                          "start" : 10638,
                          "duration" : 1185,
                          "mediaStart" : 0,
                          "mediaDuration" : 34687,
                          "scalar" : 1,
                          "metadata" : {
                            "AutoAppliedSmartFocus" : "False",
                            "clipSpeedAttribute" : false,
                            "default-scale0" : 0.666666666666667,
                            "default-scale1" : 0.666666666666667,
                            "default-translation0" : 0.0,
                            "default-translation1" : 0.0
                          }
                        },
                        {
                          "id" : 248,
                          "_type" : "UnifiedMedia",
                          "video" : 
                              {
                                "id" : 249,
                                "_type" : "ScreenVMFile",
                                "src" : 17,
                                "trackNumber" : 0,
                                "attributes" : {
                                  "ident" : "Rec 05-03-20_003"
                                },
                                "parameters" : {
                                  "cursorScale" : {
                                    "type" : "double",
                                    "defaultValue" : 0.0,
                                    "interp" : "linr"
                                  },
                                  "cursorOpacity" : {
                                    "type" : "double",
                                    "defaultValue" : 0.0,
                                    "interp" : "linr"
                                  }
                                },
                                "effects" : [

                                ],
                                "start" : 11823,
                                "duration" : 41,
                                "mediaStart" : 13639,
                                "mediaDuration" : 41,
                                "scalar" : 1,
                                "animationTracks" : {

                                }
                              },
                          "audio" : 
                              {
                                "id" : 250,
                                "_type" : "AMFile",
                                "src" : 17,
                                "trackNumber" : 2,
                                "attributes" : {
                                  "ident" : "",
                                  "gain" : 1.0,
                                  "mixToMono" : false
                                },
                                  "channelNumber" : "0,1",
                                "effects" : [

                                ],
                                "start" : 11823,
                                "duration" : 41,
                                "mediaStart" : 13639,
                                "mediaDuration" : 41,
                                "scalar" : 1,
                                "animationTracks" : {

                                }
                              }
,
                          "start" : 11823,
                          "duration" : 41,
                          "mediaStart" : 0,
                          "mediaDuration" : 34687,
                          "scalar" : 1,
                          "metadata" : {
                            "AutoAppliedSmartFocus" : "False",
                            "clipSpeedAttribute" : false,
                            "default-scale0" : 0.666666666666667,
                            "default-scale1" : 0.666666666666667,
                            "default-translation0" : 0.0,
                            "default-translation1" : 0.0
                          }
                        },
                        {
                          "id" : 251,
                          "_type" : "UnifiedMedia",
                          "video" : 
                              {
                                "id" : 252,
                                "_type" : "ScreenVMFile",
                                "src" : 17,
                                "trackNumber" : 0,
                                "attributes" : {
                                  "ident" : "Rec 05-03-20_003"
                                },
                                "parameters" : {
                                  "cursorScale" : {
                                    "type" : "double",
                                    "defaultValue" : 0.0,
                                    "interp" : "linr"
                                  },
                                  "cursorOpacity" : {
                                    "type" : "double",
                                    "defaultValue" : 0.0,
                                    "interp" : "linr"
                                  }
                                },
                                "effects" : [

                                ],
                                "start" : 11864,
                                "duration" : 1049,
                                "mediaStart" : 14655,
                                "mediaDuration" : 1049,
                                "scalar" : 1,
                                "animationTracks" : {

                                }
                              },
                          "audio" : 
                              {
                                "id" : 253,
                                "_type" : "AMFile",
                                "src" : 17,
                                "trackNumber" : 2,
                                "attributes" : {
                                  "ident" : "",
                                  "gain" : 1.0,
                                  "mixToMono" : false
                                },
                                  "channelNumber" : "0,1",
                                "effects" : [

                                ],
                                "start" : 11864,
                                "duration" : 1049,
                                "mediaStart" : 14655,
                                "mediaDuration" : 1049,
                                "scalar" : 1,
                                "animationTracks" : {

                                }
                              }
,
                          "start" : 11864,
                          "duration" : 1049,
                          "mediaStart" : 0,
                          "mediaDuration" : 34687,
                          "scalar" : 1,
                          "metadata" : {
                            "AutoAppliedSmartFocus" : "False",
                            "clipSpeedAttribute" : false,
                            "default-scale0" : 0.666666666666667,
                            "default-scale1" : 0.666666666666667,
                            "default-translation0" : 0.0,
                            "default-translation1" : 0.0
                          }
                        },
                        {
                          "id" : 254,
                          "_type" : "UnifiedMedia",
                          "video" : 
                              {
                                "id" : 255,
                                "_type" : "ScreenVMFile",
                                "src" : 17,
                                "trackNumber" : 0,
                                "attributes" : {
                                  "ident" : "Rec 05-03-20_003"
                                },
                                "parameters" : {
                                  "cursorScale" : {
                                    "type" : "double",
                                    "defaultValue" : 0.0,
                                    "interp" : "linr"
                                  },
                                  "cursorOpacity" : {
                                    "type" : "double",
                                    "defaultValue" : 0.0,
                                    "interp" : "linr"
                                  }
                                },
                                "effects" : [

                                ],
                                "start" : 12913,
                                "duration" : 1895,
                                "mediaStart" : 15767,
                                "mediaDuration" : 1895,
                                "scalar" : 1,
                                "animationTracks" : {

                                }
                              },
                          "audio" : 
                              {
                                "id" : 256,
                                "_type" : "AMFile",
                                "src" : 17,
                                "trackNumber" : 2,
                                "attributes" : {
                                  "ident" : "",
                                  "gain" : 1.0,
                                  "mixToMono" : false
                                },
                                  "channelNumber" : "0,1",
                                "effects" : [

                                ],
                                "start" : 12913,
                                "duration" : 1895,
                                "mediaStart" : 15767,
                                "mediaDuration" : 1895,
                                "scalar" : 1,
                                "animationTracks" : {

                                }
                              }
,
                          "start" : 12913,
                          "duration" : 1895,
                          "mediaStart" : 0,
                          "mediaDuration" : 34687,
                          "scalar" : 1,
                          "metadata" : {
                            "AutoAppliedSmartFocus" : "False",
                            "clipSpeedAttribute" : false,
                            "default-scale0" : 0.666666666666667,
                            "default-scale1" : 0.666666666666667,
                            "default-translation0" : 0.0,
                            "default-translation1" : 0.0
                          }
                        },
                        {
                          "id" : 257,
                          "_type" : "UnifiedMedia",
                          "video" : 
                              {
                                "id" : 258,
                                "_type" : "ScreenVMFile",
                                "src" : 17,
                                "trackNumber" : 0,
                                "attributes" : {
                                  "ident" : "Rec 05-03-20_003"
                                },
                                "parameters" : {
                                  "cursorScale" : {
                                    "type" : "double",
                                    "defaultValue" : 0.0,
                                    "interp" : "linr"
                                  },
                                  "cursorOpacity" : {
                                    "type" : "double",
                                    "defaultValue" : 0.0,
                                    "interp" : "linr"
                                  }
                                },
                                "effects" : [

                                ],
                                "start" : 14808,
                                "duration" : 3911,
                                "mediaStart" : 17780,
                                "mediaDuration" : 3911,
                                "scalar" : 1,
                                "animationTracks" : {

                                }
                              },
                          "audio" : 
                              {
                                "id" : 259,
                                "_type" : "AMFile",
                                "src" : 17,
                                "trackNumber" : 2,
                                "attributes" : {
                                  "ident" : "",
                                  "gain" : 1.0,
                                  "mixToMono" : false
                                },
                                  "channelNumber" : "0,1",
                                "effects" : [

                                ],
                                "start" : 14808,
                                "duration" : 3911,
                                "mediaStart" : 17780,
                                "mediaDuration" : 3911,
                                "scalar" : 1,
                                "animationTracks" : {

                                }
                              }
,
                          "start" : 14808,
                          "duration" : 3911,
                          "mediaStart" : 0,
                          "mediaDuration" : 34687,
                          "scalar" : 1,
                          "metadata" : {
                            "AutoAppliedSmartFocus" : "False",
                            "clipSpeedAttribute" : false,
                            "default-scale0" : 0.666666666666667,
                            "default-scale1" : 0.666666666666667,
                            "default-translation0" : 0.0,
                            "default-translation1" : 0.0
                          }
                        },
                        {
                          "id" : 260,
                          "_type" : "UnifiedMedia",
                          "video" : 
                              {
                                "id" : 261,
                                "_type" : "ScreenVMFile",
                                "src" : 17,
                                "trackNumber" : 0,
                                "attributes" : {
                                  "ident" : "Rec 05-03-20_003"
                                },
                                "parameters" : {
                                  "cursorScale" : {
                                    "type" : "double",
                                    "defaultValue" : 0.0,
                                    "interp" : "linr"
                                  },
                                  "cursorOpacity" : {
                                    "type" : "double",
                                    "defaultValue" : 0.0,
                                    "interp" : "linr"
                                  }
                                },
                                "effects" : [

                                ],
                                "start" : 18719,
                                "duration" : 1316,
                                "mediaStart" : 21725,
                                "mediaDuration" : 1316,
                                "scalar" : 1,
                                "animationTracks" : {

                                }
                              },
                          "audio" : 
                              {
                                "id" : 262,
                                "_type" : "AMFile",
                                "src" : 17,
                                "trackNumber" : 2,
                                "attributes" : {
                                  "ident" : "",
                                  "gain" : 1.0,
                                  "mixToMono" : false
                                },
                                  "channelNumber" : "0,1",
                                "effects" : [

                                ],
                                "start" : 18719,
                                "duration" : 1316,
                                "mediaStart" : 21725,
                                "mediaDuration" : 1316,
                                "scalar" : 1,
                                "animationTracks" : {

                                }
                              }
,
                          "start" : 18719,
                          "duration" : 1316,
                          "mediaStart" : 0,
                          "mediaDuration" : 34687,
                          "scalar" : 1,
                          "metadata" : {
                            "AutoAppliedSmartFocus" : "False",
                            "clipSpeedAttribute" : false,
                            "default-scale0" : 0.666666666666667,
                            "default-scale1" : 0.666666666666667,
                            "default-translation0" : 0.0,
                            "default-translation1" : 0.0
                          }
                        },
                        {
                          "id" : 263,
                          "_type" : "UnifiedMedia",
                          "video" : 
                              {
                                "id" : 264,
                                "_type" : "ScreenVMFile",
                                "src" : 17,
                                "trackNumber" : 0,
                                "attributes" : {
                                  "ident" : "Rec 05-03-20_003"
                                },
                                "parameters" : {
                                  "cursorScale" : {
                                    "type" : "double",
                                    "defaultValue" : 0.0,
                                    "interp" : "linr"
                                  },
                                  "cursorOpacity" : {
                                    "type" : "double",
                                    "defaultValue" : 0.0,
                                    "interp" : "linr"
                                  }
                                },
                                "effects" : [

                                ],
                                "start" : 20035,
                                "duration" : 3981,
                                "mediaStart" : 23093,
                                "mediaDuration" : 3981,
                                "scalar" : 1,
                                "animationTracks" : {

                                }
                              },
                          "audio" : 
                              {
                                "id" : 265,
                                "_type" : "AMFile",
                                "src" : 17,
                                "trackNumber" : 2,
                                "attributes" : {
                                  "ident" : "",
                                  "gain" : 1.0,
                                  "mixToMono" : false
                                },
                                  "channelNumber" : "0,1",
                                "effects" : [

                                ],
                                "start" : 20035,
                                "duration" : 3981,
                                "mediaStart" : 23093,
                                "mediaDuration" : 3981,
                                "scalar" : 1,
                                "animationTracks" : {

                                }
                              }
,
                          "start" : 20035,
                          "duration" : 3981,
                          "mediaStart" : 0,
                          "mediaDuration" : 34687,
                          "scalar" : 1,
                          "metadata" : {
                            "AutoAppliedSmartFocus" : "False",
                            "clipSpeedAttribute" : false,
                            "default-scale0" : 0.666666666666667,
                            "default-scale1" : 0.666666666666667,
                            "default-translation0" : 0.0,
                            "default-translation1" : 0.0
                          }
                        },
                        {
                          "id" : 266,
                          "_type" : "UnifiedMedia",
                          "video" : 
                              {
                                "id" : 267,
                                "_type" : "ScreenVMFile",
                                "src" : 17,
                                "trackNumber" : 0,
                                "attributes" : {
                                  "ident" : "Rec 05-03-20_003"
                                },
                                "parameters" : {
                                  "cursorScale" : {
                                    "type" : "double",
                                    "defaultValue" : 0.0,
                                    "interp" : "linr"
                                  },
                                  "cursorOpacity" : {
                                    "type" : "double",
                                    "defaultValue" : 0.0,
                                    "interp" : "linr"
                                  }
                                },
                                "effects" : [

                                ],
                                "start" : 24016,
                                "duration" : 42,
                                "mediaStart" : 27193,
                                "mediaDuration" : 42,
                                "scalar" : 1,
                                "animationTracks" : {

                                }
                              },
                          "audio" : 
                              {
                                "id" : 268,
                                "_type" : "AMFile",
                                "src" : 17,
                                "trackNumber" : 2,
                                "attributes" : {
                                  "ident" : "",
                                  "gain" : 1.0,
                                  "mixToMono" : false
                                },
                                  "channelNumber" : "0,1",
                                "effects" : [

                                ],
                                "start" : 24016,
                                "duration" : 42,
                                "mediaStart" : 27193,
                                "mediaDuration" : 42,
                                "scalar" : 1,
                                "animationTracks" : {

                                }
                              }
,
                          "start" : 24016,
                          "duration" : 42,
                          "mediaStart" : 0,
                          "mediaDuration" : 34687,
                          "scalar" : 1,
                          "metadata" : {
                            "AutoAppliedSmartFocus" : "False",
                            "clipSpeedAttribute" : false,
                            "default-scale0" : 0.666666666666667,
                            "default-scale1" : 0.666666666666667,
                            "default-translation0" : 0.0,
                            "default-translation1" : 0.0
                          }
                        },
                        {
                          "id" : 269,
                          "_type" : "UnifiedMedia",
                          "video" : 
                              {
                                "id" : 270,
                                "_type" : "ScreenVMFile",
                                "src" : 17,
                                "trackNumber" : 0,
                                "attributes" : {
                                  "ident" : "Rec 05-03-20_003"
                                },
                                "parameters" : {
                                  "cursorScale" : {
                                    "type" : "double",
                                    "defaultValue" : 0.0,
                                    "interp" : "linr"
                                  },
                                  "cursorOpacity" : {
                                    "type" : "double",
                                    "defaultValue" : 0.0,
                                    "interp" : "linr"
                                  }
                                },
                                "effects" : [

                                ],
                                "start" : 24058,
                                "duration" : 629,
                                "mediaStart" : 27448,
                                "mediaDuration" : 629,
                                "scalar" : 1,
                                "animationTracks" : {

                                }
                              },
                          "audio" : 
                              {
                                "id" : 271,
                                "_type" : "AMFile",
                                "src" : 17,
                                "trackNumber" : 2,
                                "attributes" : {
                                  "ident" : "",
                                  "gain" : 1.0,
                                  "mixToMono" : false
                                },
                                  "channelNumber" : "0,1",
                                "effects" : [

                                ],
                                "start" : 24058,
                                "duration" : 629,
                                "mediaStart" : 27448,
                                "mediaDuration" : 629,
                                "scalar" : 1,
                                "animationTracks" : {

                                }
                              }
,
                          "start" : 24058,
                          "duration" : 629,
                          "mediaStart" : 0,
                          "mediaDuration" : 34687,
                          "scalar" : 1,
                          "metadata" : {
                            "AutoAppliedSmartFocus" : "False",
                            "clipSpeedAttribute" : false,
                            "default-scale0" : 0.666666666666667,
                            "default-scale1" : 0.666666666666667,
                            "default-translation0" : 0.0,
                            "default-translation1" : 0.0
                          }
                        },
                        {
                          "id" : 272,
                          "_type" : "UnifiedMedia",
                          "video" : 
                              {
                                "id" : 273,
                                "_type" : "ScreenVMFile",
                                "src" : 17,
                                "trackNumber" : 0,
                                "attributes" : {
                                  "ident" : "Rec 05-03-20_003"
                                },
                                "parameters" : {
                                  "cursorScale" : {
                                    "type" : "double",
                                    "defaultValue" : 0.0,
                                    "interp" : "linr"
                                  },
                                  "cursorOpacity" : {
                                    "type" : "double",
                                    "defaultValue" : 0.0,
                                    "interp" : "linr"
                                  }
                                },
                                "effects" : [

                                ],
                                "start" : 24687,
                                "duration" : 5662,
                                "mediaStart" : 29025,
                                "mediaDuration" : 5662,
                                "scalar" : 1,
                                "animationTracks" : {

                                }
                              },
                          "audio" : 
                              {
                                "id" : 274,
                                "_type" : "AMFile",
                                "src" : 17,
                                "trackNumber" : 2,
                                "attributes" : {
                                  "ident" : "",
                                  "gain" : 1.0,
                                  "mixToMono" : false
                                },
                                  "channelNumber" : "0,1",
                                "effects" : [

                                ],
                                "start" : 24687,
                                "duration" : 5662,
                                "mediaStart" : 29025,
                                "mediaDuration" : 5662,
                                "scalar" : 1,
                                "animationTracks" : {

                                }
                              }
,
                          "start" : 24687,
                          "duration" : 5662,
                          "mediaStart" : 0,
                          "mediaDuration" : 34687,
                          "scalar" : 1,
                          "metadata" : {
                            "AutoAppliedSmartFocus" : "False",
                            "clipSpeedAttribute" : false,
                            "default-scale0" : 0.666666666666667,
                            "default-scale1" : 0.666666666666667,
                            "default-translation0" : 0.0,
                            "default-translation1" : 0.0
                          }
                        }
                    ],
                    "effects" : [

                    ],
                    "start" : 14214,
                    "duration" : 17052,
                    "mediaStart" : 13297,
                    "mediaDuration" : 17052,
                    "scalar" : 1,
                    "metadata" : {
                      "AutoAppliedSmartFocus" : "False",
                      "clipSpeedAttribute" : false,
                      "default-scale0" : 1.11751741189388,
                      "default-translation0" : -34.9657791469365,
                      "default-translation1" : -39.3362430050539
                    },
                    "animationTracks" : {
                      "visual" : [
                        {
                          "endTime" : 2541,
                          "duration" : 30,
                          "range" : [ 2511, 30]
                        },
                        {
                          "endTime" : 2934,
                          "duration" : 30,
                          "range" : [ 2904, 30]
                        },
                        {
                          "endTime" : 3023,
                          "duration" : 30,
                          "range" : [ 2993, 30]
                        },
                        {
                          "endTime" : 3119,
                          "duration" : 30,
                          "range" : [ 3089, 30]
                        },
                        {
                          "endTime" : 16383,
                          "duration" : 30,
                          "range" : [ 16353, 30]
                        },
                        {
                          "endTime" : 19293,
                          "duration" : 30,
                          "range" : [ 19263, 30]
                        },
                        {
                          "endTime" : 24531,
                          "duration" : 30,
                          "range" : [ 24501, 30]
                        },
                        {
                          "endTime" : 24641,
                          "duration" : 30,
                          "range" : [ 24611, 30]
                        },
                        {
                          "endTime" : 24917,
                          "duration" : 30,
                          "range" : [ 24887, 30]
                        },
                        {
                          "endTime" : 24978,
                          "duration" : 30,
                          "range" : [ 24948, 30]
                        },
                        {
                          "endTime" : 25068,
                          "duration" : 30,
                          "range" : [ 25038, 30]
                        }
                      ]
                    }
                  }
                ],
                "transitions" : [
                  {
                    "name" : "Fade",
                    "duration" : 30,
                    "trivial" : false,
                    "reverse" : false,
                    "useAudioPreRoll" : true,
                    "useVisualPreRoll" : true,
                    "rightMedia" : 44
                  },
                  {
                    "name" : "Fade",
                    "duration" : 30,
                    "trivial" : false,
                    "reverse" : false,
                    "useAudioPreRoll" : true,
                    "useVisualPreRoll" : true,
                    "leftMedia" : 48,
                    "rightMedia" : 49
                  },
                  {
                    "name" : "Fade",
                    "duration" : 30,
                    "trivial" : false,
                    "reverse" : false,
                    "useAudioPreRoll" : true,
                    "useVisualPreRoll" : true,
                    "leftMedia" : 226
                  }
                ]
              },
              {
                "trackIndex" : 13,
                "medias" : [
                  {
                    "id" : 275,
                    "_type" : "StitchedMedia",
                    "minMediaStart" : 0,
                    "attributes" : {
                      "ident" : "0508-recursion-fixed",
                      "gain" : 1.0,
                      "mixToMono" : false
                    },
                    "parameters" : {
                      "volume" : 1.0,
                      "cursorOpacity" : 1.0,
                      "cursorScale" : 1.0
                    },
                    "medias" : [
                        {
                          "id" : 276,
                          "_type" : "AMFile",
                          "src" : 18,
                          "trackNumber" : 0,
                          "attributes" : {
                            "ident" : "0508-recursion-fixed",
                            "gain" : 1.0,
                            "mixToMono" : false
                          },
                            "channelNumber" : "0,1",
                          "effects" : [

                          ],
                          "start" : 0,
                          "duration" : 1270,
                          "mediaStart" : 0,
                          "mediaDuration" : 1270,
                          "scalar" : 1,
                          "metadata" : {
                            "clipSpeedAttribute" : false
                          },
                          "animationTracks" : {

                          }
                        },
                        {
                          "id" : 277,
                          "_type" : "AMFile",
                          "src" : 18,
                          "trackNumber" : 0,
                          "attributes" : {
                            "ident" : "0508-recursion-fixed",
                            "gain" : 1.0,
                            "mixToMono" : false
                          },
                            "channelNumber" : "0,1",
                          "effects" : [

                          ],
                          "start" : 1270,
                          "duration" : 606,
                          "mediaStart" : 1283,
                          "mediaDuration" : 606,
                          "scalar" : 1,
                          "metadata" : {
                            "clipSpeedAttribute" : false
                          },
                          "animationTracks" : {

                          }
                        },
                        {
                          "id" : 278,
                          "_type" : "AMFile",
                          "src" : 18,
                          "trackNumber" : 0,
                          "attributes" : {
                            "ident" : "0508-recursion-fixed",
                            "gain" : 1.0,
                            "mixToMono" : false
                          },
                            "channelNumber" : "0,1",
                          "effects" : [

                          ],
                          "start" : 1876,
                          "duration" : 450,
                          "mediaStart" : 1900,
                          "mediaDuration" : 450,
                          "scalar" : 1,
                          "metadata" : {
                            "clipSpeedAttribute" : false
                          },
                          "animationTracks" : {

                          }
                        },
                        {
                          "id" : 279,
                          "_type" : "AMFile",
                          "src" : 18,
                          "trackNumber" : 0,
                          "attributes" : {
                            "ident" : "0508-recursion-fixed",
                            "gain" : 1.0,
                            "mixToMono" : false
                          },
                            "channelNumber" : "0,1",
                          "effects" : [

                          ],
                          "start" : 2326,
                          "duration" : 735,
                          "mediaStart" : 2388,
                          "mediaDuration" : 735,
                          "scalar" : 1,
                          "metadata" : {
                            "clipSpeedAttribute" : false
                          },
                          "animationTracks" : {

                          }
                        },
                        {
                          "id" : 280,
                          "_type" : "AMFile",
                          "src" : 18,
                          "trackNumber" : 0,
                          "attributes" : {
                            "ident" : "0508-recursion-fixed",
                            "gain" : 1.0,
                            "mixToMono" : false
                          },
                            "channelNumber" : "0,1",
                          "effects" : [

                          ],
                          "start" : 3061,
                          "duration" : 1368,
                          "mediaStart" : 3228,
                          "mediaDuration" : 1368,
                          "scalar" : 1,
                          "metadata" : {
                            "clipSpeedAttribute" : false
                          },
                          "animationTracks" : {

                          }
                        },
                        {
                          "id" : 281,
                          "_type" : "AMFile",
                          "src" : 18,
                          "trackNumber" : 0,
                          "attributes" : {
                            "ident" : "0508-recursion-fixed",
                            "gain" : 1.0,
                            "mixToMono" : false
                          },
                            "channelNumber" : "0,1",
                          "effects" : [

                          ],
                          "start" : 4429,
                          "duration" : 134,
                          "mediaStart" : 4832,
                          "mediaDuration" : 134,
                          "scalar" : 1,
                          "metadata" : {
                            "clipSpeedAttribute" : false
                          },
                          "animationTracks" : {

                          }
                        },
                        {
                          "id" : 282,
                          "_type" : "AMFile",
                          "src" : 18,
                          "trackNumber" : 0,
                          "attributes" : {
                            "ident" : "0508-recursion-fixed",
                            "gain" : 1.0,
                            "mixToMono" : false
                          },
                            "channelNumber" : "0,1",
                          "effects" : [

                          ],
                          "start" : 4563,
                          "duration" : 649,
                          "mediaStart" : 5071,
                          "mediaDuration" : 649,
                          "scalar" : 1,
                          "metadata" : {
                            "clipSpeedAttribute" : false
                          },
                          "animationTracks" : {

                          }
                        },
                        {
                          "id" : 283,
                          "_type" : "AMFile",
                          "src" : 18,
                          "trackNumber" : 0,
                          "attributes" : {
                            "ident" : "0508-recursion-fixed",
                            "gain" : 1.0,
                            "mixToMono" : false
                          },
                            "channelNumber" : "0,1",
                          "effects" : [

                          ],
                          "start" : 5212,
                          "duration" : 5186,
                          "mediaStart" : 6466,
                          "mediaDuration" : 5186,
                          "scalar" : 1,
                          "metadata" : {
                            "clipSpeedAttribute" : false
                          },
                          "animationTracks" : {

                          }
                        },
                        {
                          "id" : 284,
                          "_type" : "AMFile",
                          "src" : 18,
                          "trackNumber" : 0,
                          "attributes" : {
                            "ident" : "0508-recursion-fixed",
                            "gain" : 1.0,
                            "mixToMono" : false
                          },
                            "channelNumber" : "0,1",
                          "effects" : [

                          ],
                          "start" : 10398,
                          "duration" : 178,
                          "mediaStart" : 11815,
                          "mediaDuration" : 178,
                          "scalar" : 1,
                          "metadata" : {
                            "clipSpeedAttribute" : false
                          },
                          "animationTracks" : {

                          }
                        },
                        {
                          "id" : 285,
                          "_type" : "AMFile",
                          "src" : 18,
                          "trackNumber" : 0,
                          "attributes" : {
                            "ident" : "0508-recursion-fixed",
                            "gain" : 1.0,
                            "mixToMono" : false
                          },
                            "channelNumber" : "0,1",
                          "effects" : [

                          ],
                          "start" : 10576,
                          "duration" : 1185,
                          "mediaStart" : 12432,
                          "mediaDuration" : 1185,
                          "scalar" : 1,
                          "metadata" : {
                            "clipSpeedAttribute" : false
                          },
                          "animationTracks" : {

                          }
                        },
                        {
                          "id" : 286,
                          "_type" : "AMFile",
                          "src" : 18,
                          "trackNumber" : 0,
                          "attributes" : {
                            "ident" : "0508-recursion-fixed",
                            "gain" : 1.0,
                            "mixToMono" : false
                          },
                            "channelNumber" : "0,1",
                          "effects" : [

                          ],
                          "start" : 11761,
                          "duration" : 41,
                          "mediaStart" : 13639,
                          "mediaDuration" : 41,
                          "scalar" : 1,
                          "metadata" : {
                            "clipSpeedAttribute" : false
                          },
                          "animationTracks" : {

                          }
                        },
                        {
                          "id" : 287,
                          "_type" : "AMFile",
                          "src" : 18,
                          "trackNumber" : 0,
                          "attributes" : {
                            "ident" : "0508-recursion-fixed",
                            "gain" : 1.0,
                            "mixToMono" : false
                          },
                            "channelNumber" : "0,1",
                          "effects" : [

                          ],
                          "start" : 11802,
                          "duration" : 20031,
                          "mediaStart" : 14655,
                          "mediaDuration" : 20031,
                          "scalar" : 1,
                          "metadata" : {
                            "clipSpeedAttribute" : false
                          },
                          "animationTracks" : {

                          }
                        }
                    ],
                    "effects" : [

                    ],
                    "start" : 0,
                    "duration" : 1879,
                    "mediaStart" : 442,
                    "mediaDuration" : 1879,
                    "scalar" : 1,
                    "metadata" : {
                      "clipSpeedAttribute" : false
                    },
                    "animationTracks" : {

                    }
                  },
                  {
                    "id" : 288,
                    "_type" : "StitchedMedia",
                    "minMediaStart" : 0,
                    "attributes" : {
                      "ident" : "0508-recursion-fixed",
                      "gain" : 1.0,
                      "mixToMono" : false
                    },
                    "parameters" : {
                      "volume" : 1.0,
                      "cursorOpacity" : {
                        "type" : "double",
                        "defaultValue" : 1.0,
                        "interp" : "linr"
                      },
                      "cursorScale" : {
                        "type" : "double",
                        "defaultValue" : 1.0,
                        "interp" : "linr"
                      }
                    },
                    "medias" : [
                        {
                          "id" : 289,
                          "_type" : "AMFile",
                          "src" : 18,
                          "trackNumber" : 0,
                          "attributes" : {
                            "ident" : "0508-recursion-fixed",
                            "gain" : 1.0,
                            "mixToMono" : false
                          },
                            "channelNumber" : "0,1",
                          "effects" : [

                          ],
                          "start" : 0,
                          "duration" : 1270,
                          "mediaStart" : 0,
                          "mediaDuration" : 1270,
                          "scalar" : 1,
                          "metadata" : {
                            "clipSpeedAttribute" : false
                          },
                          "animationTracks" : {

                          }
                        },
                        {
                          "id" : 290,
                          "_type" : "AMFile",
                          "src" : 18,
                          "trackNumber" : 0,
                          "attributes" : {
                            "ident" : "0508-recursion-fixed",
                            "gain" : 1.0,
                            "mixToMono" : false
                          },
                            "channelNumber" : "0,1",
                          "effects" : [

                          ],
                          "start" : 1270,
                          "duration" : 606,
                          "mediaStart" : 1283,
                          "mediaDuration" : 606,
                          "scalar" : 1,
                          "metadata" : {
                            "clipSpeedAttribute" : false
                          },
                          "animationTracks" : {

                          }
                        },
                        {
                          "id" : 291,
                          "_type" : "AMFile",
                          "src" : 18,
                          "trackNumber" : 0,
                          "attributes" : {
                            "ident" : "0508-recursion-fixed",
                            "gain" : 1.0,
                            "mixToMono" : false
                          },
                            "channelNumber" : "0,1",
                          "effects" : [

                          ],
                          "start" : 1876,
                          "duration" : 450,
                          "mediaStart" : 1900,
                          "mediaDuration" : 450,
                          "scalar" : 1,
                          "metadata" : {
                            "clipSpeedAttribute" : false
                          },
                          "animationTracks" : {

                          }
                        },
                        {
                          "id" : 292,
                          "_type" : "AMFile",
                          "src" : 18,
                          "trackNumber" : 0,
                          "attributes" : {
                            "ident" : "0508-recursion-fixed",
                            "gain" : 1.0,
                            "mixToMono" : false
                          },
                            "channelNumber" : "0,1",
                          "effects" : [

                          ],
                          "start" : 2326,
                          "duration" : 735,
                          "mediaStart" : 2388,
                          "mediaDuration" : 735,
                          "scalar" : 1,
                          "metadata" : {
                            "clipSpeedAttribute" : false
                          },
                          "animationTracks" : {

                          }
                        },
                        {
                          "id" : 293,
                          "_type" : "AMFile",
                          "src" : 18,
                          "trackNumber" : 0,
                          "attributes" : {
                            "ident" : "0508-recursion-fixed",
                            "gain" : 1.0,
                            "mixToMono" : false
                          },
                            "channelNumber" : "0,1",
                          "effects" : [

                          ],
                          "start" : 3061,
                          "duration" : 1368,
                          "mediaStart" : 3228,
                          "mediaDuration" : 1368,
                          "scalar" : 1,
                          "metadata" : {
                            "clipSpeedAttribute" : false
                          },
                          "animationTracks" : {

                          }
                        },
                        {
                          "id" : 294,
                          "_type" : "AMFile",
                          "src" : 18,
                          "trackNumber" : 0,
                          "attributes" : {
                            "ident" : "0508-recursion-fixed",
                            "gain" : 1.0,
                            "mixToMono" : false
                          },
                            "channelNumber" : "0,1",
                          "effects" : [

                          ],
                          "start" : 4429,
                          "duration" : 134,
                          "mediaStart" : 4832,
                          "mediaDuration" : 134,
                          "scalar" : 1,
                          "metadata" : {
                            "clipSpeedAttribute" : false
                          },
                          "animationTracks" : {

                          }
                        },
                        {
                          "id" : 295,
                          "_type" : "AMFile",
                          "src" : 18,
                          "trackNumber" : 0,
                          "attributes" : {
                            "ident" : "0508-recursion-fixed",
                            "gain" : 1.0,
                            "mixToMono" : false
                          },
                            "channelNumber" : "0,1",
                          "effects" : [

                          ],
                          "start" : 4563,
                          "duration" : 649,
                          "mediaStart" : 5071,
                          "mediaDuration" : 649,
                          "scalar" : 1,
                          "metadata" : {
                            "clipSpeedAttribute" : false
                          },
                          "animationTracks" : {

                          }
                        },
                        {
                          "id" : 296,
                          "_type" : "AMFile",
                          "src" : 18,
                          "trackNumber" : 0,
                          "attributes" : {
                            "ident" : "0508-recursion-fixed",
                            "gain" : 1.0,
                            "mixToMono" : false
                          },
                            "channelNumber" : "0,1",
                          "effects" : [

                          ],
                          "start" : 5212,
                          "duration" : 5186,
                          "mediaStart" : 6466,
                          "mediaDuration" : 5186,
                          "scalar" : 1,
                          "metadata" : {
                            "clipSpeedAttribute" : false
                          },
                          "animationTracks" : {

                          }
                        },
                        {
                          "id" : 297,
                          "_type" : "AMFile",
                          "src" : 18,
                          "trackNumber" : 0,
                          "attributes" : {
                            "ident" : "0508-recursion-fixed",
                            "gain" : 1.0,
                            "mixToMono" : false
                          },
                            "channelNumber" : "0,1",
                          "effects" : [

                          ],
                          "start" : 10398,
                          "duration" : 178,
                          "mediaStart" : 11815,
                          "mediaDuration" : 178,
                          "scalar" : 1,
                          "metadata" : {
                            "clipSpeedAttribute" : false
                          },
                          "animationTracks" : {

                          }
                        },
                        {
                          "id" : 298,
                          "_type" : "AMFile",
                          "src" : 18,
                          "trackNumber" : 0,
                          "attributes" : {
                            "ident" : "0508-recursion-fixed",
                            "gain" : 1.0,
                            "mixToMono" : false
                          },
                            "channelNumber" : "0,1",
                          "effects" : [

                          ],
                          "start" : 10576,
                          "duration" : 1185,
                          "mediaStart" : 12432,
                          "mediaDuration" : 1185,
                          "scalar" : 1,
                          "metadata" : {
                            "clipSpeedAttribute" : false
                          },
                          "animationTracks" : {

                          }
                        },
                        {
                          "id" : 299,
                          "_type" : "AMFile",
                          "src" : 18,
                          "trackNumber" : 0,
                          "attributes" : {
                            "ident" : "0508-recursion-fixed",
                            "gain" : 1.0,
                            "mixToMono" : false
                          },
                            "channelNumber" : "0,1",
                          "effects" : [

                          ],
                          "start" : 11761,
                          "duration" : 41,
                          "mediaStart" : 13639,
                          "mediaDuration" : 41,
                          "scalar" : 1,
                          "metadata" : {
                            "clipSpeedAttribute" : false
                          },
                          "animationTracks" : {

                          }
                        },
                        {
                          "id" : 300,
                          "_type" : "AMFile",
                          "src" : 18,
                          "trackNumber" : 0,
                          "attributes" : {
                            "ident" : "0508-recursion-fixed",
                            "gain" : 1.0,
                            "mixToMono" : false
                          },
                            "channelNumber" : "0,1",
                          "effects" : [

                          ],
                          "start" : 11802,
                          "duration" : 20031,
                          "mediaStart" : 14655,
                          "mediaDuration" : 20031,
                          "scalar" : 1,
                          "metadata" : {
                            "clipSpeedAttribute" : false
                          },
                          "animationTracks" : {

                          }
                        }
                    ],
                    "effects" : [

                    ],
                    "start" : 3168,
                    "duration" : 10177,
                    "mediaStart" : 2321,
                    "mediaDuration" : 10177,
                    "scalar" : 1,
                    "metadata" : {
                      "clipSpeedAttribute" : false
                    },
                    "animationTracks" : {

                    }
                  },
                  {
                    "id" : 301,
                    "_type" : "StitchedMedia",
                    "minMediaStart" : 0,
                    "attributes" : {
                      "ident" : "0508-recursion-fixed",
                      "gain" : 1.0,
                      "mixToMono" : false
                    },
                    "parameters" : {
                      "volume" : 1.0,
                      "cursorOpacity" : 1.0,
                      "cursorScale" : 1.0
                    },
                    "medias" : [
                        {
                          "id" : 302,
                          "_type" : "AMFile",
                          "src" : 18,
                          "trackNumber" : 0,
                          "attributes" : {
                            "ident" : "0508-recursion-fixed",
                            "gain" : 1.0,
                            "mixToMono" : false
                          },
                            "channelNumber" : "0,1",
                          "effects" : [

                          ],
                          "start" : 0,
                          "duration" : 1270,
                          "mediaStart" : 0,
                          "mediaDuration" : 1270,
                          "scalar" : 1,
                          "metadata" : {
                            "clipSpeedAttribute" : false
                          },
                          "animationTracks" : {

                          }
                        },
                        {
                          "id" : 303,
                          "_type" : "AMFile",
                          "src" : 18,
                          "trackNumber" : 0,
                          "attributes" : {
                            "ident" : "0508-recursion-fixed",
                            "gain" : 1.0,
                            "mixToMono" : false
                          },
                            "channelNumber" : "0,1",
                          "effects" : [

                          ],
                          "start" : 1270,
                          "duration" : 606,
                          "mediaStart" : 1283,
                          "mediaDuration" : 606,
                          "scalar" : 1,
                          "metadata" : {
                            "clipSpeedAttribute" : false
                          },
                          "animationTracks" : {

                          }
                        },
                        {
                          "id" : 304,
                          "_type" : "AMFile",
                          "src" : 18,
                          "trackNumber" : 0,
                          "attributes" : {
                            "ident" : "0508-recursion-fixed",
                            "gain" : 1.0,
                            "mixToMono" : false
                          },
                            "channelNumber" : "0,1",
                          "effects" : [

                          ],
                          "start" : 1876,
                          "duration" : 450,
                          "mediaStart" : 1900,
                          "mediaDuration" : 450,
                          "scalar" : 1,
                          "metadata" : {
                            "clipSpeedAttribute" : false
                          },
                          "animationTracks" : {

                          }
                        },
                        {
                          "id" : 305,
                          "_type" : "AMFile",
                          "src" : 18,
                          "trackNumber" : 0,
                          "attributes" : {
                            "ident" : "0508-recursion-fixed",
                            "gain" : 1.0,
                            "mixToMono" : false
                          },
                            "channelNumber" : "0,1",
                          "effects" : [

                          ],
                          "start" : 2326,
                          "duration" : 735,
                          "mediaStart" : 2388,
                          "mediaDuration" : 735,
                          "scalar" : 1,
                          "metadata" : {
                            "clipSpeedAttribute" : false
                          },
                          "animationTracks" : {

                          }
                        },
                        {
                          "id" : 306,
                          "_type" : "AMFile",
                          "src" : 18,
                          "trackNumber" : 0,
                          "attributes" : {
                            "ident" : "0508-recursion-fixed",
                            "gain" : 1.0,
                            "mixToMono" : false
                          },
                            "channelNumber" : "0,1",
                          "effects" : [

                          ],
                          "start" : 3061,
                          "duration" : 1368,
                          "mediaStart" : 3228,
                          "mediaDuration" : 1368,
                          "scalar" : 1,
                          "metadata" : {
                            "clipSpeedAttribute" : false
                          },
                          "animationTracks" : {

                          }
                        },
                        {
                          "id" : 307,
                          "_type" : "AMFile",
                          "src" : 18,
                          "trackNumber" : 0,
                          "attributes" : {
                            "ident" : "0508-recursion-fixed",
                            "gain" : 1.0,
                            "mixToMono" : false
                          },
                            "channelNumber" : "0,1",
                          "effects" : [

                          ],
                          "start" : 4429,
                          "duration" : 134,
                          "mediaStart" : 4832,
                          "mediaDuration" : 134,
                          "scalar" : 1,
                          "metadata" : {
                            "clipSpeedAttribute" : false
                          },
                          "animationTracks" : {

                          }
                        },
                        {
                          "id" : 308,
                          "_type" : "AMFile",
                          "src" : 18,
                          "trackNumber" : 0,
                          "attributes" : {
                            "ident" : "0508-recursion-fixed",
                            "gain" : 1.0,
                            "mixToMono" : false
                          },
                            "channelNumber" : "0,1",
                          "effects" : [

                          ],
                          "start" : 4563,
                          "duration" : 649,
                          "mediaStart" : 5071,
                          "mediaDuration" : 649,
                          "scalar" : 1,
                          "metadata" : {
                            "clipSpeedAttribute" : false
                          },
                          "animationTracks" : {

                          }
                        },
                        {
                          "id" : 309,
                          "_type" : "AMFile",
                          "src" : 18,
                          "trackNumber" : 0,
                          "attributes" : {
                            "ident" : "0508-recursion-fixed",
                            "gain" : 1.0,
                            "mixToMono" : false
                          },
                            "channelNumber" : "0,1",
                          "effects" : [

                          ],
                          "start" : 5212,
                          "duration" : 5186,
                          "mediaStart" : 6466,
                          "mediaDuration" : 5186,
                          "scalar" : 1,
                          "metadata" : {
                            "clipSpeedAttribute" : false
                          },
                          "animationTracks" : {

                          }
                        },
                        {
                          "id" : 310,
                          "_type" : "AMFile",
                          "src" : 18,
                          "trackNumber" : 0,
                          "attributes" : {
                            "ident" : "0508-recursion-fixed",
                            "gain" : 1.0,
                            "mixToMono" : false
                          },
                            "channelNumber" : "0,1",
                          "effects" : [

                          ],
                          "start" : 10398,
                          "duration" : 178,
                          "mediaStart" : 11815,
                          "mediaDuration" : 178,
                          "scalar" : 1,
                          "metadata" : {
                            "clipSpeedAttribute" : false
                          },
                          "animationTracks" : {

                          }
                        },
                        {
                          "id" : 311,
                          "_type" : "AMFile",
                          "src" : 18,
                          "trackNumber" : 0,
                          "attributes" : {
                            "ident" : "0508-recursion-fixed",
                            "gain" : 1.0,
                            "mixToMono" : false
                          },
                            "channelNumber" : "0,1",
                          "effects" : [

                          ],
                          "start" : 10576,
                          "duration" : 1185,
                          "mediaStart" : 12432,
                          "mediaDuration" : 1185,
                          "scalar" : 1,
                          "metadata" : {
                            "clipSpeedAttribute" : false
                          },
                          "animationTracks" : {

                          }
                        },
                        {
                          "id" : 312,
                          "_type" : "AMFile",
                          "src" : 18,
                          "trackNumber" : 0,
                          "attributes" : {
                            "ident" : "0508-recursion-fixed",
                            "gain" : 1.0,
                            "mixToMono" : false
                          },
                            "channelNumber" : "0,1",
                          "effects" : [

                          ],
                          "start" : 11761,
                          "duration" : 41,
                          "mediaStart" : 13639,
                          "mediaDuration" : 41,
                          "scalar" : 1,
                          "metadata" : {
                            "clipSpeedAttribute" : false
                          },
                          "animationTracks" : {

                          }
                        },
                        {
                          "id" : 313,
                          "_type" : "AMFile",
                          "src" : 18,
                          "trackNumber" : 0,
                          "attributes" : {
                            "ident" : "0508-recursion-fixed",
                            "gain" : 1.0,
                            "mixToMono" : false
                          },
                            "channelNumber" : "0,1",
                          "effects" : [

                          ],
                          "start" : 11802,
                          "duration" : 20031,
                          "mediaStart" : 14655,
                          "mediaDuration" : 20031,
                          "scalar" : 1,
                          "metadata" : {
                            "clipSpeedAttribute" : false
                          },
                          "animationTracks" : {

                          }
                        }
                    ],
                    "effects" : [

                    ],
                    "start" : 13352,
                    "duration" : 50,
                    "mediaStart" : 12498,
                    "mediaDuration" : 50,
                    "scalar" : 1,
                    "metadata" : {
                      "clipSpeedAttribute" : false
                    },
                    "animationTracks" : {

                    }
                  },
                  {
                    "id" : 314,
                    "_type" : "StitchedMedia",
                    "minMediaStart" : 0,
                    "attributes" : {
                      "ident" : "0508-recursion-fixed",
                      "gain" : 1.0,
                      "mixToMono" : false
                    },
                    "parameters" : {
                      "volume" : 1.0,
                      "cursorOpacity" : 1.0,
                      "cursorScale" : 1.0
                    },
                    "medias" : [
                        {
                          "id" : 315,
                          "_type" : "AMFile",
                          "src" : 18,
                          "trackNumber" : 0,
                          "attributes" : {
                            "ident" : "0508-recursion-fixed",
                            "gain" : 1.0,
                            "mixToMono" : false
                          },
                            "channelNumber" : "0,1",
                          "effects" : [

                          ],
                          "start" : 0,
                          "duration" : 1270,
                          "mediaStart" : 0,
                          "mediaDuration" : 1270,
                          "scalar" : 1,
                          "metadata" : {
                            "clipSpeedAttribute" : false
                          },
                          "animationTracks" : {

                          }
                        },
                        {
                          "id" : 316,
                          "_type" : "AMFile",
                          "src" : 18,
                          "trackNumber" : 0,
                          "attributes" : {
                            "ident" : "0508-recursion-fixed",
                            "gain" : 1.0,
                            "mixToMono" : false
                          },
                            "channelNumber" : "0,1",
                          "effects" : [

                          ],
                          "start" : 1270,
                          "duration" : 606,
                          "mediaStart" : 1283,
                          "mediaDuration" : 606,
                          "scalar" : 1,
                          "metadata" : {
                            "clipSpeedAttribute" : false
                          },
                          "animationTracks" : {

                          }
                        },
                        {
                          "id" : 317,
                          "_type" : "AMFile",
                          "src" : 18,
                          "trackNumber" : 0,
                          "attributes" : {
                            "ident" : "0508-recursion-fixed",
                            "gain" : 1.0,
                            "mixToMono" : false
                          },
                            "channelNumber" : "0,1",
                          "effects" : [

                          ],
                          "start" : 1876,
                          "duration" : 450,
                          "mediaStart" : 1900,
                          "mediaDuration" : 450,
                          "scalar" : 1,
                          "metadata" : {
                            "clipSpeedAttribute" : false
                          },
                          "animationTracks" : {

                          }
                        },
                        {
                          "id" : 318,
                          "_type" : "AMFile",
                          "src" : 18,
                          "trackNumber" : 0,
                          "attributes" : {
                            "ident" : "0508-recursion-fixed",
                            "gain" : 1.0,
                            "mixToMono" : false
                          },
                            "channelNumber" : "0,1",
                          "effects" : [

                          ],
                          "start" : 2326,
                          "duration" : 735,
                          "mediaStart" : 2388,
                          "mediaDuration" : 735,
                          "scalar" : 1,
                          "metadata" : {
                            "clipSpeedAttribute" : false
                          },
                          "animationTracks" : {

                          }
                        },
                        {
                          "id" : 319,
                          "_type" : "AMFile",
                          "src" : 18,
                          "trackNumber" : 0,
                          "attributes" : {
                            "ident" : "0508-recursion-fixed",
                            "gain" : 1.0,
                            "mixToMono" : false
                          },
                            "channelNumber" : "0,1",
                          "effects" : [

                          ],
                          "start" : 3061,
                          "duration" : 1368,
                          "mediaStart" : 3228,
                          "mediaDuration" : 1368,
                          "scalar" : 1,
                          "metadata" : {
                            "clipSpeedAttribute" : false
                          },
                          "animationTracks" : {

                          }
                        },
                        {
                          "id" : 320,
                          "_type" : "AMFile",
                          "src" : 18,
                          "trackNumber" : 0,
                          "attributes" : {
                            "ident" : "0508-recursion-fixed",
                            "gain" : 1.0,
                            "mixToMono" : false
                          },
                            "channelNumber" : "0,1",
                          "effects" : [

                          ],
                          "start" : 4429,
                          "duration" : 134,
                          "mediaStart" : 4832,
                          "mediaDuration" : 134,
                          "scalar" : 1,
                          "metadata" : {
                            "clipSpeedAttribute" : false
                          },
                          "animationTracks" : {

                          }
                        },
                        {
                          "id" : 321,
                          "_type" : "AMFile",
                          "src" : 18,
                          "trackNumber" : 0,
                          "attributes" : {
                            "ident" : "0508-recursion-fixed",
                            "gain" : 1.0,
                            "mixToMono" : false
                          },
                            "channelNumber" : "0,1",
                          "effects" : [

                          ],
                          "start" : 4563,
                          "duration" : 649,
                          "mediaStart" : 5071,
                          "mediaDuration" : 649,
                          "scalar" : 1,
                          "metadata" : {
                            "clipSpeedAttribute" : false
                          },
                          "animationTracks" : {

                          }
                        },
                        {
                          "id" : 322,
                          "_type" : "AMFile",
                          "src" : 18,
                          "trackNumber" : 0,
                          "attributes" : {
                            "ident" : "0508-recursion-fixed",
                            "gain" : 1.0,
                            "mixToMono" : false
                          },
                            "channelNumber" : "0,1",
                          "effects" : [

                          ],
                          "start" : 5212,
                          "duration" : 5186,
                          "mediaStart" : 6466,
                          "mediaDuration" : 5186,
                          "scalar" : 1,
                          "metadata" : {
                            "clipSpeedAttribute" : false
                          },
                          "animationTracks" : {

                          }
                        },
                        {
                          "id" : 323,
                          "_type" : "AMFile",
                          "src" : 18,
                          "trackNumber" : 0,
                          "attributes" : {
                            "ident" : "0508-recursion-fixed",
                            "gain" : 1.0,
                            "mixToMono" : false
                          },
                            "channelNumber" : "0,1",
                          "effects" : [

                          ],
                          "start" : 10398,
                          "duration" : 178,
                          "mediaStart" : 11815,
                          "mediaDuration" : 178,
                          "scalar" : 1,
                          "metadata" : {
                            "clipSpeedAttribute" : false
                          },
                          "animationTracks" : {

                          }
                        },
                        {
                          "id" : 324,
                          "_type" : "AMFile",
                          "src" : 18,
                          "trackNumber" : 0,
                          "attributes" : {
                            "ident" : "0508-recursion-fixed",
                            "gain" : 1.0,
                            "mixToMono" : false
                          },
                            "channelNumber" : "0,1",
                          "effects" : [

                          ],
                          "start" : 10576,
                          "duration" : 1185,
                          "mediaStart" : 12432,
                          "mediaDuration" : 1185,
                          "scalar" : 1,
                          "metadata" : {
                            "clipSpeedAttribute" : false
                          },
                          "animationTracks" : {

                          }
                        },
                        {
                          "id" : 325,
                          "_type" : "AMFile",
                          "src" : 18,
                          "trackNumber" : 0,
                          "attributes" : {
                            "ident" : "0508-recursion-fixed",
                            "gain" : 1.0,
                            "mixToMono" : false
                          },
                            "channelNumber" : "0,1",
                          "effects" : [

                          ],
                          "start" : 11761,
                          "duration" : 41,
                          "mediaStart" : 13639,
                          "mediaDuration" : 41,
                          "scalar" : 1,
                          "metadata" : {
                            "clipSpeedAttribute" : false
                          },
                          "animationTracks" : {

                          }
                        },
                        {
                          "id" : 326,
                          "_type" : "AMFile",
                          "src" : 18,
                          "trackNumber" : 0,
                          "attributes" : {
                            "ident" : "0508-recursion-fixed",
                            "gain" : 1.0,
                            "mixToMono" : false
                          },
                            "channelNumber" : "0,1",
                          "effects" : [

                          ],
                          "start" : 11802,
                          "duration" : 20031,
                          "mediaStart" : 14655,
                          "mediaDuration" : 20031,
                          "scalar" : 1,
                          "metadata" : {
                            "clipSpeedAttribute" : false
                          },
                          "animationTracks" : {

                          }
                        }
                    ],
                    "effects" : [

                    ],
                    "start" : 13411,
                    "duration" : 40,
                    "mediaStart" : 12548,
                    "mediaDuration" : 40,
                    "scalar" : 1,
                    "metadata" : {
                      "clipSpeedAttribute" : false
                    },
                    "animationTracks" : {

                    }
                  },
                  {
                    "id" : 327,
                    "_type" : "StitchedMedia",
                    "minMediaStart" : 0,
                    "attributes" : {
                      "ident" : "0508-recursion-fixed",
                      "gain" : 1.0,
                      "mixToMono" : false
                    },
                    "parameters" : {
                      "volume" : {
                        "type" : "double",
                        "keyframes" : [
                          {
                            "endTime" : 0,
                            "time" : 0,
                            "value" : 1.0,
                            "duration" : 0
                          },
                          {
                            "endTime" : 13148,
                            "time" : 13148,
                            "value" : 1.0,
                            "duration" : 0
                          },
                          {
                            "endTime" : 13149,
                            "time" : 13149,
                            "value" : 0.0,
                            "duration" : 0
                          },
                          {
                            "endTime" : 13183,
                            "time" : 13183,
                            "value" : 0.0,
                            "duration" : 0
                          },
                          {
                            "endTime" : 13184,
                            "time" : 13184,
                            "value" : 1.0,
                            "duration" : 0
                          }
                        ]
                      },
                      "cursorOpacity" : 1.0,
                      "cursorScale" : 1.0
                    },
                    "medias" : [
                        {
                          "id" : 328,
                          "_type" : "AMFile",
                          "src" : 18,
                          "trackNumber" : 0,
                          "attributes" : {
                            "ident" : "0508-recursion-fixed",
                            "gain" : 1.0,
                            "mixToMono" : false
                          },
                            "channelNumber" : "0,1",
                          "effects" : [

                          ],
                          "start" : 0,
                          "duration" : 1270,
                          "mediaStart" : 0,
                          "mediaDuration" : 1270,
                          "scalar" : 1,
                          "metadata" : {
                            "clipSpeedAttribute" : false
                          },
                          "animationTracks" : {

                          }
                        },
                        {
                          "id" : 329,
                          "_type" : "AMFile",
                          "src" : 18,
                          "trackNumber" : 0,
                          "attributes" : {
                            "ident" : "0508-recursion-fixed",
                            "gain" : 1.0,
                            "mixToMono" : false
                          },
                            "channelNumber" : "0,1",
                          "effects" : [

                          ],
                          "start" : 1270,
                          "duration" : 606,
                          "mediaStart" : 1283,
                          "mediaDuration" : 606,
                          "scalar" : 1,
                          "metadata" : {
                            "clipSpeedAttribute" : false
                          },
                          "animationTracks" : {

                          }
                        },
                        {
                          "id" : 330,
                          "_type" : "AMFile",
                          "src" : 18,
                          "trackNumber" : 0,
                          "attributes" : {
                            "ident" : "0508-recursion-fixed",
                            "gain" : 1.0,
                            "mixToMono" : false
                          },
                            "channelNumber" : "0,1",
                          "effects" : [

                          ],
                          "start" : 1876,
                          "duration" : 450,
                          "mediaStart" : 1900,
                          "mediaDuration" : 450,
                          "scalar" : 1,
                          "metadata" : {
                            "clipSpeedAttribute" : false
                          },
                          "animationTracks" : {

                          }
                        },
                        {
                          "id" : 331,
                          "_type" : "AMFile",
                          "src" : 18,
                          "trackNumber" : 0,
                          "attributes" : {
                            "ident" : "0508-recursion-fixed",
                            "gain" : 1.0,
                            "mixToMono" : false
                          },
                            "channelNumber" : "0,1",
                          "effects" : [

                          ],
                          "start" : 2326,
                          "duration" : 735,
                          "mediaStart" : 2388,
                          "mediaDuration" : 735,
                          "scalar" : 1,
                          "metadata" : {
                            "clipSpeedAttribute" : false
                          },
                          "animationTracks" : {

                          }
                        },
                        {
                          "id" : 332,
                          "_type" : "AMFile",
                          "src" : 18,
                          "trackNumber" : 0,
                          "attributes" : {
                            "ident" : "0508-recursion-fixed",
                            "gain" : 1.0,
                            "mixToMono" : false
                          },
                            "channelNumber" : "0,1",
                          "effects" : [

                          ],
                          "start" : 3061,
                          "duration" : 1368,
                          "mediaStart" : 3228,
                          "mediaDuration" : 1368,
                          "scalar" : 1,
                          "metadata" : {
                            "clipSpeedAttribute" : false
                          },
                          "animationTracks" : {

                          }
                        },
                        {
                          "id" : 333,
                          "_type" : "AMFile",
                          "src" : 18,
                          "trackNumber" : 0,
                          "attributes" : {
                            "ident" : "0508-recursion-fixed",
                            "gain" : 1.0,
                            "mixToMono" : false
                          },
                            "channelNumber" : "0,1",
                          "effects" : [

                          ],
                          "start" : 4429,
                          "duration" : 134,
                          "mediaStart" : 4832,
                          "mediaDuration" : 134,
                          "scalar" : 1,
                          "metadata" : {
                            "clipSpeedAttribute" : false
                          },
                          "animationTracks" : {

                          }
                        },
                        {
                          "id" : 334,
                          "_type" : "AMFile",
                          "src" : 18,
                          "trackNumber" : 0,
                          "attributes" : {
                            "ident" : "0508-recursion-fixed",
                            "gain" : 1.0,
                            "mixToMono" : false
                          },
                            "channelNumber" : "0,1",
                          "effects" : [

                          ],
                          "start" : 4563,
                          "duration" : 649,
                          "mediaStart" : 5071,
                          "mediaDuration" : 649,
                          "scalar" : 1,
                          "metadata" : {
                            "clipSpeedAttribute" : false
                          },
                          "animationTracks" : {

                          }
                        },
                        {
                          "id" : 335,
                          "_type" : "AMFile",
                          "src" : 18,
                          "trackNumber" : 0,
                          "attributes" : {
                            "ident" : "0508-recursion-fixed",
                            "gain" : 1.0,
                            "mixToMono" : false
                          },
                            "channelNumber" : "0,1",
                          "effects" : [

                          ],
                          "start" : 5212,
                          "duration" : 5186,
                          "mediaStart" : 6466,
                          "mediaDuration" : 5186,
                          "scalar" : 1,
                          "metadata" : {
                            "clipSpeedAttribute" : false
                          },
                          "animationTracks" : {

                          }
                        },
                        {
                          "id" : 336,
                          "_type" : "AMFile",
                          "src" : 18,
                          "trackNumber" : 0,
                          "attributes" : {
                            "ident" : "0508-recursion-fixed",
                            "gain" : 1.0,
                            "mixToMono" : false
                          },
                            "channelNumber" : "0,1",
                          "effects" : [

                          ],
                          "start" : 10398,
                          "duration" : 178,
                          "mediaStart" : 11815,
                          "mediaDuration" : 178,
                          "scalar" : 1,
                          "metadata" : {
                            "clipSpeedAttribute" : false
                          },
                          "animationTracks" : {

                          }
                        },
                        {
                          "id" : 337,
                          "_type" : "AMFile",
                          "src" : 18,
                          "trackNumber" : 0,
                          "attributes" : {
                            "ident" : "0508-recursion-fixed",
                            "gain" : 1.0,
                            "mixToMono" : false
                          },
                            "channelNumber" : "0,1",
                          "effects" : [

                          ],
                          "start" : 10576,
                          "duration" : 1185,
                          "mediaStart" : 12432,
                          "mediaDuration" : 1185,
                          "scalar" : 1,
                          "metadata" : {
                            "clipSpeedAttribute" : false
                          },
                          "animationTracks" : {

                          }
                        },
                        {
                          "id" : 338,
                          "_type" : "AMFile",
                          "src" : 18,
                          "trackNumber" : 0,
                          "attributes" : {
                            "ident" : "0508-recursion-fixed",
                            "gain" : 1.0,
                            "mixToMono" : false
                          },
                            "channelNumber" : "0,1",
                          "effects" : [

                          ],
                          "start" : 11761,
                          "duration" : 41,
                          "mediaStart" : 13639,
                          "mediaDuration" : 41,
                          "scalar" : 1,
                          "metadata" : {
                            "clipSpeedAttribute" : false
                          },
                          "animationTracks" : {

                          }
                        },
                        {
                          "id" : 339,
                          "_type" : "AMFile",
                          "src" : 18,
                          "trackNumber" : 0,
                          "attributes" : {
                            "ident" : "0508-recursion-fixed",
                            "gain" : 1.0,
                            "mixToMono" : false
                          },
                            "channelNumber" : "0,1",
                          "effects" : [

                          ],
                          "start" : 11802,
                          "duration" : 1049,
                          "mediaStart" : 14655,
                          "mediaDuration" : 1049,
                          "scalar" : 1,
                          "metadata" : {
                            "clipSpeedAttribute" : false
                          },
                          "animationTracks" : {

                          }
                        },
                        {
                          "id" : 340,
                          "_type" : "AMFile",
                          "src" : 18,
                          "trackNumber" : 0,
                          "attributes" : {
                            "ident" : "0508-recursion-fixed",
                            "gain" : 1.0,
                            "mixToMono" : false
                          },
                            "channelNumber" : "0,1",
                          "effects" : [

                          ],
                          "start" : 12851,
                          "duration" : 18919,
                          "mediaStart" : 15767,
                          "mediaDuration" : 18919,
                          "scalar" : 1,
                          "metadata" : {
                            "clipSpeedAttribute" : false
                          },
                          "animationTracks" : {

                          }
                        }
                    ],
                    "effects" : [

                    ],
                    "start" : 13462,
                    "duration" : 592,
                    "mediaStart" : 12588,
                    "mediaDuration" : 592,
                    "scalar" : 1,
                    "metadata" : {
                      "clipSpeedAttribute" : false
                    },
                    "animationTracks" : {

                    }
                  },
                  {
                    "id" : 341,
                    "_type" : "StitchedMedia",
                    "minMediaStart" : 0,
                    "attributes" : {
                      "ident" : "0508-recursion-fixed",
                      "gain" : 1.0,
                      "mixToMono" : false
                    },
                    "parameters" : {
                      "volume" : {
                        "type" : "double",
                        "keyframes" : [
                          {
                            "endTime" : 0,
                            "time" : 0,
                            "value" : 1.0,
                            "duration" : 0
                          },
                          {
                            "endTime" : 13148,
                            "time" : 13148,
                            "value" : 1.0,
                            "duration" : 0
                          },
                          {
                            "endTime" : 13149,
                            "time" : 13149,
                            "value" : 0.0,
                            "duration" : 0
                          },
                          {
                            "endTime" : 13183,
                            "time" : 13183,
                            "value" : 0.0,
                            "duration" : 0
                          },
                          {
                            "endTime" : 13184,
                            "time" : 13184,
                            "value" : 1.0,
                            "duration" : 0
                          }
                        ]
                      },
                      "cursorOpacity" : 1.0,
                      "cursorScale" : 1.0
                    },
                    "medias" : [
                        {
                          "id" : 342,
                          "_type" : "AMFile",
                          "src" : 18,
                          "trackNumber" : 0,
                          "attributes" : {
                            "ident" : "0508-recursion-fixed",
                            "gain" : 1.0,
                            "mixToMono" : false
                          },
                            "channelNumber" : "0,1",
                          "effects" : [

                          ],
                          "start" : 0,
                          "duration" : 1270,
                          "mediaStart" : 0,
                          "mediaDuration" : 1270,
                          "scalar" : 1,
                          "metadata" : {
                            "clipSpeedAttribute" : false
                          },
                          "animationTracks" : {

                          }
                        },
                        {
                          "id" : 343,
                          "_type" : "AMFile",
                          "src" : 18,
                          "trackNumber" : 0,
                          "attributes" : {
                            "ident" : "0508-recursion-fixed",
                            "gain" : 1.0,
                            "mixToMono" : false
                          },
                            "channelNumber" : "0,1",
                          "effects" : [

                          ],
                          "start" : 1270,
                          "duration" : 606,
                          "mediaStart" : 1283,
                          "mediaDuration" : 606,
                          "scalar" : 1,
                          "metadata" : {
                            "clipSpeedAttribute" : false
                          },
                          "animationTracks" : {

                          }
                        },
                        {
                          "id" : 344,
                          "_type" : "AMFile",
                          "src" : 18,
                          "trackNumber" : 0,
                          "attributes" : {
                            "ident" : "0508-recursion-fixed",
                            "gain" : 1.0,
                            "mixToMono" : false
                          },
                            "channelNumber" : "0,1",
                          "effects" : [

                          ],
                          "start" : 1876,
                          "duration" : 450,
                          "mediaStart" : 1900,
                          "mediaDuration" : 450,
                          "scalar" : 1,
                          "metadata" : {
                            "clipSpeedAttribute" : false
                          },
                          "animationTracks" : {

                          }
                        },
                        {
                          "id" : 345,
                          "_type" : "AMFile",
                          "src" : 18,
                          "trackNumber" : 0,
                          "attributes" : {
                            "ident" : "0508-recursion-fixed",
                            "gain" : 1.0,
                            "mixToMono" : false
                          },
                            "channelNumber" : "0,1",
                          "effects" : [

                          ],
                          "start" : 2326,
                          "duration" : 735,
                          "mediaStart" : 2388,
                          "mediaDuration" : 735,
                          "scalar" : 1,
                          "metadata" : {
                            "clipSpeedAttribute" : false
                          },
                          "animationTracks" : {

                          }
                        },
                        {
                          "id" : 346,
                          "_type" : "AMFile",
                          "src" : 18,
                          "trackNumber" : 0,
                          "attributes" : {
                            "ident" : "0508-recursion-fixed",
                            "gain" : 1.0,
                            "mixToMono" : false
                          },
                            "channelNumber" : "0,1",
                          "effects" : [

                          ],
                          "start" : 3061,
                          "duration" : 1368,
                          "mediaStart" : 3228,
                          "mediaDuration" : 1368,
                          "scalar" : 1,
                          "metadata" : {
                            "clipSpeedAttribute" : false
                          },
                          "animationTracks" : {

                          }
                        },
                        {
                          "id" : 347,
                          "_type" : "AMFile",
                          "src" : 18,
                          "trackNumber" : 0,
                          "attributes" : {
                            "ident" : "0508-recursion-fixed",
                            "gain" : 1.0,
                            "mixToMono" : false
                          },
                            "channelNumber" : "0,1",
                          "effects" : [

                          ],
                          "start" : 4429,
                          "duration" : 134,
                          "mediaStart" : 4832,
                          "mediaDuration" : 134,
                          "scalar" : 1,
                          "metadata" : {
                            "clipSpeedAttribute" : false
                          },
                          "animationTracks" : {

                          }
                        },
                        {
                          "id" : 348,
                          "_type" : "AMFile",
                          "src" : 18,
                          "trackNumber" : 0,
                          "attributes" : {
                            "ident" : "0508-recursion-fixed",
                            "gain" : 1.0,
                            "mixToMono" : false
                          },
                            "channelNumber" : "0,1",
                          "effects" : [

                          ],
                          "start" : 4563,
                          "duration" : 649,
                          "mediaStart" : 5071,
                          "mediaDuration" : 649,
                          "scalar" : 1,
                          "metadata" : {
                            "clipSpeedAttribute" : false
                          },
                          "animationTracks" : {

                          }
                        },
                        {
                          "id" : 349,
                          "_type" : "AMFile",
                          "src" : 18,
                          "trackNumber" : 0,
                          "attributes" : {
                            "ident" : "0508-recursion-fixed",
                            "gain" : 1.0,
                            "mixToMono" : false
                          },
                            "channelNumber" : "0,1",
                          "effects" : [

                          ],
                          "start" : 5212,
                          "duration" : 5186,
                          "mediaStart" : 6466,
                          "mediaDuration" : 5186,
                          "scalar" : 1,
                          "metadata" : {
                            "clipSpeedAttribute" : false
                          },
                          "animationTracks" : {

                          }
                        },
                        {
                          "id" : 350,
                          "_type" : "AMFile",
                          "src" : 18,
                          "trackNumber" : 0,
                          "attributes" : {
                            "ident" : "0508-recursion-fixed",
                            "gain" : 1.0,
                            "mixToMono" : false
                          },
                            "channelNumber" : "0,1",
                          "effects" : [

                          ],
                          "start" : 10398,
                          "duration" : 178,
                          "mediaStart" : 11815,
                          "mediaDuration" : 178,
                          "scalar" : 1,
                          "metadata" : {
                            "clipSpeedAttribute" : false
                          },
                          "animationTracks" : {

                          }
                        },
                        {
                          "id" : 351,
                          "_type" : "AMFile",
                          "src" : 18,
                          "trackNumber" : 0,
                          "attributes" : {
                            "ident" : "0508-recursion-fixed",
                            "gain" : 1.0,
                            "mixToMono" : false
                          },
                            "channelNumber" : "0,1",
                          "effects" : [

                          ],
                          "start" : 10576,
                          "duration" : 1185,
                          "mediaStart" : 12432,
                          "mediaDuration" : 1185,
                          "scalar" : 1,
                          "metadata" : {
                            "clipSpeedAttribute" : false
                          },
                          "animationTracks" : {

                          }
                        },
                        {
                          "id" : 352,
                          "_type" : "AMFile",
                          "src" : 18,
                          "trackNumber" : 0,
                          "attributes" : {
                            "ident" : "0508-recursion-fixed",
                            "gain" : 1.0,
                            "mixToMono" : false
                          },
                            "channelNumber" : "0,1",
                          "effects" : [

                          ],
                          "start" : 11761,
                          "duration" : 41,
                          "mediaStart" : 13639,
                          "mediaDuration" : 41,
                          "scalar" : 1,
                          "metadata" : {
                            "clipSpeedAttribute" : false
                          },
                          "animationTracks" : {

                          }
                        },
                        {
                          "id" : 353,
                          "_type" : "AMFile",
                          "src" : 18,
                          "trackNumber" : 0,
                          "attributes" : {
                            "ident" : "0508-recursion-fixed",
                            "gain" : 1.0,
                            "mixToMono" : false
                          },
                            "channelNumber" : "0,1",
                          "effects" : [

                          ],
                          "start" : 11802,
                          "duration" : 1049,
                          "mediaStart" : 14655,
                          "mediaDuration" : 1049,
                          "scalar" : 1,
                          "metadata" : {
                            "clipSpeedAttribute" : false
                          },
                          "animationTracks" : {

                          }
                        },
                        {
                          "id" : 354,
                          "_type" : "AMFile",
                          "src" : 18,
                          "trackNumber" : 0,
                          "attributes" : {
                            "ident" : "0508-recursion-fixed",
                            "gain" : 1.0,
                            "mixToMono" : false
                          },
                            "channelNumber" : "0,1",
                          "effects" : [

                          ],
                          "start" : 12851,
                          "duration" : 18919,
                          "mediaStart" : 15767,
                          "mediaDuration" : 18919,
                          "scalar" : 1,
                          "metadata" : {
                            "clipSpeedAttribute" : false
                          },
                          "animationTracks" : {

                          }
                        }
                    ],
                    "effects" : [

                    ],
                    "start" : 14069,
                    "duration" : 25,
                    "mediaStart" : 13180,
                    "mediaDuration" : 25,
                    "scalar" : 1,
                    "metadata" : {
                      "clipSpeedAttribute" : false
                    },
                    "animationTracks" : {

                    }
                  },
                  {
                    "id" : 355,
                    "_type" : "StitchedMedia",
                    "minMediaStart" : 0,
                    "attributes" : {
                      "ident" : "0508-recursion-fixed",
                      "gain" : 1.0,
                      "mixToMono" : false
                    },
                    "parameters" : {
                      "volume" : {
                        "type" : "double",
                        "keyframes" : [
                          {
                            "endTime" : 0,
                            "time" : 0,
                            "value" : 1.0,
                            "duration" : 0
                          },
                          {
                            "endTime" : 13148,
                            "time" : 13148,
                            "value" : 1.0,
                            "duration" : 0
                          },
                          {
                            "endTime" : 13149,
                            "time" : 13149,
                            "value" : 0.0,
                            "duration" : 0
                          },
                          {
                            "endTime" : 13183,
                            "time" : 13183,
                            "value" : 0.0,
                            "duration" : 0
                          },
                          {
                            "endTime" : 13184,
                            "time" : 13184,
                            "value" : 1.0,
                            "duration" : 0
                          }
                        ]
                      },
                      "cursorOpacity" : 1.0,
                      "cursorScale" : 1.0
                    },
                    "medias" : [
                        {
                          "id" : 356,
                          "_type" : "AMFile",
                          "src" : 18,
                          "trackNumber" : 0,
                          "attributes" : {
                            "ident" : "0508-recursion-fixed",
                            "gain" : 1.0,
                            "mixToMono" : false
                          },
                            "channelNumber" : "0,1",
                          "effects" : [

                          ],
                          "start" : 0,
                          "duration" : 1270,
                          "mediaStart" : 0,
                          "mediaDuration" : 1270,
                          "scalar" : 1,
                          "metadata" : {
                            "clipSpeedAttribute" : false
                          },
                          "animationTracks" : {

                          }
                        },
                        {
                          "id" : 357,
                          "_type" : "AMFile",
                          "src" : 18,
                          "trackNumber" : 0,
                          "attributes" : {
                            "ident" : "0508-recursion-fixed",
                            "gain" : 1.0,
                            "mixToMono" : false
                          },
                            "channelNumber" : "0,1",
                          "effects" : [

                          ],
                          "start" : 1270,
                          "duration" : 606,
                          "mediaStart" : 1283,
                          "mediaDuration" : 606,
                          "scalar" : 1,
                          "metadata" : {
                            "clipSpeedAttribute" : false
                          },
                          "animationTracks" : {

                          }
                        },
                        {
                          "id" : 358,
                          "_type" : "AMFile",
                          "src" : 18,
                          "trackNumber" : 0,
                          "attributes" : {
                            "ident" : "0508-recursion-fixed",
                            "gain" : 1.0,
                            "mixToMono" : false
                          },
                            "channelNumber" : "0,1",
                          "effects" : [

                          ],
                          "start" : 1876,
                          "duration" : 450,
                          "mediaStart" : 1900,
                          "mediaDuration" : 450,
                          "scalar" : 1,
                          "metadata" : {
                            "clipSpeedAttribute" : false
                          },
                          "animationTracks" : {

                          }
                        },
                        {
                          "id" : 359,
                          "_type" : "AMFile",
                          "src" : 18,
                          "trackNumber" : 0,
                          "attributes" : {
                            "ident" : "0508-recursion-fixed",
                            "gain" : 1.0,
                            "mixToMono" : false
                          },
                            "channelNumber" : "0,1",
                          "effects" : [

                          ],
                          "start" : 2326,
                          "duration" : 735,
                          "mediaStart" : 2388,
                          "mediaDuration" : 735,
                          "scalar" : 1,
                          "metadata" : {
                            "clipSpeedAttribute" : false
                          },
                          "animationTracks" : {

                          }
                        },
                        {
                          "id" : 360,
                          "_type" : "AMFile",
                          "src" : 18,
                          "trackNumber" : 0,
                          "attributes" : {
                            "ident" : "0508-recursion-fixed",
                            "gain" : 1.0,
                            "mixToMono" : false
                          },
                            "channelNumber" : "0,1",
                          "effects" : [

                          ],
                          "start" : 3061,
                          "duration" : 1368,
                          "mediaStart" : 3228,
                          "mediaDuration" : 1368,
                          "scalar" : 1,
                          "metadata" : {
                            "clipSpeedAttribute" : false
                          },
                          "animationTracks" : {

                          }
                        },
                        {
                          "id" : 361,
                          "_type" : "AMFile",
                          "src" : 18,
                          "trackNumber" : 0,
                          "attributes" : {
                            "ident" : "0508-recursion-fixed",
                            "gain" : 1.0,
                            "mixToMono" : false
                          },
                            "channelNumber" : "0,1",
                          "effects" : [

                          ],
                          "start" : 4429,
                          "duration" : 134,
                          "mediaStart" : 4832,
                          "mediaDuration" : 134,
                          "scalar" : 1,
                          "metadata" : {
                            "clipSpeedAttribute" : false
                          },
                          "animationTracks" : {

                          }
                        },
                        {
                          "id" : 362,
                          "_type" : "AMFile",
                          "src" : 18,
                          "trackNumber" : 0,
                          "attributes" : {
                            "ident" : "0508-recursion-fixed",
                            "gain" : 1.0,
                            "mixToMono" : false
                          },
                            "channelNumber" : "0,1",
                          "effects" : [

                          ],
                          "start" : 4563,
                          "duration" : 649,
                          "mediaStart" : 5071,
                          "mediaDuration" : 649,
                          "scalar" : 1,
                          "metadata" : {
                            "clipSpeedAttribute" : false
                          },
                          "animationTracks" : {

                          }
                        },
                        {
                          "id" : 363,
                          "_type" : "AMFile",
                          "src" : 18,
                          "trackNumber" : 0,
                          "attributes" : {
                            "ident" : "0508-recursion-fixed",
                            "gain" : 1.0,
                            "mixToMono" : false
                          },
                            "channelNumber" : "0,1",
                          "effects" : [

                          ],
                          "start" : 5212,
                          "duration" : 5186,
                          "mediaStart" : 6466,
                          "mediaDuration" : 5186,
                          "scalar" : 1,
                          "metadata" : {
                            "clipSpeedAttribute" : false
                          },
                          "animationTracks" : {

                          }
                        },
                        {
                          "id" : 364,
                          "_type" : "AMFile",
                          "src" : 18,
                          "trackNumber" : 0,
                          "attributes" : {
                            "ident" : "0508-recursion-fixed",
                            "gain" : 1.0,
                            "mixToMono" : false
                          },
                            "channelNumber" : "0,1",
                          "effects" : [

                          ],
                          "start" : 10398,
                          "duration" : 178,
                          "mediaStart" : 11815,
                          "mediaDuration" : 178,
                          "scalar" : 1,
                          "metadata" : {
                            "clipSpeedAttribute" : false
                          },
                          "animationTracks" : {

                          }
                        },
                        {
                          "id" : 365,
                          "_type" : "AMFile",
                          "src" : 18,
                          "trackNumber" : 0,
                          "attributes" : {
                            "ident" : "0508-recursion-fixed",
                            "gain" : 1.0,
                            "mixToMono" : false
                          },
                            "channelNumber" : "0,1",
                          "effects" : [

                          ],
                          "start" : 10576,
                          "duration" : 1185,
                          "mediaStart" : 12432,
                          "mediaDuration" : 1185,
                          "scalar" : 1,
                          "metadata" : {
                            "clipSpeedAttribute" : false
                          },
                          "animationTracks" : {

                          }
                        },
                        {
                          "id" : 366,
                          "_type" : "AMFile",
                          "src" : 18,
                          "trackNumber" : 0,
                          "attributes" : {
                            "ident" : "0508-recursion-fixed",
                            "gain" : 1.0,
                            "mixToMono" : false
                          },
                            "channelNumber" : "0,1",
                          "effects" : [

                          ],
                          "start" : 11761,
                          "duration" : 41,
                          "mediaStart" : 13639,
                          "mediaDuration" : 41,
                          "scalar" : 1,
                          "metadata" : {
                            "clipSpeedAttribute" : false
                          },
                          "animationTracks" : {

                          }
                        },
                        {
                          "id" : 367,
                          "_type" : "AMFile",
                          "src" : 18,
                          "trackNumber" : 0,
                          "attributes" : {
                            "ident" : "0508-recursion-fixed",
                            "gain" : 1.0,
                            "mixToMono" : false
                          },
                            "channelNumber" : "0,1",
                          "effects" : [

                          ],
                          "start" : 11802,
                          "duration" : 1049,
                          "mediaStart" : 14655,
                          "mediaDuration" : 1049,
                          "scalar" : 1,
                          "metadata" : {
                            "clipSpeedAttribute" : false
                          },
                          "animationTracks" : {

                          }
                        },
                        {
                          "id" : 368,
                          "_type" : "AMFile",
                          "src" : 18,
                          "trackNumber" : 0,
                          "attributes" : {
                            "ident" : "0508-recursion-fixed",
                            "gain" : 1.0,
                            "mixToMono" : false
                          },
                            "channelNumber" : "0,1",
                          "effects" : [

                          ],
                          "start" : 12851,
                          "duration" : 18919,
                          "mediaStart" : 15767,
                          "mediaDuration" : 18919,
                          "scalar" : 1,
                          "metadata" : {
                            "clipSpeedAttribute" : false
                          },
                          "animationTracks" : {

                          }
                        }
                    ],
                    "effects" : [

                    ],
                    "start" : 14139,
                    "duration" : 30,
                    "mediaStart" : 13205,
                    "mediaDuration" : 30,
                    "scalar" : 1,
                    "metadata" : {
                      "clipSpeedAttribute" : false
                    },
                    "animationTracks" : {

                    }
                  },
                  {
                    "id" : 369,
                    "_type" : "StitchedMedia",
                    "minMediaStart" : 0,
                    "attributes" : {
                      "ident" : "0508-recursion-fixed",
                      "gain" : 1.0,
                      "mixToMono" : false
                    },
                    "parameters" : {
                      "volume" : {
                        "type" : "double",
                        "keyframes" : [
                          {
                            "endTime" : 0,
                            "time" : 0,
                            "value" : 1.0,
                            "duration" : 0
                          },
                          {
                            "endTime" : 13148,
                            "time" : 13148,
                            "value" : 1.0,
                            "duration" : 0
                          },
                          {
                            "endTime" : 13149,
                            "time" : 13149,
                            "value" : 0.0,
                            "duration" : 0
                          },
                          {
                            "endTime" : 13183,
                            "time" : 13183,
                            "value" : 0.0,
                            "duration" : 0
                          },
                          {
                            "endTime" : 13184,
                            "time" : 13184,
                            "value" : 1.0,
                            "duration" : 0
                          },
                          {
                            "endTime" : 23953,
                            "time" : 23953,
                            "value" : 1.0,
                            "duration" : 0
                          },
                          {
                            "endTime" : 23954,
                            "time" : 23954,
                            "value" : 0.0,
                            "duration" : 0
                          },
                          {
                            "endTime" : 24119,
                            "time" : 24119,
                            "value" : 0.0,
                            "duration" : 0
                          },
                          {
                            "endTime" : 24120,
                            "time" : 24120,
                            "value" : 1.0,
                            "duration" : 0
                          }
                        ]
                      },
                      "cursorOpacity" : 1.0,
                      "cursorScale" : 1.0
                    },
                    "medias" : [
                        {
                          "id" : 370,
                          "_type" : "AMFile",
                          "src" : 18,
                          "trackNumber" : 0,
                          "attributes" : {
                            "ident" : "0508-recursion-fixed",
                            "gain" : 1.0,
                            "mixToMono" : false
                          },
                            "channelNumber" : "0,1",
                          "effects" : [

                          ],
                          "start" : 0,
                          "duration" : 1270,
                          "mediaStart" : 0,
                          "mediaDuration" : 1270,
                          "scalar" : 1,
                          "metadata" : {
                            "clipSpeedAttribute" : false
                          },
                          "animationTracks" : {

                          }
                        },
                        {
                          "id" : 371,
                          "_type" : "AMFile",
                          "src" : 18,
                          "trackNumber" : 0,
                          "attributes" : {
                            "ident" : "0508-recursion-fixed",
                            "gain" : 1.0,
                            "mixToMono" : false
                          },
                            "channelNumber" : "0,1",
                          "effects" : [

                          ],
                          "start" : 1270,
                          "duration" : 606,
                          "mediaStart" : 1283,
                          "mediaDuration" : 606,
                          "scalar" : 1,
                          "metadata" : {
                            "clipSpeedAttribute" : false
                          },
                          "animationTracks" : {

                          }
                        },
                        {
                          "id" : 372,
                          "_type" : "AMFile",
                          "src" : 18,
                          "trackNumber" : 0,
                          "attributes" : {
                            "ident" : "0508-recursion-fixed",
                            "gain" : 1.0,
                            "mixToMono" : false
                          },
                            "channelNumber" : "0,1",
                          "effects" : [

                          ],
                          "start" : 1876,
                          "duration" : 450,
                          "mediaStart" : 1900,
                          "mediaDuration" : 450,
                          "scalar" : 1,
                          "metadata" : {
                            "clipSpeedAttribute" : false
                          },
                          "animationTracks" : {

                          }
                        },
                        {
                          "id" : 373,
                          "_type" : "AMFile",
                          "src" : 18,
                          "trackNumber" : 0,
                          "attributes" : {
                            "ident" : "0508-recursion-fixed",
                            "gain" : 1.0,
                            "mixToMono" : false
                          },
                            "channelNumber" : "0,1",
                          "effects" : [

                          ],
                          "start" : 2326,
                          "duration" : 735,
                          "mediaStart" : 2388,
                          "mediaDuration" : 735,
                          "scalar" : 1,
                          "metadata" : {
                            "clipSpeedAttribute" : false
                          },
                          "animationTracks" : {

                          }
                        },
                        {
                          "id" : 374,
                          "_type" : "AMFile",
                          "src" : 18,
                          "trackNumber" : 0,
                          "attributes" : {
                            "ident" : "0508-recursion-fixed",
                            "gain" : 1.0,
                            "mixToMono" : false
                          },
                            "channelNumber" : "0,1",
                          "effects" : [

                          ],
                          "start" : 3061,
                          "duration" : 1368,
                          "mediaStart" : 3228,
                          "mediaDuration" : 1368,
                          "scalar" : 1,
                          "metadata" : {
                            "clipSpeedAttribute" : false
                          },
                          "animationTracks" : {

                          }
                        },
                        {
                          "id" : 375,
                          "_type" : "AMFile",
                          "src" : 18,
                          "trackNumber" : 0,
                          "attributes" : {
                            "ident" : "0508-recursion-fixed",
                            "gain" : 1.0,
                            "mixToMono" : false
                          },
                            "channelNumber" : "0,1",
                          "effects" : [

                          ],
                          "start" : 4429,
                          "duration" : 134,
                          "mediaStart" : 4832,
                          "mediaDuration" : 134,
                          "scalar" : 1,
                          "metadata" : {
                            "clipSpeedAttribute" : false
                          },
                          "animationTracks" : {

                          }
                        },
                        {
                          "id" : 376,
                          "_type" : "AMFile",
                          "src" : 18,
                          "trackNumber" : 0,
                          "attributes" : {
                            "ident" : "0508-recursion-fixed",
                            "gain" : 1.0,
                            "mixToMono" : false
                          },
                            "channelNumber" : "0,1",
                          "effects" : [

                          ],
                          "start" : 4563,
                          "duration" : 649,
                          "mediaStart" : 5071,
                          "mediaDuration" : 649,
                          "scalar" : 1,
                          "metadata" : {
                            "clipSpeedAttribute" : false
                          },
                          "animationTracks" : {

                          }
                        },
                        {
                          "id" : 377,
                          "_type" : "AMFile",
                          "src" : 18,
                          "trackNumber" : 0,
                          "attributes" : {
                            "ident" : "0508-recursion-fixed",
                            "gain" : 1.0,
                            "mixToMono" : false
                          },
                            "channelNumber" : "0,1",
                          "effects" : [

                          ],
                          "start" : 5212,
                          "duration" : 5186,
                          "mediaStart" : 6466,
                          "mediaDuration" : 5186,
                          "scalar" : 1,
                          "metadata" : {
                            "clipSpeedAttribute" : false
                          },
                          "animationTracks" : {

                          }
                        },
                        {
                          "id" : 378,
                          "_type" : "AMFile",
                          "src" : 18,
                          "trackNumber" : 0,
                          "attributes" : {
                            "ident" : "0508-recursion-fixed",
                            "gain" : 1.0,
                            "mixToMono" : false
                          },
                            "channelNumber" : "0,1",
                          "effects" : [

                          ],
                          "start" : 10398,
                          "duration" : 178,
                          "mediaStart" : 11815,
                          "mediaDuration" : 178,
                          "scalar" : 1,
                          "metadata" : {
                            "clipSpeedAttribute" : false
                          },
                          "animationTracks" : {

                          }
                        },
                        {
                          "id" : 379,
                          "_type" : "AMFile",
                          "src" : 18,
                          "trackNumber" : 0,
                          "attributes" : {
                            "ident" : "0508-recursion-fixed",
                            "gain" : 1.0,
                            "mixToMono" : false
                          },
                            "channelNumber" : "0,1",
                          "effects" : [

                          ],
                          "start" : 10576,
                          "duration" : 1185,
                          "mediaStart" : 12432,
                          "mediaDuration" : 1185,
                          "scalar" : 1,
                          "metadata" : {
                            "clipSpeedAttribute" : false
                          },
                          "animationTracks" : {

                          }
                        },
                        {
                          "id" : 380,
                          "_type" : "AMFile",
                          "src" : 18,
                          "trackNumber" : 0,
                          "attributes" : {
                            "ident" : "0508-recursion-fixed",
                            "gain" : 1.0,
                            "mixToMono" : false
                          },
                            "channelNumber" : "0,1",
                          "effects" : [

                          ],
                          "start" : 11761,
                          "duration" : 41,
                          "mediaStart" : 13639,
                          "mediaDuration" : 41,
                          "scalar" : 1,
                          "metadata" : {
                            "clipSpeedAttribute" : false
                          },
                          "animationTracks" : {

                          }
                        },
                        {
                          "id" : 381,
                          "_type" : "AMFile",
                          "src" : 18,
                          "trackNumber" : 0,
                          "attributes" : {
                            "ident" : "0508-recursion-fixed",
                            "gain" : 1.0,
                            "mixToMono" : false
                          },
                            "channelNumber" : "0,1",
                          "effects" : [

                          ],
                          "start" : 11802,
                          "duration" : 1049,
                          "mediaStart" : 14655,
                          "mediaDuration" : 1049,
                          "scalar" : 1,
                          "metadata" : {
                            "clipSpeedAttribute" : false
                          },
                          "animationTracks" : {

                          }
                        },
                        {
                          "id" : 382,
                          "_type" : "AMFile",
                          "src" : 18,
                          "trackNumber" : 0,
                          "attributes" : {
                            "ident" : "0508-recursion-fixed",
                            "gain" : 1.0,
                            "mixToMono" : false
                          },
                            "channelNumber" : "0,1",
                          "effects" : [

                          ],
                          "start" : 12851,
                          "duration" : 1895,
                          "mediaStart" : 15767,
                          "mediaDuration" : 1895,
                          "scalar" : 1,
                          "metadata" : {
                            "clipSpeedAttribute" : false
                          },
                          "animationTracks" : {

                          }
                        },
                        {
                          "id" : 383,
                          "_type" : "AMFile",
                          "src" : 18,
                          "trackNumber" : 0,
                          "attributes" : {
                            "ident" : "0508-recursion-fixed",
                            "gain" : 1.0,
                            "mixToMono" : false
                          },
                            "channelNumber" : "0,1",
                          "effects" : [

                          ],
                          "start" : 14746,
                          "duration" : 3911,
                          "mediaStart" : 17780,
                          "mediaDuration" : 3911,
                          "scalar" : 1,
                          "metadata" : {
                            "clipSpeedAttribute" : false
                          },
                          "animationTracks" : {

                          }
                        },
                        {
                          "id" : 384,
                          "_type" : "AMFile",
                          "src" : 18,
                          "trackNumber" : 0,
                          "attributes" : {
                            "ident" : "0508-recursion-fixed",
                            "gain" : 1.0,
                            "mixToMono" : false
                          },
                            "channelNumber" : "0,1",
                          "effects" : [

                          ],
                          "start" : 18657,
                          "duration" : 1316,
                          "mediaStart" : 21725,
                          "mediaDuration" : 1316,
                          "scalar" : 1,
                          "metadata" : {
                            "clipSpeedAttribute" : false
                          },
                          "animationTracks" : {

                          }
                        },
                        {
                          "id" : 385,
                          "_type" : "AMFile",
                          "src" : 18,
                          "trackNumber" : 0,
                          "attributes" : {
                            "ident" : "0508-recursion-fixed",
                            "gain" : 1.0,
                            "mixToMono" : false
                          },
                            "channelNumber" : "0,1",
                          "effects" : [

                          ],
                          "start" : 19973,
                          "duration" : 3981,
                          "mediaStart" : 23093,
                          "mediaDuration" : 3981,
                          "scalar" : 1,
                          "metadata" : {
                            "clipSpeedAttribute" : false
                          },
                          "animationTracks" : {

                          }
                        },
                        {
                          "id" : 386,
                          "_type" : "AMFile",
                          "src" : 18,
                          "trackNumber" : 0,
                          "attributes" : {
                            "ident" : "0508-recursion-fixed",
                            "gain" : 1.0,
                            "mixToMono" : false
                          },
                            "channelNumber" : "0,1",
                          "effects" : [

                          ],
                          "start" : 23954,
                          "duration" : 42,
                          "mediaStart" : 27193,
                          "mediaDuration" : 42,
                          "scalar" : 1,
                          "metadata" : {
                            "clipSpeedAttribute" : false
                          },
                          "animationTracks" : {

                          }
                        },
                        {
                          "id" : 387,
                          "_type" : "AMFile",
                          "src" : 18,
                          "trackNumber" : 0,
                          "attributes" : {
                            "ident" : "0508-recursion-fixed",
                            "gain" : 1.0,
                            "mixToMono" : false
                          },
                            "channelNumber" : "0,1",
                          "effects" : [

                          ],
                          "start" : 23996,
                          "duration" : 629,
                          "mediaStart" : 27448,
                          "mediaDuration" : 629,
                          "scalar" : 1,
                          "metadata" : {
                            "clipSpeedAttribute" : false
                          },
                          "animationTracks" : {

                          }
                        },
                        {
                          "id" : 388,
                          "_type" : "AMFile",
                          "src" : 18,
                          "trackNumber" : 0,
                          "attributes" : {
                            "ident" : "0508-recursion-fixed",
                            "gain" : 1.0,
                            "mixToMono" : false
                          },
                            "channelNumber" : "0,1",
                          "effects" : [

                          ],
                          "start" : 24625,
                          "duration" : 5661,
                          "mediaStart" : 29025,
                          "mediaDuration" : 5661,
                          "scalar" : 1,
                          "metadata" : {
                            "clipSpeedAttribute" : false
                          },
                          "animationTracks" : {

                          }
                        }
                    ],
                    "effects" : [

                    ],
                    "start" : 14214,
                    "duration" : 17051,
                    "mediaStart" : 13235,
                    "mediaDuration" : 17051,
                    "scalar" : 1,
                    "metadata" : {
                      "clipSpeedAttribute" : false
                    },
                    "animationTracks" : {

                    }
                  }
                ]
              },
              {
                "trackIndex" : 14,
                "medias" : [
                  {
                    "id" : 389,
                    "_type" : "AMFile",
                    "src" : 29,
                    "trackNumber" : 0,
                    "attributes" : {
                      "ident" : "0508-recursion-splice-1-fixed",
                      "gain" : 1.0,
                      "mixToMono" : false
                    },
                      "channelNumber" : "0,1",
                    "effects" : [

                    ],
                    "start" : 1879,
                    "duration" : 1289,
                    "mediaStart" : 0,
                    "mediaDuration" : 1289,
                    "scalar" : 1,
                    "metadata" : {
                      "clipSpeedAttribute" : false
                    },
                    "animationTracks" : {

                    }
                  },
                  {
                    "id" : 390,
                    "_type" : "IMFile",
                    "src" : 6,
                    "trackNumber" : 0,
                    "trimStartSum" : 0,
                    "attributes" : {
                      "ident" : "Slide2"
                    },
                    "effects" : [

                    ],
                    "start" : 9839,
                    "duration" : 1406,
                    "mediaStart" : 0,
                    "mediaDuration" : 1,
                    "scalar" : 1,
                    "metadata" : {
                      "clipSpeedAttribute" : false
                    },
                    "animationTracks" : {

                    }
                  },
                  {
                    "id" : 391,
                    "_type" : "IMFile",
                    "src" : 6,
                    "trackNumber" : 0,
                    "trimStartSum" : 1569,
                    "attributes" : {
                      "ident" : "Slide2"
                    },
                    "effects" : [

                    ],
                    "start" : 11245,
                    "duration" : 178,
                    "mediaStart" : 0,
                    "mediaDuration" : 1,
                    "scalar" : 1,
                    "metadata" : {
                      "clipSpeedAttribute" : false
                    },
                    "animationTracks" : {

                    }
                  },
                  {
                    "id" : 392,
                    "_type" : "IMFile",
                    "src" : 6,
                    "trackNumber" : 0,
                    "trimStartSum" : 2186,
                    "attributes" : {
                      "ident" : "Slide2"
                    },
                    "effects" : [

                    ],
                    "start" : 11423,
                    "duration" : 1226,
                    "mediaStart" : 0,
                    "mediaDuration" : 1,
                    "scalar" : 1,
                    "metadata" : {
                      "clipSpeedAttribute" : false
                    },
                    "animationTracks" : {

                    }
                  },
                  {
                    "id" : 393,
                    "_type" : "IMFile",
                    "src" : 6,
                    "trackNumber" : 0,
                    "trimStartSum" : 4342,
                    "attributes" : {
                      "ident" : "Slide2"
                    },
                    "effects" : [

                    ],
                    "start" : 12649,
                    "duration" : 189,
                    "mediaStart" : 0,
                    "mediaDuration" : 1,
                    "scalar" : 1,
                    "metadata" : {
                      "clipSpeedAttribute" : false
                    },
                    "animationTracks" : {

                    }
                  },
                  {
                    "id" : 394,
                    "_type" : "IMFile",
                    "src" : 7,
                    "trackNumber" : 0,
                    "trimStartSum" : 0,
                    "attributes" : {
                      "ident" : "Slide3"
                    },
                    "effects" : [

                    ],
                    "start" : 12838,
                    "duration" : 194,
                    "mediaStart" : 0,
                    "mediaDuration" : 1,
                    "scalar" : 1,
                    "metadata" : {
                      "clipSpeedAttribute" : false
                    },
                    "animationTracks" : {

                    }
                  },
                  {
                    "id" : 395,
                    "_type" : "IMFile",
                    "src" : 8,
                    "trackNumber" : 0,
                    "trimStartSum" : 0,
                    "attributes" : {
                      "ident" : "Slide4"
                    },
                    "effects" : [

                    ],
                    "start" : 13032,
                    "duration" : 105,
                    "mediaStart" : 0,
                    "mediaDuration" : 1,
                    "scalar" : 1,
                    "metadata" : {
                      "clipSpeedAttribute" : false
                    },
                    "animationTracks" : {

                    }
                  },
                  {
                    "id" : 396,
                    "_type" : "IMFile",
                    "src" : 9,
                    "trackNumber" : 0,
                    "trimStartSum" : 0,
                    "attributes" : {
                      "ident" : "Slide5"
                    },
                    "effects" : [

                    ],
                    "start" : 13137,
                    "duration" : 60,
                    "mediaStart" : 0,
                    "mediaDuration" : 1,
                    "scalar" : 1,
                    "metadata" : {
                      "clipSpeedAttribute" : false
                    },
                    "animationTracks" : {

                    }
                  },
                  {
                    "id" : 397,
                    "_type" : "IMFile",
                    "src" : 10,
                    "trackNumber" : 0,
                    "trimStartSum" : 0,
                    "attributes" : {
                      "ident" : "Slide6"
                    },
                    "effects" : [

                    ],
                    "start" : 13197,
                    "duration" : 60,
                    "mediaStart" : 0,
                    "mediaDuration" : 1,
                    "scalar" : 1,
                    "metadata" : {
                      "clipSpeedAttribute" : false
                    },
                    "animationTracks" : {

                    }
                  },
                  {
                    "id" : 398,
                    "_type" : "IMFile",
                    "src" : 11,
                    "trackNumber" : 0,
                    "trimStartSum" : 0,
                    "attributes" : {
                      "ident" : "Slide7"
                    },
                    "effects" : [

                    ],
                    "start" : 13257,
                    "duration" : 60,
                    "mediaStart" : 0,
                    "mediaDuration" : 1,
                    "scalar" : 1,
                    "metadata" : {
                      "clipSpeedAttribute" : false
                    },
                    "animationTracks" : {

                    }
                  },
                  {
                    "id" : 399,
                    "_type" : "IMFile",
                    "src" : 12,
                    "trackNumber" : 0,
                    "trimStartSum" : 0,
                    "attributes" : {
                      "ident" : "Slide8"
                    },
                    "effects" : [

                    ],
                    "start" : 13317,
                    "duration" : 60,
                    "mediaStart" : 0,
                    "mediaDuration" : 1,
                    "scalar" : 1,
                    "metadata" : {
                      "clipSpeedAttribute" : false
                    },
                    "animationTracks" : {

                    }
                  },
                  {
                    "id" : 400,
                    "_type" : "IMFile",
                    "src" : 13,
                    "trackNumber" : 0,
                    "trimStartSum" : 0,
                    "attributes" : {
                      "ident" : "Slide9"
                    },
                    "effects" : [

                    ],
                    "start" : 13377,
                    "duration" : 60,
                    "mediaStart" : 0,
                    "mediaDuration" : 1,
                    "scalar" : 1,
                    "metadata" : {
                      "clipSpeedAttribute" : false
                    },
                    "animationTracks" : {

                    }
                  },
                  {
                    "id" : 401,
                    "_type" : "IMFile",
                    "src" : 14,
                    "trackNumber" : 0,
                    "trimStartSum" : 0,
                    "attributes" : {
                      "ident" : "Slide10"
                    },
                    "effects" : [

                    ],
                    "start" : 13437,
                    "duration" : 60,
                    "mediaStart" : 0,
                    "mediaDuration" : 1,
                    "scalar" : 1,
                    "metadata" : {
                      "clipSpeedAttribute" : false
                    },
                    "animationTracks" : {

                    }
                  },
                  {
                    "id" : 402,
                    "_type" : "IMFile",
                    "src" : 15,
                    "trackNumber" : 0,
                    "trimStartSum" : 0,
                    "attributes" : {
                      "ident" : "Slide11"
                    },
                    "effects" : [

                    ],
                    "start" : 13497,
                    "duration" : 60,
                    "mediaStart" : 0,
                    "mediaDuration" : 1,
                    "scalar" : 1,
                    "metadata" : {
                      "clipSpeedAttribute" : false
                    },
                    "animationTracks" : {

                    }
                  },
                  {
                    "id" : 403,
                    "_type" : "IMFile",
                    "src" : 19,
                    "trackNumber" : 0,
                    "trimStartSum" : 0,
                    "attributes" : {
                      "ident" : "0atTheTop"
                    },
                    "effects" : [

                    ],
                    "start" : 13557,
                    "duration" : 465,
                    "mediaStart" : 0,
                    "mediaDuration" : 1,
                    "scalar" : 1,
                    "metadata" : {
                      "clipSpeedAttribute" : false
                    },
                    "animationTracks" : {

                    }
                  },
                  {
                    "id" : 404,
                    "_type" : "IMFile",
                    "src" : 20,
                    "trackNumber" : 0,
                    "trimStartSum" : 0,
                    "attributes" : {
                      "ident" : "PopOff0"
                    },
                    "effects" : [

                    ],
                    "start" : 14022,
                    "duration" : 72,
                    "mediaStart" : 0,
                    "mediaDuration" : 1,
                    "scalar" : 1,
                    "metadata" : {
                      "clipSpeedAttribute" : false
                    },
                    "animationTracks" : {

                    }
                  },
                  {
                    "id" : 405,
                    "_type" : "IMFile",
                    "src" : 22,
                    "trackNumber" : 0,
                    "trimStartSum" : -27,
                    "attributes" : {
                      "ident" : "Slide12"
                    },
                    "effects" : [

                    ],
                    "start" : 14094,
                    "duration" : 60,
                    "mediaStart" : 0,
                    "mediaDuration" : 1,
                    "scalar" : 1,
                    "metadata" : {
                      "clipSpeedAttribute" : false
                    },
                    "animationTracks" : {

                    }
                  },
                  {
                    "id" : 406,
                    "_type" : "IMFile",
                    "src" : 23,
                    "trackNumber" : 0,
                    "trimStartSum" : 0,
                    "attributes" : {
                      "ident" : "Slide13"
                    },
                    "effects" : [

                    ],
                    "start" : 14154,
                    "duration" : 60,
                    "mediaStart" : 0,
                    "mediaDuration" : 1,
                    "scalar" : 1,
                    "metadata" : {
                      "clipSpeedAttribute" : false
                    },
                    "animationTracks" : {

                    }
                  },
                  {
                    "id" : 407,
                    "_type" : "IMFile",
                    "src" : 24,
                    "trackNumber" : 0,
                    "trimStartSum" : 0,
                    "attributes" : {
                      "ident" : "Slide14"
                    },
                    "effects" : [

                    ],
                    "start" : 14214,
                    "duration" : 60,
                    "mediaStart" : 0,
                    "mediaDuration" : 1,
                    "scalar" : 1,
                    "metadata" : {
                      "clipSpeedAttribute" : false
                    },
                    "animationTracks" : {

                    }
                  },
                  {
                    "id" : 408,
                    "_type" : "IMFile",
                    "src" : 25,
                    "trackNumber" : 0,
                    "trimStartSum" : 0,
                    "attributes" : {
                      "ident" : "Slide15"
                    },
                    "effects" : [

                    ],
                    "start" : 14274,
                    "duration" : 108,
                    "mediaStart" : 0,
                    "mediaDuration" : 1,
                    "scalar" : 1,
                    "metadata" : {
                      "clipSpeedAttribute" : false
                    },
                    "animationTracks" : {

                    }
                  },
                  {
                    "id" : 409,
                    "_type" : "IMFile",
                    "src" : 26,
                    "trackNumber" : 0,
                    "trimStartSum" : 0,
                    "attributes" : {
                      "ident" : "Slide16"
                    },
                    "effects" : [

                    ],
                    "start" : 14382,
                    "duration" : 272,
                    "mediaStart" : 0,
                    "mediaDuration" : 1,
                    "scalar" : 1,
                    "metadata" : {
                      "clipSpeedAttribute" : false
                    },
                    "animationTracks" : {

                    }
                  },
                  {
                    "id" : 410,
                    "_type" : "IMFile",
                    "src" : 27,
                    "trackNumber" : 0,
                    "trimStartSum" : 0,
                    "attributes" : {
                      "ident" : "Slide17"
                    },
                    "effects" : [

                    ],
                    "start" : 14654,
                    "duration" : 1064,
                    "mediaStart" : 0,
                    "mediaDuration" : 1,
                    "scalar" : 1,
                    "metadata" : {
                      "clipSpeedAttribute" : false
                    },
                    "animationTracks" : {

                    }
                  },
                  {
                    "id" : 411,
                    "_type" : "IMFile",
                    "src" : 16,
                    "trackNumber" : 0,
                    "trimStartSum" : 0,
                    "attributes" : {
                      "ident" : "Slide18"
                    },
                    "effects" : [

                    ],
                    "start" : 21769,
                    "duration" : 3164,
                    "mediaStart" : 0,
                    "mediaDuration" : 1,
                    "scalar" : 1,
                    "metadata" : {
                      "clipSpeedAttribute" : false
                    },
                    "animationTracks" : {

                    }
                  },
                  {
                    "id" : 412,
                    "_type" : "IMFile",
                    "src" : 16,
                    "trackNumber" : 0,
                    "trimStartSum" : 3283,
                    "attributes" : {
                      "ident" : "Slide18"
                    },
                    "effects" : [

                    ],
                    "start" : 24933,
                    "duration" : 42,
                    "mediaStart" : 0,
                    "mediaDuration" : 1,
                    "scalar" : 1,
                    "metadata" : {
                      "clipSpeedAttribute" : false
                    },
                    "animationTracks" : {

                    }
                  },
                  {
                    "id" : 413,
                    "_type" : "IMFile",
                    "src" : 16,
                    "trackNumber" : 0,
                    "trimStartSum" : 3538,
                    "attributes" : {
                      "ident" : "Slide18"
                    },
                    "effects" : [

                    ],
                    "start" : 24975,
                    "duration" : 153,
                    "mediaStart" : 0,
                    "mediaDuration" : 1,
                    "scalar" : 1,
                    "metadata" : {
                      "clipSpeedAttribute" : false
                    },
                    "animationTracks" : {

                    }
                  }
                ],
                "transitions" : [
                  {
                    "name" : "Fade",
                    "duration" : 30,
                    "trivial" : false,
                    "reverse" : false,
                    "useAudioPreRoll" : true,
                    "useVisualPreRoll" : true,
                    "rightMedia" : 390
                  },
                  {
                    "name" : "Fade",
                    "duration" : 30,
                    "trivial" : false,
                    "reverse" : false,
                    "useAudioPreRoll" : true,
                    "useVisualPreRoll" : true,
                    "leftMedia" : 393,
                    "rightMedia" : 394
                  },
                  {
                    "name" : "Fade",
                    "duration" : 30,
                    "trivial" : false,
                    "reverse" : false,
                    "useAudioPreRoll" : true,
                    "useVisualPreRoll" : true,
                    "leftMedia" : 394,
                    "rightMedia" : 395
                  },
                  {
                    "name" : "Fade",
                    "duration" : 30,
                    "trivial" : false,
                    "reverse" : false,
                    "useAudioPreRoll" : true,
                    "useVisualPreRoll" : true,
                    "leftMedia" : 395,
                    "rightMedia" : 396
                  },
                  {
                    "name" : "Fade",
                    "duration" : 30,
                    "trivial" : false,
                    "reverse" : false,
                    "useAudioPreRoll" : true,
                    "useVisualPreRoll" : true,
                    "leftMedia" : 396,
                    "rightMedia" : 397
                  },
                  {
                    "name" : "Fade",
                    "duration" : 30,
                    "trivial" : false,
                    "reverse" : false,
                    "useAudioPreRoll" : true,
                    "useVisualPreRoll" : true,
                    "leftMedia" : 397,
                    "rightMedia" : 398
                  },
                  {
                    "name" : "Fade",
                    "duration" : 30,
                    "trivial" : false,
                    "reverse" : false,
                    "useAudioPreRoll" : true,
                    "useVisualPreRoll" : true,
                    "leftMedia" : 398,
                    "rightMedia" : 399
                  },
                  {
                    "name" : "Fade",
                    "duration" : 30,
                    "trivial" : false,
                    "reverse" : false,
                    "useAudioPreRoll" : true,
                    "useVisualPreRoll" : true,
                    "leftMedia" : 399,
                    "rightMedia" : 400
                  },
                  {
                    "name" : "Fade",
                    "duration" : 30,
                    "trivial" : false,
                    "reverse" : false,
                    "useAudioPreRoll" : true,
                    "useVisualPreRoll" : true,
                    "leftMedia" : 400,
                    "rightMedia" : 401
                  },
                  {
                    "name" : "Fade",
                    "duration" : 30,
                    "trivial" : false,
                    "reverse" : false,
                    "useAudioPreRoll" : true,
                    "useVisualPreRoll" : true,
                    "leftMedia" : 401,
                    "rightMedia" : 402
                  },
                  {
                    "name" : "Fade",
                    "duration" : 30,
                    "trivial" : false,
                    "reverse" : false,
                    "useAudioPreRoll" : true,
                    "useVisualPreRoll" : true,
                    "leftMedia" : 402,
                    "rightMedia" : 403
                  },
                  {
                    "name" : "Fade",
                    "duration" : 30,
                    "trivial" : false,
                    "reverse" : false,
                    "useAudioPreRoll" : true,
                    "useVisualPreRoll" : true,
                    "leftMedia" : 403,
                    "rightMedia" : 404
                  },
                  {
                    "name" : "Fade",
                    "duration" : 30,
                    "trivial" : false,
                    "reverse" : false,
                    "useAudioPreRoll" : true,
                    "useVisualPreRoll" : true,
                    "leftMedia" : 404,
                    "rightMedia" : 405
                  },
                  {
                    "name" : "Fade",
                    "duration" : 30,
                    "trivial" : false,
                    "reverse" : false,
                    "useAudioPreRoll" : true,
                    "useVisualPreRoll" : true,
                    "leftMedia" : 405,
                    "rightMedia" : 406
                  },
                  {
                    "name" : "Fade",
                    "duration" : 30,
                    "trivial" : false,
                    "reverse" : false,
                    "useAudioPreRoll" : true,
                    "useVisualPreRoll" : true,
                    "leftMedia" : 406,
                    "rightMedia" : 407
                  },
                  {
                    "name" : "Fade",
                    "duration" : 30,
                    "trivial" : false,
                    "reverse" : false,
                    "useAudioPreRoll" : true,
                    "useVisualPreRoll" : true,
                    "leftMedia" : 407,
                    "rightMedia" : 408
                  },
                  {
                    "name" : "Fade",
                    "duration" : 30,
                    "trivial" : false,
                    "reverse" : false,
                    "useAudioPreRoll" : true,
                    "useVisualPreRoll" : true,
                    "leftMedia" : 408,
                    "rightMedia" : 409
                  },
                  {
                    "name" : "Fade",
                    "duration" : 30,
                    "trivial" : false,
                    "reverse" : false,
                    "useAudioPreRoll" : true,
                    "useVisualPreRoll" : true,
                    "leftMedia" : 409,
                    "rightMedia" : 410
                  },
                  {
                    "name" : "Fade",
                    "duration" : 30,
                    "trivial" : false,
                    "reverse" : false,
                    "useAudioPreRoll" : true,
                    "useVisualPreRoll" : true,
                    "leftMedia" : 410
                  },
                  {
                    "name" : "Fade",
                    "duration" : 30,
                    "trivial" : false,
                    "reverse" : false,
                    "useAudioPreRoll" : true,
                    "useVisualPreRoll" : true,
                    "rightMedia" : 411
                  },
                  {
                    "name" : "Fade",
                    "duration" : 30,
                    "trivial" : false,
                    "reverse" : false,
                    "useAudioPreRoll" : true,
                    "useVisualPreRoll" : true,
                    "leftMedia" : 413
                  }
                ]
              },
              {
                "trackIndex" : 15,
                "medias" : [
                  {
                    "id" : 414,
                    "_type" : "AMFile",
                    "src" : 21,
                    "trackNumber" : 1,
                    "attributes" : {
                      "ident" : "Rec 05-04-20",
                      "gain" : 1.0,
                      "mixToMono" : false
                    },
                      "channelNumber" : "0,1",
                    "effects" : [
                        {
                          "effectName" : "NoiseReduction",
                          "category" : "categoryAudioEffects",
                          "parameters" : {
                            "denoiserAmount" : 48.0,
                            "denoiserThreshold" : 0.0,
                            "noiseProfile" : "m927PiVB9T/Q8yA/hrBUPzJkQz9cWLo+uJSfPrjzvz2JDQU9YmEiPbYgtz0VCmk90A9TPYbPHT3j\r\nVRo9vls7PLrNZjzmw6I8LGD1O5rqJDyRJLo8omKqO8usEjwBV4w8dErfO69W7zq6o/o6cNfTOqaT\r\nHDt00gU7DhmxOgrzDDtRZ5M7qvPzOpRJtTpNDQo7RoCrOozCXjt4BcY62hDAOtmlOTssyMM6UoGi\r\nO9ZfBDuDRBc7LlhnOl+PezsYsi07ZHUMOu04bjqYxhk63pwDOsRL1zoXmcI6gREnOva8QTr0D6A6\r\nnUYLOsI9jznfphU6+PUKOoxqITo2Koo5UPecObF0KDrzv086VyJfOUvDCjrB5Vc5u96HOUOtqDkc\r\nTlI5LI+jOd+k+znTfg45PrS2OfLJazlHUJs5vsC5OSGoTzmg+sc5ktBsOXfEmzmv9CQ6wq91Ov6C\r\nojobFAY6QOy6OR+Dyzn8rU05qI5mOXSCvziireY4YniNOSxPTDnQFDo5vPwqObdNnjm+s185r+74\r\nOA04jjn135o5shjXOBlqAjncxsA4oKW8OP/uVzlqh/o4eRKJOZkbTjl4TKc455k5OcgYCTlOdUM5\r\nDGg0OcxJ5DilM4o5vDiZOfjRWTkJZxA5Gz+IOUzdazmwGiQ5sTxGOdXiLjlbqCw5lfhqObOcVzk3\r\nIEk5pkniOJ2Z1DjEpSw5noq2OPGjzTgwqQI56loROC7BDDkCYls4YAiZOILKsTgCWJk4QcaEOBDm\r\n0TiwXRA56IrhODXHejh2Hs04vAzOOKImsTj5nAM5/jVVOI0ayTgshTI4lMa6OIwqYDjYSZ441mab\r\nONCDyDgUXyM4iO0bOGg03jhr8tE40CqUOPHcdzgkZz444J9lOOReXDi5WV84noO/OJVO5Th9KvM3\r\n4ERROEqv/De2KKg4s6WFONY4UDjUzTw4hfVHOGBTfTgQoVg4CIvSN0KfEDgltBI4dJwLOF94eDiR\r\nFpQ4SAtGOES+FjiUFy44QKSqOAQ5mzc5Ni04sDbAN1S7KTgTDBs4vgrON/BhjDg4MSM4lMkEOK7M\r\nojgCRAw4SOtdOJciUDjC7Qk4Xd33N+YXxjdC0rM3/niDOE99wDdHoW44YNoGOKRmbjgfJg84OjnO\r\nN8rxUjibGzo4bpQtOHOKizgmyF04e12LOO51Dzh83lg4nXI9OGTjFziwodU3pKWfN0tl+zdQ06g3\r\nkk7DN24dGThARQY48oE/OPoGAThhYFE4GNuyN2xiDzj4Ca43MLKcOArwrDh+AhA4zia9N5BwDzjs\r\nrbo3lKfAN0AD0zfP2PU3XoOcNxCbAzg7Wxc4gsKkN4A5JDiqMUw4puLiNzVeIzjy+zw4seLlN0CF\r\nZjd8J5A4gYpNOLgwFzjstZk3ltrxN98Qojfl+tQ3PnCTNyrGJTiJXCE40L2bN3XNMjhtbDg4QrUO\r\nOEfi+TdS2Zo36OtTOKgWujcVoKk33+qkN8ZJsDeAQQQ42LwmOAPlszf6BaI3nZPLN/ojizfueAw4\r\neihlOLMwXDcKxjQ4K6bkNyAnpDd3uos3XYsKOGgYtzeY6Ss4g2OHNxsrFDi/SpU3wn7oN6WFJzeP\r\nEws4Gb2LN2uhWjj2IAM4/iv1N672rTcvRqs3SlxrN3myAzjkA6U3Fa++Nz+GzTesqAA4WZHuN+65\r\nwDeUNc43PSWkN0rh/TdVkpg3eWlYNxg38DcrGeM3brwvOGls3jcYVjM4jqkEOKqjzzde4pI4rvW0\r\nN9FhzjcP5uQ3+MCUN0qcsTf/Y803sxyANzyNsTcP0Lk3u80WOOkoJDhc9uo3QJ3lN4gKHDg1SWs3\r\njPaPN1Jqczi3mb03Au7oNy5ZzzecaDo4K2OfNwqjjjdKoNQ3zQF7N4paojexE9U37WMOOLbfAjji\r\nET44d4LsN7CIsTeiOIU3+nQ5N9FcwzeWwlk4Oj6FN4auEziynIU3xJKXN6JiwzcQ51s37njQN5pn\r\nCziyvxQ4v97ZN2545zfElbQ3hBoBONT/czdhw7Y3YhVkNyTAeDc68vU3zNayN2JeWDckdcA3QO2q\r\nNwqDfzctTpA3QT91N4H0rTcCnsg3l+meN++1xjcdstc3TuRmN7YJUDceH7g3lSmhN/eABjiQ9wY4\r\nD3LkN5+JFDjnuIA3KXW7N0+UFzhsCEQ3ep3eN/3sgzcRfl03jCO3NzqSLjhQIqE3HXNSN1Ucgjek\r\naeQ3JuCBN25gizcB7YQ3FyAcOHA+zjfK5WU3MSh5N2DD2TfyH4g3g10NOPvNhzeo3Ew3cH6QNzcS\r\nXDevBx83kbsDOFsuWTeu0Lo30ItEN8E63DeON5I3atRINxiiYDdfjDk33QdBNxiMwzeGJPM3H93H\r\nN8yrnTev68U3ZhV0N+o3hjeODVs36WFXN1JmjDe+ldc2IWSiNrHUYjcq+C83snK7N0nRkTdYbaQ3\r\nGsSZN2fzGDdb+V03eIDIN7TpbDeLlqM3QvK2NzBFLTfKKrg3aevXN4sFczf0Eo43sUmWN/OtnzeP\r\n/oo3ZBuyN3bPwzdkpik30sKON0QP0zdORTA3QhCNN1rFfTeYHWM3gooROAjAcDeVq+g3tHGQN8NP\r\ngjf2kpA3t4UAN5ldETfkGhU3qjSTNx/JgDdkJoY3M/wmNz4kXzegwAs3Sg4bN2zN0zehA4c3c+BM\r\nN8gDrDca9No3fAtoN403Nzco+HM3prw9N5HiGzfesVw354dbN1epdDcGx4I3YtovN3T+jTcAhF03\r\njg+NNxK7QDf3OoU3cEs6NwcAQjf0Qo83V2fENqfA3Td5Mg84numHNz+okDc/upo36zmzN0O3rDc0\r\nkVU3OLYbN0HVOTcyMic3u8O7NxybpjehG4I3mK9BN9O5sDccu6036FqZN0TaWDc4ir834G8dN1ZF\r\nXjdvz283w2UkN0B3KDfybPM3oeZkNy6hMTcroIY3hn8xN4rSbDeQNvU2MuscOD59EjcqujU3dkIw\r\nN6zi7zcaBs03bqSFN80H5ze1FjI3iI0MN5weKzf0IyI3hHRON7y7gjedCFA3/bSGN5yqmzcuQTA3\r\nwCRJN9E0ljdVEUs3UJacNwXKMTdQngw3csAJNyTc4zWUfuc1aHLvNRLj4jUoAzY2v2FdNo5fHDby\r\nuhk2yPOnNSce8zWEIVU2hlMkNp+qQDYcEg42JGXWNZ7IGDa3lDw25BE2Nt59DzYgGMY1M41sNpKi\r\nLDZyJEk2De4yNvq5LjY6/bQ1PK+6NeJWETZUH9A11PAvNqIwTDY5OSk2UqXhNZjAsjWWZRU2VmUr\r\nNkaCETaCEv41R8JGNjE97jVXxEA2c+4dNrrSyjWuuBI2hGxANlLF5DUF5u41BpM1NsCA5zXO+2Q2\r\nnma7NS1z2zWgksQ1wqwwNhTmJTYQUiY2RORFNkxszDXONeI1Sq8WNjTkFTaCyLE18mo0Nkq5EDZc\r\n9cQ1Nj8DNtKsKTaemxE24A+7NSGYAjYcGOI1rargNV1UIDZniz82ElnDNSed0DUduew1pUQcNl1Z\r\nCjZVAI01WIwzNlW6GDY3KaA1CUS5NVLq9jWmQmA2pHf4NbFGQzbwHwU2/V3yNd+59TVgS8k1Uiws\r\nNkDx2jUie9s1HWWVNdCR9jWYRgo2ExMDNpAYjDUAjow1omIFNnLd4zXPcps1ul7VNQfe7jV2adU1\r\nySIHNuvdKzbOg+A1chlUNmlKDDZm29g1IaISNhAj6TWaIRg2jl3JNdWvDTauIeg1qJEqNhpTyjVX\r\n9QA2m+0zNlNM1DWRE0k2EbnTNeGmLDYW1O01eE0cNoeX7zUqADA2EZeINV+c5jVmnfA1m6LPNRLv\r\ncDUWuBA26mcKNvvO6jWjGa81NwMONtSfpjU6Yio2ihbQNXT0GzZ/O+w1oHLpNSK5HzYwEKU1pDAH\r\nNitGhDXm8h42bv4vNgbmITbJSr0152gJNgTuGja7Faw1s2y8Nein5DWuMwE2pLFoNjhf3jX2neE1\r\nwAGhNV5NLTanYj025/nYNfRl0zWwxew1joniNTn5FDZpNZ419g61NQlVDTa7Hww2VB7rNXj6GzZP\r\noqE1UafyNXJT1DXysr01YVbMNVrY7TWqueQ1cBgINoXxFjayD6k1TJhdNgHvsjVW/bc1haPGNZ5y\r\n+jW8utY1lJWeNbTlsDU8U8g1oU8cNidfwzXijtY1Db7+NTfVhjU98lo22wHPNbtPyjXk8dk1VOap\r\nNUM+2DV2x9k1IHoBNq79rzXTIK81NTUKNtBKVjXNDR82koLlNYkN5DVyqro1Sz4FNsoitzUERS02\r\nyTPMNSV4IDZfHgM2AEKONZAvpzVfaPQ1bLTXNUPJ7TU0Cdc1euwsNogAxDXd0uY1ThnvNcVfCzZW\r\nHQI2XvRpNT5XUjW/1qc1CPLVNYgUyjXuASE2JsXqNXzZ6DVx4541MnXXNR5M4DUex881/2X8NQAZ\r\n6DUJ28k1P3nLNVBR2jVd1tY1swSrNZ0aujUg7LM14j+YNUq32TX0j6s1aogSNq29sTU85wA2pK4y\r\nNv9UdDVM3ug1/UcMNvGjCDaMRRc2hNfcNUhxwjWTGhc2M2uoNSpCkDVWE7Q1oquONd1WZzWIibc1\r\nG3qCNUJLlzXjmxQ2Bm+hNcGi3DUqDAw2L4MNNmlHPzbg8rQ1N13eNbkRljXPQqM1qIjKNYRxMTXD\r\nQJA13bj6NUtgIjYBgvI0W7HPNbI5nDVDbAY2RpWNNc9yxjUs9QM2jp8WNq06YzXwHzw2dM/9NUvg\r\nFjZW7x422sLuNRBk5jVpMsU1h0ucNWgTlTVVYO01y8mfNdA77TXWkw42uvK+NU7svzWShc01KOqZ\r\nNV702jXg57g1U6rsNaG5CDYXWus1ksJ5NbGiLDYAoo41WN/RNQUH2TXiabI1B+//NcCbxDX8IOk1\r\njxcXNh+eCjaUDtk1idj0NbvgkDW7aAE29xSGNTn7mzWAU801jGv9NRQbADaxi8g1MjeuNXNA0DV2\r\ni7M11xgENgeCejXXpdk1nsOMNafvnjXQqtA1EsUANrwOCDbUTAE2nTuJNQWziDVBrHU1Ni9sNobA\r\ntjWHX7E1ifllNcG71zVtzgw2Ova0NT4izDVv+vA1rPwENkyxADZ5YYw1OrsDNoU1vzU8/NE100Bw\r\nNTJunTWZrog1w3+TNR4/MTbIeqI1+SOaNYZ2oTUI8M41s3KSNZHHuzW7nN41vpehNTPK3TViork1\r\nN+K9NYAu7DXZ/7Y1P5MHNivo5TU6rwU2+vz1NfiyyDXufYo1iS+/NRJzEjY9MZw1+sHgNQQhIjaV\r\n0tg15DCRNVvO9zVJc6g1k//aNSZVvjWD6xQ2PPoPNhxoBjYw4sw1B1ulNV73uTVq3QU2aH9mNQ/T\r\nEzaYA7U1PQIXNkW5mTXfPQ82I4ehNX+V1DU7ufU1KATiNXpofTWrLRI2+4SINZi98jWPLM01bf/V\r\nNTtqqDUYLeA19tPQNeg3BDZZecs1y86HNUxKNzZb5Cs2N61wNWQYhzXV6ec1uP+PNQAg0jW4Obw+\r\nrVv1P4gJIT+oY1Q/I2lDP45Luj7tq58+VzbAPadCBj1f5SE9uuu3PXJ9aj3W0VE9vvcePQANGj31\r\nBzs81/JlPEH4oDymu/M7jJclPHr9uTy4Q6s7clgVPB4EjjwWUOI76V3wOhhe5zr2V+k6pvEWOyeF\r\nCjuGtrY6QwMSO4AjnTsaMvo61pitOtwjDzsZBLs6MrtuO/ZIwTpRYNQ6Voc0O6te0DqIx6I7SlQQ\r\nO2ltFzujWHk64sp7Oxw4Mzv6niE6dc9kOrvvLDrm6wU6DYzpOlSV0Dpihh86/u4jOtPjrDqInCM6\r\nzFCTOXdtFTr6Xhg6F6wYOnnZlTkY5Ks5GAk8OkpXRjqSlGY5/Xb3OcicWTmIoHs5tFSXOfEabjny\r\n/JQ5vHoHOrHF9ziZfaQ50jZbOWYguTlLpI05XgpNOdt84DkSNqc5tkKtOVKmHTq0Y4Y64vuiOgAN\r\n8Dm+g7E5nEnIOewBfDmkc4Y55lzEOEF64DgjUok5fvmEObKDaTlWfDk58hWUOYrHgzn/rBs52ppl\r\nORLmqznc7No4enTAOCBnADnPTL444+JQOfYgITlr2Zk5WiQwOdRJ8jh8xjU5FMUVOaJqijnaHgA5\r\n3KgLOZWjmDlEu6Y5Qh+DOZFwLTmj1J05CJYnORP3ETnmrFc5Uc8tOV+ULjkYkRk5N5lSOcNfMDly\r\nLuQ4ErzhOH69ZTmvV7Y4vFPgODe4BjnQWoE4qZoTOX1ojjh+RrA4E9yeOGq5rzihCbw4IH2mOKAb\r\nBDka3sY46oyDOPE21Di3xvI4eYmoOCzE1jjRQUg4siS9OGaXSjhq+rQ42aiVOC6jkDieHdI4o56A\r\nOD92Czi04h04ifeTOMXyzzgrZqA4CZJlODdyKjhZl1k4PR2FOH4/gThlCoI4KsGnOMeECTiDOIY4\r\nKU0nOITjhzjoJm84K5iDOPKASjjaa0M41/wKOCjFSThQoBE4gc8qOBx1Mzi67xE43wwTOL+egTim\r\nMIM4Os3hN7mslDiHAr84mCHuN8+hOjjyF8c3ol0IONA0LDjhe9I3+MePON709DcoC4k4K2tnOIk+\r\nJjgi7aU4xQZxOA4pJjiKI+U3lTeYN1kNAzgm9UA49RkvOGhtezhtZtw3eRWoOFBwDjgQubs3j+yu\r\nOMTaRzj6tQ04py49OIKeLjgoJH448rUDOGqATTjczE44O8ohONdryjdAuIE3Pg4+OCTslDdv7rE3\r\nZa0VOEBK7jd08xE4Hn3WN4xfnDhI2kw4ABXtN2Drzjebm384FqRcOM0KtTfKLNU3AgTmN683AzhV\r\nS9U3103JN6Pi4jf5RYQ3LOdAOGhSBzgmvQY4JiwbONEbZjhAqBI4eulzOD9m6jfOCvo3pdKBN9Bq\r\nkThZp7c3F8UzOKjUsjduYRE4SBLMN+viGjiIGbg3WCQnOMJvATijVng3RJdFOLzZPDjGwQI4ZUOt\r\nNyVobDddSYE3Kbq4NxiBgjdu07o3oYuINz1vQDjAckM4AouRNyj63TdqTAQ4zavYNyXKTzfUX244\r\nSVuKNw7Sgjg5EQ44ms+QN/YwJze3lwY4uHLjN7gEizdAX3E3q9E3OMxSNTcpIkU4HdtJN2ARkDfN\r\nVoo3vtUmOGbU2zcttOg3BHp8N3WPgjcoxtY3JuFJN1DK8Tcy+pI3WvSoN89yRzhTpbc3jKDqNw6g\r\nmjdDybY3e+C4N9Ds6Tfyo3o3JhWtN7AJ2zc8/Fo3QHBTN7cZ6zcqlxI4dTgAOHavbjhd3do3OILH\r\nN50HsDfgb7w3zvmYN1whNDhNxvI3NW73N1SxbTcOTSk4qM+gN6YhEjh2n4U3z7ULOJDqnzfypK43\r\nK0pFONIyLzhXldU30OAaOEFFKzidbmw34WBpN6DznjfWMcs3nCGpNz0PMTieLVg4phUROPD0EjiK\r\nEbg3GlTJN93iFzg7mU43nOLzN1bHKziYuZM3ftT0N3kIhDerT8A35DIuOLZSPDe1jog36tGaN+XQ\r\nsze0rsE3f9ifN0FAvDchdPg3ekC+N9qT7zfBD2U3fOiYN2iIdzdIwfM3Dw+CN/emyzenMO03JvlP\r\nNxBYmjdqA6s3lwG8N/v5vTd1lac3dvWGNyz+1jcF16U3Occ0N/Ln5zc+rts3/mhnOHsGezdhUZY3\r\nLkL8NzgsnjcSJSM3EW2uNxCR7zZTYp43MmHgNw6Hgzdc4q03jMqRN90gzTd33q03o9owNybydzc0\r\n4oQ3Roz9N1VpkjcbMs03//28N8jTqjewpLY30ADkN6balDffpK43eIt7N/QnlTdLHZA3dnJQN221\r\nszeY9+c3ii8ZN4qy+Dd8qEc3gNDRN3B8tzfuPTI3PrhKN7yHMzfVgjQ3MJPsN9LA3Tc5NJM3arVN\r\nN6Eeojc8RiU40sLANxiO2DeTGz03xO0qN4SkGzfi82Q3PngiNynAQjdV3aw3lm61N3hWhjdJTrE3\r\n0WtGNy6Xlzeq+eo3U4SbN5GrFDgLp3k33m0nN/jXSzfiiOA3kyw/N5jXXTd6oJY30U1ZN9IUODec\r\nmAY4wqmGN+c2kzcqXGk3FF/WNyRolzcMFXU3+QqyN0bcHDeqFp436n+CNyrG2TeJm5M3u+F6N6CP\r\ndTe9JCc3d7cSNyqJFDexO4Q3Ci2ENzomojffts42jugtNzXPEjdkJiE3Kn2wN25ZSTcyAzA35UCE\r\nN9Erzjf9/UY3uyRqN92JZDeeoH43oH0SN+q7YzcTQz83/hduN4GglTe9PA837uCANwCkVTeMi4w3\r\nH2k/N9scmDdwqDw3zY9KN+PglTcKi8M2lsO4N1iuHzgRbU83eyiLNwwXnjcAYaw3UlZ5Ny23nDfn\r\njj03jnJ4N9xtNTeMZ3s3QRLaN/h4nDfrKCQ3bq25N4Q9szcgaa03faVeNw5Qrjc2RhQ32uthN6Ig\r\nQjcRI+82CBplNwv5Cjgr3og3gNJhN3WigTcEAi035ZtfNzLM+Dbq5eg3ccMnNwE+hTf++0c3llP9\r\nN+sO4zcceno3zf3ANxJ7KDei6u028AQoN6E1LzdNjlU3iT2LN9rUXjcpy4Y3p9SeNyKOOjdyLlM3\r\n8Kd0NxTGJTfpNJU3wnF+N6Oi4DZt9S037iTfNSF4yDVKAwE2PLwFNrSkKDaOVJs133xTNhKqHza2\r\npDU2ovmsNeZ1Gzbr8A82UEJrNvQTBDY4Pzs2frUYNmt30jWCRCg2vZ0VNoltIzZVD4o1TxsxNt9u\r\n4TUZgTs2IphNNjhwFDZjjjE2mklNNrCXOTaWrwA2BlpLNrpjIDbkYgU2Z/bnNd9aGjZchVA26N8m\r\nNqeWQDb8LtM1hqllNvOWJjYCsPU1tDkwNuygGzanya01SiTHNQzcwDXJwwk2cKO2Npr43TUFBmA2\r\nIjXrNaxvuTWebCI2YDXoNTqWKTbwhxU2qviTNe5LVjYRRTQ2ehaHNlC+EjZExdc1CY/3NVphGTY2\r\nA2E1x+YnNpir2zVVCAU2gtjoNRWuETZx0go2Wf6JNbVENzaSBgs2JN6cNSrQTzb4lAc2FmeENuac\r\nUzZSAwo2y98vNtKgKDZY3sQ1WfARNoy5ATYXKN415GCyNSanAjbnnYM122njNc4npDVCMa41nnCS\r\nNfpxBzZZm9s1EhPvNa6cBzZ25g42GEUjNm6EtDU0idI179URNq2J1zUFbKU10OEKNlrR3DUIZWs1\r\npIztNRIxBjZGYQI28/aBNTMAEzaIIns1UxjnNV7u2TVUoOQ18obuNf5trDXyzIk1m9ygNbaoDzYM\r\njRo28sngNcLCBjazN/Q19l/uNWIaBDYoMSQ2UCzPNV2aMTbX+/k1ZFlLNtQDuzXavEo2YUIVNnJC\r\nATbgOHg1KWiDNS//1zUckSg2ksH0NY1wEjaLqOo1zSLZNTq/Ajbn2JQ1IdW1Nf68MzZl4e81jHom\r\nNvrq0zXJwAY2C8lWNd8pKDanBOc1AK7KNQY5DDZEsN01DOxHNrLHvjUpupU1WMFKNYRF1TV98AQ2\r\nwbIJNoxU5TWyRAU2OcXuNf/8EDYGINA10tSjNSkF4TUGUZw1YVYENqJ/zTWBd3Q23K81NtCDfTYi\r\nTc01H/2YNTBbkTVUJBw2EJEoNQa03jWF1IE1iG+mNU4/0zXR9d01+14ENkjs7DXosqE1DAXeNSy3\r\n/zWjM+I1e2y0NQQZvDU87So2R/rUNWx3qzUKPa41Ip65Nbw0ADbQBwQ2QEjENYYMDzY7U9A1vLzP\r\nNWXZpzWE9881GDWyNQBi2TVQ2941vrEPNs6dhDV81tg1eIIJNlKrzzVt9/41BVbNNXSj7TXGj4Q1\r\nCjQKNhKSizUqYew1rdbRNWxtnjVWzsg1/TjcNSQ9wTX8aoU1RMTfNX1QDDaDvq41fqRLNp7TwDVj\r\nsNM1ohuJNYfvpzWRZCA2fHodNhgwxzUGMMc1TnoTNpqiPjZtYcc1b4WWNQpZEDZ7gQs2YhnRNZeE\r\nmTXwOA42sEyyNdDgFzYVi7g1uDfPNVJl2DVCNaM1zICvNUi25TXUVa01klyeNe7L3TWqQcc1nFsc\r\nNorTkTXVox02iu+NNUDVuzVnYxo2ZbffNXxYlzW5Hg02NtueNXkXFTbqZbk1a42nNalnoDVf8g02\r\nKIgZNkVujzUicOc1oc6TNaSmjTVz4Pw1z2sDNvrzzTVlrLY1YHoONlC/pjVjRxs2L02oNelFwTXa\r\nkYk1RjO9NbwAETYCWK01GS6vNd4U2DUfGUA2cE9sNRZd1DUqBcs1znPTNVPzJTY4HNk1XIfhNRoC\r\nxTUUfjo2A6btNZtpnTWhiMM1VgPRNaJBsjXfUZA1iLONNZcnizVKbgA2wQ2KNTxTejVyET02qz/j\r\nNZlJmzVCfSI2rkhgNUe6CTbwn7c11X4XNsqL6zUUDeE1dKtmNeWG/zXBcpc1XIMHNkb1sTV5W+k1\r\n8tP/NW9wzzX/Zug1rFOMNSjCjTXwTvM1l76CNRB53zWKFZk1FO2JNectyjWH36c1V3rxNfbntTXz\r\nkAc2w0L6NbZL4DV/bKk1Qr6mNeIHpjX+bqg1WN3iNYLmsTV8Ydc1VHIWNnH0DTb4pbg1ZwjGNTVJ\r\nyzXbSrA1pKBYNn2kKDV6CNk1+FeINTvNnTUw4cQ1uAZ+NU0vfzVO8Ps1MO6lNdTTkDUq7AU2N2yZ\r\nNZ/brjXRQ9k1tFNQNt5eDDZTubE1RQoWNoyfxjUc0Mg1sG2mNemYADYnfRk2g8+RNSDdtjWorQg2\r\nlfrDNYLWATb93pY15JIBNg7ebzXD/7g1ZSXiNbU8FTavOBs2KifxNUkWszW1bLQ1XBm3NZEr0DUC\r\ntb41hS7oNQ98/DWhfvk1S12uNaxmtTXnoKk1JMzDNRsU9TVo2Pc1XBTmNe0S+DU51Ok1AbCsNUC5\r\nCDYSj/Y13CDSNS9woDVzrNQ1Hz2wNUOBrjXphjI2UGdiNfnc2zWCfZg1FT36NTvtmDXyAhU2CuYo\r\nNh35uTUafSU2pHSlNVqcojXCtOc10k0DNrWrzjWnuvY1hM/uNQV5szUUygg2AIC0NQ==",
                            "noiseTrainingType" : "default"
                          }
                        }
                    ],
                    "start" : 14022,
                    "duration" : 27,
                    "mediaStart" : 173,
                    "mediaDuration" : 27,
                    "scalar" : 1,
                    "metadata" : {
                      "clipSpeedAttribute" : false
                    },
                    "animationTracks" : {

                    }
                  }
                ]
              },
              {
                "trackIndex" : 16,
                "medias" : [
                ]
              },
              {
                "trackIndex" : 17,
                "medias" : [
                ]
              }
            ]
          }
        }
      ]
    },
    "trackAttributes" : [
      {
        "ident" : "",
        "audioMuted" : false,
        "videoHidden" : false,
        "magnetic" : false,
        "matte" : 0,
        "metadata" : {
          "IsLocked" : "False",
          "WinTrackHeight" : "108.923076923077",
          "trackHeight" : "86"
        }
      },
      {
        "ident" : "",
        "audioMuted" : false,
        "videoHidden" : false,
        "magnetic" : false,
        "matte" : 0,
        "metadata" : {
          "IsLocked" : "False",
          "WinTrackHeight" : "108.923076923077",
          "trackHeight" : "40"
        }
      },
      {
        "ident" : "",
        "audioMuted" : false,
        "videoHidden" : false,
        "magnetic" : false,
        "matte" : 0,
        "metadata" : {
          "IsLocked" : "False",
          "WinTrackHeight" : "108.923076923077",
          "trackHeight" : "40"
        }
      },
      {
        "ident" : "",
        "audioMuted" : false,
        "videoHidden" : false,
        "magnetic" : false,
        "matte" : 0,
        "metadata" : {
          "IsLocked" : "False",
          "WinTrackHeight" : "108.923076923077",
          "trackHeight" : "102"
        }
      },
      {
        "ident" : "",
        "audioMuted" : false,
        "videoHidden" : false,
        "magnetic" : false,
        "matte" : 0,
        "metadata" : {
          "IsLocked" : "False",
          "WinTrackHeight" : "108.923076923077",
          "trackHeight" : "150"
        }
      },
      {
        "ident" : "",
        "audioMuted" : false,
        "videoHidden" : false,
        "magnetic" : false,
        "matte" : 0,
        "metadata" : {
          "IsLocked" : "False",
          "WinTrackHeight" : "108.923076923077",
          "trackHeight" : "150"
        }
      },
      {
        "ident" : "",
        "audioMuted" : false,
        "videoHidden" : false,
        "magnetic" : false,
        "matte" : 0,
        "metadata" : {
          "IsLocked" : "False",
          "WinTrackHeight" : "108.923076923077",
          "trackHeight" : "102"
        }
      },
      {
        "ident" : "",
        "audioMuted" : false,
        "videoHidden" : false,
        "magnetic" : false,
        "matte" : 0,
        "metadata" : {
          "IsLocked" : "False",
          "WinTrackHeight" : "108.923076923077",
          "trackHeight" : "54"
        }
      },
      {
        "ident" : "",
        "audioMuted" : false,
        "videoHidden" : false,
        "magnetic" : false,
        "matte" : 0,
        "metadata" : {
          "IsLocked" : "False",
          "WinTrackHeight" : "108.923076923077",
          "trackHeight" : "86"
        }
      },
      {
        "ident" : "",
        "audioMuted" : false,
        "videoHidden" : false,
        "magnetic" : false,
        "matte" : 0,
        "metadata" : {
          "IsLocked" : "False",
          "WinTrackHeight" : "108.923076923077",
          "trackHeight" : "86"
        }
      },
      {
        "ident" : "",
        "audioMuted" : false,
        "videoHidden" : false,
        "magnetic" : false,
        "matte" : 0,
        "metadata" : {
          "IsLocked" : "False",
          "WinTrackHeight" : "108.923076923077"
        }
      },
      {
        "ident" : "",
        "audioMuted" : false,
        "videoHidden" : false,
        "magnetic" : false,
        "matte" : 0,
        "metadata" : {
          "IsLocked" : "False",
          "WinTrackHeight" : "108.923076923077"
        }
      },
      {
        "ident" : "",
        "audioMuted" : false,
        "videoHidden" : false,
        "magnetic" : false,
        "matte" : 0,
        "metadata" : {
          "IsLocked" : "False",
          "WinTrackHeight" : "108.923076923077"
        }
      },
      {
        "ident" : "",
        "audioMuted" : false,
        "videoHidden" : false,
        "magnetic" : false,
        "matte" : 0,
        "metadata" : {
          "IsLocked" : "False",
          "WinTrackHeight" : "108.923076923077"
        }
      },
      {
        "ident" : "",
        "audioMuted" : false,
        "videoHidden" : false,
        "magnetic" : false,
        "matte" : 0,
        "metadata" : {
          "IsLocked" : "False",
          "WinTrackHeight" : "108.923076923077"
        }
      },
      {
        "ident" : "",
        "audioMuted" : false,
        "videoHidden" : false,
        "magnetic" : false,
        "matte" : 0,
        "metadata" : {
          "IsLocked" : "False",
          "WinTrackHeight" : "108.923076923077"
        }
      },
      {
        "ident" : "",
        "audioMuted" : false,
        "videoHidden" : false,
        "magnetic" : false,
        "matte" : 0,
        "metadata" : {
          "IsLocked" : "False",
          "WinTrackHeight" : "108.923076923077"
        }
      },
      {
        "ident" : "",
        "audioMuted" : false,
        "videoHidden" : false,
        "magnetic" : false,
        "matte" : 0,
        "metadata" : {
          "IsLocked" : "False",
          "WinTrackHeight" : "108.923076923077"
        }
      }
    ],
    "captionAttributes" : {
      "enabled" : true,
      "fontName" : "Arial",
      "fontSize" : 32,
      "backgroundColor" : [ 0, 0, 0, 127],
      "foregroundColor" : [ 255, 255, 255, 255],
      "lang" : "en",
      "alignment" : 0,
      "defaultFontSize" : true,
      "opacity" : 0.5,
      "backgroundEnabled" : true,
      "backgroundOnlyAroundText" : true
    },
    "backgroundColor" : [ 0, 0, 0, 255]
  },
  "metadata" : {
    "AutoSaveFile" : "",
    "CanvasZoom" : 75,
    "Date" : "2020-01-27 11:33:13 PM",
    "Fit" : 0,
    "IsAutoSave" : "0",
    "Language" : "ENU",
    "ProfileName" : "MP4 only (up to 720p)",
    "ProjectDimensionsChanged" : "0",
    "Title" : "CamtasiaTemplateWindows",
    "audioNarrationNotes" : "",
    "calloutStyle" : "All",
    "canvasDetached" : "False",
    "canvasPositionHeight" : "0",
    "canvasPositionLeft" : "0",
    "canvasPositionTop" : "0",
    "canvasPositionWidth" : "0",
    "firstMedia" : true
  },
  "audioPlaybackRate" : 44100
,
  "videoPlaybackRate" : 30

}
